<svg enable-background="new 0 0 97.9 97.9" viewBox="0 0 97.9 97.9" xmlns="http://www.w3.org/2000/svg"><path d="m28.1 0h41.6c15.5 0 28.2 12.6 28.2 28.1v41.6c0 15.5-12.6 28.2-28.2 28.2h-41.6c-15.5 0-28.1-12.6-28.1-28.1v-41.7c0-15.5 12.6-28.1 28.1-28.1z" fill="#383838"/><ellipse cx="52.4" cy="52.5" fill="#feac00" rx="40.6" ry="16.8" transform="matrix(.7071 -.7071 .7071 .7071 -21.7268 52.4468)"/><path d="m8.3 44h81.2v9.9h-81.2z" fill="#feac00" transform="matrix(.7071 -.7071 .7071 .7071 -20.282 48.9491)"/><ellipse cx="45.5" cy="45.5" fill="#fecc31" rx="40.6" ry="16.8" transform="matrix(.7071 -.7071 .7071 .7071 -18.8242 45.4542)"/></svg>