<svg enable-background="new 0 0 97.9 97.9" viewBox="0 0 97.9 97.9" xmlns="http://www.w3.org/2000/svg"><path d="m28.1 0h41.6c15.5 0 28.2 12.6 28.2 28.1v41.6c0 15.5-12.6 28.2-28.2 28.2h-41.6c-15.5 0-28.1-12.6-28.1-28.1v-41.7c0-15.5 12.6-28.1 28.1-28.1z" fill="#383838"/><g stroke="#383838" stroke-miterlimit="10" stroke-width="2"><circle cx="49" cy="49" fill="#0094ff" r="36.3"/><path d="m49 85.3c20 0 36.3-16.3 36.3-36.4 0 6.9-16.3 12.5-36.3 12.5s-36.3-5.6-36.3-12.5c-.1 20.1 16.2 36.4 36.3 36.4z" fill="#006ed6"/><circle cx="49" cy="49" fill="none" r="36.3"/><path d="m49 85.3c-11 0-19.8-16.3-19.8-36.4s8.8-36.3 19.8-36.3 10.9 72.7 0 72.7z" fill="none"/><path d="m85.3 49c0 6.9-16.3 12.5-36.3 12.5s-36.3-5.6-36.3-12.5" fill="none"/><path d="m72.8 21.5c0 4.5-10.7 8.2-23.8 8.2s-23.9-3.7-23.9-8.2" fill="none"/></g></svg>