<svg enable-background="new 0 0 97.9 97.9" viewBox="0 0 97.9 97.9" xmlns="http://www.w3.org/2000/svg"><path d="m28.1 0h41.6c15.5 0 28.2 12.6 28.2 28.1v41.6c0 15.5-12.6 28.2-28.2 28.2h-41.6c-15.5 0-28.1-12.6-28.1-28.1v-41.7c0-15.5 12.6-28.1 28.1-28.1z" fill="#383838"/><path d="m16.5 74.6 15.2 7.2 18.7-8.7-.3 2.5 15.2 7.2 2.7-22.7 15.7-16.6-15.2-7.1-1.8 1.8-5.2-19.9-15.2-7.2z" fill="#feac00"/><path d="m14.2 34.8 18.9-4.3 13.2-19.4 5.2 20 17 5.3-15.7 16.6-2.7 22.6-14.9-9.7-18.7 8.7 6.5-22.5z" fill="#fecc31"/></svg>