<svg enable-background="new 0 0 97.9 97.9" viewBox="0 0 97.9 97.9" xmlns="http://www.w3.org/2000/svg"><path d="m28.1 0h41.6c15.5 0 28.2 12.6 28.2 28.1v41.6c0 15.5-12.6 28.2-28.2 28.2h-41.6c-15.5 0-28.1-12.6-28.1-28.1v-41.7c0-15.5 12.6-28.1 28.1-28.1z" fill="#383838"/><path d="m25.8 60.5h22.5c3.5 0 6.3 2.8 6.3 6.3v4.2c0 3.5-2.8 6.3-6.3 6.3h-22.5c-3.5 0-6.3-2.8-6.3-6.3v-4.2c-.1-3.4 2.8-6.3 6.3-6.3z" fill="#29abe2"/><path d="m64.1 60.5h8.1c3.5 0 6.3 2.8 6.3 6.3v4.2c0 3.5-2.8 6.3-6.3 6.3h-8.1c-3.5 0-6.3-2.8-6.3-6.3v-4.2c-.1-3.4 2.7-6.3 6.3-6.3z" fill="#f793be"/><path d="m26.4 40.5h45c3.9 0 7 3.1 7 7v2.8c0 3.9-3.1 7-7 7h-45c-3.9 0-7-3.1-7-7v-2.8c0-3.8 3.2-7 7-7z" fill="#29cbff"/><path d="m41.6 20.5h30.5c3.5 0 6.3 2.8 6.3 6.3v4.2c0 3.5-2.8 6.3-6.3 6.3h-30.5c-3.5 0-6.3-2.8-6.3-6.3v-4.2c0-3.5 2.8-6.3 6.3-6.3z" fill="#d9e021"/><path d="m25.8 20.5c3.5 0 6.4 2.8 6.4 6.3v4.2c0 3.5-2.8 6.3-6.3 6.3-3.5 0-6.3-2.8-6.3-6.3v-4.2c-.2-3.5 2.7-6.3 6.2-6.3z" fill="#f793be"/></svg>