<svg enable-background="new 0 0 97.9 97.9" viewBox="0 0 97.9 97.9" xmlns="http://www.w3.org/2000/svg"><path d="m28.1 0h41.6c15.5 0 28.2 12.6 28.2 28.1v41.6c0 15.5-12.6 28.2-28.2 28.2h-41.6c-15.5 0-28.1-12.6-28.1-28.1v-41.7c0-15.5 12.6-28.1 28.1-28.1z" fill="#383838"/><g stroke="#383838" stroke-miterlimit="10" stroke-width="2"><path d="m62 52.7-13-15.7-13 15.6h-17.7v21.1c9 3.6 19.5 5.7 30.7 5.7s21.6-2.1 30.7-5.7v-21z" fill="#a03700"/><path d="m48.9 59.1c11.2 0 21.7-2.1 30.7-5.7l-30.6-36.7-30.7 36.7c9 3.6 19.5 5.7 30.6 5.7z" fill="#ff6800"/></g></svg>