<svg enable-background="new 0 0 97.9 97.9" viewBox="0 0 97.9 97.9" xmlns="http://www.w3.org/2000/svg"><path d="m28.1 0h41.6c15.5 0 28.2 12.6 28.2 28.1v41.6c0 15.5-12.6 28.2-28.2 28.2h-41.6c-15.5 0-28.1-12.6-28.1-28.1v-41.7c0-15.5 12.6-28.1 28.1-28.1z" fill="#383838"/><path d="m83.3 67.4-56.6 15.7c-2.1.6-4.4-.4-5.4-2.3l-9.6-18.3c-1.4-2.6 0-5.9 2.9-6.7l56.6-15.8c2.1-.6 4.4.4 5.4 2.3l9.6 18.3c1.3 2.8-.1 6-2.9 6.8z" fill="#00a2d9"/><path d="m11.2 60.6 75.5 2.3v-25.1l-75.5-2.8z" fill="#00a2d9"/><path d="m83.3 42.1-56.6 15.8c-2.1.6-4.4-.4-5.4-2.3l-9.6-18.3c-1.4-2.6 0-5.9 2.9-6.7l56.6-15.7c2.1-.6 4.4.4 5.4 2.3l9.6 18.3c1.3 2.6-.1 5.8-2.9 6.6z" fill="#0cf"/></svg>