<svg enable-background="new 0 0 97.9 97.9" viewBox="0 0 97.9 97.9" xmlns="http://www.w3.org/2000/svg"><path d="m28.1 0h41.6c15.5 0 28.2 12.6 28.2 28.1v41.6c0 15.5-12.6 28.2-28.2 28.2h-41.6c-15.5 0-28.1-12.6-28.1-28.1v-41.7c0-15.5 12.6-28.1 28.1-28.1z"/><g stroke="#000" stroke-miterlimit="10" stroke-width="2"><path d="m22.4 31.4-10.7 10.7c-3.9 3.9 2.4 16.7 14.2 28.4s24.5 18.1 28.4 14.1l10.7-10.7z" fill="#685dd8"/><path d="m33 20.8-10.7 10.7c-3.9 3.9 2.4 16.7 14.1 28.4s24.5 18.1 28.4 14.1l10.7-10.7z" fill="#685dd8"/><path d="m43.6 10.2-10.7 10.7c-3.9 3.9 2.4 16.6 14.1 28.4s24.4 18.1 28.4 14.1l10.7-10.7z" fill="#685dd8"/><ellipse cx="64.9" cy="31.5" fill="#887dfe" rx="10.1" ry="30.1" transform="matrix(.7071 -.7071 .7071 .7071 -3.2408 55.1047)"/></g></svg>