<svg viewBox="0 0 97.9 97.9" xmlns="http://www.w3.org/2000/svg"><rect fill="#fff" height="97.9" rx="28.15" width="97.9"/><g stroke="#fff" stroke-miterlimit="10" stroke-width="2"><circle cx="48.95" cy="48.95" fill="#0094ff" r="36.33"/><path d="m48.95 85.28c20.06 0 36.33-16.26 36.33-36.33 0 6.91-16.26 12.51-36.33 12.51s-36.33-5.6-36.33-12.51c0 20.06 16.26 36.33 36.33 36.33z" fill="#006ed6"/><circle cx="48.95" cy="48.95" fill="none" r="36.33"/><path d="m48.95 85.28c-10.94 0-19.8-16.26-19.8-36.33s8.86-36.33 19.8-36.33 10.94 72.65 0 72.65z" fill="none"/><path d="m85.28 48.95c0 6.91-16.26 12.51-36.33 12.51s-36.33-5.6-36.33-12.51" fill="none"/><path d="m72.78 21.51c0 4.53-10.67 8.21-23.83 8.21s-23.83-3.68-23.83-8.21" fill="none"/></g></svg>