<svg fill="none" height="19" viewBox="0 0 20 19" width="20" xmlns="http://www.w3.org/2000/svg"><path clip-rule="evenodd" d="m4 1h1v2c0 .55228.44772 1 1 1h2c.55228 0 1-.44772 1-1v-2h1.2325c.4941 0 .9707.18289 1.338.51341l3.7674 3.39073c.4215.37928.6621.91961.6621 1.48658v6.60928c0 1.1046-.8954 2-2 2h-10c-1.10457 0-2-.8954-2-2v-10c0-1.10457.89543-2 2-2zm2 6c-.55228 0-1 .44772-1 1v4c0 .5523.44772 1 1 1h6c.5523 0 1-.4477 1-1v-4c0-.55228-.4477-1-1-1z" fill="#fe752c" fill-rule="evenodd"/><g stroke-width="2"><path d="m18.5 2-16 16" stroke="#fff0e9"/><path d="m17 1-16 16" stroke="#fe752c"/></g></svg>