<svg viewBox="0 0 97.9 97.9" xmlns="http://www.w3.org/2000/svg" xmlns:xlink="http://www.w3.org/1999/xlink"><clipPath id="a"><path d="m85.28 48.95c0-20.06-16.26-36.33-36.33-36.33v72.66c20.06 0 36.33-16.26 36.33-36.33z"/></clipPath><clipPath id="b"><path d="m12.62 48.95c0-20.06 16.27-36.33 36.33-36.33v72.66c-20.06 0-36.33-16.26-36.33-36.33z"/></clipPath><rect fill="#fff" height="97.9" rx="28.15" width="97.9"/><path d="m48.95 7.62h39.2v78.98h-39.2z" fill="none"/><path d="m85.28 48.95c0-20.06-16.26-36.33-36.33-36.33v72.66c20.06 0 36.33-16.26 36.33-36.33z" fill="#ffc245"/><g clip-path="url(#a)"><path d="m85.28 38.94c0-20.06-16.26-36.33-36.33-36.33v72.65c20.06 0 36.33-16.26 36.33-36.33z" fill="#fee07c"/></g><path d="m12.62 48.95c0 20.06 16.26 36.33 36.33 36.33v-72.66c-20.06 0-36.33 16.27-36.33 36.33z" fill="#fee07c"/><g clip-path="url(#b)"><path d="m12.62 58.82c0-20.06 16.26-36.33 36.33-36.33v72.65c-20.06 0-36.33-16.26-36.33-36.33z" fill="#ffc245"/></g></svg>