<svg viewBox="0 0 97.9 97.9" xmlns="http://www.w3.org/2000/svg"><rect fill="#fff" height="97.9" rx="28.15" width="97.9"/><path d="m83.26 67.38-56.56 15.74c-2.12.59-4.37-.38-5.39-2.34l-9.57-18.34c-1.37-2.63.03-5.86 2.89-6.66l56.56-15.74c2.12-.59 4.37.38 5.39 2.34l9.57 18.34c1.37 2.63-.03 5.86-2.89 6.66z" fill="#00a2d9"/><path d="m11.21 60.6 75.48 2.34v-25.19l-75.48-2.84z" fill="#00a2d9"/><path d="m83.26 42.12-56.56 15.74c-2.12.59-4.37-.38-5.39-2.34l-9.57-18.34c-1.37-2.63.03-5.86 2.89-6.66l56.56-15.74c2.12-.59 4.37.38 5.39 2.34l9.57 18.34c1.37 2.63-.03 5.86-2.89 6.66z" fill="#0cf"/></svg>