<svg fill="none" height="23" viewBox="0 0 23 23" width="23" xmlns="http://www.w3.org/2000/svg"><path d="m11.5 22c5.799 0 10.5-4.701 10.5-10.5 0-5.79899-4.701-10.5-10.5-10.5-5.79899 0-10.5 4.70101-10.5 10.5 0 5.799 4.70101 10.5 10.5 10.5z" fill="#fe752c" stroke="#fff0e9" stroke-miterlimit="10" stroke-width="2"/><path d="m11.5 22c5.7977 0 10.5-4.9232 10.5-11 0 2.0922-4.6994 3.7878-10.5 3.7878-5.80058 0-10.5-1.6956-10.5-3.7878 0 6.0738 4.69942 11 10.5 11z" fill="#fe752c"/><g stroke="#fff0e9" stroke-miterlimit="10" stroke-width="2"><path d="m10.6561 22c-3.12512 0-5.6561-4.6994-5.6561-10.5 0-5.80058 2.53098-10.5 5.6561-10.5 3.1252 0 3.1252 20.9971 0 20.9971z"/><path d="m22 11c0 2.2094-4.6994 4-10.5 4-5.80058 0-10.5-1.7906-10.5-4"/><path d="m18 3c0 1.10353-2.9104 2-6.5 2-3.58959 0-6.5-.89647-6.5-2"/></g></svg>