<svg fill="none" height="496" viewBox="0 0 425 496" width="425" xmlns="http://www.w3.org/2000/svg"><g stroke="#fff" stroke-linecap="round" stroke-miterlimit="10"><path d="m.5 147.48c239.6 72.38 226.34-79.1 423.36-146.98"/><path d="m.5 220.97c197.02 68.09 226.34-152.59 423.36-220.47"/><path d="m.5 220.97c197.02 68.1 226.34-5.61 423.36-73.49"/><path d="m.5 147.48c197.02 68.2 226.34 141.37 423.36 73.49"/><path d="m423.86 147.48c-197.02 67.88-226.34-5.61-423.36-73.4898"/><path d="m.5 73.9902c197.02 67.8798 226.34 361.8298 423.36 293.9598"/><path d="m.5 367.94c197.02 67.88 226.34-152.59 423.36-220.47"/><path d="m.5 367.94c197.02 67.88 226.34-79.1 423.36-146.98"/><path d="m.5 367.94c197.02 67.88 226.34-299.56 423.36-367.44"/><path d="m.5 294.46c197.02 67.87 226.34-226.08 423.36-293.96"/><path d="m.5 294.46c197.02 67.88 226.34-152.59 423.36-220.4698"/><path d="m212.18 495.48c0-33.38 14.66-206.64 211.68-274.51"/><path d="m212.18 495.48c0-33.38-14.66-59.66-211.68-127.54"/><path d="m212.18 495.48c0-33.38 14.66-133.15 211.68-201.03"/><path d="m212.18 495.48c0-33.38-14.66-133.15-211.68-201.03"/><path d="m212.18 495.48c0-33.38-14.66-353.61-211.68-421.4898"/><path d="m212.18 495.48c0-33.38 14.66-280.12 211.68-348"/><path d="m212.18 495.48c0-33.38 14.66-353.61 211.68-421.4898"/><path d="m212.18 495.48c0-33.38 14.66-427.1 211.68-494.98"/></g></svg>