<?xml version="1.0" encoding="UTF-8"?><svg xmlns="http://www.w3.org/2000/svg" viewBox="0 0 432.3 376.89"><defs><style>.d{fill:#ff6900;}.e{fill:#242424;}</style></defs><g id="a"/><g id="b"><g id="c"><g><ellipse class="d" cx="427.83" cy="225.19" rx="3.78" ry="5.29" transform="translate(-44.32 329.24) rotate(-40.19)"/><ellipse class="d" cx="427.83" cy="298.68" rx="3.78" ry="5.29" transform="translate(-91.74 346.58) rotate(-40.19)"/><ellipse class="e" cx="4.47" cy="298.68" rx="5.29" ry="3.78" transform="translate(-226.58 109.36) rotate(-49.81)"/><ellipse class="e" cx="4.47" cy="225.19" rx="5.29" ry="3.78" transform="translate(-170.44 83.29) rotate(-49.81)"/><ellipse class="e" cx="4.47" cy="151.7" rx="5.29" ry="3.78" transform="translate(-114.3 57.22) rotate(-49.81)"/><ellipse class="e" cx="4.47" cy="78.21" rx="5.29" ry="3.78" transform="translate(-58.16 31.16) rotate(-49.81)"/><ellipse class="e" cx="4.47" cy="372.17" rx="5.29" ry="3.78" transform="translate(-282.72 135.42) rotate(-49.81)"/><ellipse class="d" cx="427.83" cy="372.17" rx="3.78" ry="5.29" transform="translate(-139.16 363.93) rotate(-40.19)"/><ellipse class="d" cx="427.83" cy="151.7" rx="3.78" ry="5.29" transform="translate(3.11 311.89) rotate(-40.19)"/><ellipse class="d" cx="427.83" cy="78.21" rx="3.78" ry="5.29" transform="translate(50.53 294.54) rotate(-40.19)"/><ellipse class="d" cx="427.83" cy="4.72" rx="3.78" ry="5.29" transform="translate(97.95 277.19) rotate(-40.19)"/></g></g></g></svg>