<svg enable-background="new 0 0 1900.5 738.5" viewBox="0 0 1900.5 738.5" xmlns="http://www.w3.org/2000/svg"><g fill="#4c82ba"><circle cx="1132.5" cy="426.6" r="1.1"/><circle cx="1167.2" cy="449.7" r="1.1"/><circle cx="1560.6" cy="377.7" r="1.1"/><circle cx="1263.9" cy="411.9" r="1.1"/><circle cx="1632.6" cy="385.1" r="1.1"/><circle cx="1745.1" cy="394.6" r="1.1"/><circle cx="1574.8" cy="218" r="1.1"/><circle cx="1560.6" cy="303.1" r="1.1"/><circle cx="1598" cy="257.9" r="1.1"/><circle cx="1748.3" cy="212.7" r="1.1"/><circle cx="1834.5" cy="283.1" r="1.1"/><circle cx="1469.9" cy="447.6" r="1.1"/><circle cx="1404.7" cy="479.2" r="1.1"/><circle cx="1416.3" cy="430.8" r="1.1"/><circle cx="61.3" cy="303.6" r="1.1"/><circle cx="107" cy="445.5" r="1.1"/><circle cx="141.7" cy="415.6" r="1.1"/><circle cx="236.3" cy="461.3" r="1.1"/><circle cx="113.3" cy="544.9" r="1.1"/><circle cx="148" cy="350.9" r="1.1"/><circle cx="228.4" cy="328.9" r="1.1"/><circle cx="118" cy="232.7" r="1.1"/><circle cx="256.8" cy="226.4" r="1.1"/><circle cx="182.7" cy="175.9" r="1.1"/><circle cx="477.7" cy="141" r="1.1"/><circle cx="346.6" cy="357.2" r="1.1"/><circle cx="348.2" cy="467.6" r="1.1"/><circle cx="384.5" cy="511.8" r="1.1"/><circle cx="45.5" cy="149.1" r="1.1"/><circle cx="37.6" cy="514.9" r="1.1"/><circle cx="578.4" cy="153.9" r="1.1"/><circle cx="547.7" cy="130.2" r="1.1"/><circle cx="1358.7" cy="66.9" r="1.1"/><circle cx="1453.4" cy="130.2" r="1.1"/><circle cx="1833.4" cy="160.2" r="1.1"/><circle cx="1324.2" cy="216.4" r="1.1"/><circle cx="1319.4" cy="307.8" r="1.1"/><circle cx="1395.1" cy="262.1" r="1.1"/><circle cx="1455" cy="309.4" r="1.1"/><circle cx="341.9" cy="266.9" r="1.1"/><circle cx="412.9" cy="230.6" r="1.1"/><circle cx="457" cy="329.9" r="1.1"/><circle cx="515.3" cy="370.9" r="1.1"/><circle cx="600.5" cy="271.6" r="1.1"/><circle cx="712.4" cy="251.1" r="1.1"/><circle cx="1101.8" cy="224.3" r="1.1"/><circle cx="895.3" cy="210.1" r="1.1"/><circle cx="977.3" cy="323.6" r="1.1"/><circle cx="985.2" cy="249.5" r="1.1"/><circle cx="1183.8" cy="153.3" r="1.1"/><circle cx="928.4" cy="147" r="1.1"/><circle cx="808.6" cy="252.7" r="1.1"/><circle cx="671.4" cy="350.4" r="1.1"/><circle cx="767.6" cy="348.8" r="1.1"/><circle cx="627.3" cy="437.1" r="1.1"/><circle cx="491.7" cy="465.5" r="1.1"/><circle cx="406" cy="407.2" r="1.1"/><circle cx="863.8" cy="413.5" r="1.1"/><circle cx="1133.4" cy="323.6" r="1.1"/><circle cx="1234.3" cy="257.4" r="1.1"/><circle cx="1289.5" cy="164.4" r="1.1"/><circle cx="1205.9" cy="88.7" r="1.1"/><circle cx="91.2" cy="93.4" r="1.1"/><circle cx="1884.9" cy="455" r="1.1"/><circle cx="55" cy="643.7" r="1.1"/><circle cx="23.4" cy="413.5" r="1.1"/><circle cx="255.2" cy="582.2" r="1.1"/><circle cx="364" cy="662.6" r="1.1"/><circle cx="550" cy="560.1" r="1.1"/><circle cx="832.2" cy="538" r="1.1"/><circle cx="706.1" cy="492.3" r="1.1"/><circle cx="1034" cy="489.2" r="1.1"/><circle cx="135.4" cy="696.8" r="1.1"/><circle cx="1768.8" cy="528.5" r="1.1"/><circle cx="1841.3" cy="653.1" r="1.1"/><circle cx="1750.4" cy="126" r="1.1"/><circle cx="1843.4" cy="157.5" r="1.1"/><circle cx="1875.5" cy="25.7" r="1.1"/><circle cx="1854.4" cy="173.3" r="1.1"/><circle cx="1600.6" cy="138.6" r="1.1"/><circle cx="1644.8" cy="116.5" r="1.1"/><circle cx="1860" cy="100.9" r="1.1"/><circle cx="1162.6" cy="23.4" r="1.1"/><circle cx="936.6" cy="48.7" r="1.1"/><circle cx="675.1" cy="122.9" r="1.1"/><circle cx="511.2" cy="119.7" r="1.1"/><circle cx="435.9" cy="171" r="1.1"/><circle cx="251" cy="94.5" r="1.1"/><circle cx="279.4" cy="152.8" r="1.1"/><circle cx="175.3" cy="135.5" r="1.1"/><circle cx="148.5" cy="138.6" r="1.1"/><circle cx="94.9" cy="170.2" r="1.1"/><circle cx="236.8" cy="151.2" r="1.1"/><circle cx="243.1" cy="182.8" r="1.1"/><circle cx="293.6" cy="187.5" r="1.1"/><circle cx="33.4" cy="209.6" r="1.1"/><circle cx="385" cy="162.3" r="1.1"/><circle cx="1577.1" cy="62.1" r="1.1"/><circle cx="1692.5" cy="105.5" r="1.1"/><circle cx="1658.9" cy="181.2" r="1.1"/><circle cx="1704.7" cy="252.1" r="1.1"/><circle cx="1734.6" cy="264.7" r="1.1"/><circle cx="1766.2" cy="395.6" r="1.1"/><circle cx="1789.8" cy="447.6" r="1.1"/><circle cx="1881.3" cy="329.4" r="1.1"/><circle cx="1862.3" cy="278.9" r="1.1"/><circle cx="1881.3" cy="266.3" r="1.1"/><circle cx="454.4" cy="59.8" r="1.1"/><circle cx="598.2" cy="103.2" r="1.1"/><circle cx="744.8" cy="88.7" r="1.1"/><circle cx="22.4" cy="255.3" r="1.1"/><circle cx="11.4" cy="78.7" r="1.1"/><circle cx="608.9" cy="200.1" r="1.1"/><circle cx="623.1" cy="174.9" r="1.1"/><circle cx="714.5" cy="159.1" r="1.1"/><circle cx="761.8" cy="190.6" r="1.1"/><circle cx="880.1" cy="110.2" r="1.1"/><circle cx="1361" cy="146.5" r="1.1"/><circle cx="1392.5" cy="160.7" r="1.1"/><circle cx="1390.9" cy="105.5" r="1.1"/><circle cx="1504.4" cy="231.6" r="1.1"/><circle cx="164.3" cy="252.1" r="1.1"/><circle cx="214.2" cy="21.1" r="1.1"/><circle cx="1075.6" cy="72.4" r="1.1"/><circle cx="1105.5" cy="107.1" r="1.1"/><circle cx="1532.8" cy="143.3" r="1.1"/></g></svg>