<svg enable-background="new 0 0 1900.5 738.5" viewBox="0 0 1900.5 738.5" xmlns="http://www.w3.org/2000/svg"><g fill="#4c82ba"><circle cx="1132.5" cy="386.6" r="2.3"/><circle cx="1167.2" cy="409.7" r="2.3"/><circle cx="1560.6" cy="337.7" r="2.3"/><circle cx="1263.9" cy="371.9" r="2.3"/><circle cx="1632.6" cy="345.1" r="2.3"/><circle cx="1745.1" cy="354.6" r="2.3"/><circle cx="1574.8" cy="178" r="2.3"/><circle cx="1560.6" cy="263.1" r="2.3"/><circle cx="1598" cy="217.9" r="2.3"/><circle cx="1748.3" cy="172.7" r="2.3"/><circle cx="1834.5" cy="243.1" r="2.3"/><circle cx="1469.9" cy="407.6" r="2.3"/><circle cx="1404.7" cy="439.2" r="2.3"/><circle cx="1416.3" cy="390.8" r="2.3"/><circle cx="61.3" cy="263.6" r="2.3"/><circle cx="107" cy="405.5" r="2.3"/><circle cx="141.7" cy="375.6" r="2.3"/><circle cx="236.3" cy="421.3" r="2.3"/><circle cx="113.3" cy="504.9" r="2.3"/><circle cx="148" cy="310.9" r="2.3"/><circle cx="228.4" cy="288.9" r="2.3"/><circle cx="118" cy="192.7" r="2.3"/><circle cx="256.8" cy="186.4" r="2.3"/><circle cx="182.7" cy="135.9" r="2.3"/><circle cx="450.7" cy="68.1" r="2.3"/><circle cx="346.6" cy="317.2" r="2.3"/><circle cx="348.2" cy="427.6" r="2.3"/><circle cx="384.5" cy="471.8" r="2.3"/><circle cx="45.5" cy="109.1" r="2.3"/><circle cx="37.6" cy="474.9" r="2.3"/><circle cx="578.4" cy="113.9" r="2.3"/><circle cx="652.5" cy="58.7" r="2.3"/><circle cx="767.6" cy="88.6" r="2.3"/><circle cx="832.2" cy="42.9" r="2.3"/><circle cx="1051.4" cy="53.9" r="2.3"/><circle cx="1335.2" cy="42.9" r="2.3"/><circle cx="1380.4" cy="9.6" r="2.3"/><circle cx="1497.6" cy="61.8" r="2.3"/><circle cx="1453.4" cy="90.2" r="2.3"/><circle cx="1579.6" cy="82.3" r="2.3"/><circle cx="1762.5" cy="72.9" r="2.3"/><circle cx="1833.4" cy="120.2" r="2.3"/><circle cx="1324.2" cy="176.4" r="2.3"/><circle cx="1319.4" cy="267.8" r="2.3"/><circle cx="1395.1" cy="222.1" r="2.3"/><circle cx="1455" cy="269.4" r="2.3"/><circle cx="341.9" cy="226.9" r="2.3"/><circle cx="412.9" cy="190.6" r="2.3"/><circle cx="457" cy="289.9" r="2.3"/><circle cx="515.3" cy="330.9" r="2.3"/><circle cx="600.5" cy="231.6" r="2.3"/><circle cx="712.4" cy="211.1" r="2.3"/><circle cx="1101.8" cy="184.3" r="2.3"/><circle cx="895.3" cy="170.1" r="2.3"/><circle cx="977.3" cy="283.6" r="2.3"/><circle cx="985.2" cy="209.5" r="2.3"/><circle cx="1183.8" cy="113.3" r="2.3"/><circle cx="928.4" cy="107" r="2.3"/><circle cx="808.6" cy="212.7" r="2.3"/><circle cx="671.4" cy="310.4" r="2.3"/><circle cx="767.6" cy="308.8" r="2.3"/><circle cx="627.3" cy="397.1" r="2.3"/><circle cx="491.7" cy="425.5" r="2.3"/><circle cx="406" cy="367.2" r="2.3"/><circle cx="863.8" cy="373.5" r="2.3"/><circle cx="1133.4" cy="283.6" r="2.3"/><circle cx="1234.3" cy="217.4" r="2.3"/><circle cx="1289.5" cy="124.4" r="2.3"/><circle cx="1205.9" cy="48.7" r="2.3"/><circle cx="343.5" cy="48.7" r="2.3"/><circle cx="313" cy="10.4" r="2.3"/><circle cx="91.2" cy="53.4" r="2.3"/><circle cx="1884.9" cy="415" r="2.3"/><circle cx="55" cy="603.7" r="2.3"/><circle cx="23.4" cy="373.5" r="2.3"/><circle cx="255.2" cy="542.2" r="2.3"/><circle cx="364" cy="622.6" r="2.3"/><circle cx="550" cy="520.1" r="2.3"/><circle cx="832.2" cy="498" r="2.3"/><circle cx="706.1" cy="452.3" r="2.3"/><circle cx="1034" cy="449.2" r="2.3"/><circle cx="135.4" cy="656.8" r="2.3"/><circle cx="66" cy="706.2" r="2.3"/><circle cx="1768.8" cy="488.5" r="2.3"/><circle cx="1874.4" cy="729.8" r="2.3"/><circle cx="1841.3" cy="613.1" r="2.3"/><circle cx="1740.9" cy="70.2" r="2.3"/><circle cx="1750.4" cy="86" r="2.3"/><circle cx="1843.4" cy="117.5" r="2.3"/><circle cx="1875.5" cy="9.6" r="2.3"/><circle cx="1854.4" cy="133.3" r="2.3"/><circle cx="1600.6" cy="98.6" r="2.3"/><circle cx="1592.7" cy="78.1" r="2.3"/><circle cx="1636.9" cy="65.5" r="2.3"/><circle cx="1644.8" cy="76.5" r="2.3"/><circle cx="1821.3" cy="37.1" r="2.3"/><circle cx="1835.5" cy="45" r="2.3"/><circle cx="1178.1" cy="32.4" r="2.3"/><circle cx="1223.8" cy="32.4" r="2.3"/><circle cx="960.5" cy="57.6" r="2.3"/><circle cx="936.6" cy="8.7" r="2.3"/><circle cx="679.9" cy="54.5" r="2.3"/><circle cx="675.1" cy="82.9" r="2.3"/><circle cx="690.9" cy="73.4" r="2.3"/><circle cx="511.2" cy="79.7" r="2.3"/><circle cx="495.4" cy="63.9" r="2.3"/><circle cx="514.3" cy="67.1" r="2.3"/><circle cx="375.6" cy="73.4" r="2.3"/><circle cx="372.4" cy="48.2" r="2.3"/><circle cx="251" cy="54.5" r="2.3"/><circle cx="258.9" cy="37.1" r="2.3"/><circle cx="295.2" cy="49.7" r="2.3"/><circle cx="279.4" cy="112.8" r="2.3"/><circle cx="175.3" cy="95.5" r="2.3"/><circle cx="148.5" cy="98.6" r="2.3"/><circle cx="94.9" cy="130.2" r="2.3"/><circle cx="129.6" cy="30.8" r="2.3"/><circle cx="140.6" cy="37.1" r="2.3"/><circle cx="236.8" cy="111.2" r="2.3"/><circle cx="243.1" cy="142.8" r="2.3"/><circle cx="293.6" cy="147.5" r="2.3"/><circle cx="42.9" cy="76.5" r="2.3"/><circle cx="33.4" cy="169.6" r="2.3"/><circle cx="385" cy="122.3" r="2.3"/><circle cx="1550.2" cy="29.2" r="2.3"/><circle cx="1676.3" cy="37.1" r="2.3"/><circle cx="1658.9" cy="141.2" r="2.3"/><circle cx="1704.7" cy="212.1" r="2.3"/><circle cx="1734.6" cy="224.7" r="2.3"/><circle cx="1766.2" cy="355.6" r="2.3"/><circle cx="1789.8" cy="407.6" r="2.3"/><circle cx="1881.3" cy="289.4" r="2.3"/><circle cx="1862.3" cy="238.9" r="2.3"/><circle cx="1881.3" cy="226.3" r="2.3"/><circle cx="422.9" cy="29.2" r="2.3"/><circle cx="454.4" cy="19.8" r="2.3"/><circle cx="578.9" cy="32.4" r="2.3"/><circle cx="571.1" cy="57.6" r="2.3"/><circle cx="706.7" cy="18.2" r="2.3"/><circle cx="22.4" cy="215.3" r="2.3"/><circle cx="11.4" cy="38.7" r="2.3"/><circle cx="39.7" cy="27.7" r="2.3"/><circle cx="763.4" cy="26.1" r="2.3"/><circle cx="772.9" cy="30.8" r="2.3"/><circle cx="608.9" cy="160.1" r="2.3"/><circle cx="623.1" cy="134.9" r="2.3"/><circle cx="714.5" cy="119.1" r="2.3"/><circle cx="761.8" cy="150.6" r="2.3"/><circle cx="880.1" cy="70.2" r="2.3"/><circle cx="1361" cy="106.5" r="2.3"/><circle cx="1392.5" cy="120.7" r="2.3"/><circle cx="1390.9" cy="65.5" r="2.3"/><circle cx="1288.4" cy="48.2" r="2.3"/><circle cx="1504.4" cy="191.6" r="2.3"/><circle cx="164.3" cy="212.1" r="2.3"/><circle cx="191.1" cy="24.5" r="2.3"/><circle cx="996.8" cy="24.5" r="2.3"/><circle cx="1075.6" cy="32.4" r="2.3"/><circle cx="1105.5" cy="67.1" r="2.3"/><circle cx="1436.6" cy="35.6" r="2.3"/><circle cx="1532.8" cy="103.3" r="2.3"/><circle cx="1889.1" cy="67.1" r="2.3"/></g></svg>