<svg fill="none" height="343" viewBox="0 0 513 343" width="513" xmlns="http://www.w3.org/2000/svg" xmlns:xlink="http://www.w3.org/1999/xlink"><clipPath id="a"><path d="m0 .860352h513v342h-513z"/></clipPath><g clip-path="url(#a)"><path d="m0 .860352h513v341.999648h-513z" fill="#007c30"/><path d="m0 230.86h513v-229.999648h-513" fill="#ce1720"/><path d="m100 230.86v-229.999648h-100v341.999648h513-413z" fill="#fff"/><path d="m28 160.46-19.39999-31.4 19.39999-30.7997 19.3 30.7997zm44.6 0-19.3-31.4 19.3-30.7997 19.4 30.7997zm-44.6 81.6-19.39999-31.4 19.39999-30.8 19.3 30.8zm44.6 0-19.3-31.4 19.3-30.8 19.4 30.8z" fill="#ce1720"/><path d="m28 74.6603-16.1-26 16.1-25.6 16 25.6zm44.6 0-16-26 16-25.6 16.1 25.6zm-44.6 244.1997-16.1-26.1 16.1-25.6 16 25.6zm44.6 0-16-26.1 16-25.6 16.1 25.6z" stroke="#ce1720" stroke-width="7"/></g></svg>