<svg fill="none" height="343" viewBox="0 0 513 343" width="513" xmlns="http://www.w3.org/2000/svg" xmlns:xlink="http://www.w3.org/1999/xlink"><clipPath id="a"><path d="m0 .994141h513v342h-513z"/></clipPath><g clip-path="url(#a)"><path d="m0 .994141h513v341.999859h-513z" fill="#d80027"/><path d="m226.8 240.194-9.7-15.6-17.9 4.4 11.9-14.1-9.7-15.6 17.1 6.9 11.8-14.1-1.3 18.4 17.1 6.9-17.9 4.4zm63.8-157.1998-10.1 15.4 11.6 14.2998-17.7-4.8-10.1 15.5-1-18.4-17.7-4.8 17.2-6.5998-1-18.4 11.6 14.3zm-54.4-56.6-2 18.3 16.8 7.6-18 3.8-2 18.3-9.2-16-17.9 3.8 12.3-13.7-9.2-15.9 16.8 7.5zm56.6 136.3998-14.9 10.9 5.8 17.5-14.9-10.8-14.9 11 5.6-17.6-14.9-10.7 18.4-.1 5.6-17.6 5.8 17.5zm-177.8-115.4998 17.3 53.4998h56.2l-45.4 32.9 17.3 53.5-45.4-33-45.5 33 17.4-53.5-45.5-32.9h56.3z" fill="#ffda44"/></g></svg>