<svg fill="none" height="344" viewBox="0 0 513 344" width="513" xmlns="http://www.w3.org/2000/svg" xmlns:xlink="http://www.w3.org/1999/xlink"><clipPath id="a"><path d="m0 .992188h513v342.668h-513z"/></clipPath><g clip-path="url(#a)"><path d="m0 .992188h514.002v342.667812h-514.002z" fill="#d80027"/><path d="m256.5 343.059c94.459 0 171.034-76.574 171.034-171.033 0-94.4596-76.575-171.033812-171.034-171.033812s-171.0332 76.574212-171.0332 171.033812c0 94.459 76.5742 171.033 171.0332 171.033z" fill="#d80027"/><path d="m383.147 172.026-51.701 24.347 27.554 50.098-56.21-10.721-7.114 56.71-39.176-41.781-39.176 41.781-7.114-56.71-56.21 10.721 27.554-50.098-51.701-24.347 51.701-24.348-27.554-50.1976 56.21 10.8206 7.114-56.8103 39.176 41.7815 39.176-41.7815 7.114 56.8103 56.21-10.8206-27.554 50.1976z" fill="#ffda44"/><path d="m257.903 243.765c39.621 0 71.74-32.119 71.74-71.74 0-39.62-32.119-71.739-71.74-71.739s-71.74 32.119-71.74 71.739c0 39.621 32.119 71.74 71.74 71.74z" fill="#d80027"/><path d="m214.618 172.026c-2.104 0-4.108.1-6.212.3.1 12.024 4.409 22.945 11.623 31.562 3.807-10.32 9.518-19.638 16.733-27.754-6.914-2.705-14.328-4.108-22.144-4.108zm26.652 46.591c5.21 1.903 10.821 2.905 16.633 2.905 5.811 0 11.422-1.002 16.632-2.905-2.805-11.122-8.717-21.041-16.632-28.857-7.916 7.816-13.827 17.735-16.633 28.857zm59.516-71.339c-8.516-14.829-24.548-24.749-42.883-24.749-18.336 0-34.267 9.92-42.884 24.749 15.631.1 30.259 4.308 42.884 11.622 12.624-7.314 27.253-11.622 42.883-11.622zm-21.742 28.856c7.214 8.015 12.925 17.434 16.733 27.754 7.214-8.517 11.522-19.538 11.622-31.562-2.004-.2-4.108-.3-6.212-.3-7.715 0-15.23 1.403-22.143 4.108z" fill="#ffda44"/></g></svg>