<svg fill="none" height="343" viewBox="0 0 513 343" width="513" xmlns="http://www.w3.org/2000/svg" xmlns:xlink="http://www.w3.org/1999/xlink"><clipPath id="a"><path d="m0 .992676h513v342h-513z"/></clipPath><g clip-path="url(#a)"><path d="m0 .992676h513v342.000324h-513z" fill="#36b6cc"/><g fill="#ffd400"><path d="m256.5 240.293c37.776 0 68.4-30.624 68.4-68.4 0-37.777-30.624-68.4-68.4-68.4s-68.4 30.623-68.4 68.4c0 37.776 30.624 68.4 68.4 68.4z"/><path d="m256.5 252.493-27.9 41.7-7.1-49.7-43.2 25.5 15.2-47.8-50 4.2 34.4-36.5-46.9-18 46.8-18-34.4-36.5 50 4.2-15.2-47.8003 43.2 25.3999 7.1-49.6999 27.9 41.6999 27.9-41.6999 7.1 49.6999 43.2-25.3999-15.2 47.8003 50-4.2-34.3 36.6 46.8 17.9-46.8 18 34.4 36.5-50-4.2 15.2 47.8-43.2-25.4-7.1 49.7c0-.1-27.9-41.8-27.9-41.8zm0-.8c44.1 0 79.9-35.8 79.9-79.9s-35.8-79.8003-79.9-79.8003-79.9 35.8003-79.9 79.9003 35.8 79.8 79.9 79.8zm-233.7002-222.4003c0-3.2 2.4-5.7 5.7-5.7h11.3c3.2 0 5.7 2.4 5.7 5.7v11.2999c.1 3.1-2.4 5.7001-5.6 5.7001h-11.4c-3.1 0-5.7-2.5-5.7-5.6zm0 45.7c0-3.2 2.4-5.7 5.7-5.7h11.3c3.2 0 5.7 2.4 5.7 5.7v11.3c.1 3.1-2.4 5.7-5.6 5.7h-11.4c-3.1 0-5.7-2.5-5.7-5.6zm0 45.6003c0-3.2 2.4-5.7 5.7-5.7h11.3c3.2 0 5.7 2.4 5.7 5.7v11.3c.1 3.1-2.4 5.7-5.6 5.7h-11.4c-3.1 0-5.7-2.5-5.7-5.6zm0 45.6c0-3.2 2.4-5.7 5.7-5.7h11.3c3.2 0 5.7 2.4 5.7 5.7v11.3c.1 3.1-2.4 5.7-5.6 5.7h-11.4c-3.1 0-5.7-2.5-5.7-5.6zm0 45.7c0-3.2 2.4-5.7 5.7-5.7h11.3c3.2 0 5.7 2.4 5.7 5.7v11.3c.1 3.1-2.4 5.7-5.6 5.7h-11.4c-3.1 0-5.7-2.5-5.7-5.6zm0 45.6c0-3.2 2.4-5.7 5.7-5.7h11.3c3.2 0 5.7 2.4 5.7 5.7v11.3c.1 3.1-2.4 5.7-5.6 5.7h-11.4c-3.1 0-5.7-2.5-5.7-5.6zm0 45.6c0-3.2 2.4-5.7 5.7-5.7h11.3c3.2 0 5.7 2.4 5.7 5.7v11.3c.1 3.1-2.4 5.7-5.6 5.7h-11.4c-3.1 0-5.7-2.5-5.7-5.6zm22.8-22.8c0-3.2 2.4-5.7 5.7-5.7h11.3c3.2 0 5.7 2.4 5.7 5.7v11.3c.1 3.1-2.4 5.7-5.6 5.7h-11.4c-3.1 0-5.7-2.5-5.7-5.6zm0-45.6c0-3.2 2.4-5.7 5.7-5.7h11.3c3.2 0 5.7 2.4 5.7 5.7v11.3c.1 3.1-2.4 5.7-5.6 5.7h-11.4c-3.1 0-5.7-2.5-5.7-5.6zm0-45.7c0-3.2 2.4-5.7 5.7-5.7h11.3c3.2 0 5.7 2.4 5.7 5.7v11.3c.1 3.1-2.4 5.7-5.6 5.7h-11.4c-3.1 0-5.7-2.5-5.7-5.6zm0-45.6c0-3.2 2.4-5.7 5.7-5.7h11.3c3.2 0 5.7 2.4 5.7 5.7v11.3c.1 3.1-2.4 5.7-5.6 5.7h-11.4c-3.1 0-5.7-2.5-5.7-5.6zm0-45.6003c0-3.2 2.4-5.7 5.7-5.7h11.3c3.2 0 5.7 2.4 5.7 5.7v11.3003c.1 3.1-2.4 5.7-5.6 5.7h-11.4c-3.1 0-5.7-2.5-5.7-5.6zm0-45.6c0-3.2 2.4-5.7 5.7-5.7h11.3c3.2 0 5.7 2.4 5.7 5.7v11.3c.1 3.1-2.4 5.6999-5.6 5.6999h-11.4c-3.1 0-5.7-2.5-5.7-5.5999z"/></g></g></svg>