<svg fill="none" height="343" viewBox="0 0 513 343" width="513" xmlns="http://www.w3.org/2000/svg" xmlns:xlink="http://www.w3.org/1999/xlink"><clipPath id="a"><path d="m0 .958496h513v342h-513z"/></clipPath><g clip-path="url(#a)"><path d="m0 .962524h513v341.992476h-513z" fill="#fff"/><path d="m0 114.96h513v113.997h-513z" fill="#0052b4"/><path d="m0 228.958h513v113.997h-513z" fill="#d80027"/><path d="m234.062 112.482v14.866c0 34.148-44.609 44.609-44.609 44.609s-44.609-10.46-44.609-44.609v-14.866l-.145-44.2743 89.217-.2665z" fill="#fff"/><path d="m234.062 112.482v14.866c0 34.148-44.609 44.609-44.609 44.609s-44.609-10.46-44.609-44.609v-14.866l-.145-44.2743 89.217-.2665z" fill="#0052b4"/><path d="m234.063 112.482v14.866c0 34.147-44.609 44.609-44.609 44.609s-44.609-10.461-44.609-44.609v-14.866l14.877 14.866 29.732-22.305 29.743 22.305z" fill="#fff"/></g></svg>