<svg fill="none" height="343" viewBox="0 0 513 343" width="513" xmlns="http://www.w3.org/2000/svg" xmlns:xlink="http://www.w3.org/1999/xlink"><clipPath id="a"><path d="m0 .290039h513v342h-513z"/></clipPath><g clip-path="url(#a)"><path d="m0 .293945h513v341.993055h-513z" fill="#fff"/><path d="m0 .293945h513v113.997055h-513z" fill="#d80027"/><path d="m0 228.29h513v113.997h-513z" fill="#6da544"/><path d="m226.76 215.9h59.48v-25.28l-11.896 5.949-17.844-17.843-17.844 17.843-11.896-5.949zm-34.029-29.74 2.768 8.52h8.958l-7.248 5.265 2.769 8.519-7.247-5.265-7.248 5.265 2.768-8.519-7.247-5.265h8.957zm8.582-29.738 2.769 8.518h8.957l-7.247 5.265 2.769 8.521-7.248-5.266-7.248 5.266 2.769-8.521-7.247-5.265h8.957zm24.536-22.305 2.769 8.519h8.957l-7.247 5.265 2.768 8.521-7.247-5.267-7.248 5.267 2.769-8.521-7.248-5.265h8.958zm94.42 52.043-2.768 8.52h-8.957l7.247 5.265-2.769 8.519 7.247-5.265 7.249 5.265-2.769-8.519 7.247-5.265h-8.957zm-8.582-29.738-2.769 8.518h-8.957l7.247 5.265-2.768 8.521 7.247-5.266 7.248 5.266-2.769-8.521 7.247-5.265h-8.957zm-24.536-22.305-2.769 8.519h-8.957l7.247 5.265-2.768 8.521 7.247-5.267 7.248 5.267-2.768-8.521 7.247-5.265h-8.958zm-30.651-11.154 2.768 8.52h8.959l-7.248 5.266 2.768 8.519-7.247-5.264-7.247 5.264 2.768-8.519-7.248-5.266h8.959z" fill="#ffda44"/></g></svg>