<svg fill="none" height="342" viewBox="0 0 513 342" width="513" xmlns="http://www.w3.org/2000/svg" xmlns:xlink="http://www.w3.org/1999/xlink"><clipPath id="a"><path d="m0 0h513v342h-513z"/></clipPath><g clip-path="url(#a)"><path d="m0 0h513v342h-513z" fill="#10338c"/><path d="m511.699 0v61.3075l-90.358 50.2885h90.358v118.808h-118.408l118.408 65.715v45.881h-53.494l-147.258-81.944v81.944h-111.395v-97.371l-175.1072 97.371h-25.645v-61.308l90.5588-50.288h-90.5588v-118.808h118.4072l-118.4072-65.9159v-45.6801h53.4938l147.2584 81.7433v-81.7433h111.395v97.3707l175.307-97.3707z" fill="#fff"/><path d="m287.562 0h-64.124v138.844h-224.438v64.112h224.438v139.044h64.124v-139.044h224.438v-64.112h-224.438z" fill="#d80027"/><path d="m311 230 201 112v-31.77l-144.03-80.23z" fill="#0052b4"/><path d="m311 230 201 112v-31.77l-144.03-80.23z" fill="#fff"/><path d="m310.947 230.404 200.752 111.595v-31.655l-143.852-79.94zm-168.095 0-144.0522 79.94v31.655l200.7522-111.595z" fill="#d80027"/><path d="m200 112-201-112v31.5691l144.231 80.4309z" fill="#0052b4"/><path d="m200 112-201-112v31.5691l144.231 80.4309z" fill="#fff"/><path d="m199.552 111.596-200.7522-111.596v31.4551l144.0522 80.1409zm168.295 0 143.852-80.1409v-31.4551l-200.752 111.596z" fill="#d80027"/></g></svg>