<svg fill="none" height="343" viewBox="0 0 513 343" width="513" xmlns="http://www.w3.org/2000/svg" xmlns:xlink="http://www.w3.org/1999/xlink"><clipPath id="a"><path d="m0 .958008h513v342h-513z"/></clipPath><g clip-path="url(#a)"><path d="m0 .961914h513v341.993086h-513z" fill="#d80027"/><path d="m0 238.872h513v104.082h-513z" fill="#6da544"/><path d="m0 .961914h513v104.719086h-513z" fill="#338af3"/><path d="m0 126.747h513v89.831h-513z" fill="#fff"/><path d="m0 .961914h513v104.719086h-513z" fill="#338af3"/><path d="m189.057 53.3161c0-16.0152 11.256-29.3963 26.287-32.6777-2.355-.516-4.758-.777-7.169-.7785-18.478 0-33.456 14.9782-33.456 33.4562s14.978 33.4562 33.456 33.4562c2.463 0 4.859-.2735 7.169-.7785-15.031-3.2814-26.287-16.6625-26.287-32.6777zm46.059 15.2066 2.266 6.9706h7.329l-5.929 4.3094 2.265 6.9696-5.931-4.3084-5.929 4.3084 2.265-6.9696-5.929-4.3094h7.329zm23.394 0 2.264 6.9706h7.33l-5.93 4.3094 2.266 6.9696-5.93-4.3084-5.929 4.3084 2.264-6.9696-5.929-4.3094h7.329zm23.393 0 2.264 6.9706h7.329l-5.928 4.3094 2.264 6.9696-5.929-4.3084-5.93 4.3084 2.265-6.9696-5.93-4.3094h7.329zm23.392 0 2.267 6.9706h7.329l-5.931 4.3094 2.266 6.9696-5.931-4.3084-5.929 4.3084 2.266-6.9696-5.93-4.3094h7.328zm23.394 0 2.264 6.9706h7.33l-5.93 4.3094 2.265 6.9696-5.929-4.3084-5.93 4.3084 2.265-6.9696-5.929-4.3094h7.328zm-70.179-24.3314 2.264 6.9696h7.33l-5.93 4.3084 2.266 6.9706-5.93-4.3074-5.929 4.3074 2.264-6.9706-5.929-4.3084h7.329zm23.393 0 2.264 6.9696h7.329l-5.928 4.3084 2.264 6.9706-5.929-4.3074-5.93 4.3074 2.265-6.9706-5.93-4.3084h7.329zm23.392 0 2.267 6.9696h7.329l-5.931 4.3084 2.266 6.9706-5.931-4.3074-5.929 4.3074 2.266-6.9706-5.93-4.3084h7.328zm23.394 0 2.264 6.9696h7.33l-5.93 4.3084 2.265 6.9706-5.929-4.3074-5.93 4.3074 2.265-6.9706-5.929-4.3084h7.328zm-46.786-24.3314 2.264 6.9696h7.329l-5.928 4.3084 2.264 6.9705-5.929-4.3084-5.93 4.3084 2.265-6.9705-5.93-4.3084h7.329zm23.392 0 2.267 6.9696h7.329l-5.931 4.3084 2.266 6.9705-5.931-4.3084-5.929 4.3084 2.266-6.9705-5.93-4.3084h7.328zm23.394 0 2.264 6.9696h7.33l-5.93 4.3084 2.265 6.9705-5.929-4.3084-5.93 4.3084 2.265-6.9705-5.929-4.3084h7.328z" fill="#fff"/></g></svg>