<svg enable-background="new 0 0 427.7 70" viewBox="0 0 427.7 70" xmlns="http://www.w3.org/2000/svg"><path d="m112.1 17.5h-11.5c-2.3 0-4.2 1.7-4.2 4.3v26.5c0 2.7 1.9 4.2 4.2 4.2h11.5c10.2 0 18.1-7.1 18.1-17.6 0-10.4-7.9-17.4-18.1-17.4zm0 26.9h-7.2v-18.8h7.2c5.8 0 9.7 3.5 9.7 9.3s-3.9 9.5-9.7 9.5z"/><path d="m152.6 17.2c-10.1 0-17.9 7.6-17.9 17.8 0 10.3 7.8 17.8 17.9 17.8s17.9-7.8 17.9-17.9-7.8-17.7-17.9-17.7zm0 27.7c-5.5 0-9.6-4.2-9.6-9.9 0-5.6 4-9.8 9.6-9.8s9.6 4.2 9.6 9.8c0 5.7-3.8 9.9-9.6 9.9z"/><path d="m191.9 17.5h-11.5c-2.3 0-4.2 1.7-4.2 4.3v26.5c0 2.7 1.9 4.2 4.2 4.2h11.5c10.2 0 18.1-7.1 18.1-17.6 0-10.4-7.9-17.4-18.1-17.4zm0 26.9h-7.2v-18.8h7.2c5.8 0 9.7 3.5 9.7 9.3s-3.9 9.5-9.7 9.5z"/><path d="m232.4 17.2c-10.1 0-17.9 7.6-17.9 17.8 0 10.3 7.8 17.8 17.9 17.8s17.9-7.8 17.9-17.9-7.7-17.7-17.9-17.7zm0 27.7c-5.5 0-9.5-4.2-9.5-9.9 0-5.6 4-9.8 9.5-9.8 5.6 0 9.5 4.2 9.5 9.8.1 5.7-3.7 9.9-9.5 9.9z"/><path d="m284.9 17.5h-14.1c-2.3 0-4.2 1.5-4.2 4.2v27c0 2.7 1.9 4.2 4.3 4.2 2.3 0 4.2-1.5 4.2-4.2v-6.3h9.8c7.6 0 12.4-5.4 12.4-12.4 0-7.2-4.8-12.5-12.4-12.5zm0 16.9h-9.8v-8.9h9.8c2.8 0 4.2 2 4.2 4.5 0 2.4-1.4 4.4-4.2 4.4z"/><path d="m308.2 17.2c-2.4 0-4.4 1.6-4.4 4.2v27.1c0 2.7 2 4.2 4.4 4.2s4.4-1.6 4.4-4.2v-27c-.1-2.7-2-4.3-4.4-4.3z"/><path d="m348 44.5h-17.6l17.4-15.7c2.5-2.2 3.5-4 3.5-6.4v-.3c0-2.9-1.8-4.6-4.9-4.6h-22.2c-2.7 0-4.2 1.9-4.2 4.1 0 2.3 1.5 3.9 4.2 3.9h16.3l-16.8 15.1c-3.3 2.9-4.1 4.7-4.1 6.8v.4c0 2.8 1.8 4.6 4.9 4.6h23.5c2.7 0 4.2-1.8 4.2-4.1 0-2.2-1.6-3.8-4.2-3.8z"/><path d="m384.8 44.5h-17.6l17.4-15.7c2.5-2.2 3.5-4 3.5-6.4v-.3c0-2.9-1.8-4.6-4.9-4.6h-22.2c-2.7 0-4.2 1.9-4.2 4.1 0 2.3 1.5 3.9 4.2 3.9h16.3l-16.8 15.1c-3.3 2.9-4.1 4.7-4.1 6.8v.4c0 2.8 1.8 4.6 4.9 4.6h23.5c2.7 0 4.2-1.8 4.2-4.1 0-2.2-1.6-3.8-4.2-3.8z"/><path d="m427.3 46.6-11.5-25.1c-1.3-2.8-3.1-4-5.7-4h-.5c-2.7 0-4.5 1.2-5.8 4l-11.5 25.1c-1.1 2.5-.3 4.7 1.9 5.5 2 .8 4.1.3 5.2-2l2.6-5.5c2.3.8 5.2 1.2 7.9 1.2 2.9 0 5.4-.4 7.6-1.2l2.5 5.4c1.1 2.4 3.3 2.8 5.3 2.1 2.2-.8 3.1-3.2 2-5.5zm-17.4-8.3c-1.8 0-3.6-.2-5-.6l4.9-11 4.9 11c-1.4.3-3.1.6-4.8.6z"/><path d="m31.3 0c20.4 0 36 14 36 34.8 0 20.9-15.6 35.2-36 35.2h-22.8c-4.7 0-8.5-3.1-8.5-8.4v-52.9c0-5.3 3.8-8.7 8.5-8.7z" fill="#ff6900"/><path d="m11 70c5.8-3.2 8.8-6.2 10.8-9 3.9 1.8 7.7 2.5 11.1 2.5 6.4 0 11.8-2.9 14.6-8.2 2.9-1.8 4.8-5.3 5-7.9 1.8-2.3 2.2-5.2 1.6-7.1-.1-.5-.5-.5-1.2-.1-5.7 3.4-11.3 5.1-16.6 5.1-3.2 0-6.5-.5-10-1.5-.2-3.8-1-6.9-1.3-8.8-.4-2.5.2-4.4 2.9-4.4 2 0 5.8.5 8.8 1.9 3 1.3 4.8 4 6 4 .5 0 1-.3 1-1.4 0-2.2-.8-5.6-1.7-6.9 2.8-.2 5-.1 6.2 0 2.6.5 2.7 1.7 3.2 2.6.5.8 1.4 1.2 2.4 1.2 1.9 0 3.1-1 3.1-4.6 0-7.9-5-11.7-10.2-11.7-4.3 0-5.9.9-10 .9-2.9 0-5.3-5.9-8.6-6.7-1.5-3.2-4.7-3.6-6.7-2-1.8-1.1-4.7-.5-4.8 1.5-2.1-.7-4.8.5-3.6 3.2-5 .4-6 4.9-2.5 5.4-4.5 2.6-2.5 6.9 1.3 6 .3 3.1 1.5 8.1 1.5 11.6 0 4.8-2.2 5.9-5.2 5.9-2.4 0-5.8-.9-8.2-1.5v3.3c2.4.6 5.9 1.3 8.6 1.3 4.7 0 7.3-2.8 7.3-8 0-6.4-2.1-12.3-1.4-16l-.2-.2c-2.3 2.5-3.9 1.8-4 1-.3-1.6 2.4-3.5 4-4.2 0-.1.1-.2.1-.3-1.5.2-3.2 0-3.3-1-.1-1.2 2.4-2.4 5.7-2.1.1 0 .1-.1.2-.2-.2-.1-.4-.2-.7-.3-.8-.4-1-1.2-.8-1.7.3-.6 1.2-.8 2-.8 1.2 0 2.2.3 2.9.6.1 0 .2-.1.2-.1-.3-.2-.5-.4-.7-.7s-.2-.8.1-1.1c.5-.4 1.6-.5 2.7.5.2.2.4.4.6.6.1 0 .2 0 .3-.1-.2-.3-.3-.5-.4-.8s0-.7.5-.9 1 .1 1.3.5c.3.5.5 1.1.6 1.5-2.3.3-8.5 1.7-8.5 9.1 0 7.2 6 14.8 6 26 0 4.1-.9 8.2-4.6 12.9-2.8 3.7-7.4 7.2-14.4 10.1 1.6.8 3 1.1 4.4 1.1zm28.3-45.5c.7-2.1 1.3-3.7 2.5-4.9 1.2-1.3 2.6-1.7 5.5-1.7 4.1 0 7.5 4.1 7.5 9.9 0 .8-1.2.8-1.5.1-1.4-2.4-3.3-2.8-6.2-3-2.2-.1-4.8.1-7.2.2-.6-.1-.7-.4-.6-.6zm-13 23.1c3.2.9 7.7 1.4 11.4 1.1 6.5-.5 11.4-2.9 14.1-4.6-1.7 4.2-7.8 6.7-13.8 7.5 0 .3-.1.6-.1.9 4.5-.2 8.8-1.7 10.7-3-1.1 4.1-6.6 5.7-11.6 6-.1.3-.3.6-.4.9 2.9.1 5.7-.5 7.3-1-1.5 2.8-6.6 5.1-11.9 5.1-2.6 0-5.8-.5-8.6-1.8 1.9-3.9 2.7-7.6 2.9-11.1z"/><path d="m0 53.6c2.5-.5 4.9-.9 4.9-.9l.3-1.3c-1.1-.1-3.3 0-5.2 0 0-.1 0 2.2 0 2.2z"/><g fill="#fff"><path d="m26.5 14c.9-.3 2.1.6 2.8 1.9s.5 2.6-.4 2.9c-.8.3-2.1-.5-2.7-1.9-.1-.2-.2-.4-.2-.5h.2c.3.3.6.3.8.2.3-.2.3-.7 0-1.2-.2-.4-.6-.8-1-.7l-.1-.1c.1-.3.3-.5.6-.6m6 13.3c-3.8-.8-8-2-10.3-5.3 0-.1-.1-.1-.2-.1s-.1.1-.1.2c0 .2 0 .4.1.6l-.3.1c-.6-.8-.7-1.8-.2-2.5.8-1 2.6-.9 3.6-.3l-.1.3c-.5-.1-1.1-.1-1.5.2-.3.2-.4.5-.2.9 1.9 3.5 7.3 4.2 13.7 3.7.7 0 .8-.3.9-.7.6-2.2 1.6-4.2 3.1-5.7-1.2.2-2.3.2-3.2.2-3.3.2-5.2-.2-5.8-.7l.1-.3c.3.1.7.2.8 0 .1-.1 0-.2-.1-.4-.6-.6-3.5-3.5-3.5-3.5-.3-2.3-3.9-2.4-5.3 0l-.5-.1c.1-.5.3-1 .5-1.3-3 .7-4.7 3.4-5 6-1.3 11.1 15.6 8.6 20.4 13 .1.1.3.4.5.2.2-.6-1.9-3.2-7.4-4.5"/><path d="m51.7 44.1c-2.7 1.8-7.6 4.2-14.1 4.6-3.7.3-8.1-.2-11.4-1.1 0 1.1-.2 2.2-.3 3.3 1.8.5 5 1.1 9.7 1.2-.2 1.2-1.5 5.5-4.7 8.2 5.9.2 11.3-2.1 12.9-5.1-1.7.5-4.4 1.1-7.3 1 .2-.3.3-.6.4-.9 5-.2 10.5-1.9 11.6-6-1.9 1.3-6.2 2.8-10.7 3 .1-.3.1-.6.1-.9 6-.6 12.2-3.2 13.8-7.3z"/></g></svg>