<svg fill="none" height="98" viewBox="0 0 258 98" width="258" xmlns="http://www.w3.org/2000/svg" xmlns:xlink="http://www.w3.org/1999/xlink"><clipPath id="a"><path d="m119.701 0h97.9v97.9h-97.9z"/></clipPath><clipPath id="b"><path d="m79.8008 0h97.9v97.9h-97.9z"/></clipPath><clipPath id="c"><path d="m39.9004 0h97.9v97.9h-97.9z"/></clipPath><clipPath id="d"><path d="m0 0h97.9v97.9h-97.9z"/></clipPath><path d="m187.702 0h41.6c15.5 0 28.2 12.6 28.2 28.1v41.6c0 15.5-12.6 28.2-28.2 28.2h-41.6c-15.5 0-28.1-12.6-28.1-28.1v-41.7c0-15.5 12.6-28.1 28.1-28.1z" fill="#f793be"/><path d="m176.102 74.5996 15.2 7.2 18.7-8.7-.3 2.5 15.2 7.2 2.7-22.7 15.7-16.6-15.2-7.1-1.8 1.8-5.2-19.9-15.2-7.2z" fill="#feac00"/><path d="m173.802 34.7996 18.9-4.3 13.2-19.4 5.2 20 17 5.3-15.7 16.6-2.7 22.6-14.9-9.7-18.7 8.7 6.5-22.5z" fill="#fecc31"/><g clip-path="url(#a)"><path d="m147.801 0h41.6c15.5 0 28.2 12.6 28.2 28.1v41.6c0 15.5-12.6 28.2-28.2 28.2h-41.6c-15.5 0-28.1-12.6-28.1-28.1v-41.7c0-15.5 12.6-28.1 28.1-28.1z" fill="#29cbff"/><path d="m168.7 85.2992c20.048 0 36.3-16.252 36.3-36.3 0-20.0479-16.252-36.3-36.3-36.3s-36.3 16.2521-36.3 36.3c0 20.048 16.252 36.3 36.3 36.3z" fill="#0094ff"/><g stroke-miterlimit="10" stroke-width="2"><path d="m168.701 85.2994c20 0 36.3-16.3 36.3-36.4 0 6.9-16.3 12.5-36.3 12.5s-36.3-5.6-36.3-12.5c-.1 20.1 16.2 36.4 36.3 36.4z" fill="#006ed6" stroke="#383838"/><path d="m168.7 85.2992c20.048 0 36.3-16.252 36.3-36.3 0-20.0479-16.252-36.3-36.3-36.3s-36.3 16.2521-36.3 36.3c0 20.048 16.252 36.3 36.3 36.3z" stroke="#29cbff"/><path d="m168.7 85.2996c-11 0-19.8-16.3-19.8-36.4s8.8-36.3 19.8-36.3 10.9 72.7 0 72.7z" stroke="#383838"/><path d="m205 49c0 6.9-16.3 12.5-36.3 12.5s-36.3-5.6-36.3-12.5" stroke="#29cbff"/><path d="m192.501 21.5c0 4.5-10.7 8.2-23.8 8.2s-23.9-3.7-23.9-8.2" stroke="#29cbff"/></g></g><g clip-path="url(#b)"><path d="m107.901 0h41.6c15.5 0 28.2 12.6 28.2 28.1v41.6c0 15.5-12.6 28.2-28.2 28.2h-41.6c-15.5002 0-28.1002-12.6-28.1002-28.1v-41.7c0-15.5 12.6-28.1 28.1002-28.1z" fill="#1066a4"/><g stroke="#1066a4" stroke-miterlimit="10" stroke-width="2"><path d="m102.201 31.4004-10.6997 10.7c-3.9 3.9 2.4 16.7 14.1997 28.4 11.8 11.7 24.5 18.1 28.4 14.1l10.7-10.7z" fill="#0071bc"/><path d="m112.801 20.7998-10.7 10.7c-3.9003 3.9 2.4 16.7 14.1 28.4s24.5 18.1 28.4 14.1l10.7-10.7z" fill="#0071bc"/><path d="m123.4 10.2002-10.7 10.7c-3.9 3.9 2.4 16.6 14.1 28.4s24.4 18.1 28.4 14.1l10.7-10.7z" fill="#0071bc"/><path d="m166.008 52.7714c3.944-3.9442-2.387-16.6707-14.142-28.4254s-24.481-18.08627-28.425-14.142c-3.945 3.9442 2.387 16.6707 14.142 28.4254 11.754 11.7547 24.481 18.0863 28.425 14.142z" fill="#0094ff"/></g></g><g clip-path="url(#c)"><path d="m68.0004 0h41.5996c15.5 0 28.2 12.6 28.2 28.1v41.6c0 15.5-12.6 28.2-28.2 28.2h-41.5996c-15.5 0-28.1-12.6-28.1-28.1v-41.7c0-15.5 12.6-28.1 28.1-28.1z" fill="#fe752c"/><path d="m104.228 64.396c15.855-15.8551 23.389-34.0268 16.829-40.5875-6.561-6.5608-24.7329.9738-40.588 16.8289-15.8551 15.8552-23.3897 34.0268-16.829 40.5876 6.5608 6.5607 24.7324-.9739 40.588-16.829z" fill="#feac00"/><path d="m114.016 16.7759-57.4164 57.4165 7.0003 7.0003 57.4161-57.4165z" fill="#feac00"/><path d="m97.3018 57.3335c15.8552-15.8551 23.3902-34.0268 16.8292-40.5875-6.561-6.5608-24.7326.9738-40.5878 16.8289-15.8551 15.8552-23.3897 34.0268-16.829 40.5876 6.5608 6.5607 24.7324-.9739 40.5876-16.829z" fill="#fecc31"/></g><g clip-path="url(#d)"><path d="m28.1 0h41.6c15.5 0 28.2 12.6 28.2 28.1v41.6c0 15.5-12.6 28.2-28.2 28.2h-41.6c-15.5 0-28.1-12.6-28.1-28.1v-41.7c0-15.5 12.6-28.1 28.1-28.1z" fill="#383838"/><path d="m50.6994 13.9004c20.4 0 36 14 36 34.8s-15.6 35.2-36 35.2h-22.8c-4.7 0-8.5-3.1-8.5-8.4v-52.9c0-5.3 3.8-8.7 8.5-8.7z" fill="#ff6900"/><path d="m30.3998 83.9008c5.8-3.2 8.8-6.2 10.8-9 3.9 1.8 7.7 2.5 11.1 2.5 6.4 0 11.8-2.9 14.6-8.2 2.9-1.8 4.8-5.3 5-7.9 1.8-2.3 2.2-5.2 1.6-7.1-.1-.5-.5-.5-1.2-.1-5.7 3.4-11.3 5.1-16.6 5.1-3.2 0-6.5-.5-10-1.5-.2-3.8-1-6.9-1.3-8.8-.4-2.5.2-4.4 2.9-4.4 2 0 5.8.5 8.8 1.9 3 1.3 4.8 4 6 4 .5 0 1-.3 1-1.4 0-2.2-.8-5.6-1.7-6.9 2.8-.2 5-.1 6.2 0 2.6.5 2.7 1.7 3.2 2.6.5.8 1.4 1.2 2.4 1.2 1.9 0 3.1-1 3.1-4.6 0-7.9-5-11.7-10.2-11.7-4.3 0-5.9.9-10 .9-2.9 0-5.3-5.9-8.6-6.7-1.5-3.2-4.7-3.6-6.7-2-1.8-1.1-4.7-.5-4.8 1.5-2.1-.7-4.8.5-3.6 3.2-5 .4-6 4.9-2.5 5.4-4.5 2.6-2.5 6.9 1.3 6 .3 3.1 1.5 8.1 1.5 11.6 0 4.8-2.2 5.9-5.2 5.9-2.4 0-5.8-.9-8.2-1.5v3.3c2.4.6 5.9 1.3 8.6 1.3 4.7 0 7.3-2.8 7.3-8 0-6.4-2.1-12.3-1.4-16l-.2-.2c-2.3 2.5-3.9 1.8-4 1-.3-1.6 2.4-3.5 4-4.2 0-.1.1-.2.1-.3-1.5.2-3.2 0-3.3-1-.1-1.2 2.4-2.4 5.7-2.1.1 0 .1-.1.2-.2-.2-.1-.4-.2-.7-.3-.8-.4-1-1.2-.8-1.7.3-.6 1.2-.8 2-.8 1.2 0 2.2.3 2.9.6.1 0 .2-.1.2-.1-.3-.2-.5-.4-.7-.7s-.2-.8.1-1.1c.5-.4 1.6-.5 2.7.5l.6.6c.1 0 .2 0 .3-.1-.2-.3-.3-.5-.4-.8s0-.7.5-.9 1 .1 1.3.5c.3.5.5 1.1.6 1.5-2.3.3-8.5 1.7-8.5 9.1s6 14.8 6 26c0 4.1-.9 8.2-4.6 12.9-2.8 3.7-7.4 7.2-14.4 10.1 1.6.8 3 1.1 4.4 1.1zm28.3-45.5c.7-2.1 1.3-3.7 2.5-4.9 1.2-1.3 2.6-1.7 5.5-1.7 4.1 0 7.5 4.1 7.5 9.9 0 .8-1.2.8-1.5.1-1.4-2.4-3.3-2.8-6.2-3-2.2-.1-4.8.1-7.2.2-.6-.1-.7-.4-.6-.6zm-13 23.1c3.2.9 7.7 1.4 11.4 1.1 6.5-.5 11.4-2.9 14.1-4.6-1.7 4.2-7.8 6.7-13.8 7.5 0 .3-.1.6-.1.9 4.5-.2 8.8-1.7 10.7-3-1.1 4.1-6.6 5.7-11.6 6-.1.3-.3.6-.4.9 2.9.1 5.7-.5 7.3-1-1.5 2.8-6.6 5.1-11.9 5.1-2.6 0-5.8-.5-8.6-1.8 1.9-3.9 2.7-7.6 2.9-11.1z" fill="#000"/><path d="m19.4002 67.5999c2.5-.5 4.9-.9 4.9-.9l.3-1.3c-1.1-.1-3.3 0-5.2 0-.1-.2-.1 2.1 0 2.2z" fill="#000"/><g fill="#fff"><path d="m45.7996 28c.9-.3 2.1.6 2.8 1.9s.5 2.6-.4 2.9c-.8.3-2.1-.5-2.7-1.9-.1-.2-.2-.4-.2-.5h.2c.3.3.6.3.8.2.3-.2.3-.7 0-1.2-.2-.4-.6-.8-1-.7l-.1-.1c.1-.4.3-.6.6-.6zm6 13.2c-3.8-.8-8-2-10.3-5.3 0-.1-.1-.1-.2-.1s-.1.1-.1.2c0 .2 0 .4.1.6l-.3.2c-.6-.8-.7-1.8-.2-2.5.8-1 2.6-.9 3.6-.3l-.1.3c-.5-.1-1.1-.1-1.5.2-.3.2-.4.5-.2.9 1.9 3.5 7.3 4.2 13.7 3.7.7 0 .8-.3.9-.7.6-2.2 1.6-4.2 3.1-5.7-1.2.2-2.3.2-3.2.2-3.3.2-5.2-.2-5.8-.7l.1-.3c.3.1.7.2.8 0 .1-.1 0-.2-.1-.4l-3.5-3.5c-.3-2.3-3.9-2.4-5.3 0l-.5-.1c.1-.5.3-1 .5-1.3-3 .7-4.7 3.4-5 6-1.3 11.1 15.6 8.6 20.4 13 .1.1.3.4.5.2.2-.6-1.9-3.2-7.4-4.6z"/><path d="m71.0998 58c-2.7 1.8-7.6 4.2-14.1 4.6-3.7.3-8.1-.2-11.4-1.1 0 1.1-.2 2.2-.3 3.3 1.8.5 5 1.1 9.7 1.2-.2 1.2-1.5 5.5-4.7 8.2 5.9.2 11.3-2.1 12.9-5.1-1.7.5-4.4 1.1-7.3 1 .2-.3.3-.6.4-.9 5-.2 10.5-1.9 11.6-6-1.9 1.3-6.2 2.8-10.7 3 .1-.3.1-.6.1-.9 6-.6 12.2-3.2 13.8-7.3z"/></g></g></svg>