<?xml version="1.0" encoding="UTF-8"?><svg xmlns="http://www.w3.org/2000/svg" xmlns:xlink="http://www.w3.org/1999/xlink" viewBox="0 0 1356.46 1022.04"><defs><style>.e,.f{fill:none;}.g{letter-spacing:-.02em;}.h{letter-spacing:.02em;}.i{letter-spacing:0em;}.j{letter-spacing:0em;}.k{letter-spacing:0em;}.l{letter-spacing:0em;}.m{letter-spacing:.02em;}.n{stroke:#666;}.n,.o,.f{stroke-miterlimit:10;}.p,.q,.r{fill:#fff;}.s{fill:#ff5e1f;}.t{fill:#ff6b39;}.u{fill:#ff8355;}.v{fill:#333;}.w{fill:#3e3e3e;}.x,.y{fill:#4d4d4d;}.a`{letter-spacing:.01em;}.aa{letter-spacing:.01em;}.ab{letter-spacing:.01em;}.ac{letter-spacing:0em;}.ad{mix-blend-mode:multiply;}.ad,.o{fill:#1a1a1a;}.ae{letter-spacing:0em;}.q{font-family:Biform-Pixel, Biform Pixel;font-size:41.7px;}.af{letter-spacing:.02em;}.ag{letter-spacing:0em;}.o{stroke:#4d4d4d;}.ah{letter-spacing:0em;}.ai{letter-spacing:0em;}.aj{letter-spacing:0em;}.ak{letter-spacing:0em;}.al{letter-spacing:-.02em;}.am{letter-spacing:0em;}.an{letter-spacing:.04em;}.ao{letter-spacing:0em;}.ap{letter-spacing:0em;}.f{stroke:#fff;}.aq{letter-spacing:.02em;}.ar{letter-spacing:0em;}.as{clip-path:url(#d);}.at{letter-spacing:.01em;}.au{letter-spacing:0em;}.av{letter-spacing:0em;}.aw{letter-spacing:-.02em;}.ax{letter-spacing:.01em;}.ay{letter-spacing:.01em;}.b`{isolation:isolate;}.ba{letter-spacing:.01em;}.bb{letter-spacing:0em;}.bc{letter-spacing:.02em;}.bd{letter-spacing:-.01em;}.be{letter-spacing:-.03em;}.r,.y{font-family:Biform-Regular, Biform Regular;font-size:26px;}</style><clipPath id="d"><rect class="e" y="30.86" width="1356.46" height="991.18"/></clipPath></defs><g class="b`"><g id="a"/><g id="b"><g id="c"><g><rect class="ad" width="1356.46" height="972.04"/><g class="as"><g><polygon class="v" points="1624.94 574.9 678.23 901.07 678.23 1005.43 1624.94 679.26 1624.94 574.9"/><polygon points="-63.16 645.64 678.23 901.07 678.23 1005.43 -63.16 750 -63.16 645.64"/><polygon class="x" points="883.55 319.48 1624.94 574.9 678.23 901.07 -63.16 645.64 883.55 319.48"/></g></g><text class="q" transform="translate(692.34 943.93) rotate(-19.15) scale(1 .94) skewX(-18.16)"><tspan x="0" y="0">D</tspan><tspan class="ao" x="27.77" y="0">a</tspan><tspan x="47.71" y="0">ta </tspan><tspan class="au" x="90.45" y="0">P</tspan><tspan x="112.42" y="0">l</tspan><tspan class="ao" x="122.27" y="0">a</tspan><tspan x="142.2" y="0">t</tspan><tspan class="bd" x="156" y="0">f</tspan><tspan class="ap" x="167.64" y="0">o</tspan><tspan class="i" x="190.53" y="0">r</tspan><tspan x="204.33" y="0">m</tspan></text><g><g><polygon class="w" points="151.7 597.63 429.3 693.27 429.3 762.49 151.7 666.85 151.7 597.63"/><polygon class="v" points="706.89 597.63 429.3 693.27 429.3 762.49 706.89 666.85 706.89 597.63"/><polygon class="v" points="429.3 502 706.89 597.63 429.3 693.27 151.7 597.63 429.3 502"/></g><g><polygon class="w" points="151.7 524.15 429.3 619.78 429.3 689 151.7 593.36 151.7 524.15"/><polygon class="v" points="706.89 524.15 429.3 619.78 429.3 689 706.89 593.36 706.89 524.15"/><polygon class="v" points="429.3 428.51 706.89 524.15 429.3 619.78 151.7 524.15 429.3 428.51"/></g><g><polygon class="w" points="151.7 450.66 429.3 546.29 429.3 615.51 151.7 519.87 151.7 450.66"/><polygon class="v" points="706.89 450.66 429.3 546.29 429.3 615.51 706.89 519.87 706.89 450.66"/><polygon class="v" points="429.3 355.02 706.89 450.66 429.3 546.29 151.7 450.66 429.3 355.02"/></g><g><polygon class="w" points="151.7 377.17 429.3 472.81 429.3 542.02 151.7 446.38 151.7 377.17"/><polygon class="v" points="706.89 377.17 429.3 472.81 429.3 542.02 706.89 446.38 706.89 377.17"/><polygon class="v" points="429.3 281.53 706.89 377.17 429.3 472.81 151.7 377.17 429.3 281.53"/></g><g><polygon class="w" points="151.7 303.68 429.3 399.32 429.3 468.53 151.7 372.89 151.7 303.68"/><polygon class="v" points="706.89 303.68 429.3 399.32 429.3 468.53 706.89 372.89 706.89 303.68"/><polygon class="v" points="429.3 208.04 706.89 303.68 429.3 399.32 151.7 303.68 429.3 208.04"/></g><g><polygon class="o" points="151.7 230.19 429.3 325.83 429.3 395.04 151.7 299.41 151.7 230.19"/><polygon class="o" points="706.89 230.19 429.3 325.83 429.3 395.04 706.89 299.41 706.89 230.19"/><polygon class="o" points="429.3 134.55 706.89 230.19 429.3 325.83 151.7 230.19 429.3 134.55"/></g><text class="y" transform="translate(161.43 262.45) rotate(19) scale(1 .95) skewX(18.05)"><tspan class="ay" x="0" y="0">D</tspan><tspan class="aj" x="17.68" y="0">e</tspan><tspan x="30.97" y="0">v</tspan><tspan class="aj" x="43.47" y="0">elopin</tspan><tspan class="bb" x="113.77" y="0">g</tspan><tspan class="ak" x="128.18" y="0">...</tspan></text><text class="r" transform="translate(161.43 335.94) rotate(19) scale(1 .95) skewX(18.04)"><tspan class="ae" x="0" y="0">P</tspan><tspan x="13.68" y="0">r</tspan><tspan class="ai" x="22.18" y="0">ocu</tspan><tspan x="63.21" y="0">r</tspan><tspan class="ai" x="71.71" y="0">eme</tspan><tspan class="ag" x="120.22" y="0">n</tspan><tspan class="ai" x="134.81" y="0">t</tspan></text><g><path class="p" d="M170.52,167.57c-1.26,.23-3.79,.03-7.02-1.08-7.49-2.58-13.13-9.53-13.13-18.74s5.64-12.82,13.88-9.98c3.31,1.14,5.4,2.61,6.31,3.42l-.83,2.68c-1.3-1.12-3.15-2.25-5.36-3.01-6.23-2.15-10.37,.64-10.37,8.02,0,6.88,3.75,12.59,10.21,14.82,2.09,.72,4.22,.99,5.6,.76l.71,3.12Z"/><path class="p" d="M174.7,140.31l3.47,1.19v12.59l.08,.03c.55-.85,1.42-1.47,2.48-1.73,1.02-.27,2.25-.27,3.55,.18,2.56,.88,6.66,3.96,6.66,10.93v12.01l-3.47-1.19v-11.59c0-3.25-1.14-6.4-4.42-7.53-2.25-.77-4.02,.28-4.65,2.07-.2,.43-.24,.96-.24,1.67v12.18l-3.47-1.19v-29.61Z"/><path class="p" d="M207.15,181.1l-.28-2.64-.12-.04c-1.06,1.22-3.11,1.93-5.84,.99-3.86-1.33-5.84-4.89-5.84-7.81,0-4.88,4.1-6.13,11.47-3.55v-.42c0-1.67-.43-4.82-4.34-6.16-1.77-.61-3.63-.67-4.97-.21l-.79-2.69c1.58-.54,3.86-.46,6.27,.37,5.84,2.01,7.25,6.71,7.25,10.76v7.55c0,1.75,.08,3.49,.32,4.95l-3.15-1.09Zm-.51-10.48c-3.79-1.39-8.08-2.16-8.08,1.76,0,2.38,1.5,4.02,3.27,4.63,2.48,.86,4.06-.27,4.61-1.79,.12-.33,.2-.72,.2-1.1v-3.5Z"/><path class="p" d="M219.45,159.48c.04,1.26-.83,1.97-2.21,1.49-1.22-.42-2.09-1.72-2.09-2.97s.91-1.98,2.17-1.55c1.3,.45,2.13,1.73,2.13,3.03Zm-3.86,24.53v-20.18l3.47,1.19v20.18l-3.47-1.19Z"/><path class="p" d="M224.81,172.46c0-2.08-.04-3.81-.16-5.52l3.08,1.06,.2,3.4,.08,.03c.95-1.59,3.15-2.71,6.31-1.62,2.64,.91,6.74,3.99,6.74,10.91v12.05l-3.47-1.19v-11.63c0-3.25-1.14-6.36-4.42-7.49-2.29-.79-4.06,.31-4.65,2.15-.16,.4-.24,1-.24,1.63v12.14l-3.47-1.2v-14.72Z"/><path class="p" d="M174.35,201.32c-.2-3.99-.43-8.78-.39-12.27l-.12-.04c-.91,2.98-2.01,6.11-3.35,9.52l-4.69,12.02-2.6-.9-4.3-14.87c-1.26-4.4-2.33-8.39-3.08-11.98l-.08-.03c-.08,3.48-.28,8.12-.51,12.25l-.71,11.81-3.27-1.13,1.85-27.47,4.38,1.51,4.53,15.16c1.1,3.84,2.01,7.24,2.68,10.39l.12,.04c.67-2.61,1.62-5.37,2.8-8.5l4.73-11.96,4.38,1.51,1.66,28.68-3.35-1.15-.67-12.57Z"/><path class="p" d="M194.34,220.54l-.28-2.64-.12-.04c-1.06,1.22-3.12,1.93-5.84,.99-3.86-1.33-5.84-4.89-5.84-7.81,0-4.88,4.1-6.13,11.47-3.55v-.42c0-1.67-.43-4.82-4.34-6.16-1.77-.61-3.63-.67-4.97-.21l-.79-2.69c1.58-.54,3.86-.46,6.27,.37,5.84,2.01,7.26,6.71,7.26,10.76v7.55c0,1.75,.08,3.49,.32,4.95l-3.15-1.09Zm-.51-10.48c-3.79-1.39-8.08-2.16-8.08,1.76,0,2.38,1.5,4.02,3.27,4.63,2.48,.86,4.06-.27,4.61-1.79,.12-.33,.2-.72,.2-1.1v-3.5Z"/><path class="p" d="M202.77,208.73c0-2.08-.04-3.81-.16-5.52l3.08,1.06,.2,3.4,.08,.03c.95-1.59,3.15-2.71,6.31-1.62,2.64,.91,6.74,3.99,6.74,10.91v12.05l-3.47-1.2v-11.63c0-3.25-1.14-6.36-4.42-7.48-2.29-.79-4.06,.31-4.65,2.15-.16,.4-.24,1-.24,1.63v12.14l-3.47-1.19v-14.72Z"/><path class="p" d="M235.22,234.62l-.28-2.64-.12-.04c-1.06,1.22-3.11,1.93-5.84,.99-3.86-1.33-5.84-4.89-5.84-7.81,0-4.88,4.1-6.14,11.47-3.56v-.42c0-1.67-.43-4.82-4.34-6.16-1.77-.61-3.63-.67-4.97-.21l-.79-2.69c1.58-.54,3.86-.46,6.27,.37,5.84,2.01,7.25,6.71,7.25,10.75v7.55c0,1.75,.08,3.49,.32,4.95l-3.15-1.09Zm-.51-10.48c-3.79-1.39-8.08-2.16-8.08,1.76,0,2.38,1.5,4.02,3.27,4.63,2.48,.86,4.06-.27,4.61-1.79,.12-.33,.2-.72,.2-1.1v-3.5Z"/><path class="p" d="M260.1,223.01c-.08,1.43-.16,3.03-.16,5.49v11.72c0,4.63-.87,7.17-2.72,8.28-1.85,1.2-4.53,.86-6.94,.03-2.29-.79-4.81-2.24-6.35-3.85l.87-2.5c1.26,1.27,3.23,2.7,5.6,3.51,3.55,1.22,6.15,.16,6.15-4.93v-2.25l-.08-.03c-1.06,1.51-3.12,2.3-6.07,1.29-4.73-1.63-8.12-7.05-8.12-12.64,0-6.84,4.22-9.26,8.6-7.76,3.31,1.14,5.13,3.6,5.95,5.55l.08,.03,.16-2.99,3.04,1.05Zm-3.59,6.73c0-.63-.04-1.18-.2-1.74-.63-2.34-2.33-4.68-4.85-5.55-3.31-1.14-5.68,1-5.68,5.68,0,3.96,1.89,7.91,5.64,9.2,2.13,.73,4.06-.02,4.81-2.1,.2-.56,.28-1.24,.28-1.86v-3.63Z"/><path class="p" d="M267.63,236.36c.08,4.99,3.08,8.07,6.55,9.26,2.48,.86,3.98,.91,5.28,.78l.59,2.83c-1.22,.16-3.31,.11-6.35-.94-5.88-2.02-9.38-7.32-9.38-13.41s3.39-9.72,8.95-7.8c6.23,2.15,7.89,8.51,7.89,12.22,0,.75-.08,1.31-.12,1.67l-13.41-4.62Zm10.17,.88c.04-2.32-.91-6.28-4.81-7.62-3.51-1.21-5.05,1.68-5.32,4.13l10.13,3.49Z"/><path class="p" d="M285.45,237.2c0-2.08-.04-3.81-.16-5.52l3.04,1.05,.16,3.31,.12,.04c1.06-1.55,2.84-2.73,5.99-1.65,2.6,.9,4.57,3.24,5.4,5.91l.08,.03c.59-.92,1.34-1.54,2.13-1.89,1.14-.52,2.41-.59,4.22,.04,2.52,.87,6.27,3.91,6.27,10.92v11.88l-3.39-1.17v-11.43c0-3.88-1.34-6.67-4.14-7.64-1.97-.68-3.51,.33-4.1,1.92-.16,.45-.28,1.07-.28,1.74v12.47l-3.39-1.17v-12.09c0-3.21-1.34-6.01-3.98-6.92-2.17-.75-3.75,.54-4.3,2.19-.2,.48-.28,1.07-.28,1.7v12.18l-3.39-1.17v-14.72Z"/><path class="p" d="M320.27,254.49c.08,4.99,3.08,8.07,6.54,9.26,2.48,.86,3.98,.91,5.28,.78l.59,2.83c-1.22,.16-3.31,.11-6.35-.94-5.88-2.02-9.38-7.32-9.38-13.41s3.39-9.72,8.95-7.8c6.23,2.15,7.89,8.51,7.89,12.22,0,.75-.08,1.31-.12,1.67l-13.41-4.62Zm10.17,.88c.04-2.32-.91-6.28-4.81-7.62-3.51-1.21-5.05,1.68-5.32,4.13l10.13,3.49Z"/><path class="p" d="M338.09,255.33c0-2.08-.04-3.81-.16-5.52l3.08,1.06,.2,3.4,.08,.03c.95-1.59,3.15-2.71,6.31-1.62,2.64,.91,6.74,3.99,6.74,10.91v12.05l-3.47-1.2v-11.63c0-3.25-1.14-6.36-4.42-7.48-2.29-.79-4.06,.31-4.65,2.15-.16,.4-.24,1-.24,1.63v12.14l-3.47-1.19v-14.72Z"/><path class="p" d="M364,252.99v5.8l4.97,1.71v2.79l-4.97-1.71v10.88c0,2.5,.67,4.15,2.6,4.82,.91,.31,1.58,.42,2.01,.44l.16,2.81c-.67,.06-1.74-.1-3.08-.56-1.62-.56-2.92-1.55-3.75-2.83-.99-1.42-1.34-3.34-1.34-5.72v-11.01l-2.96-1.02v-2.79l2.96,1.02v-4.84l3.39,.21Z"/></g><text class="r" transform="translate(161.43 409.43) rotate(19) scale(1 .95) skewX(18.04)"><tspan class="h" x="0" y="0">M</tspan><tspan class="ab" x="21.32" y="0">a</tspan><tspan class="ax" x="34.11" y="0">r</tspan><tspan class="ab" x="42.98" y="0">keting</tspan></text><text class="r" transform="translate(161.43 482.92) rotate(19) scale(1 .95) skewX(18.04)"><tspan class="h" x="0" y="0">M</tspan><tspan class="ab" x="21.32" y="0">enu</tspan></text><text class="r" transform="translate(161.43 556.41) rotate(19) scale(1 .95) skewX(18.04)"><tspan class="m" x="0" y="0">S</tspan><tspan class="ai" x="13.23" y="0">ecu</tspan><tspan class="at" x="53.01" y="0">r</tspan><tspan class="ai" x="61.88" y="0">i</tspan><tspan class="bc" x="68.22" y="0">t</tspan><tspan class="ab" x="77.32" y="0">y</tspan></text><text class="r" transform="translate(161.43 629.89) rotate(19) scale(1 .95) skewX(18.04)"><tspan class="ba" x="0" y="0">Q</tspan><tspan class="ab" x="18.25" y="0">uali</tspan><tspan class="af" x="58.37" y="0">t</tspan><tspan class="ab" x="67.47" y="0">y </tspan><tspan class="am" x="85.75" y="0">C</tspan><tspan class="ai" x="100.8" y="0">o</tspan><tspan class="ag" x="115.33" y="0">n</tspan><tspan class="ai" x="129.92" y="0">t</tspan><tspan x="138.79" y="0">r</tspan><tspan class="ab" x="147.29" y="0">ol</tspan></text></g><g><polygon class="t" points="644.28 597.63 921.87 693.27 921.87 762.49 644.28 666.85 644.28 597.63"/><polygon class="s" points="1199.47 597.63 921.87 693.27 921.87 762.49 1199.47 666.85 1199.47 597.63"/><polygon class="u" points="921.87 502 1199.47 597.63 921.87 693.27 644.28 597.63 921.87 502"/></g><g><polygon class="t" points="644.28 524.15 921.87 619.78 921.87 689 644.28 593.36 644.28 524.15"/><polygon class="s" points="1199.47 524.15 921.87 619.78 921.87 689 1199.47 593.36 1199.47 524.15"/><polygon class="u" points="921.87 428.51 1199.47 524.15 921.87 619.78 644.28 524.15 921.87 428.51"/></g><g><polygon class="t" points="644.28 450.66 921.87 546.29 921.87 615.51 644.28 519.87 644.28 450.66"/><polygon class="s" points="1199.47 450.66 921.87 546.29 921.87 615.51 1199.47 519.87 1199.47 450.66"/><polygon class="u" points="921.87 355.02 1199.47 450.66 921.87 546.29 644.28 450.66 921.87 355.02"/></g><g><polygon class="t" points="644.28 377.17 921.87 472.81 921.87 542.02 644.28 446.38 644.28 377.17"/><polygon class="s" points="1199.47 377.17 921.87 472.81 921.87 542.02 1199.47 446.38 1199.47 377.17"/><polygon class="u" points="921.87 281.53 1199.47 377.17 921.87 472.81 644.28 377.17 921.87 281.53"/></g><g><polygon class="t" points="644.28 303.68 921.87 399.32 921.87 468.53 644.28 372.89 644.28 303.68"/><polygon class="s" points="1199.47 303.68 921.87 399.32 921.87 468.53 1199.47 372.89 1199.47 303.68"/><polygon class="u" points="921.87 208.04 1199.47 303.68 921.87 399.32 644.28 303.68 921.87 208.04"/></g><g><polygon class="t" points="644.28 230.19 921.87 325.83 921.87 395.04 644.28 299.41 644.28 230.19"/><polygon class="s" points="1199.47 230.19 921.87 325.83 921.87 395.04 1199.47 299.41 1199.47 230.19"/><polygon class="u" points="921.87 134.55 1199.47 230.19 921.87 325.83 644.28 230.19 921.87 134.55"/></g><text class="r" transform="translate(931.34 352.16) rotate(-19.15) scale(1 .94) skewX(-18.16)"><tspan class="l" x="0" y="0">A</tspan><tspan class="ab" x="16.09" y="0">pp</tspan><tspan class="am" x="46.2" y="0">s</tspan><tspan class="ai" x="56.47" y="0">,</tspan><tspan class="be" x="62.11" y="0"> </tspan><tspan class="g" x="66.95" y="0">W</tspan><tspan class="ai" x="88.35" y="0">ebsi</tspan><tspan class="k" x="133.59" y="0">t</tspan><tspan class="ah" x="142.3" y="0">e</tspan><tspan class="ai" x="155.27" y="0">, POS</tspan></text><g><polygon class="o" points="644.28 156.7 921.87 252.34 921.87 321.55 644.28 225.92 644.28 156.7"/><polygon class="o" points="1199.47 156.7 921.87 252.34 921.87 321.55 1199.47 225.92 1199.47 156.7"/><polygon class="o" points="921.87 61.06 1199.47 156.7 921.87 252.34 644.28 156.7 921.87 61.06"/></g><text class="y" transform="translate(931.34 278.67) rotate(-19.15) scale(1 .94) skewX(-18.18)"><tspan class="ay" x="0" y="0">D</tspan><tspan class="aj" x="17.68" y="0">e</tspan><tspan x="30.97" y="0">v</tspan><tspan class="a`" x="43.47" y="0">elopin</tspan><tspan class="av" x="113.77" y="0">g</tspan><tspan class="aj" x="128.18" y="0">...</tspan></text><text class="r" transform="translate(931.34 425.64) rotate(-19.15) scale(1 .94) skewX(-18.16)"><tspan class="al" x="0" y="0">P</tspan><tspan class="j" x="13.42" y="0">a</tspan><tspan class="ai" x="26" y="0">yme</tspan><tspan class="ar" x="73.74" y="0">n</tspan><tspan class="aa" x="88.32" y="0">ts</tspan></text><text class="r" transform="translate(931.34 499.13) rotate(-19.15) scale(1 .94) skewX(-18.16)"><tspan class="ae" x="0" y="0">P</tspan><tspan x="13.68" y="0">r</tspan><tspan class="ai" x="22.18" y="0">odu</tspan><tspan class="aq" x="66.22" y="0">c</tspan><tspan class="ai" x="78.47" y="0">tion module</tspan></text><text class="r" transform="translate(931.34 572.62) rotate(-19.15) scale(1 .94) skewX(-18.16)"><tspan class="at" x="0" y="0">D</tspan><tspan class="ai" x="17.68" y="0">eli</tspan><tspan class="ac" x="43.71" y="0">v</tspan><tspan class="ai" x="56.21" y="0">e</tspan><tspan class="an" x="69.5" y="0">r</tspan><tspan class="ai" x="78.91" y="0">y</tspan></text><text class="r" transform="translate(931.34 646.11) rotate(-19.15) scale(1 .94) skewX(-18.16)"><tspan class="aw" x="0" y="0">P</tspan><tspan class="ab" x="13.44" y="0">eople manageme</tspan><tspan class="ag" x="207.3" y="0">n</tspan><tspan class="ai" x="221.88" y="0">t</tspan></text><text class="r" transform="translate(931.34 719.6) rotate(-19.15) scale(1 .94) skewX(-18.16)"><tspan class="ai" x="0" y="0">P&amp;L manageme</tspan><tspan class="ag" x="173.91" y="0">n</tspan><tspan class="ai" x="188.5" y="0">t</tspan></text><g><path class="p" d="M921.16,179.98c1.54,.47,3.78,.52,6.15-.3,3.51-1.22,5.55-3.89,5.55-6.72,0-2.63-1.42-3.64-5-3.85-4.33-.12-7.01-1.57-7.01-5.53,0-4.38,3.43-8.82,8.59-10.61,2.72-.94,4.69-.96,5.87-.66l-.95,3.29c-.87-.2-2.64-.42-5.04,.42-3.62,1.26-5,4.03-5,5.95,0,2.63,1.62,3.36,5.28,3.59,4.49,.28,6.78,1.78,6.78,5.9,0,4.34-3.03,9.14-9.3,11.32-2.56,.89-5.36,1.07-6.78,.56l.87-3.35Z"/><path class="p" d="M940.94,162.82c0-2.08-.04-3.78-.16-5.41l3.03-1.05,.16,3.2,.12-.04c1.06-2.29,2.84-4.7,5.99-5.79,2.6-.9,4.57,.08,5.4,2.17l.08-.03c.59-1.33,1.34-2.47,2.13-3.37,1.14-1.31,2.4-2.25,4.22-2.88,2.52-.88,6.26-.42,6.26,6.58v11.88l-3.39,1.18v-11.43c0-3.88-1.34-5.75-4.14-4.78-1.97,.68-3.51,2.76-4.1,4.76-.16,.55-.28,1.26-.28,1.93v12.47l-3.39,1.18v-12.09c0-3.21-1.34-5.08-3.98-4.16-2.17,.75-3.74,3.13-4.29,5.16-.2,.61-.28,1.26-.28,1.89v12.18l-3.39,1.18v-14.72Z"/><path class="p" d="M984.35,162.46l-.28-2.45-.12,.04c-1.06,1.95-3.11,4.08-5.83,5.03-3.86,1.34-5.83-.85-5.83-3.77,0-4.88,4.1-8.97,11.46-11.49v-.42c0-1.67-.43-4.52-4.33-3.17-1.77,.62-3.62,1.84-4.96,3.22l-.79-2.15c1.58-1.63,3.86-3.13,6.26-3.97,5.83-2.03,7.25,1.69,7.25,5.74v7.55c0,1.75,.08,3.43,.32,4.73l-3.15,1.09Zm-.51-10.12c-3.78,1.23-8.08,3.43-8.08,7.35,0,2.38,1.5,2.98,3.27,2.37,2.48-.86,4.06-3.08,4.61-4.98,.12-.42,.2-.86,.2-1.24v-3.5Z"/><path class="p" d="M992.78,145.65c0-2.38-.04-4.41-.16-6.24l3.03-1.05,.12,3.92,.16-.06c.87-3.01,2.95-5.45,5.28-6.25,.39-.14,.67-.19,.98-.22v3.46c-.35,.04-.71,.12-1.18,.29-2.44,.85-4.17,3.41-4.65,6.33-.08,.53-.16,1.14-.16,1.76v10.76l-3.43,1.19v-13.89Z"/><path class="p" d="M1010.78,127.3v5.8l4.96-1.72v2.79l-4.96,1.72v10.88c0,2.5,.67,3.69,2.6,3.02,.91-.31,1.58-.67,2.01-.95l.16,2.7c-.67,.52-1.73,1.1-3.07,1.57-1.62,.56-2.92,.47-3.74-.24-.98-.74-1.34-2.41-1.34-4.79v-11.01l-2.95,1.03v-2.79l2.95-1.03v-4.84l3.39-2.14Z"/><path class="p" d="M921.63,200.33c1.65-.87,3.82-1.87,6.58-2.83,3.39-1.18,5.87-1.2,7.45-.25,1.46,.83,2.32,2.57,2.32,5.07s-.71,4.79-2.05,6.72c-1.81,2.67-4.77,4.74-8.11,5.9-1.03,.36-1.97,.64-2.76,.71v11.26l-3.43,1.19v-27.77Zm3.43,12.36c.75-.05,1.69-.3,2.84-.69,4.14-1.44,6.66-4.44,6.66-8.32s-2.48-4.64-6.26-3.33c-1.5,.52-2.64,1.04-3.23,1.41v10.93Z"/><path class="p" d="M945.7,193.89c.04,1.24-.83,2.54-2.21,3.02-1.22,.42-2.09-.28-2.09-1.53s.91-2.61,2.17-3.05c1.3-.45,2.13,.26,2.13,1.56Zm-3.86,27.2v-20.18l3.47-1.2v20.18l-3.47,1.2Z"/><path class="p" d="M948.89,216.51l8.63-14.88c.83-1.37,1.62-2.6,2.48-3.99v-.08l-10.32,3.58v-2.96l14.54-5.05-.04,2.31-8.51,14.67c-.79,1.4-1.58,2.67-2.44,4.02v.08l11.15-3.87v2.92l-15.48,5.38v-2.13Z"/><path class="p" d="M965.75,210.65l8.63-14.88c.83-1.37,1.62-2.61,2.48-3.99v-.08l-10.32,3.58v-2.96l14.54-5.05-.04,2.31-8.51,14.67c-.79,1.4-1.58,2.67-2.44,4.02v.08l11.15-3.87v2.92l-15.48,5.38v-2.13Z"/><path class="p" d="M995.34,202.5l-.28-2.45-.12,.04c-1.06,1.96-3.11,4.08-5.83,5.03-3.86,1.34-5.83-.85-5.83-3.77,0-4.88,4.1-8.97,11.46-11.49v-.42c0-1.67-.43-4.52-4.33-3.16-1.77,.62-3.62,1.84-4.96,3.22l-.79-2.15c1.58-1.63,3.86-3.13,6.26-3.97,5.83-2.03,7.25,1.69,7.25,5.74v7.55c0,1.75,.08,3.43,.32,4.73l-3.15,1.09Zm-.51-10.12c-3.78,1.23-8.08,3.43-8.08,7.35,0,2.38,1.5,2.98,3.27,2.37,2.48-.86,4.06-3.08,4.61-4.98,.12-.42,.2-.86,.2-1.24v-3.5Z"/><path class="p" d="M1011.76,192.38c1.54,.47,3.78,.52,6.15-.3,3.51-1.22,5.55-3.89,5.55-6.72,0-2.63-1.42-3.64-5-3.85-4.33-.12-7.01-1.57-7.01-5.53,0-4.38,3.43-8.82,8.59-10.61,2.72-.94,4.69-.96,5.87-.66l-.94,3.29c-.87-.2-2.64-.42-5.04,.42-3.62,1.26-5,4.03-5,5.95,0,2.63,1.62,3.36,5.28,3.59,4.49,.28,6.78,1.78,6.78,5.9,0,4.34-3.03,9.14-9.3,11.32-2.56,.89-5.36,1.07-6.77,.56l.87-3.35Z"/><path class="p" d="M1035.6,162.54v5.8l4.96-1.72v2.79l-4.96,1.72v10.88c0,2.5,.67,3.69,2.6,3.02,.91-.31,1.58-.67,2.01-.95l.16,2.7c-.67,.52-1.73,1.1-3.07,1.57-1.62,.56-2.92,.47-3.74-.24-.98-.74-1.34-2.41-1.34-4.79v-11.01l-2.95,1.03v-2.79l2.95-1.03v-4.84l3.39-2.14Z"/><path class="p" d="M1061.48,169.28c0,7.46-4.88,12.41-9.49,14.01-5.16,1.79-9.14-.83-9.14-7.21,0-6.76,4.17-12.17,9.45-14,5.48-1.9,9.18,1.02,9.18,7.2Zm-15.13,5.46c0,4.42,2.4,6.92,5.79,5.74,3.31-1.15,5.79-5.3,5.79-9.85,0-3.42-1.62-7.2-5.71-5.77-4.1,1.42-5.87,6.04-5.87,9.88Z"/><path class="p" d="M1065.85,164.13c0-2.38-.04-4.41-.16-6.24l3.03-1.05,.12,3.92,.16-.05c.87-3.01,2.95-5.45,5.28-6.25,.39-.14,.67-.19,.98-.22v3.46c-.35,.04-.71,.12-1.18,.29-2.44,.85-4.18,3.41-4.65,6.33-.08,.53-.16,1.14-.16,1.76v10.76l-3.43,1.19v-13.89Z"/><path class="p" d="M1080.27,163.58c.08,4.94,3.07,5.94,6.54,4.73,2.48-.86,3.98-1.84,5.28-2.88l.59,2.42c-1.22,1.01-3.31,2.4-6.34,3.45-5.87,2.04-9.38-.83-9.38-6.92s3.39-12.06,8.94-13.99c6.22-2.16,7.88,3.06,7.88,6.77,0,.75-.08,1.36-.12,1.75l-13.39,4.65Zm10.16-6.16c.04-2.35-.91-5.65-4.81-4.29-3.5,1.22-5.04,5.17-5.32,7.81l10.12-3.52Z"/></g><path class="n" d="M769.86,802.49h-183.26c-61.26,0-85.58-24.32-85.58-85.58V158.27c0-61.26,24.32-85.58,85.58-85.58h183.26c61.26,0,85.58,24.32,85.58,85.58V716.91c0,61.26-24.32,85.58-85.58,85.58Z"/><g><path class="f" d="M461.98,519.06c239.6,72.38,211.58-93.69,431.63-170.81"/><path class="f" d="M461.98,586.97c239.6,72.38,211.58-161.6,431.63-238.72"/><path class="f" d="M461.98,586.97c239.6,72.38,211.58-8.37,431.63-85.49"/><path class="f" d="M461.98,519.06c225.26,74.46,259.26,106.56,431.63,47.97"/><path class="f" d="M893.62,501.48c-198.6,55.22-240.04-8.24-440.24-72.97"/><path class="f" d="M453.37,428.51c190.73,56.41,207.49,370.77,446.08,296.54"/><path class="f" d="M453.37,719.51c208.97,66.22,210.25-151.64,440.24-218.03"/><path class="f" d="M453.37,719.51c208.97,66.22,210.25-86.09,440.24-152.48"/><path class="f" d="M453.37,719.51c208.97,66.22,210.25-304.87,440.24-371.26"/><path class="f" d="M453.37,657.14c208.97,66.22,210.25-242.5,440.24-308.89"/><path class="f" d="M453.37,657.14c208.97,66.22,210.25-164.5,440.24-230.89"/></g></g></g></g></g></svg>