<svg fill="none" height="172" viewBox="0 0 172 172" width="172" xmlns="http://www.w3.org/2000/svg"><circle cx="86" cy="86" fill="#ffb480" r="86" transform="matrix(0 1 -1 0 172 0)"/><path d="m86 172c-11.8917 0-23.6541-2.466-34.5443-7.243-10.8901-4.776-20.6713-11.76-28.7257-20.508-8.0543-8.749-14.20676-19.073-18.06864-30.32-3.861875-11.247-5.349251-23.173-4.368168-35.0242.981078-11.8511 4.409298-23.37 10.068108-33.8289 5.6588-10.459 13.4251-19.6307 22.8085-26.9358 9.3833-7.3051 20.1797-12.58484 31.7071-15.50565 11.5274-2.9208 23.5352-3.419207 35.2651-1.46373l-14.142 84.82928z" fill="#ff6900"/></svg>