<svg enable-background="new 0 0 1469.2 445.9" viewBox="0 0 1469.2 445.9" xmlns="http://www.w3.org/2000/svg" xmlns:xlink="http://www.w3.org/1999/xlink"><clipPath id="a"><path d="m0 0h1469.2v445.9h-1469.2z"/></clipPath><g clip-path="url(#a)" fill="none" stroke="#fff" stroke-miterlimit="10"><path d="m0 0-343.8 445.9"/><path d="m20.8 0-343.8 445.9"/><path d="m41.7 0-343.9 445.9"/><path d="m62.5 0-343.8 445.9"/><path d="m83.4 0-343.9 445.9"/><path d="m104.2 0-343.8 445.9"/><path d="m125 0-343.8 445.9"/><path d="m145.9 0-343.9 445.9"/><path d="m166.7 0-343.8 445.9"/><path d="m187.6 0-343.9 445.9"/><path d="m208.4 0-343.9 445.9"/><path d="m229.2 0-343.8 445.9"/><path d="m250.1 0-343.9 445.9"/><path d="m270.9 0-343.8 445.9"/><path d="m291.7 0-343.8 445.9"/><path d="m312.6 0-343.9 445.9"/><path d="m333.4 0-343.8 445.9"/><path d="m354.3 0-343.9 445.9"/><path d="m375.1 0-343.8 445.9"/><path d="m395.9 0-343.8 445.9"/><path d="m416.8 0-343.9 445.9"/><path d="m437.6 0-343.8 445.9"/><path d="m458.5 0-343.9 445.9"/><path d="m479.3 0-343.8 445.9"/><path d="m500.1 0-343.8 445.9"/><path d="m521 0-343.9 445.9"/><path d="m541.8 0-343.8 445.9"/><path d="m562.7 0-343.9 445.9"/><path d="m583.5 0-343.9 445.9"/><path d="m604.3 0-343.8 445.9"/><path d="m625.2 0-343.9 445.9"/><path d="m646 0-343.8 445.9"/><path d="m666.8 0-343.8 445.9"/><path d="m687.7 0-343.9 445.9"/><path d="m708.5 0-343.8 445.9"/><path d="m729.4 0-343.9 445.9"/><path d="m750.2 0-343.8 445.9"/><path d="m771 0-343.8 445.9"/><path d="m791.9 0-343.9 445.9"/><path d="m812.7 0-343.8 445.9"/><path d="m833.6 0-343.9 445.9"/><path d="m854.4 0-343.8 445.9"/><path d="m875.2 0-343.8 445.9"/><path d="m896.1 0-343.9 445.9"/><path d="m916.9 0-343.8 445.9"/><path d="m937.8 0-343.9 445.9"/><path d="m958.6 0-343.8 445.9"/><path d="m979.4 0-343.8 445.9"/><path d="m1000.3 0-343.9 445.9"/><path d="m1021.1 0-343.8 445.9"/><path d="m1042 0-343.9 445.9"/><path d="m1062.8 0-343.9 445.9"/><path d="m1083.6 0-343.8 445.9"/><path d="m1104.5 0-343.9 445.9"/><path d="m1125.3 0-343.8 445.9"/><path d="m1146.1 0-343.8 445.9"/><path d="m1167 0-343.9 445.9"/><path d="m1187.8 0-343.8 445.9"/><path d="m1208.7 0-343.9 445.9"/><path d="m1229.5 0-343.8 445.9"/><path d="m1250.3 0-343.8 445.9"/><path d="m1271.2 0-343.9 445.9"/><path d="m1292 0-343.8 445.9"/><path d="m1312.9 0-343.9 445.9"/><path d="m1333.7 0-343.8 445.9"/><path d="m1354.5 0-343.8 445.9"/><path d="m1375.4 0-343.9 445.9"/><path d="m1396.2 0-343.8 445.9"/><path d="m1417.1 0-343.9 445.9"/><path d="m1437.9 0-343.9 445.9"/><path d="m1458.7 0-343.8 445.9"/><path d="m1479.6 0-343.9 445.9"/><path d="m1500.4 0-343.8 445.9"/><path d="m1521.2 0-343.8 445.9"/><path d="m1542.1 0-343.9 445.9"/><path d="m1562.9 0-343.8 445.9"/><path d="m1583.8 0-343.9 445.9"/><path d="m1604.6 0-343.8 445.9"/><path d="m1625.4 0-343.8 445.9"/><path d="m1646.3 0-343.9 445.9"/><path d="m1667.1 0-343.8 445.9"/><path d="m1688 0-343.9 445.9"/><path d="m1708.8 0-343.8 445.9"/><path d="m1729.6 0-343.8 445.9"/><path d="m1750.5 0-343.9 445.9"/><path d="m1771.3 0-343.8 445.9"/><path d="m1792.2 0-343.9 445.9"/><path d="m1813 0-343.8 445.9"/></g></svg>