<svg fill="none" height="20" viewBox="0 0 19 20" width="19" xmlns="http://www.w3.org/2000/svg"><g fill="#fff"><path d="m15 7h2.75c.6904 0 1.25.55964 1.25 1.25v8.875c0 1.0355-.8395 1.875-1.875 1.875h-.25c-1.0355 0-1.875-.8395-1.875-1.875z"/><path clip-rule="evenodd" d="m0 2.5c0-1.38071 1.11929-2.5 2.5-2.5h9c1.3807 0 2.5 1.11929 2.5 2.5v5.5 9.6809.4441c0 .9961.7768 1.8108 1.7577 1.8714-.0096.0023-.0199.0036-.0306.0036h-13.2271c-1.38071 0-2.5-1.1193-2.5-2.5zm3 3.75c-.41421 0-.75.33579-.75.75s.33579.75.75.75h8c.4142 0 .75-.33579.75-.75s-.3358-.75-.75-.75zm-.75 3.75c0-.41421.33579-.75.75-.75h8c.4142 0 .75.33579.75.75 0 .4142-.3358.75-.75.75h-8c-.41421 0-.75-.3358-.75-.75zm.75 2.25c-.41421 0-.75.3358-.75.75s.33579.75.75.75h8c.4142 0 .75-.3358.75-.75s-.3358-.75-.75-.75z" fill-rule="evenodd"/></g></svg>