<svg fill="none" height="437" viewBox="0 0 440 437" width="440" xmlns="http://www.w3.org/2000/svg"><path d="m87.565 244.46 135.416 95.415 138.965-111.072-31.352-145.8138-203.202-5.4785z" fill="#fe752c" opacity=".3" stroke="#ff6900"/><path d="m203.58 406v-11.72h4.52v-2.28h-11.62v2.28h4.5v11.72zm8.794.22c.427 0 .82-.047 1.18-.14s.693-.227 1-.4.58-.38.82-.62c.24-.253.44-.533.6-.84 0 .307.027.573.08.8.067.227.16.42.28.58.133.147.307.26.52.34s.473.12.78.12c.28 0 .553-.007.82-.02.28 0 .54-.007.78-.02v-1.2c-.067.013-.127.027-.18.04-.053 0-.107 0-.16 0-.253 0-.427-.113-.52-.34-.08-.227-.12-.567-.12-1.02l.02-4.36c0-.72-.1-1.327-.3-1.82s-.487-.893-.86-1.2c-.373-.32-.827-.553-1.36-.7-.52-.147-1.113-.22-1.78-.22s-1.28.08-1.84.24c-.56.147-1.047.38-1.46.7-.413.307-.74.693-.98 1.16-.227.467-.34 1.013-.34 1.64v.1h2.32v-.1c0-.373.053-.673.16-.9s.26-.407.46-.54c.2-.147.433-.247.7-.3s.553-.08.86-.08c.333 0 .62.033.86.1.253.053.467.14.64.26.173.107.3.253.38.44.093.173.14.38.14.62v.1c0 .307-.08.553-.24.74-.16.173-.38.307-.66.4-.267.093-.573.167-.92.22-.347.04-.713.08-1.1.12-.467.053-.94.12-1.42.2s-.913.227-1.3.44c-.387.2-.7.487-.94.86-.24.36-.36.853-.36 1.48v.12c0 .507.093.953.28 1.34.187.373.44.687.76.94.32.24.687.42 1.1.54s.847.18 1.3.18zm.88-1.84c-.28 0-.533-.033-.76-.1s-.42-.16-.58-.28c-.16-.133-.287-.287-.38-.46-.08-.173-.12-.38-.12-.62v-.08c0-.347.08-.613.24-.8.16-.2.367-.34.62-.42.253-.093.527-.153.82-.18.307-.04.587-.073.84-.1.2-.04.393-.073.58-.1.2-.04.38-.087.54-.14.173-.053.327-.113.46-.18.147-.067.267-.14.36-.22v.94c0 .453-.06.853-.18 1.2-.12.333-.3.613-.54.84-.227.227-.5.4-.82.52-.307.12-.667.18-1.08.18zm11.865 1.88c.626 0 1.213-.06 1.76-.18.56-.107 1.046-.287 1.46-.54.413-.267.74-.607.98-1.02.253-.427.38-.947.38-1.56v-.12c0-.56-.114-1.02-.34-1.38-.227-.373-.527-.667-.9-.88-.374-.227-.794-.393-1.26-.5-.467-.12-.94-.227-1.42-.32-.387-.08-.74-.153-1.06-.22-.307-.08-.574-.173-.8-.28-.227-.12-.407-.253-.54-.4-.12-.16-.18-.353-.18-.58v-.1c0-.213.046-.393.14-.54.093-.16.226-.287.4-.38.173-.093.373-.16.6-.2.226-.04.466-.06.72-.06.293 0 .56.033.8.1.253.067.473.167.66.3.186.12.333.273.44.46.106.187.16.4.16.64v.12h2.42v-.18c-.014-.547-.14-1.02-.38-1.42-.227-.4-.54-.733-.94-1-.387-.28-.847-.487-1.38-.62-.534-.133-1.107-.2-1.72-.2-.574 0-1.127.053-1.66.16-.52.107-.987.28-1.4.52-.4.24-.727.553-.98.94-.24.387-.36.86-.36 1.42v.12c0 .573.106 1.04.32 1.4.226.36.52.653.88.88.373.213.793.387 1.26.52.48.12.98.227 1.5.32.36.08.693.153 1 .22.306.067.573.153.8.26.24.093.42.22.54.38.133.16.2.373.2.64v.1c0 .28-.054.507-.16.68-.094.16-.234.293-.42.4-.187.107-.407.187-.66.24-.24.04-.507.06-.8.06-.32 0-.627-.033-.92-.1-.28-.08-.527-.187-.74-.32-.214-.147-.38-.327-.5-.54s-.187-.467-.2-.76v-.12h-2.48v.16c.04.573.18 1.08.42 1.52s.56.807.96 1.1c.413.293.906.507 1.48.64.586.147 1.226.22 1.92.22zm10.263-.1c.307 0 .653-.02 1.04-.06.387-.027.72-.08 1-.16v-2.04c-.227.053-.48.093-.76.12-.28.013-.52.02-.72.02s-.38-.013-.54-.04c-.147-.027-.273-.08-.38-.16-.093-.093-.167-.22-.22-.38s-.08-.367-.08-.62v-5.3h2.7v-2.08h-2.7v-2.36h-2.32v2.36h-1.84v2.08h1.84v6.1c0 .44.053.82.16 1.14.12.32.3.58.54.78.253.2.567.347.94.44.373.107.82.16 1.34.16zm8.7.1c.72 0 1.36-.087 1.92-.26.573-.187 1.053-.433 1.44-.74.4-.32.707-.68.92-1.08.213-.413.333-.853.36-1.32v-.14h-2.24l-.02.1c-.013.2-.073.393-.18.58s-.26.353-.46.5-.447.267-.74.36c-.28.08-.607.12-.98.12-.533 0-.987-.087-1.36-.26-.36-.187-.66-.427-.9-.72-.24-.307-.42-.66-.54-1.06-.107-.413-.16-.833-.16-1.26v-.92c0-.427.053-.827.16-1.2s.267-.7.48-.98c.227-.28.513-.5.86-.66s.76-.24 1.24-.24c.387 0 .74.067 1.06.2.32.12.593.293.82.52s.407.507.54.84c.133.32.2.68.2 1.08v.1h-6v1.44h8.4v-1c0-.787-.127-1.487-.38-2.1-.24-.627-.58-1.16-1.02-1.6s-.973-.773-1.6-1c-.613-.24-1.293-.36-2.04-.36-.84 0-1.587.133-2.24.4-.64.267-1.18.64-1.62 1.12-.427.48-.753 1.053-.98 1.72-.213.667-.32 1.4-.32 2.2v.12c0 .813.107 1.56.32 2.24.227.68.567 1.267 1.02 1.76.453.48 1.013.853 1.68 1.12.667.253 1.453.38 2.36.38zm-58.239 23.74v-10.54h-2.42v10.54zm-1.2-12.04c.214 0 .407-.027.58-.08.174-.053.32-.127.44-.22.134-.107.234-.24.3-.4.08-.16.12-.34.12-.54s-.04-.373-.12-.52c-.066-.147-.166-.273-.3-.38-.12-.107-.266-.187-.44-.24-.173-.053-.366-.08-.58-.08-.2 0-.393.027-.58.08-.173.053-.326.133-.46.24-.12.107-.22.233-.3.38s-.12.32-.12.52.034.38.1.54c.08.16.18.293.3.4.134.093.287.167.46.22.187.053.387.08.6.08zm6.375 12.04v-5.94c0-.4.047-.76.14-1.08.094-.333.24-.613.44-.84.2-.24.447-.42.74-.54.307-.133.667-.2 1.08-.2.36 0 .667.06.92.18.267.107.48.267.64.48.16.2.28.453.36.76.08.293.12.64.12 1.04v6.14h2.42v-6.68c0-.653-.073-1.227-.22-1.72-.146-.507-.366-.933-.66-1.28-.293-.347-.66-.607-1.1-.78-.426-.187-.933-.28-1.52-.28-.386 0-.753.033-1.1.1-.333.067-.646.173-.94.32-.28.133-.533.307-.76.52-.213.213-.4.46-.56.74v-1.48h-2.4v10.54zm12.977.16c.307 0 .653-.02 1.04-.06.387-.027.72-.08 1-.16v-2.04c-.227.053-.48.093-.76.12-.28.013-.52.02-.72.02s-.38-.013-.54-.04c-.147-.027-.273-.08-.38-.16-.093-.093-.167-.22-.22-.38s-.08-.367-.08-.62v-5.3h2.7v-2.08h-2.7v-2.36h-2.32v2.36h-1.84v2.08h1.84v6.1c0 .44.053.82.16 1.14.12.32.3.58.54.78.253.2.567.347.94.44.373.107.82.16 1.34.16zm8.7.1c.72 0 1.36-.087 1.92-.26.573-.187 1.053-.433 1.44-.74.4-.32.707-.68.92-1.08.213-.413.333-.853.36-1.32v-.14h-2.24l-.02.1c-.013.2-.073.393-.18.58s-.26.353-.46.5-.447.267-.74.36c-.28.08-.607.12-.98.12-.533 0-.987-.087-1.36-.26-.36-.187-.66-.427-.9-.72-.24-.307-.42-.66-.54-1.06-.107-.413-.16-.833-.16-1.26v-.92c0-.427.053-.827.16-1.2s.267-.7.48-.98c.227-.28.513-.5.86-.66s.76-.24 1.24-.24c.387 0 .74.067 1.06.2.32.12.593.293.82.52s.407.507.54.84c.133.32.2.68.2 1.08v.1h-6v1.44h8.4v-1c0-.787-.127-1.487-.38-2.1-.24-.627-.58-1.16-1.02-1.6s-.973-.773-1.6-1c-.613-.24-1.293-.36-2.04-.36-.84 0-1.587.133-2.24.4-.64.267-1.18.64-1.62 1.12-.427.48-.753 1.053-.98 1.72-.213.667-.32 1.4-.32 2.2v.12c0 .813.107 1.56.32 2.24.227.68.567 1.267 1.02 1.76.453.48 1.013.853 1.68 1.12.667.253 1.453.38 2.36.38zm9.378-.26v-5.94c0-.4.047-.76.14-1.08.093-.333.24-.613.44-.84.2-.24.447-.42.74-.54.307-.133.667-.2 1.08-.2.36 0 .667.06.92.18.267.107.48.267.64.48.16.2.28.453.36.76.08.293.12.64.12 1.04v6.14h2.42v-6.68c0-.653-.073-1.227-.22-1.72-.147-.507-.367-.933-.66-1.28s-.66-.607-1.1-.78c-.427-.187-.933-.28-1.52-.28-.387 0-.753.033-1.1.1-.333.067-.647.173-.94.32-.28.133-.533.307-.76.52-.213.213-.4.46-.56.74v-1.48h-2.4v10.54zm13.417.26c.627 0 1.213-.06 1.76-.18.56-.107 1.047-.287 1.46-.54.413-.267.74-.607.98-1.02.253-.427.38-.947.38-1.56v-.12c0-.56-.113-1.02-.34-1.38-.227-.373-.527-.667-.9-.88-.373-.227-.793-.393-1.26-.5-.467-.12-.94-.227-1.42-.32-.387-.08-.74-.153-1.06-.22-.307-.08-.573-.173-.8-.28-.227-.12-.407-.253-.54-.4-.12-.16-.18-.353-.18-.58v-.1c0-.213.047-.393.14-.54.093-.16.227-.287.4-.38s.373-.16.6-.2.467-.06.72-.06c.293 0 .56.033.8.1.253.067.473.167.66.3.187.12.333.273.44.46s.16.4.16.64v.12h2.42v-.18c-.013-.547-.14-1.02-.38-1.42-.227-.4-.54-.733-.94-1-.387-.28-.847-.487-1.38-.62s-1.107-.2-1.72-.2c-.573 0-1.127.053-1.66.16-.52.107-.987.28-1.4.52-.4.24-.727.553-.98.94-.24.387-.36.86-.36 1.42v.12c0 .573.107 1.04.32 1.4.227.36.52.653.88.88.373.213.793.387 1.26.52.48.12.98.227 1.5.32.36.08.693.153 1 .22s.573.153.8.26c.24.093.42.22.54.38.133.16.2.373.2.64v.1c0 .28-.053.507-.16.68-.093.16-.233.293-.42.4s-.407.187-.66.24c-.24.04-.507.06-.8.06-.32 0-.627-.033-.92-.1-.28-.08-.527-.187-.74-.32-.213-.147-.38-.327-.5-.54s-.187-.467-.2-.76v-.12h-2.48v.16c.04.573.18 1.08.42 1.52s.56.807.96 1.1c.413.293.907.507 1.48.64.587.147 1.227.22 1.92.22zm9.123-.26v-10.54h-2.42v10.54zm-1.2-12.04c.213 0 .407-.027.58-.08s.32-.127.44-.22c.133-.107.233-.24.3-.4.08-.16.12-.34.12-.54s-.04-.373-.12-.52c-.067-.147-.167-.273-.3-.38-.12-.107-.267-.187-.44-.24s-.367-.08-.58-.08c-.2 0-.393.027-.58.08-.173.053-.327.133-.46.24-.12.107-.22.233-.3.38s-.12.32-.12.52.033.38.1.54c.08.16.18.293.3.4.133.093.287.167.46.22.187.053.387.08.6.08zm7.555 12.2c.306 0 .653-.02 1.04-.06.386-.027.72-.08 1-.16v-2.04c-.227.053-.48.093-.76.12-.28.013-.52.02-.72.02s-.38-.013-.54-.04c-.147-.027-.274-.08-.38-.16-.094-.093-.167-.22-.22-.38-.054-.16-.08-.367-.08-.62v-5.3h2.7v-2.08h-2.7v-2.36h-2.32v2.36h-1.84v2.08h1.84v6.1c0 .44.053.82.16 1.14.12.32.3.58.54.78.253.2.566.347.94.44.373.107.82.16 1.34.16zm5.52 3.66c.533 0 .986-.067 1.36-.2.373-.12.693-.307.96-.56.266-.253.493-.573.68-.96.186-.373.366-.82.54-1.34l3.8-11.3h-2.48l-2.22 7.36-2.82-7.36h-2.66l4.3 10.38-.18.56c-.08.28-.174.507-.28.68-.094.187-.207.327-.34.42-.12.107-.26.18-.42.22s-.347.06-.56.06c-.214 0-.407-.013-.58-.04-.16-.013-.314-.033-.46-.06v1.98c.213.04.433.073.66.1.226.04.46.06.7.06z" fill="#000"/><path d="m12.74 296.32c1.08 0 2.04-.173 2.88-.52.84-.36 1.5467-.86 2.12-1.5.5867-.653 1.0267-1.42 1.32-2.3.2933-.893.44-1.873.44-2.94v-.12c0-1.067-.1467-2.04-.44-2.92-.28-.893-.7133-1.66-1.3-2.3-.5867-.653-1.3067-1.153-2.16-1.5-.8533-.36-1.84-.54-2.96-.54-1.0667 0-2.02.187-2.86.56-.82667.36-1.53333.867-2.12 1.52-.57333.64-1.01333 1.407-1.32 2.3-.30667.88-.46 1.84-.46 2.88v.12c0 1.093.14667 2.087.44 2.98.30667.893.75333 1.66 1.34 2.3.58667.627 1.3 1.113 2.14 1.46.8533.347 1.8333.52 2.94.52zm-.02-2.28c-.6933 0-1.3-.12-1.82-.36s-.95333-.58-1.3-1.02c-.33333-.44-.58667-.96-.76-1.56s-.26-1.26-.26-1.98v-.12c0-.747.08-1.427.24-2.04.17333-.627.42667-1.16.76-1.6.34667-.453.78-.8 1.3-1.04s1.1333-.36 1.84-.36c.6933 0 1.2933.127 1.8.38.52.24.9467.587 1.28 1.04.3333.44.58.967.74 1.58.1733.6.26 1.273.26 2.02v.12c0 .707-.08 1.36-.24 1.96-.1467.6-.3867 1.12-.72 1.56s-.76.787-1.28 1.04c-.5067.253-1.12.38-1.84.38zm12.6306 2.12c.3067 0 .6534-.02 1.04-.06.3867-.027.72-.08 1-.16v-2.04c-.2266.053-.48.093-.76.12-.28.013-.52.02-.72.02s-.38-.013-.54-.04c-.1466-.027-.2733-.08-.38-.16-.0933-.093-.1666-.22-.22-.38-.0533-.16-.08-.367-.08-.62v-5.3h2.7v-2.08h-2.7v-2.36h-2.32v2.36h-1.84v2.08h1.84v6.1c0 .44.0534.82.16 1.14.12.32.3.58.54.78.2534.2.5667.347.94.44.3734.107.82.16 1.34.16zm6.32-.16v-5.94c0-.4.0467-.76.14-1.08.0934-.333.24-.613.44-.84.2-.24.4467-.42.74-.54.3067-.133.6667-.2 1.08-.2.36 0 .6667.06.92.18.2667.107.48.267.64.48.16.2.28.453.36.76.08.293.12.64.12 1.04v6.14h2.42v-6.68c0-.653-.0733-1.227-.22-1.72-.1466-.507-.3666-.933-.66-1.28-.2933-.347-.66-.607-1.1-.78-.4266-.187-.9333-.28-1.52-.28-.3866 0-.7533.033-1.1.1-.3333.067-.6466.173-.94.32-.28.133-.5333.307-.76.52-.2133.213-.4.46-.56.74v-4.94h-2.4v14zm14.2746.26c.72 0 1.36-.087 1.92-.26.5733-.187 1.0533-.433 1.44-.74.4-.32.7066-.68.92-1.08.2133-.413.3333-.853.36-1.32v-.14h-2.24l-.02.1c-.0134.2-.0734.393-.18.58-.1067.187-.26.353-.46.5s-.4467.267-.74.36c-.28.08-.6067.12-.98.12-.5334 0-.9867-.087-1.36-.26-.36-.187-.66-.427-.9-.72-.24-.307-.42-.66-.54-1.06-.1067-.413-.16-.833-.16-1.26v-.92c0-.427.0533-.827.16-1.2.1066-.373.2666-.7.48-.98.2266-.28.5133-.5.86-.66.3466-.16.76-.24 1.24-.24.3866 0 .74.067 1.06.2.32.12.5933.293.82.52.2266.227.4066.507.54.84.1333.32.2.68.2 1.08v.1h-6v1.44h8.4v-1c0-.787-.1267-1.487-.38-2.1-.24-.627-.58-1.16-1.02-1.6s-.9734-.773-1.6-1c-.6134-.24-1.2934-.36-2.04-.36-.84 0-1.5867.133-2.24.4-.64.267-1.18.64-1.62 1.12-.4267.48-.7534 1.053-.98 1.72-.2134.667-.32 1.4-.32 2.2v.12c0 .813.1066 1.56.32 2.24.2266.68.5666 1.267 1.02 1.76.4533.48 1.0133.853 1.68 1.12.6666.253 1.4533.38 2.36.38zm9.3778-.26v-5.3c0-.573.06-1.06.18-1.46.1333-.4.34-.727.62-.98.28-.267.6466-.46 1.1-.58.4533-.12 1-.18 1.64-.18h.28v-2.14c-.0534 0-.1067 0-.16 0-.0534-.013-.1134-.02-.18-.02-.4 0-.7867.047-1.16.14-.36.08-.6867.213-.98.4-.2934.173-.5534.393-.78.66-.2267.267-.4134.58-.56.94v-2.02h-2.4v10.54z" fill="#000"/><path d="m223 204 1 137" stroke="#ff6900" stroke-width="2"/><path d="m285.738 269.002c-1.105-.973-1.213-2.658-.24-3.764.973-1.105 2.658-1.213 3.764-.24 1.105.973 1.213 2.658.24 3.764-.973 1.105-2.658 1.213-3.764.24zm-62.389-65.36 64.5 63-.698.716-64.5-63z" fill="#ff6900" opacity=".5"/><path d="m272.947 324.94c-.59-1.35.025-2.922 1.375-3.512 1.349-.591 2.921.025 3.511 1.374.591 1.349-.024 2.922-1.374 3.512-1.349.59-2.921-.025-3.512-1.374zm-49.489-120.641 52.39 119.371-.915.402-52.391-119.371z" fill="#ff6900" opacity=".5"/><path d="m223 204 139.5 24.5" stroke="#ff6900" stroke-width="2"/><path d="m319.409 173.053c-.856-1.199-.579-2.864.62-3.72 1.198-.856 2.863-.579 3.72.62.856 1.198.578 2.864-.62 3.72-1.199.856-2.864.578-3.72-.62zm-96.566 30.472 98.579-32.497.313.95-98.578 32.497z" fill="#ff6900" opacity=".5"/><path d="m223 204 107-121" stroke="#ff6900" stroke-width="2"/><path d="m220.83 75.55c-.856-1.1984-.578-2.8639.62-3.7199 1.198-.8561 2.864-.5785 3.72.6199s.578 2.8639-.62 3.7199c-1.198.8561-2.864.5785-3.72-.6199zm1.67 128.95v-130.5h1v130.5z" fill="#ff6900" opacity=".5"/><path d="m223 204-135.5 40" stroke="#ff6900" stroke-width="2"/><path d="m150.67 302.45c.856 1.198.578 2.864-.62 3.72s-2.864.578-3.72-.62-.578-2.864.62-3.72 2.864-.578 3.72.62zm72.152-96.873-73.922 98.723-.8-.6 73.922-98.722z" fill="#ff6900" opacity=".5"/><path d="m223 204-94.5-125.5" stroke="#ff6900" stroke-width="2"/><path d="m85.5001 180 136.9999 24-119.5-78" opacity=".5" stroke="#ff6900"/><path d="m368.979 293v-11.72h4.52v-2.28h-11.62v2.28h4.5v11.72zm10.733.26c.907 0 1.687-.133 2.34-.4.667-.28 1.214-.66 1.64-1.14.427-.493.74-1.073.94-1.74.214-.68.32-1.407.32-2.18v-.12c0-.8-.113-1.533-.34-2.2-.226-.68-.566-1.26-1.02-1.74-.44-.48-.986-.853-1.64-1.12-.653-.28-1.406-.42-2.26-.42-.84 0-1.586.133-2.24.4-.653.267-1.206.647-1.66 1.14-.453.48-.793 1.053-1.02 1.72-.226.667-.34 1.407-.34 2.22v.12c0 .813.114 1.553.34 2.22.227.667.567 1.247 1.02 1.74.454.48 1.007.853 1.66 1.12.667.253 1.42.38 2.26.38zm.06-1.98c-.466 0-.873-.08-1.22-.24-.346-.173-.64-.413-.88-.72s-.42-.673-.54-1.1c-.12-.44-.18-.92-.18-1.44v-.12c0-.507.054-.973.16-1.4.107-.427.274-.793.5-1.1.24-.307.534-.547.88-.72.347-.173.747-.26 1.2-.26.454 0 .847.087 1.18.26.347.173.634.42.86.74.24.307.42.673.54 1.1s.18.887.18 1.38v.12c0 .533-.06 1.02-.18 1.46-.12.427-.293.793-.52 1.1-.226.307-.506.54-.84.7-.333.16-.713.24-1.14.24zm9.731 5.32v-5.16c.173.307.373.573.6.8.226.227.486.413.78.56.293.147.613.253.96.32.346.08.713.12 1.1.12.72 0 1.353-.133 1.9-.4.56-.267 1.026-.64 1.4-1.12.373-.493.653-1.08.84-1.76.186-.68.28-1.433.28-2.26v-.12c0-.787-.087-1.507-.26-2.16-.174-.653-.447-1.213-.82-1.68-.36-.48-.82-.853-1.38-1.12-.547-.267-1.2-.4-1.96-.4-.387 0-.754.04-1.1.12-.334.067-.647.173-.94.32-.294.147-.56.34-.8.58-.227.227-.427.507-.6.84v-1.62h-2.4v14.14zm2.78-5.34c-.494 0-.92-.087-1.28-.26-.347-.173-.634-.413-.86-.72-.227-.307-.394-.66-.5-1.06-.094-.4-.14-.833-.14-1.3v-.18c0-.453.046-.893.14-1.32.093-.427.24-.8.44-1.12.213-.333.486-.6.82-.8.346-.2.773-.3 1.28-.3.48 0 .886.093 1.22.28.346.187.626.433.84.74.213.307.366.667.46 1.08.093.413.14.853.14 1.32v.12c0 .427-.04.853-.12 1.28-.08.413-.22.787-.42 1.12s-.467.607-.8.82c-.334.2-.74.3-1.22.3zm9.642 5.34v-5.16c.173.307.373.573.6.8.226.227.486.413.78.56.293.147.613.253.96.32.346.08.713.12 1.1.12.72 0 1.353-.133 1.9-.4.56-.267 1.026-.64 1.4-1.12.373-.493.653-1.08.84-1.76.186-.68.28-1.433.28-2.26v-.12c0-.787-.087-1.507-.26-2.16-.174-.653-.447-1.213-.82-1.68-.36-.48-.82-.853-1.38-1.12-.547-.267-1.2-.4-1.96-.4-.387 0-.754.04-1.1.12-.334.067-.647.173-.94.32-.294.147-.56.34-.8.58-.227.227-.427.507-.6.84v-1.62h-2.4v14.14zm2.78-5.34c-.494 0-.92-.087-1.28-.26-.347-.173-.634-.413-.86-.72-.227-.307-.394-.66-.5-1.06-.094-.4-.14-.833-.14-1.3v-.18c0-.453.046-.893.14-1.32.093-.427.24-.8.44-1.12.213-.333.486-.6.82-.8.346-.2.773-.3 1.28-.3.48 0 .886.093 1.22.28.346.187.626.433.84.74.213.307.366.667.46 1.08.093.413.14.853.14 1.32v.12c0 .427-.04.853-.12 1.28-.08.413-.22.787-.42 1.12s-.467.607-.8.82c-.334.2-.74.3-1.22.3zm9.681 1.74v-10.54h-2.42v10.54zm-1.2-12.04c.214 0 .407-.027.58-.08.174-.053.32-.127.44-.22.134-.107.234-.24.3-.4.08-.16.12-.34.12-.54s-.04-.373-.12-.52c-.066-.147-.166-.273-.3-.38-.12-.107-.266-.187-.44-.24-.173-.053-.366-.08-.58-.08-.2 0-.393.027-.58.08-.173.053-.326.133-.46.24-.12.107-.22.233-.3.38s-.12.32-.12.52.034.38.1.54c.08.16.18.293.3.4.134.093.287.167.46.22.187.053.387.08.6.08zm6.375 12.04v-5.94c0-.4.047-.76.14-1.08.094-.333.24-.613.44-.84.2-.24.447-.42.74-.54.307-.133.667-.2 1.08-.2.36 0 .667.06.92.18.267.107.48.267.64.48.16.2.28.453.36.76.08.293.12.64.12 1.04v6.14h2.42v-6.68c0-.653-.073-1.227-.22-1.72-.146-.507-.366-.933-.66-1.28-.293-.347-.66-.607-1.1-.78-.426-.187-.933-.28-1.52-.28-.386 0-.753.033-1.1.1-.333.067-.646.173-.94.32-.28.133-.533.307-.76.52-.213.213-.4.46-.56.74v-1.48h-2.4v10.54zm14.097 3.94c.827 0 1.553-.1 2.18-.3.627-.187 1.147-.48 1.56-.88.413-.387.72-.88.92-1.48.2-.587.3-1.28.3-2.08v-9.74h-2.4v1.54c-.173-.307-.38-.573-.62-.8-.227-.227-.487-.413-.78-.56s-.613-.253-.96-.32-.713-.1-1.1-.1c-.707 0-1.34.127-1.9.38-.547.253-1.007.62-1.38 1.1-.373.467-.653 1.04-.84 1.72s-.28 1.447-.28 2.3v.12c0 .787.087 1.507.26 2.16.173.64.44 1.193.8 1.66.36.453.82.807 1.38 1.06s1.213.38 1.96.38c.4 0 .773-.04 1.12-.12s.66-.193.94-.34c.293-.147.553-.34.78-.58.24-.24.447-.52.62-.84v1.24c0 .44-.047.827-.14 1.16-.08.347-.227.627-.44.84-.2.227-.46.393-.78.5-.32.12-.713.18-1.18.18-.293 0-.573-.033-.84-.1s-.507-.16-.72-.28c-.2-.12-.367-.267-.5-.44-.12-.173-.18-.373-.18-.6v-.1h-2.34v.12c0 .493.1.933.3 1.32.2.4.487.733.86 1 .387.28.86.493 1.42.64.573.16 1.233.24 1.98.24zm-.12-5.76c-.48 0-.893-.093-1.24-.28-.333-.187-.607-.433-.82-.74s-.367-.66-.46-1.06c-.093-.413-.14-.847-.14-1.3v-.12c0-.427.04-.847.12-1.26.08-.427.22-.8.42-1.12.2-.333.467-.6.8-.8s.74-.3 1.22-.3c.493 0 .913.087 1.26.26.36.173.647.413.86.72.227.293.393.64.5 1.04.107.387.16.813.16 1.28v.18c0 .44-.047.873-.14 1.3-.093.413-.247.787-.46 1.12-.213.32-.487.58-.82.78s-.753.3-1.26.3zm-61.762 26.04c.427 0 .82-.047 1.18-.14s.694-.227 1-.4c.307-.173.58-.38.82-.62.24-.253.44-.533.6-.84 0 .307.027.573.08.8.067.227.16.42.28.58.134.147.307.26.52.34.214.08.474.12.78.12.28 0 .554-.007.82-.02.28 0 .54-.007.78-.02v-1.2c-.066.013-.126.027-.18.04-.053 0-.106 0-.16 0-.253 0-.426-.113-.52-.34-.08-.227-.12-.567-.12-1.02l.02-4.36c0-.72-.1-1.327-.3-1.82s-.486-.893-.86-1.2c-.373-.32-.826-.553-1.36-.7-.52-.147-1.113-.22-1.78-.22-.666 0-1.28.08-1.84.24-.56.147-1.046.38-1.46.7-.413.307-.74.693-.98 1.16-.226.467-.34 1.013-.34 1.64v.1h2.32v-.1c0-.373.054-.673.16-.9.107-.227.26-.407.46-.54.2-.147.434-.247.7-.3.267-.053.554-.08.86-.08.334 0 .62.033.86.1.254.053.467.14.64.26.174.107.3.253.38.44.094.173.14.38.14.62v.1c0 .307-.08.553-.24.74-.16.173-.38.307-.66.4-.266.093-.573.167-.92.22-.346.04-.713.08-1.1.12-.466.053-.94.12-1.42.2s-.913.227-1.3.44c-.386.2-.7.487-.94.86-.24.36-.36.853-.36 1.48v.12c0 .507.094.953.28 1.34.187.373.44.687.76.94.32.24.687.42 1.1.54.414.12.847.18 1.3.18zm.88-1.84c-.28 0-.533-.033-.76-.1-.226-.067-.42-.16-.58-.28-.16-.133-.286-.287-.38-.46-.08-.173-.12-.38-.12-.62v-.08c0-.347.08-.613.24-.8.16-.2.367-.34.62-.42.254-.093.527-.153.82-.18.307-.04.587-.073.84-.1.2-.04.394-.073.58-.1.2-.04.38-.087.54-.14.174-.053.327-.113.46-.18.147-.067.267-.14.36-.22v.94c0 .453-.06.853-.18 1.2-.12.333-.3.613-.54.84-.226.227-.5.4-.82.52-.306.12-.666.18-1.08.18zm10.245 1.62v-6.16c0-.36.04-.687.12-.98.093-.307.227-.567.4-.78.187-.227.413-.407.68-.54.28-.133.6-.2.96-.2.347 0 .633.067.86.2.24.12.433.287.58.5.16.2.267.44.32.72.067.28.1.573.1.88v6.36h2.4v-6.1c0-.373.04-.713.12-1.02.08-.32.207-.587.38-.8.173-.227.393-.407.66-.54s.593-.2.98-.2c.36 0 .66.06.9.18s.433.28.58.48.247.44.3.72c.067.28.1.587.1.92v6.36h2.4v-7c0-.573-.073-1.087-.22-1.54-.133-.453-.34-.84-.62-1.16-.267-.333-.613-.587-1.04-.76-.413-.187-.9-.28-1.46-.28-.373 0-.733.047-1.08.14-.347.08-.667.207-.96.38s-.56.387-.8.64-.433.547-.58.88c-.107-.333-.26-.627-.46-.88-.187-.253-.407-.467-.66-.64s-.54-.3-.86-.38c-.307-.093-.64-.14-1-.14-.347 0-.68.04-1 .12-.32.067-.613.173-.88.32-.253.147-.487.327-.7.54-.2.213-.373.467-.52.76v-1.54h-2.4v10.54zm20.073.26c.907 0 1.687-.133 2.34-.4.667-.28 1.213-.66 1.64-1.14.427-.493.74-1.073.94-1.74.213-.68.32-1.407.32-2.18v-.12c0-.8-.113-1.533-.34-2.2-.227-.68-.567-1.26-1.02-1.74-.44-.48-.987-.853-1.64-1.12-.653-.28-1.407-.42-2.26-.42-.84 0-1.587.133-2.24.4s-1.207.647-1.66 1.14c-.453.48-.793 1.053-1.02 1.72s-.34 1.407-.34 2.22v.12c0 .813.113 1.553.34 2.22s.567 1.247 1.02 1.74c.453.48 1.007.853 1.66 1.12.667.253 1.42.38 2.26.38zm.06-1.98c-.467 0-.873-.08-1.22-.24-.347-.173-.64-.413-.88-.72s-.42-.673-.54-1.1c-.12-.44-.18-.92-.18-1.44v-.12c0-.507.053-.973.16-1.4s.273-.793.5-1.1c.24-.307.533-.547.88-.72s.747-.26 1.2-.26.847.087 1.18.26c.347.173.633.42.86.74.24.307.42.673.54 1.1s.18.887.18 1.38v.12c0 .533-.06 1.02-.18 1.46-.12.427-.293.793-.52 1.1s-.507.54-.84.7-.713.24-1.14.24zm10.65 1.92c.347 0 .687-.033 1.02-.1.334-.053.64-.153.92-.3s.527-.333.74-.56c.227-.227.414-.507.56-.84v1.6h2.4v-10.54h-2.4v6.14c0 .373-.046.713-.14 1.02-.08.307-.213.573-.4.8-.186.213-.426.387-.72.52-.28.12-.62.18-1.02.18-.386 0-.713-.053-.98-.16-.266-.107-.48-.267-.64-.48-.146-.213-.253-.467-.32-.76-.066-.307-.1-.653-.1-1.04v-6.22h-2.42v7.02c0 .573.074 1.087.22 1.54.16.453.387.847.68 1.18.307.32.674.567 1.1.74.44.173.94.26 1.5.26zm10.799-.2v-5.94c0-.4.047-.76.14-1.08.093-.333.24-.613.44-.84.2-.24.447-.42.74-.54.307-.133.667-.2 1.08-.2.36 0 .667.06.92.18.267.107.48.267.64.48.16.2.28.453.36.76.08.293.12.64.12 1.04v6.14h2.42v-6.68c0-.653-.073-1.227-.22-1.72-.147-.507-.367-.933-.66-1.28s-.66-.607-1.1-.78c-.427-.187-.933-.28-1.52-.28-.387 0-.753.033-1.1.1-.333.067-.647.173-.94.32-.28.133-.533.307-.76.52-.213.213-.4.46-.56.74v-1.48h-2.4v10.54zm12.977.16c.307 0 .653-.02 1.04-.06.387-.027.72-.08 1-.16v-2.04c-.227.053-.48.093-.76.12-.28.013-.52.02-.72.02s-.38-.013-.54-.04c-.147-.027-.273-.08-.38-.16-.093-.093-.167-.22-.22-.38s-.08-.367-.08-.62v-5.3h2.7v-2.08h-2.7v-2.36h-2.32v2.36h-1.84v2.08h1.84v6.1c0 .44.053.82.16 1.14.12.32.3.58.54.78.253.2.567.347.94.44.373.107.82.16 1.34.16z" fill="#000"/><g fill="#fa9955"><path d="m276.48 295.3c.747 0 1.44-.073 2.08-.22.653-.133 1.22-.36 1.7-.68.48-.333.86-.76 1.14-1.28.28-.533.42-1.187.42-1.96v-.12c0-.8-.16-1.427-.48-1.88-.307-.467-.713-.833-1.22-1.1-.493-.267-1.053-.467-1.68-.6-.613-.147-1.22-.293-1.82-.44-.533-.12-1.027-.233-1.48-.34s-.847-.24-1.18-.4c-.333-.173-.6-.4-.8-.68-.187-.28-.28-.653-.28-1.12v-.12c0-.427.1-.787.3-1.08.213-.293.487-.527.82-.7.333-.187.707-.32 1.12-.4.427-.08.847-.12 1.26-.12.533 0 1.02.067 1.46.2.453.12.84.307 1.16.56.333.253.593.573.78.96s.28.833.28 1.34v.12h1.48v-.12c0-.707-.127-1.333-.38-1.88s-.607-1.007-1.06-1.38c-.44-.387-.967-.673-1.58-.86-.613-.2-1.287-.3-2.02-.3-.64 0-1.267.067-1.88.2-.613.12-1.167.333-1.66.64-.493.293-.893.687-1.2 1.18-.293.493-.44 1.113-.44 1.86v.12c0 .707.153 1.28.46 1.72.307.427.7.773 1.18 1.04.493.253 1.04.453 1.64.6.613.133 1.22.267 1.82.4.507.12.987.233 1.44.34.467.093.873.233 1.22.42.36.187.647.433.86.74.213.293.32.7.32 1.22v.12c0 .52-.093.953-.28 1.3-.187.333-.447.6-.78.8s-.733.34-1.2.42c-.453.08-.947.12-1.48.12-.547 0-1.073-.073-1.58-.22s-.953-.367-1.34-.66-.693-.66-.92-1.1c-.227-.453-.34-.98-.34-1.58v-.12h-1.5v.12c0 .867.14 1.613.42 2.24.293.613.687 1.12 1.18 1.52.507.4 1.107.693 1.8.88s1.44.28 2.24.28zm10.593-.06c.387 0 .76-.04 1.12-.12s.7-.2 1.02-.36c.32-.173.614-.387.88-.64.28-.253.514-.553.7-.9 0 .28.027.533.08.76.067.227.167.427.3.6.134.16.3.287.5.38s.44.14.72.14c.147 0 .28-.007.4-.02.134-.013.247-.033.34-.06v-1.2c-.093.027-.173.047-.24.06-.066.013-.133.02-.2.02-.266 0-.446-.12-.54-.36-.08-.24-.12-.633-.12-1.18v-4.6c0-.613-.093-1.133-.28-1.56-.173-.427-.426-.773-.76-1.04-.333-.28-.733-.48-1.2-.6-.453-.133-.96-.2-1.52-.2-.546 0-1.073.06-1.58.18-.493.12-.933.32-1.32.6-.386.267-.7.613-.94 1.04-.226.427-.34.953-.34 1.58v.12h1.34v-.12c0-.44.067-.8.2-1.08.134-.28.32-.5.56-.66.24-.173.527-.293.86-.36.334-.067.7-.1 1.1-.1s.76.033 1.08.1.587.173.8.32c.214.147.374.333.48.56.12.227.18.5.18.82v.12c0 .373-.093.667-.28.88-.186.213-.433.38-.74.5-.293.107-.64.187-1.04.24-.386.053-.793.1-1.22.14-.453.053-.906.127-1.36.22-.44.08-.84.22-1.2.42-.346.2-.633.48-.86.84-.213.347-.32.82-.32 1.42v.12c0 .507.094.947.28 1.32.187.373.434.687.74.94.32.24.687.42 1.1.54.414.12.84.18 1.28.18zm.32-1.2c-.346 0-.66-.04-.94-.12s-.52-.2-.72-.36-.353-.353-.46-.58c-.106-.227-.16-.487-.16-.78v-.08c0-.44.107-.78.32-1.02.214-.24.48-.413.8-.52.334-.107.687-.173 1.06-.2.387-.04.74-.08 1.06-.12.254-.04.494-.08.72-.12.24-.04.46-.087.66-.14.2-.067.38-.14.54-.22.174-.08.314-.167.42-.26v1.08c0 .547-.08 1.033-.24 1.46-.146.427-.366.787-.66 1.08-.293.293-.64.52-1.04.68-.4.147-.853.22-1.36.22zm9.356.96v-14h-1.36v14zm5.951.16c.227 0 .513-.013.86-.04.36-.013.68-.073.96-.18v-1.2c-.227.053-.5.093-.82.12-.307.027-.553.04-.74.04-.2 0-.38-.013-.54-.04-.147-.027-.273-.08-.38-.16-.093-.093-.167-.22-.22-.38s-.08-.367-.08-.62v-6.82h2.78v-1.28h-2.78v-2.4h-1.36v2.4h-1.92v1.28h1.92v7.34c0 .347.04.647.12.9.093.24.233.44.42.6.187.147.427.253.72.32.293.08.647.12 1.06.12zm5.28-.16v-10.4h-1.36v10.4zm-.66-12.2c.133 0 .253-.02.36-.06.12-.053.22-.12.3-.2s.14-.18.18-.3c.053-.12.08-.253.08-.4 0-.133-.027-.253-.08-.36-.04-.12-.1-.22-.18-.3s-.18-.14-.3-.18c-.107-.053-.227-.08-.36-.08-.147 0-.28.027-.4.08-.12.04-.22.1-.3.18s-.147.18-.2.3c-.04.107-.06.227-.06.36 0 .147.02.28.06.4.053.12.12.22.2.3s.18.147.3.2c.12.04.253.06.4.06zm5.21 12.2v-5.92c0-.493.054-.947.16-1.36.12-.413.3-.767.54-1.06s.547-.52.92-.68c.387-.173.854-.26 1.4-.26.454 0 .834.073 1.14.22.32.133.574.333.76.6.187.253.32.573.4.96.094.373.14.8.14 1.28v6.22h1.36v-6.38c0-.667-.066-1.26-.2-1.78-.12-.52-.32-.953-.6-1.3-.28-.36-.64-.633-1.08-.82-.426-.187-.946-.28-1.56-.28-.386 0-.746.033-1.08.1-.333.053-.64.147-.92.28s-.533.307-.76.52c-.226.2-.433.447-.62.74v-1.48h-1.36v10.4zm14.072.24c.627 0 1.194-.08 1.7-.24.52-.16.96-.38 1.32-.66.374-.28.66-.613.86-1s.3-.807.3-1.26v-.12h-1.32v.12c0 .24-.06.48-.18.72-.12.227-.3.433-.54.62s-.54.34-.9.46c-.346.107-.753.16-1.22.16-.64 0-1.18-.113-1.62-.34s-.8-.527-1.08-.9c-.266-.387-.466-.827-.6-1.32-.12-.507-.18-1.027-.18-1.56v-.5c0-.547.06-1.053.18-1.52s.307-.873.56-1.22c.267-.347.607-.62 1.02-.82.427-.2.94-.3 1.54-.3.44 0 .847.08 1.22.24.387.147.72.36 1 .64s.5.627.66 1.04c.16.4.24.86.24 1.38v.12h-6.96v1.2h8.36v-1.12c0-.693-.106-1.327-.32-1.9-.213-.573-.52-1.067-.92-1.48-.386-.413-.86-.733-1.42-.96-.56-.24-1.18-.36-1.86-.36-.8 0-1.5.133-2.1.4-.586.267-1.08.633-1.48 1.1-.386.467-.68 1.027-.88 1.68-.186.653-.28 1.367-.28 2.14v.12c0 .813.094 1.553.28 2.22.2.667.5 1.24.9 1.72.414.48.927.853 1.54 1.12.614.253 1.34.38 2.18.38zm10.352 0c.533 0 1.04-.053 1.52-.16.493-.093.927-.26 1.3-.5s.673-.56.9-.96.34-.9.34-1.5v-.12c0-.52-.107-.947-.32-1.28-.213-.347-.493-.627-.84-.84s-.74-.38-1.18-.5c-.427-.12-.86-.227-1.3-.32-.373-.08-.733-.16-1.08-.24-.333-.093-.633-.207-.9-.34-.253-.133-.46-.3-.62-.5s-.24-.447-.24-.74v-.12c0-.307.067-.56.2-.76s.313-.36.54-.48.48-.2.76-.24c.293-.053.593-.08.9-.08.347 0 .673.033.98.1s.58.18.82.34c.24.147.427.333.56.56.147.227.22.5.22.82v.12h1.34v-.12c0-.547-.113-1.007-.34-1.38-.227-.387-.527-.7-.9-.94-.36-.24-.773-.413-1.24-.52-.467-.12-.94-.18-1.42-.18-.467 0-.933.047-1.4.14-.453.093-.867.253-1.24.48-.36.213-.653.5-.88.86s-.34.8-.34 1.32v.12c0 .56.107 1.013.32 1.36.227.333.513.607.86.82.36.2.753.36 1.18.48.44.107.88.207 1.32.3.373.08.727.16 1.06.24.347.08.647.187.9.32.267.133.473.307.62.52.16.2.24.467.24.8v.12c0 .36-.073.653-.22.88-.133.227-.32.413-.56.56-.227.133-.5.227-.82.28-.307.053-.633.08-.98.08-.373 0-.74-.04-1.1-.12-.347-.093-.653-.227-.92-.4s-.48-.387-.64-.64c-.16-.267-.24-.58-.24-.94v-.12h-1.4v.12c0 .533.113 1.007.34 1.42s.527.76.9 1.04c.387.28.84.487 1.36.62.52.147 1.067.22 1.64.22zm10 0c.533 0 1.04-.053 1.52-.16.493-.093.927-.26 1.3-.5s.673-.56.9-.96.34-.9.34-1.5v-.12c0-.52-.107-.947-.32-1.28-.213-.347-.493-.627-.84-.84s-.74-.38-1.18-.5c-.427-.12-.86-.227-1.3-.32-.373-.08-.733-.16-1.08-.24-.333-.093-.633-.207-.9-.34-.253-.133-.46-.3-.62-.5s-.24-.447-.24-.74v-.12c0-.307.067-.56.2-.76s.313-.36.54-.48.48-.2.76-.24c.293-.053.593-.08.9-.08.347 0 .673.033.98.1s.58.18.82.34c.24.147.427.333.56.56.147.227.22.5.22.82v.12h1.34v-.12c0-.547-.113-1.007-.34-1.38-.227-.387-.527-.7-.9-.94-.36-.24-.773-.413-1.24-.52-.467-.12-.94-.18-1.42-.18-.467 0-.933.047-1.4.14-.453.093-.867.253-1.24.48-.36.213-.653.5-.88.86s-.34.8-.34 1.32v.12c0 .56.107 1.013.32 1.36.227.333.513.607.86.82.36.2.753.36 1.18.48.44.107.88.207 1.32.3.373.08.727.16 1.06.24.347.08.647.187.9.32.267.133.473.307.62.52.16.2.24.467.24.8v.12c0 .36-.073.653-.22.88-.133.227-.32.413-.56.56-.227.133-.5.227-.82.28-.307.053-.633.08-.98.08-.373 0-.74-.04-1.1-.12-.347-.093-.653-.227-.92-.4s-.48-.387-.64-.64c-.16-.267-.24-.58-.24-.94v-.12h-1.4v.12c0 .533.113 1.007.34 1.42s.527.76.9 1.04c.387.28.84.487 1.36.62.52.147 1.067.22 1.64.22z"/><path d="m6.48 205.3c.74667 0 1.44-.073 2.08-.22.65333-.133 1.22-.36 1.7-.68.48-.333.86-.76 1.14-1.28.28-.533.42-1.187.42-1.96v-.12c0-.8-.16-1.427-.48-1.88-.3067-.467-.7133-.833-1.22-1.1-.49333-.267-1.05333-.467-1.68-.6-.61333-.147-1.22-.293-1.82-.44-.53333-.12-1.02667-.233-1.48-.34s-.84667-.24-1.18-.4c-.33333-.173-.6-.4-.8-.68-.18667-.28-.28-.653-.28-1.12v-.12c0-.427.1-.787.3-1.08.21333-.293.48667-.527.82-.7.33333-.187.70667-.32 1.12-.4.42667-.08.84667-.12 1.26-.12.53333 0 1.02.067 1.46.2.45333.12.84.307 1.16.56.33333.253.59333.573.78.96s.28.833.28 1.34v.12h1.48v-.12c0-.707-.1267-1.333-.38-1.88s-.6067-1.007-1.06-1.38c-.44-.387-.96667-.673-1.58-.86-.61333-.2-1.28667-.3-2.02-.3-.64 0-1.26667.067-1.88.2-.61333.12-1.16667.333-1.66.64-.49333.293-.89333.687-1.2 1.18-.29333.493-.44 1.113-.44 1.86v.12c0 .707.15333 1.28.46 1.72.30667.427.7.773 1.18 1.04.49333.253 1.04.453 1.64.6.61333.133 1.22.267 1.82.4.50667.12.98667.233 1.44.34.46667.093.87333.233 1.22.42.36.187.64667.433.86.74.2133.293.32.7.32 1.22v.12c0 .52-.0933.953-.28 1.3-.18667.333-.44667.6-.78.8s-.73333.34-1.2.42c-.45333.08-.94667.12-1.48.12-.54667 0-1.07333-.073-1.58-.22s-.95333-.367-1.34-.66-.69333-.66-.92-1.1c-.22667-.453-.34-.98-.34-1.58v-.12h-1.5v.12c0 .867.14 1.613.42 2.24.29333.613.68667 1.12 1.18 1.52.50667.4 1.10667.693 1.8.88s1.44.28 2.24.28zm9.2534 3.3v-5.16c.1867.32.4.593.64.82.2534.227.5334.413.84.56.3067.147.6334.253.98.32.36.067.7334.1 1.12.1.6934 0 1.3067-.127 1.84-.38.5467-.267 1-.64 1.36-1.12.3734-.48.6534-1.053.84-1.72.1867-.68.28-1.433.28-2.26v-.12c0-.733-.0866-1.42-.26-2.06-.16-.64-.42-1.2-.78-1.68-.3466-.48-.8-.853-1.36-1.12-.5466-.28-1.2-.42-1.96-.42-.4 0-.7733.04-1.12.12-.3466.067-.6733.18-.98.34-.2933.147-.5666.34-.82.58-.24.24-.4466.533-.62.88v-1.68h-1.36v14zm3.36-4.56c-.6133 0-1.1333-.107-1.56-.32-.4266-.213-.7733-.507-1.04-.88-.2666-.373-.46-.8-.58-1.28-.12-.493-.18-1.007-.18-1.54v-.12c0-.533.0467-1.06.14-1.58.1067-.52.28-.98.52-1.38.2534-.413.5867-.747 1-1 .4134-.253.9334-.38 1.56-.38.6134 0 1.1267.12 1.54.36.4134.227.7467.533 1 .92.2534.373.4334.807.54 1.3.1067.493.16 1.007.16 1.54v.12c0 .493-.0466.993-.14 1.5-.0933.507-.26.967-.5 1.38-.24.4-.56.727-.96.98s-.9.38-1.5.38zm11.2564 1.2c.8267 0 1.54-.133 2.14-.4s1.0934-.64 1.48-1.12c.3867-.48.6734-1.047.86-1.7.1867-.667.28-1.387.28-2.16v-.12c0-.787-.1066-1.507-.32-2.16-.2-.667-.5066-1.233-.92-1.7-.4-.48-.9-.853-1.5-1.12-.5866-.267-1.2666-.4-2.04-.4-.7733 0-1.46.133-2.06.4-.5866.267-1.0866.64-1.5 1.12-.4.467-.7066 1.033-.92 1.7-.2.653-.3 1.373-.3 2.16v.12c0 .8.1 1.533.3 2.2.2134.653.52 1.22.92 1.7.4134.467.92.833 1.52 1.1.6.253 1.2867.38 2.06.38zm.06-1.2c-.6 0-1.1133-.107-1.54-.32-.4266-.213-.78-.507-1.06-.88-.28-.387-.4866-.833-.62-1.34-.1333-.52-.2-1.073-.2-1.66v-.12c0-.573.06-1.113.18-1.62s.3134-.947.58-1.32c.28-.373.6267-.667 1.04-.88.4267-.227.94-.34 1.54-.34.5734 0 1.0667.113 1.48.34.4267.213.7734.513 1.04.9.28.373.4867.813.62 1.32.1334.507.2 1.04.2 1.6v.12c0 .613-.0666 1.18-.2 1.7-.1333.507-.3333.947-.6 1.32-.2666.373-.6066.667-1.02.88-.4.2-.88.3-1.44.3zm8.6244.96v-5.92c0-.493.0534-.947.16-1.36.12-.413.3-.767.54-1.06s.5467-.52.92-.68c.3867-.173.8534-.26 1.4-.26.4534 0 .8334.073 1.14.22.32.133.5734.333.76.6.1867.253.32.573.4.96.0934.373.14.8.14 1.28v6.22h1.36v-6.38c0-.667-.0666-1.26-.2-1.78-.12-.52-.32-.953-.6-1.3-.28-.36-.64-.633-1.08-.82-.4266-.187-.9466-.28-1.56-.28-.3866 0-.7466.033-1.08.1-.3333.053-.64.147-.92.28s-.5333.307-.76.52c-.2266.2-.4333.447-.62.74v-1.48h-1.36v10.4zm13.9319 3.9c.76 0 1.42-.093 1.98-.28.5733-.187 1.0467-.467 1.42-.84s.6467-.833.82-1.38c.1867-.533.28-1.16.28-1.88v-9.92h-1.36v1.56c-.1867-.32-.4067-.593-.66-.82-.24-.227-.5133-.413-.82-.56s-.64-.253-1-.32c-.3467-.067-.7133-.1-1.1-.1-.6933 0-1.3133.133-1.86.4-.5333.253-.9867.62-1.36 1.1-.36.48-.6333 1.06-.82 1.74-.1867.667-.28 1.413-.28 2.24v.12c0 .733.08 1.42.24 2.06.1733.64.4333 1.2.78 1.68.36.48.8133.86 1.36 1.14.56.267 1.22.4 1.98.4.4 0 .7733-.04 1.12-.12.36-.067.6867-.173.98-.32.3067-.16.58-.36.82-.6.24-.253.4467-.547.62-.88v1.08c0 .547-.0533 1.027-.16 1.44s-.2867.753-.54 1.02c-.24.28-.56.487-.96.62-.3867.147-.8667.22-1.44.22-.3333 0-.66-.04-.98-.12-.3067-.08-.5867-.2-.84-.36-.2533-.147-.46-.333-.62-.56-.1467-.213-.22-.46-.22-.74v-.12h-1.36v.12c0 .453.0933.86.28 1.22.2.373.4733.687.82.94.36.267.78.467 1.26.6.4933.147 1.0333.22 1.62.22zm-.08-4.86c-.6133 0-1.1267-.113-1.54-.34-.4133-.24-.7467-.547-1-.92-.2533-.387-.4333-.827-.54-1.32s-.16-1.007-.16-1.54v-.12c0-.507.0467-1.007.14-1.5.0933-.507.26-.96.5-1.36.24-.413.56-.747.96-1s.9-.38 1.5-.38c.6133 0 1.1333.107 1.56.32s.7733.507 1.04.88.46.8.58 1.28.18.993.18 1.54v.12c0 .533-.0533 1.06-.16 1.58-.0933.507-.2667.967-.52 1.38-.24.413-.5667.747-.98 1s-.9333.38-1.56.38zm9.1364.96v-10.4h-1.36v10.4zm-.66-12.2c.1333 0 .2533-.02.36-.06.12-.053.22-.12.3-.2s.14-.18.18-.3c.0533-.12.08-.253.08-.4 0-.133-.0267-.253-.08-.36-.04-.12-.1-.22-.18-.3s-.18-.14-.3-.18c-.1067-.053-.2267-.08-.36-.08-.1467 0-.28.027-.4.08-.12.04-.22.1-.3.18s-.1467.18-.2.3c-.04.107-.06.227-.06.36 0 .147.02.28.06.4.0533.12.12.22.2.3s.18.147.3.2c.12.04.2533.06.4.06zm5.2108 12.2v-5.92c0-.493.0533-.947.16-1.36.12-.413.3-.767.54-1.06s.5466-.52.92-.68c.3866-.173.8533-.26 1.4-.26.4533 0 .8333.073 1.14.22.32.133.5733.333.76.6.1866.253.32.573.4.96.0933.373.14.8.14 1.28v6.22h1.36v-6.38c0-.667-.0667-1.26-.2-1.78-.12-.52-.32-.953-.6-1.3-.28-.36-.64-.633-1.08-.82-.4267-.187-.9467-.28-1.56-.28-.3867 0-.7467.033-1.08.1-.3334.053-.64.147-.92.28s-.5334.307-.76.52c-.2267.2-.4334.447-.62.74v-1.48h-1.36v10.4zm14.0719.24c.6266 0 1.1933-.08 1.7-.24.52-.16.96-.38 1.32-.66.3733-.28.66-.613.86-1s.3-.807.3-1.26v-.12h-1.32v.12c0 .24-.06.48-.18.72-.12.227-.3.433-.54.62s-.54.34-.9.46c-.3467.107-.7534.16-1.22.16-.64 0-1.18-.113-1.62-.34s-.8-.527-1.08-.9c-.2667-.387-.4667-.827-.6-1.32-.12-.507-.18-1.027-.18-1.56v-.5c0-.547.06-1.053.18-1.52s.3066-.873.56-1.22c.2666-.347.6066-.62 1.02-.82.4266-.2.94-.3 1.54-.3.44 0 .8466.08 1.22.24.3866.147.72.36 1 .64s.5.627.66 1.04c.16.4.24.86.24 1.38v.12h-6.96v1.2h8.36v-1.12c0-.693-.1067-1.327-.32-1.9-.2134-.573-.52-1.067-.92-1.48-.3867-.413-.86-.733-1.42-.96-.56-.24-1.18-.36-1.86-.36-.8 0-1.5.133-2.1.4-.5867.267-1.08.633-1.48 1.1-.3867.467-.68 1.027-.88 1.68-.1867.653-.28 1.367-.28 2.14v.12c0 .813.0933 1.553.28 2.22.2.667.5 1.24.9 1.72.4133.48.9266.853 1.54 1.12.6133.253 1.34.38 2.18.38zm10.3518 0c.5334 0 1.04-.053 1.52-.16.4934-.093.9267-.26 1.3-.5.3734-.24.6734-.56.9-.96.2267-.4.34-.9.34-1.5v-.12c0-.52-.1066-.947-.32-1.28-.2133-.347-.4933-.627-.84-.84-.3466-.213-.74-.38-1.18-.5-.4266-.12-.86-.227-1.3-.32-.3733-.08-.7333-.16-1.08-.24-.3333-.093-.6333-.207-.9-.34-.2533-.133-.46-.3-.62-.5s-.24-.447-.24-.74v-.12c0-.307.0667-.56.2-.76.1334-.2.3134-.36.54-.48.2267-.12.48-.2.76-.24.2934-.053.5934-.08.9-.08.3467 0 .6734.033.98.1.3067.067.58.18.82.34.24.147.4267.333.56.56.1467.227.22.5.22.82v.12h1.34v-.12c0-.547-.1133-1.007-.34-1.38-.2266-.387-.5266-.7-.9-.94-.36-.24-.7733-.413-1.24-.52-.4666-.12-.94-.18-1.42-.18-.4666 0-.9333.047-1.4.14-.4533.093-.8666.253-1.24.48-.36.213-.6533.5-.88.86-.2266.36-.34.8-.34 1.32v.12c0 .56.1067 1.013.32 1.36.2267.333.5134.607.86.82.36.2.7534.36 1.18.48.44.107.88.207 1.32.3.3734.08.7267.16 1.06.24.3467.08.6467.187.9.32.2667.133.4734.307.62.52.16.2.24.467.24.8v.12c0 .36-.0733.653-.22.88-.1333.227-.32.413-.56.56-.2266.133-.5.227-.82.28-.3066.053-.6333.08-.98.08-.3733 0-.74-.04-1.1-.12-.3466-.093-.6533-.227-.92-.4-.2666-.173-.48-.387-.64-.64-.16-.267-.24-.58-.24-.94v-.12h-1.4v.12c0 .533.1134 1.007.34 1.42.2267.413.5267.76.9 1.04.3867.28.84.487 1.36.62.52.147 1.0667.22 1.64.22zm10 0c.533 0 1.04-.053 1.52-.16.493-.093.927-.26 1.3-.5s.673-.56.9-.96.34-.9.34-1.5v-.12c0-.52-.107-.947-.32-1.28-.213-.347-.493-.627-.84-.84s-.74-.38-1.18-.5c-.427-.12-.86-.227-1.3-.32-.373-.08-.733-.16-1.08-.24-.333-.093-.6333-.207-.9-.34-.2533-.133-.46-.3-.62-.5s-.24-.447-.24-.74v-.12c0-.307.0667-.56.2-.76.1334-.2.3134-.36.54-.48.2267-.12.48-.2.76-.24.293-.053.593-.08.9-.08.347 0 .673.033.98.1s.58.18.82.34c.24.147.427.333.56.56.147.227.22.5.22.82v.12h1.34v-.12c0-.547-.113-1.007-.34-1.38-.227-.387-.527-.7-.9-.94-.36-.24-.773-.413-1.24-.52-.467-.12-.94-.18-1.42-.18-.467 0-.933.047-1.4.14-.4533.093-.8666.253-1.24.48-.36.213-.6533.5-.88.86-.2266.36-.34.8-.34 1.32v.12c0 .56.1067 1.013.32 1.36.2267.333.5134.607.86.82.36.2.7534.36 1.18.48.44.107.88.207 1.32.3.373.08.727.16 1.06.24.347.08.647.187.9.32.267.133.473.307.62.52.16.2.24.467.24.8v.12c0 .36-.073.653-.22.88-.133.227-.32.413-.56.56-.227.133-.5.227-.82.28-.307.053-.633.08-.98.08-.373 0-.74-.04-1.1-.12-.3466-.093-.6533-.227-.92-.4-.2666-.173-.48-.387-.64-.64-.16-.267-.24-.58-.24-.94v-.12h-1.4v.12c0 .533.1134 1.007.34 1.42.2267.413.5267.76.9 1.04.3867.28.84.487 1.36.62.52.147 1.067.22 1.64.22z"/><path d="m30.24 126v-12.64h4.64v-1.36h-10.76v1.36h4.64v12.64zm10.6161.24c.6267 0 1.1933-.08 1.7-.24.52-.16.96-.38 1.32-.66.3733-.28.66-.613.86-1s.3-.807.3-1.26v-.12h-1.32v.12c0 .24-.06.48-.18.72-.12.227-.3.433-.54.62s-.54.34-.9.46c-.3467.107-.7533.16-1.22.16-.64 0-1.18-.113-1.62-.34s-.8-.527-1.08-.9c-.2667-.387-.4667-.827-.6-1.32-.12-.507-.18-1.027-.18-1.56v-.5c0-.547.06-1.053.18-1.52s.3067-.873.56-1.22c.2667-.347.6067-.62 1.02-.82.4267-.2.94-.3 1.54-.3.44 0 .8467.08 1.22.24.3867.147.72.36 1 .64s.5.627.66 1.04c.16.4.24.86.24 1.38v.12h-6.96v1.2h8.36v-1.12c0-.693-.1067-1.327-.32-1.9s-.52-1.067-.92-1.48c-.3867-.413-.86-.733-1.42-.96-.56-.24-1.18-.36-1.86-.36-.8 0-1.5.133-2.1.4-.5867.267-1.08.633-1.48 1.1-.3867.467-.68 1.027-.88 1.68-.1867.653-.28 1.367-.28 2.14v.12c0 .813.0933 1.553.28 2.22.2.667.5 1.24.9 1.72.4133.48.9267.853 1.54 1.12.6133.253 1.34.38 2.18.38zm6.9919-.24 3.02-4.36 3.02 4.36h1.62l-3.84-5.42 3.52-4.98h-1.58l-2.74 3.94-2.74-3.94h-1.56l3.52 4.98-3.84 5.42zm12.094.16c.2267 0 .5134-.013.86-.04.36-.013.68-.073.96-.18v-1.2c-.2266.053-.5.093-.82.12-.3066.027-.5533.04-.74.04-.2 0-.38-.013-.54-.04-.1466-.027-.2733-.08-.38-.16-.0933-.093-.1666-.22-.22-.38-.0533-.16-.08-.367-.08-.62v-6.82h2.78v-1.28h-2.78v-2.4h-1.36v2.4h-1.92v1.28h1.92v7.34c0 .347.04.647.12.9.0934.24.2334.44.42.6.1867.147.4267.253.72.32.2934.08.6467.12 1.06.12zm7.1797 0c.32 0 .64-.027.96-.08s.62-.147.9-.28c.2934-.147.5534-.333.78-.56.24-.24.4334-.54.58-.9v1.66h1.36v-10.4h-1.36v6.22c0 .44-.0533.853-.16 1.24-.0933.373-.2533.7-.48.98-.2266.28-.52.507-.88.68-.36.16-.8.24-1.32.24-.4933 0-.9066-.067-1.24-.2-.32-.147-.5733-.353-.76-.62-.1733-.267-.3-.587-.38-.96-.0666-.373-.1-.793-.1-1.26v-6.32h-1.36v6.86c0 .547.0667 1.047.2 1.5.1467.453.36.847.64 1.18.2934.32.6534.573 1.08.76.44.173.9534.26 1.54.26zm9.1352-.16v-5.48c0-.627.0733-1.167.22-1.62.1466-.467.3666-.853.66-1.16.3066-.307.6933-.533 1.16-.68.48-.16 1.04-.24 1.68-.24h.2v-1.32c-.04 0-.08 0-.12 0-.0267 0-.06 0-.1 0-.4 0-.7934.04-1.18.12-.3734.067-.72.187-1.04.36-.32.16-.6067.38-.86.66-.2534.267-.46.593-.62.98v-2.02h-1.36v10.4zm9.9703.24c.6267 0 1.1933-.08 1.7-.24.52-.16.96-.38 1.32-.66.3733-.28.66-.613.86-1s.3-.807.3-1.26v-.12h-1.32v.12c0 .24-.06.48-.18.72-.12.227-.3.433-.54.62s-.54.34-.9.46c-.3467.107-.7533.16-1.22.16-.64 0-1.18-.113-1.62-.34s-.8-.527-1.08-.9c-.2667-.387-.4667-.827-.6-1.32-.12-.507-.18-1.027-.18-1.56v-.5c0-.547.06-1.053.18-1.52s.3067-.873.56-1.22c.2667-.347.6067-.62 1.02-.82.4267-.2.94-.3 1.54-.3.44 0 .8467.08 1.22.24.3867.147.72.36 1 .64s.5.627.66 1.04c.16.4.24.86.24 1.38v.12h-6.96v1.2h8.36v-1.12c0-.693-.1067-1.327-.32-1.9s-.52-1.067-.92-1.48c-.3867-.413-.86-.733-1.42-.96-.56-.24-1.18-.36-1.86-.36-.8 0-1.5.133-2.1.4-.5867.267-1.08.633-1.48 1.1-.3867.467-.68 1.027-.88 1.68-.1867.653-.28 1.367-.28 2.14v.12c0 .813.0933 1.553.28 2.22.2.667.5 1.24.9 1.72.4133.48.9267.853 1.54 1.12.6133.253 1.34.38 2.18.38z"/><path d="m195.8 65 4.86-14h-1.5l-4.22 12.48-4.24-12.48h-1.58l4.86 14zm7.937 0v-10.4h-1.36v10.4zm-.66-12.2c.134 0 .254-.02.36-.06.12-.0533.22-.12.3-.2s.14-.18.18-.3c.054-.12.08-.2533.08-.4 0-.1333-.026-.2533-.08-.36-.04-.12-.1-.22-.18-.3s-.18-.14-.3-.18c-.106-.0533-.226-.08-.36-.08-.146 0-.28.0267-.4.08-.12.04-.22.1-.3.18s-.146.18-.2.3c-.04.1067-.06.2267-.06.36 0 .1467.02.28.06.4.054.12.12.22.2.3s.18.1467.3.2c.12.04.254.06.4.06zm7.291 12.44c.533 0 1.04-.0533 1.52-.16.493-.0933.927-.26 1.3-.5s.673-.56.9-.96.34-.9.34-1.5v-.12c0-.52-.107-.9467-.32-1.28-.213-.3467-.493-.6267-.84-.84s-.74-.38-1.18-.5c-.427-.12-.86-.2267-1.3-.32-.373-.08-.733-.16-1.08-.24-.333-.0933-.633-.2067-.9-.34-.253-.1333-.46-.3-.62-.5s-.24-.4467-.24-.74v-.12c0-.3067.067-.56.2-.76s.313-.36.54-.48.48-.2.76-.24c.293-.0533.593-.08.9-.08.347 0 .673.0333.98.1s.58.18.82.34c.24.1467.427.3333.56.56.147.2267.22.5.22.82v.12h1.34v-.12c0-.5467-.113-1.0067-.34-1.38-.227-.3867-.527-.7-.9-.94-.36-.24-.773-.4133-1.24-.52-.467-.12-.94-.18-1.42-.18-.467 0-.933.0467-1.4.14-.453.0933-.867.2533-1.24.48-.36.2133-.653.5-.88.86s-.34.8-.34 1.32v.12c0 .56.107 1.0133.32 1.36.227.3333.513.6067.86.82.36.2.753.36 1.18.48.44.1067.88.2067 1.32.3.373.08.727.16 1.06.24.347.08.647.1867.9.32.267.1333.473.3067.62.52.16.2.24.4667.24.8v.12c0 .36-.073.6533-.22.88-.133.2267-.32.4133-.56.56-.227.1333-.5.2267-.82.28-.307.0533-.633.08-.98.08-.373 0-.74-.04-1.1-.12-.347-.0933-.653-.2267-.92-.4s-.48-.3867-.64-.64c-.16-.2667-.24-.58-.24-.94v-.12h-1.4v.12c0 .5333.113 1.0067.34 1.42s.527.76.9 1.04c.387.28.84.4867 1.36.62.52.1467 1.067.22 1.64.22zm10.74 0c.627 0 1.2-.0867 1.72-.26.533-.1733.987-.4267 1.36-.76s.66-.74.86-1.22c.213-.48.32-1.02.32-1.62v-.12h-1.32v.12c0 .4-.073.7667-.22 1.1-.147.32-.347.6-.6.84-.253.2267-.56.4067-.92.54-.347.12-.733.18-1.16.18-.64 0-1.18-.12-1.62-.36-.427-.24-.773-.56-1.04-.96s-.46-.8533-.58-1.36c-.12-.52-.18-1.0533-.18-1.6v-.12c0-.56.06-1.0867.18-1.58.12-.5067.307-.94.56-1.3.267-.3733.607-.6667 1.02-.88.427-.2133.94-.32 1.54-.32.44 0 .84.0733 1.2.22.36.1333.667.3133.92.54s.447.4933.58.8c.147.3067.22.6333.22.98v.12h1.32v-.12c0-.52-.093-1.0067-.28-1.46s-.46-.8467-.82-1.18c-.36-.3467-.807-.6133-1.34-.8-.52-.2-1.12-.3-1.8-.3-.8 0-1.5.1333-2.1.4-.587.2667-1.08.6333-1.48 1.1-.387.4667-.68 1.0267-.88 1.68-.187.6533-.28 1.3667-.28 2.14v.12c0 .8133.093 1.5533.28 2.22s.473 1.24.86 1.72c.4.48.9.8533 1.5 1.12.613.2533 1.34.38 2.18.38zm10.937 0c.827 0 1.54-.1333 2.14-.4s1.093-.64 1.48-1.12.673-1.0467.86-1.7c.187-.6667.28-1.3867.28-2.16v-.12c0-.7867-.107-1.5067-.32-2.16-.2-.6667-.507-1.2333-.92-1.7-.4-.48-.9-.8533-1.5-1.12-.587-.2667-1.267-.4-2.04-.4s-1.46.1333-2.06.4c-.587.2667-1.087.64-1.5 1.12-.4.4667-.707 1.0333-.92 1.7-.2.6533-.3 1.3733-.3 2.16v.12c0 .8.1 1.5333.3 2.2.213.6533.52 1.22.92 1.7.413.4667.92.8333 1.52 1.1.6.2533 1.287.38 2.06.38zm.06-1.2c-.6 0-1.113-.1067-1.54-.32s-.78-.5067-1.06-.88c-.28-.3867-.487-.8333-.62-1.34-.133-.52-.2-1.0733-.2-1.66v-.12c0-.5733.06-1.1133.18-1.62s.313-.9467.58-1.32c.28-.3733.627-.6667 1.04-.88.427-.2267.94-.34 1.54-.34.573 0 1.067.1133 1.48.34.427.2133.773.5133 1.04.9.28.3733.487.8133.62 1.32s.2 1.04.2 1.6v.12c0 .6133-.067 1.18-.2 1.7-.133.5067-.333.9467-.6 1.32s-.607.6667-1.02.88c-.4.2-.88.3-1.44.3zm10.705 1.2c.533 0 1.04-.0533 1.52-.16.493-.0933.926-.26 1.3-.5.373-.24.673-.56.9-.96.226-.4.34-.9.34-1.5v-.12c0-.52-.107-.9467-.32-1.28-.214-.3467-.494-.6267-.84-.84-.347-.2133-.74-.38-1.18-.5-.427-.12-.86-.2267-1.3-.32-.374-.08-.734-.16-1.08-.24-.334-.0933-.634-.2067-.9-.34-.254-.1333-.46-.3-.62-.5s-.24-.4467-.24-.74v-.12c0-.3067.066-.56.2-.76.133-.2.313-.36.54-.48.226-.12.48-.2.76-.24.293-.0533.593-.08.9-.08.346 0 .673.0333.98.1.306.0667.58.18.82.34.24.1467.426.3333.56.56.146.2267.22.5.22.82v.12h1.34v-.12c0-.5467-.114-1.0067-.34-1.38-.227-.3867-.527-.7-.9-.94-.36-.24-.774-.4133-1.24-.52-.467-.12-.94-.18-1.42-.18-.467 0-.934.0467-1.4.14-.454.0933-.867.2533-1.24.48-.36.2133-.654.5-.88.86-.227.36-.34.8-.34 1.32v.12c0 .56.106 1.0133.32 1.36.226.3333.513.6067.86.82.36.2.753.36 1.18.48.44.1067.88.2067 1.32.3.373.08.726.16 1.06.24.346.08.646.1867.9.32.266.1333.473.3067.62.52.16.2.24.4667.24.8v.12c0 .36-.074.6533-.22.88-.134.2267-.32.4133-.56.56-.227.1333-.5.2267-.82.28-.307.0533-.634.08-.98.08-.374 0-.74-.04-1.1-.12-.347-.0933-.654-.2267-.92-.4-.267-.1733-.48-.3867-.64-.64-.16-.2667-.24-.58-.24-.94v-.12h-1.4v.12c0 .5333.113 1.0067.34 1.42.226.4133.526.76.9 1.04.386.28.84.4867 1.36.62.52.1467 1.066.22 1.64.22zm7.92-.24v-10.4h-1.36v10.4zm-.66-12.2c.133 0 .253-.02.36-.06.12-.0533.22-.12.3-.2s.14-.18.18-.3c.053-.12.08-.2533.08-.4 0-.1333-.027-.2533-.08-.36-.04-.12-.1-.22-.18-.3s-.18-.14-.3-.18c-.107-.0533-.227-.08-.36-.08-.147 0-.28.0267-.4.08-.12.04-.22.1-.3.18s-.147.18-.2.3c-.04.1067-.06.2267-.06.36 0 .1467.02.28.06.4.053.12.12.22.2.3s.18.1467.3.2c.12.04.253.06.4.06zm6.61 12.36c.227 0 .514-.0133.86-.04.36-.0133.68-.0733.96-.18v-1.2c-.226.0533-.5.0933-.82.12-.306.0267-.553.04-.74.04-.2 0-.38-.0133-.54-.04-.146-.0267-.273-.08-.38-.16-.093-.0933-.166-.22-.22-.38-.053-.16-.08-.3667-.08-.62v-6.82h2.78v-1.28h-2.78v-2.4h-1.36v2.4h-1.92v1.28h1.92v7.34c0 .3467.04.6467.12.9.094.24.234.44.42.6.187.1467.427.2533.72.32.294.08.647.12 1.06.12zm5.12 3.56c.4 0 .733-.0533 1-.16.28-.0933.513-.2333.7-.42.2-.1867.36-.4133.48-.68.133-.2667.26-.5733.38-.92l4.12-11.94h-1.44l-2.84 8.58-3.44-8.58h-1.6l4.36 10.4-.24.76c-.107.36-.213.6467-.32.86-.107.2267-.227.4-.36.52-.12.12-.26.2-.42.24-.147.0533-.32.08-.52.08-.24 0-.433-.02-.58-.06-.147-.0267-.28-.0533-.4-.08v1.26c.173.04.347.0733.52.1.187.0267.387.04.6.04z"/><path d="m255.62 349 1.46-3.94h6.32l1.46 3.94h1.54l-5.32-14h-1.66l-5.32 14zm4.62-12.4 2.64 7.1h-5.28zm9.22 12.4v-5.48c0-.627.073-1.167.22-1.62.147-.467.367-.853.66-1.16.307-.307.693-.533 1.16-.68.48-.16 1.04-.24 1.68-.24h.2v-1.32c-.04 0-.08 0-.12 0-.027 0-.06 0-.1 0-.4 0-.793.04-1.18.12-.373.067-.72.187-1.04.36-.32.16-.607.38-.86.66-.253.267-.46.593-.62.98v-2.02h-1.36v10.4zm8.47.16c.227 0 .514-.013.86-.04.36-.013.68-.073.96-.18v-1.2c-.226.053-.5.093-.82.12-.306.027-.553.04-.74.04-.2 0-.38-.013-.54-.04-.146-.027-.273-.08-.38-.16-.093-.093-.166-.22-.22-.38-.053-.16-.08-.367-.08-.62v-6.82h2.78v-1.28h-2.78v-2.4h-1.36v2.4h-1.92v1.28h1.92v7.34c0 .347.04.647.12.9.094.24.234.44.42.6.187.147.427.253.72.32.294.08.647.12 1.06.12zm5.28-.16v-10.4h-1.36v10.4zm-.66-12.2c.133 0 .253-.02.36-.06.12-.053.22-.12.3-.2s.14-.18.18-.3c.053-.12.08-.253.08-.4 0-.133-.027-.253-.08-.36-.04-.12-.1-.22-.18-.3s-.18-.14-.3-.18c-.107-.053-.227-.08-.36-.08-.147 0-.28.027-.4.08-.12.04-.22.1-.3.18s-.147.18-.2.3c-.04.107-.06.227-.06.36 0 .147.02.28.06.4.053.12.12.22.2.3s.18.147.3.2c.12.04.253.06.4.06zm5.691 12.2v-9.12h2.38v-1.28h-2.38v-1.22c0-.28.033-.5.1-.66.066-.173.16-.3.28-.38.12-.093.266-.147.44-.16.173-.027.36-.04.56-.04s.386.007.56.02c.186.013.333.027.44.04v-1.24c-.08-.013-.174-.02-.28-.02-.094-.013-.194-.02-.3-.02-.094-.013-.194-.02-.3-.02-.107 0-.2 0-.28 0-.454 0-.84.047-1.16.14-.32.08-.587.22-.8.42-.214.187-.374.44-.48.76-.094.307-.14.687-.14 1.14v1.24h-1.88v1.28h1.88v9.12zm5.379 0v-10.4h-1.36v10.4zm-.66-12.2c.133 0 .253-.02.36-.06.12-.053.22-.12.3-.2s.14-.18.18-.3c.053-.12.08-.253.08-.4 0-.133-.027-.253-.08-.36-.04-.12-.1-.22-.18-.3s-.18-.14-.3-.18c-.107-.053-.227-.08-.36-.08-.147 0-.28.027-.4.08-.12.04-.22.1-.3.18s-.147.18-.2.3c-.04.107-.06.227-.06.36 0 .147.02.28.06.4.053.12.12.22.2.3s.18.147.3.2c.12.04.253.06.4.06zm8.031 12.44c.627 0 1.2-.087 1.72-.26.533-.173.987-.427 1.36-.76s.66-.74.86-1.22c.213-.48.32-1.02.32-1.62v-.12h-1.32v.12c0 .4-.073.767-.22 1.1-.147.32-.347.6-.6.84-.253.227-.56.407-.92.54-.347.12-.733.18-1.16.18-.64 0-1.18-.12-1.62-.36-.427-.24-.773-.56-1.04-.96s-.46-.853-.58-1.36c-.12-.52-.18-1.053-.18-1.6v-.12c0-.56.06-1.087.18-1.58.12-.507.307-.94.56-1.3.267-.373.607-.667 1.02-.88.427-.213.94-.32 1.54-.32.44 0 .84.073 1.2.22.36.133.667.313.92.54s.447.493.58.8c.147.307.22.633.22.98v.12h1.32v-.12c0-.52-.093-1.007-.28-1.46s-.46-.847-.82-1.18c-.36-.347-.807-.613-1.34-.8-.52-.2-1.12-.3-1.8-.3-.8 0-1.5.133-2.1.4-.587.267-1.08.633-1.48 1.1-.387.467-.68 1.027-.88 1.68-.187.653-.28 1.367-.28 2.14v.12c0 .813.093 1.553.28 2.22s.473 1.24.86 1.72c.4.48.9.853 1.5 1.12.613.253 1.34.38 2.18.38zm8.137-.24v-10.4h-1.36v10.4zm-.66-12.2c.133 0 .253-.02.36-.06.12-.053.22-.12.3-.2s.14-.18.18-.3c.053-.12.08-.253.08-.4 0-.133-.027-.253-.08-.36-.04-.12-.1-.22-.18-.3s-.18-.14-.3-.18c-.107-.053-.227-.08-.36-.08-.147 0-.28.027-.4.08-.12.04-.22.1-.3.18s-.147.18-.2.3c-.04.107-.06.227-.06.36 0 .147.02.28.06.4.053.12.12.22.2.3s.18.147.3.2c.12.04.253.06.4.06zm6.551 12.44c.386 0 .76-.04 1.12-.12s.7-.2 1.02-.36c.32-.173.613-.387.88-.64.28-.253.513-.553.7-.9 0 .28.026.533.08.76.066.227.166.427.3.6.133.16.3.287.5.38s.44.14.72.14c.146 0 .28-.007.4-.02.133-.013.246-.033.34-.06v-1.2c-.094.027-.174.047-.24.06-.067.013-.134.02-.2.02-.267 0-.447-.12-.54-.36-.08-.24-.12-.633-.12-1.18v-4.6c0-.613-.094-1.133-.28-1.56-.174-.427-.427-.773-.76-1.04-.334-.28-.734-.48-1.2-.6-.454-.133-.96-.2-1.52-.2-.547 0-1.074.06-1.58.18-.494.12-.934.32-1.32.6-.387.267-.7.613-.94 1.04-.227.427-.34.953-.34 1.58v.12h1.34v-.12c0-.44.066-.8.2-1.08.133-.28.32-.5.56-.66.24-.173.526-.293.86-.36.333-.067.7-.1 1.1-.1s.76.033 1.08.1.586.173.8.32c.213.147.373.333.48.56.12.227.18.5.18.82v.12c0 .373-.094.667-.28.88-.187.213-.434.38-.74.5-.294.107-.64.187-1.04.24-.387.053-.794.1-1.22.14-.454.053-.907.127-1.36.22-.44.08-.84.22-1.2.42-.347.2-.634.48-.86.84-.214.347-.32.82-.32 1.42v.12c0 .507.093.947.28 1.32.186.373.433.687.74.94.32.24.686.42 1.1.54.413.12.84.18 1.28.18zm.32-1.2c-.347 0-.66-.04-.94-.12s-.52-.2-.72-.36-.354-.353-.46-.58c-.107-.227-.16-.487-.16-.78v-.08c0-.44.106-.78.32-1.02.213-.24.48-.413.8-.52.333-.107.686-.173 1.06-.2.386-.04.74-.08 1.06-.12.253-.04.493-.08.72-.12.24-.04.46-.087.66-.14.2-.067.38-.14.54-.22.173-.08.313-.167.42-.26v1.08c0 .547-.08 1.033-.24 1.46-.147.427-.367.787-.66 1.08-.294.293-.64.52-1.04.68-.4.147-.854.22-1.36.22zm9.355.96v-14h-1.36v14z"/><path d="m350.24 169v-12.64h4.64v-1.36h-10.76v1.36h4.64v12.64zm7.716 0v-5.92c0-.493.053-.947.16-1.36.12-.413.3-.767.54-1.06s.547-.52.92-.68c.387-.173.853-.26 1.4-.26.453 0 .833.073 1.14.22.32.133.573.333.76.6.187.253.32.573.4.96.093.373.14.8.14 1.28v6.22h1.36v-6.38c0-.667-.067-1.26-.2-1.78-.12-.52-.32-.953-.6-1.3-.28-.36-.64-.633-1.08-.82-.427-.187-.947-.28-1.56-.28-.387 0-.747.033-1.08.1-.333.053-.64.147-.92.28s-.533.307-.76.52c-.227.2-.433.447-.62.74v-5.08h-1.36v14zm11.328 0v-10.4h-1.36v10.4zm-.66-12.2c.134 0 .254-.02.36-.06.12-.053.22-.12.3-.2s.14-.18.18-.3c.054-.12.08-.253.08-.4 0-.133-.026-.253-.08-.36-.04-.12-.1-.22-.18-.3s-.18-.14-.3-.18c-.106-.053-.226-.08-.36-.08-.146 0-.28.027-.4.08-.12.04-.22.1-.3.18s-.146.18-.2.3c-.04.107-.06.227-.06.36 0 .147.02.28.06.4.054.12.12.22.2.3s.18.147.3.2c.12.04.254.06.4.06zm8.031 12.44c.627 0 1.2-.087 1.72-.26.533-.173.987-.427 1.36-.76s.66-.74.86-1.22c.213-.48.32-1.02.32-1.62v-.12h-1.32v.12c0 .4-.073.767-.22 1.1-.147.32-.347.6-.6.84-.253.227-.56.407-.92.54-.347.12-.733.18-1.16.18-.64 0-1.18-.12-1.62-.36-.427-.24-.773-.56-1.04-.96s-.46-.853-.58-1.36c-.12-.52-.18-1.053-.18-1.6v-.12c0-.56.06-1.087.18-1.58.12-.507.307-.94.56-1.3.267-.373.607-.667 1.02-.88.427-.213.94-.32 1.54-.32.44 0 .84.073 1.2.22.36.133.667.313.92.54s.447.493.58.8c.147.307.22.633.22.98v.12h1.32v-.12c0-.52-.093-1.007-.28-1.46s-.46-.847-.82-1.18c-.36-.347-.807-.613-1.34-.8-.52-.2-1.12-.3-1.8-.3-.8 0-1.5.133-2.1.4-.587.267-1.08.633-1.48 1.1-.387.467-.68 1.027-.88 1.68-.187.653-.28 1.367-.28 2.14v.12c0 .813.093 1.553.28 2.22s.473 1.24.86 1.72c.4.48.9.853 1.5 1.12.613.253 1.34.38 2.18.38zm8.137-.24v-3.92l1.32-1.28 4.02 5.2h1.7l-4.72-6.1 4.58-4.3h-1.8l-5.1 4.9v-8.5h-1.36v14zm10.078 0v-5.92c0-.493.053-.947.16-1.36.12-.413.3-.767.54-1.06s.547-.52.92-.68c.387-.173.853-.26 1.4-.26.453 0 .833.073 1.14.22.32.133.573.333.76.6.187.253.32.573.4.96.093.373.14.8.14 1.28v6.22h1.36v-6.38c0-.667-.067-1.26-.2-1.78-.12-.52-.32-.953-.6-1.3-.28-.36-.64-.633-1.08-.82-.427-.187-.947-.28-1.56-.28-.387 0-.747.033-1.08.1-.333.053-.64.147-.92.28s-.533.307-.76.52c-.227.2-.433.447-.62.74v-1.48h-1.36v10.4zm14.072.24c.627 0 1.193-.08 1.7-.24.52-.16.96-.38 1.32-.66.373-.28.66-.613.86-1s.3-.807.3-1.26v-.12h-1.32v.12c0 .24-.06.48-.18.72-.12.227-.3.433-.54.62s-.54.34-.9.46c-.347.107-.753.16-1.22.16-.64 0-1.18-.113-1.62-.34s-.8-.527-1.08-.9c-.267-.387-.467-.827-.6-1.32-.12-.507-.18-1.027-.18-1.56v-.5c0-.547.06-1.053.18-1.52s.307-.873.56-1.22c.267-.347.607-.62 1.02-.82.427-.2.94-.3 1.54-.3.44 0 .847.08 1.22.24.387.147.72.36 1 .64s.5.627.66 1.04c.16.4.24.86.24 1.38v.12h-6.96v1.2h8.36v-1.12c0-.693-.107-1.327-.32-1.9s-.52-1.067-.92-1.48c-.387-.413-.86-.733-1.42-.96-.56-.24-1.18-.36-1.86-.36-.8 0-1.5.133-2.1.4-.587.267-1.08.633-1.48 1.1-.387.467-.68 1.027-.88 1.68-.187.653-.28 1.367-.28 2.14v.12c0 .813.093 1.553.28 2.22.2.667.5 1.24.9 1.72.413.48.927.853 1.54 1.12.613.253 1.34.38 2.18.38zm10.352 0c.533 0 1.04-.053 1.52-.16.493-.093.927-.26 1.3-.5s.673-.56.9-.96.34-.9.34-1.5v-.12c0-.52-.107-.947-.32-1.28-.213-.347-.493-.627-.84-.84s-.74-.38-1.18-.5c-.427-.12-.86-.227-1.3-.32-.373-.08-.733-.16-1.08-.24-.333-.093-.633-.207-.9-.34-.253-.133-.46-.3-.62-.5s-.24-.447-.24-.74v-.12c0-.307.067-.56.2-.76s.313-.36.54-.48.48-.2.76-.24c.293-.053.593-.08.9-.08.347 0 .673.033.98.1s.58.18.82.34c.24.147.427.333.56.56.147.227.22.5.22.82v.12h1.34v-.12c0-.547-.113-1.007-.34-1.38-.227-.387-.527-.7-.9-.94-.36-.24-.773-.413-1.24-.52-.467-.12-.94-.18-1.42-.18-.467 0-.933.047-1.4.14-.453.093-.867.253-1.24.48-.36.213-.653.5-.88.86s-.34.8-.34 1.32v.12c0 .56.107 1.013.32 1.36.227.333.513.607.86.82.36.2.753.36 1.18.48.44.107.88.207 1.32.3.373.08.727.16 1.06.24.347.08.647.187.9.32.267.133.473.307.62.52.16.2.24.467.24.8v.12c0 .36-.073.653-.22.88-.133.227-.32.413-.56.56-.227.133-.5.227-.82.28-.307.053-.633.08-.98.08-.373 0-.74-.04-1.1-.12-.347-.093-.653-.227-.92-.4s-.48-.387-.64-.64c-.16-.267-.24-.58-.24-.94v-.12h-1.4v.12c0 .533.113 1.007.34 1.42s.527.76.9 1.04c.387.28.84.487 1.36.62.52.147 1.067.22 1.64.22zm10 0c.533 0 1.04-.053 1.52-.16.493-.093.927-.26 1.3-.5s.673-.56.9-.96.34-.9.34-1.5v-.12c0-.52-.107-.947-.32-1.28-.213-.347-.493-.627-.84-.84s-.74-.38-1.18-.5c-.427-.12-.86-.227-1.3-.32-.373-.08-.733-.16-1.08-.24-.333-.093-.633-.207-.9-.34-.253-.133-.46-.3-.62-.5s-.24-.447-.24-.74v-.12c0-.307.067-.56.2-.76s.313-.36.54-.48.48-.2.76-.24c.293-.053.593-.08.9-.08.347 0 .673.033.98.1s.58.18.82.34c.24.147.427.333.56.56.147.227.22.5.22.82v.12h1.34v-.12c0-.547-.113-1.007-.34-1.38-.227-.387-.527-.7-.9-.94-.36-.24-.773-.413-1.24-.52-.467-.12-.94-.18-1.42-.18-.467 0-.933.047-1.4.14-.453.093-.867.253-1.24.48-.36.213-.653.5-.88.86s-.34.8-.34 1.32v.12c0 .56.107 1.013.32 1.36.227.333.513.607.86.82.36.2.753.36 1.18.48.44.107.88.207 1.32.3.373.08.727.16 1.06.24.347.08.647.187.9.32.267.133.473.307.62.52.16.2.24.467.24.8v.12c0 .36-.073.653-.22.88-.133.227-.32.413-.56.56-.227.133-.5.227-.82.28-.307.053-.633.08-.98.08-.373 0-.74-.04-1.1-.12-.347-.093-.653-.227-.92-.4s-.48-.387-.64-.64c-.16-.267-.24-.58-.24-.94v-.12h-1.4v.12c0 .533.113 1.007.34 1.42s.527.76.9 1.04c.387.28.84.487 1.36.62.52.147 1.067.22 1.64.22z"/><path d="m75.48 338.3c.7467 0 1.44-.073 2.08-.22.6533-.133 1.22-.36 1.7-.68.48-.333.86-.76 1.14-1.28.28-.533.42-1.187.42-1.96v-.12c0-.8-.16-1.427-.48-1.88-.3067-.467-.7133-.833-1.22-1.1-.4933-.267-1.0533-.467-1.68-.6-.6133-.147-1.22-.293-1.82-.44-.5333-.12-1.0267-.233-1.48-.34s-.8467-.24-1.18-.4c-.3333-.173-.6-.4-.8-.68-.1867-.28-.28-.653-.28-1.12v-.12c0-.427.1-.787.3-1.08.2133-.293.4867-.527.82-.7.3333-.187.7067-.32 1.12-.4.4267-.08.8467-.12 1.26-.12.5333 0 1.02.067 1.46.2.4533.12.84.307 1.16.56.3333.253.5933.573.78.96s.28.833.28 1.34v.12h1.48v-.12c0-.707-.1267-1.333-.38-1.88s-.6067-1.007-1.06-1.38c-.44-.387-.9667-.673-1.58-.86-.6133-.2-1.2867-.3-2.02-.3-.64 0-1.2667.067-1.88.2-.6133.12-1.1667.333-1.66.64-.4933.293-.8933.687-1.2 1.18-.2933.493-.44 1.113-.44 1.86v.12c0 .707.1533 1.28.46 1.72.3067.427.7.773 1.18 1.04.4933.253 1.04.453 1.64.6.6133.133 1.22.267 1.82.4.5067.12.9867.233 1.44.34.4667.093.8733.233 1.22.42.36.187.6467.433.86.74.2133.293.32.7.32 1.22v.12c0 .52-.0933.953-.28 1.3-.1867.333-.4467.6-.78.8s-.7333.34-1.2.42c-.4533.08-.9467.12-1.48.12-.5467 0-1.0733-.073-1.58-.22s-.9533-.367-1.34-.66-.6933-.66-.92-1.1c-.2267-.453-.34-.98-.34-1.58v-.12h-1.5v.12c0 .867.14 1.613.42 2.24.2933.613.6867 1.12 1.18 1.52.5067.4 1.1067.693 1.8.88s1.44.28 2.24.28zm9.2534 3.3v-5.16c.1867.32.4.593.64.82.2534.227.5334.413.84.56.3067.147.6334.253.98.32.36.067.7334.1 1.12.1.6934 0 1.3067-.127 1.84-.38.5467-.267 1-.64 1.36-1.12.3734-.48.6534-1.053.84-1.72.1867-.68.28-1.433.28-2.26v-.12c0-.733-.0866-1.42-.26-2.06-.16-.64-.42-1.2-.78-1.68-.3466-.48-.8-.853-1.36-1.12-.5466-.28-1.2-.42-1.96-.42-.4 0-.7733.04-1.12.12-.3466.067-.6733.18-.98.34-.2933.147-.5666.34-.82.58-.24.24-.4466.533-.62.88v-1.68h-1.36v14zm3.36-4.56c-.6133 0-1.1333-.107-1.56-.32-.4266-.213-.7733-.507-1.04-.88-.2666-.373-.46-.8-.58-1.28-.12-.493-.18-1.007-.18-1.54v-.12c0-.533.0467-1.06.14-1.58.1067-.52.28-.98.52-1.38.2534-.413.5867-.747 1-1 .4134-.253.9334-.38 1.56-.38.6134 0 1.1267.12 1.54.36.4134.227.7467.533 1 .92.2534.373.4334.807.54 1.3.1067.493.16 1.007.16 1.54v.12c0 .493-.0466.993-.14 1.5-.0933.507-.26.967-.5 1.38-.24.4-.56.727-.96.98s-.9.38-1.5.38zm8.4564.96v-10.4h-1.36v10.4zm-.66-12.2c.1334 0 .2534-.02.36-.06.12-.053.22-.12.3-.2s.14-.18.18-.3c.0534-.12.08-.253.08-.4 0-.133-.0266-.253-.08-.36-.04-.12-.1-.22-.18-.3s-.18-.14-.3-.18c-.1066-.053-.2266-.08-.36-.08-.1466 0-.28.027-.4.08-.12.04-.22.1-.3.18s-.1466.18-.2.3c-.04.107-.06.227-.06.36 0 .147.02.28.06.4.0534.12.12.22.2.3s.18.147.3.2c.12.04.2534.06.4.06zm8.0312 12.44c.626 0 1.2-.087 1.72-.26.533-.173.986-.427 1.36-.76.373-.333.66-.74.86-1.22.213-.48.32-1.02.32-1.62v-.12h-1.32v.12c0 .4-.074.767-.22 1.1-.147.32-.347.6-.6.84-.254.227-.56.407-.92.54-.347.12-.734.18-1.16.18-.64 0-1.18-.12-1.62-.36-.427-.24-.774-.56-1.04-.96-.267-.4-.46-.853-.58-1.36-.12-.52-.18-1.053-.18-1.6v-.12c0-.56.06-1.087.18-1.58.12-.507.306-.94.56-1.3.266-.373.606-.667 1.02-.88.426-.213.94-.32 1.54-.32.44 0 .84.073 1.2.22.36.133.666.313.92.54.253.227.446.493.58.8.146.307.22.633.22.98v.12h1.32v-.12c0-.52-.094-1.007-.28-1.46-.187-.453-.46-.847-.82-1.18-.36-.347-.807-.613-1.34-.8-.52-.2-1.12-.3-1.8-.3-.8 0-1.5.133-2.1.4-.587.267-1.08.633-1.48 1.1-.387.467-.6804 1.027-.8804 1.68-.1866.653-.28 1.367-.28 2.14v.12c0 .813.0934 1.553.28 2.22.1867.667.4734 1.24.8604 1.72.4.48.9.853 1.5 1.12.613.253 1.34.38 2.18.38zm8.137-.24v-10.4h-1.36v10.4zm-.66-12.2c.133 0 .253-.02.36-.06.12-.053.22-.12.3-.2s.14-.18.18-.3c.053-.12.08-.253.08-.4 0-.133-.027-.253-.08-.36-.04-.12-.1-.22-.18-.3s-.18-.14-.3-.18c-.107-.053-.227-.08-.36-.08-.147 0-.28.027-.4.08-.12.04-.22.1-.3.18s-.147.18-.2.3c-.04.107-.06.227-.06.36 0 .147.02.28.06.4.053.12.12.22.2.3s.18.147.3.2c.12.04.253.06.4.06zm5.21 12.2v-5.92c0-.493.054-.947.16-1.36.12-.413.3-.767.54-1.06s.547-.52.92-.68c.387-.173.854-.26 1.4-.26.454 0 .834.073 1.14.22.32.133.574.333.76.6.187.253.32.573.4.96.094.373.14.8.14 1.28v6.22h1.36v-6.38c0-.667-.066-1.26-.2-1.78-.12-.52-.32-.953-.6-1.3-.28-.36-.64-.633-1.08-.82-.426-.187-.946-.28-1.56-.28-.386 0-.746.033-1.08.1-.333.053-.64.147-.92.28s-.533.307-.76.52c-.226.2-.433.447-.62.74v-1.48h-1.36v10.4zm14.072.24c.627 0 1.194-.08 1.7-.24.52-.16.96-.38 1.32-.66.374-.28.66-.613.86-1s.3-.807.3-1.26v-.12h-1.32v.12c0 .24-.06.48-.18.72-.12.227-.3.433-.54.62s-.54.34-.9.46c-.346.107-.753.16-1.22.16-.64 0-1.18-.113-1.62-.34s-.8-.527-1.08-.9c-.266-.387-.466-.827-.6-1.32-.12-.507-.18-1.027-.18-1.56v-.5c0-.547.06-1.053.18-1.52s.307-.873.56-1.22c.267-.347.607-.62 1.02-.82.427-.2.94-.3 1.54-.3.44 0 .847.08 1.22.24.387.147.72.36 1 .64s.5.627.66 1.04c.16.4.24.86.24 1.38v.12h-6.96v1.2h8.36v-1.12c0-.693-.106-1.327-.32-1.9-.213-.573-.52-1.067-.92-1.48-.386-.413-.86-.733-1.42-.96-.56-.24-1.18-.36-1.86-.36-.8 0-1.5.133-2.1.4-.586.267-1.08.633-1.48 1.1-.386.467-.68 1.027-.88 1.68-.186.653-.28 1.367-.28 2.14v.12c0 .813.094 1.553.28 2.22.2.667.5 1.24.9 1.72.414.48.927.853 1.54 1.12.614.253 1.34.38 2.18.38zm10.352 0c.534 0 1.04-.053 1.52-.16.494-.093.927-.26 1.3-.5.374-.24.674-.56.9-.96.227-.4.34-.9.34-1.5v-.12c0-.52-.106-.947-.32-1.28-.213-.347-.493-.627-.84-.84-.346-.213-.74-.38-1.18-.5-.426-.12-.86-.227-1.3-.32-.373-.08-.733-.16-1.08-.24-.333-.093-.633-.207-.9-.34-.253-.133-.46-.3-.62-.5s-.24-.447-.24-.74v-.12c0-.307.067-.56.2-.76.134-.2.314-.36.54-.48.227-.12.48-.2.76-.24.294-.053.594-.08.9-.08.347 0 .674.033.98.1.307.067.58.18.82.34.24.147.427.333.56.56.147.227.22.5.22.82v.12h1.34v-.12c0-.547-.113-1.007-.34-1.38-.226-.387-.526-.7-.9-.94-.36-.24-.773-.413-1.24-.52-.466-.12-.94-.18-1.42-.18-.466 0-.933.047-1.4.14-.453.093-.866.253-1.24.48-.36.213-.653.5-.88.86-.226.36-.34.8-.34 1.32v.12c0 .56.107 1.013.32 1.36.227.333.514.607.86.82.36.2.754.36 1.18.48.44.107.88.207 1.32.3.374.08.727.16 1.06.24.347.08.647.187.9.32.267.133.474.307.62.52.16.2.24.467.24.8v.12c0 .36-.073.653-.22.88-.133.227-.32.413-.56.56-.226.133-.5.227-.82.28-.306.053-.633.08-.98.08-.373 0-.74-.04-1.1-.12-.346-.093-.653-.227-.92-.4-.266-.173-.48-.387-.64-.64-.16-.267-.24-.58-.24-.94v-.12h-1.4v.12c0 .533.114 1.007.34 1.42.227.413.527.76.9 1.04.387.28.84.487 1.36.62.52.147 1.067.22 1.64.22zm10 0c.534 0 1.04-.053 1.52-.16.494-.093.927-.26 1.3-.5.374-.24.674-.56.9-.96.227-.4.34-.9.34-1.5v-.12c0-.52-.106-.947-.32-1.28-.213-.347-.493-.627-.84-.84-.346-.213-.74-.38-1.18-.5-.426-.12-.86-.227-1.3-.32-.373-.08-.733-.16-1.08-.24-.333-.093-.633-.207-.9-.34-.253-.133-.46-.3-.62-.5s-.24-.447-.24-.74v-.12c0-.307.067-.56.2-.76.134-.2.314-.36.54-.48.227-.12.48-.2.76-.24.294-.053.594-.08.9-.08.347 0 .674.033.98.1.307.067.58.18.82.34.24.147.427.333.56.56.147.227.22.5.22.82v.12h1.34v-.12c0-.547-.113-1.007-.34-1.38-.226-.387-.526-.7-.9-.94-.36-.24-.773-.413-1.24-.52-.466-.12-.94-.18-1.42-.18-.466 0-.933.047-1.4.14-.453.093-.866.253-1.24.48-.36.213-.653.5-.88.86-.226.36-.34.8-.34 1.32v.12c0 .56.107 1.013.32 1.36.227.333.514.607.86.82.36.2.754.36 1.18.48.44.107.88.207 1.32.3.374.08.727.16 1.06.24.347.08.647.187.9.32.267.133.474.307.62.52.16.2.24.467.24.8v.12c0 .36-.073.653-.22.88-.133.227-.32.413-.56.56-.226.133-.5.227-.82.28-.306.053-.633.08-.98.08-.373 0-.74-.04-1.1-.12-.346-.093-.653-.227-.92-.4-.266-.173-.48-.387-.64-.64-.16-.267-.24-.58-.24-.94v-.12h-1.4v.12c0 .533.114 1.007.34 1.42.227.413.527.76.9 1.04.387.28.84.487 1.36.62.52.147 1.067.22 1.64.22z"/></g><path d="m355.465 19.3c.814 0 1.5-.1133 2.06-.34.56-.24 1.014-.58 1.36-1.02.36-.44.62-.9733.78-1.6.16-.64.24-1.3467.24-2.12v-9.22h-2.58v9.56c0 .3733-.026.72-.08 1.04-.053.3067-.153.58-.3.82-.133.2267-.326.4067-.58.54-.24.1333-.56.2-.96.2s-.733-.06-1-.18c-.253-.1333-.453-.32-.6-.56-.146-.24-.253-.5267-.32-.86-.053-.3333-.08-.7-.08-1.1v-.32h-2.54v.18c0 .8.094 1.5133.28 2.14.187.6133.467 1.1333.84 1.56.374.4133.847.7333 1.42.96.587.2133 1.274.32 2.06.32zm10.524-.1c.347 0 .687-.0333 1.02-.1.333-.0533.64-.1533.92-.3s.527-.3333.74-.56c.227-.2267.413-.5067.56-.84v1.6h2.4v-10.54h-2.4v6.14c0 .3733-.047.7133-.14 1.02-.08.3067-.213.5733-.4.8-.187.2133-.427.3867-.72.52-.28.12-.62.18-1.02.18-.387 0-.713-.0533-.98-.16s-.48-.2667-.64-.48c-.147-.2133-.253-.4667-.32-.76-.067-.3067-.1-.6533-.1-1.04v-6.22h-2.42v7.02c0 .5733.073 1.0867.22 1.54.16.4533.387.8467.68 1.18.307.32.673.5667 1.1.74.44.1733.94.26 1.5.26zm10.839-.2v-10.54h-2.42v10.54zm-1.2-12.04c.213 0 .406-.02667.58-.08.173-.05333.32-.12667.44-.22.133-.10667.233-.24.3-.4.08-.16.12-.34.12-.54s-.04-.37333-.12-.52c-.067-.14667-.167-.27333-.3-.38-.12-.10667-.267-.18667-.44-.24-.174-.05333-.367-.08-.58-.08-.2 0-.394.02667-.58.08-.174.05333-.327.13333-.46.24-.12.10667-.22.23333-.3.38s-.12.32-.12.52.033.38.1.54c.08.16.18.29333.3.4.133.09333.286.16667.46.22.186.05333.386.08.6.08zm8.655 12.3c.733 0 1.393-.0933 1.98-.28.6-.2 1.106-.48 1.52-.84.413-.3733.733-.82.96-1.34.226-.52.34-1.1067.34-1.76v-.12h-2.38v.12c0 .3467-.067.66-.2.94-.12.28-.287.52-.5.72-.2.1867-.447.3333-.74.44-.28.0933-.594.14-.94.14-.494 0-.92-.0933-1.28-.28-.347-.1867-.634-.44-.86-.76-.227-.32-.394-.6933-.5-1.12-.107-.44-.16-.9067-.16-1.4v-.12c0-.4933.046-.9533.14-1.38.106-.4267.266-.7867.48-1.08.226-.2933.513-.5267.86-.7.346-.1733.753-.26 1.22-.26.36 0 .686.06.98.18.306.12.56.28.76.48.213.1867.38.4133.5.68.12.2533.18.5333.18.84v.12h2.36v-.12c0-.6-.107-1.1533-.32-1.66-.214-.5067-.527-.94667-.94-1.32-.414-.37333-.92-.66-1.52-.86-.6-.21333-1.287-.32-2.06-.32-.84 0-1.587.13333-2.24.4-.64.26667-1.18.64-1.62 1.12-.427.48-.754 1.0533-.98 1.72-.214.6667-.32 1.4-.32 2.2v.12c0 .8133.106 1.56.32 2.24.213.68.54 1.2667.98 1.76.44.48.986.8533 1.64 1.12.666.2533 1.446.38 2.34.38zm9.361-.26v-10.54h-2.42v10.54zm-1.2-12.04c.214 0 .407-.02667.58-.08.174-.05333.32-.12667.44-.22.134-.10667.234-.24.3-.4.08-.16.12-.34.12-.54s-.04-.37333-.12-.52c-.066-.14667-.166-.27333-.3-.38-.12-.10667-.266-.18667-.44-.24-.173-.05333-.366-.08-.58-.08-.2 0-.393.02667-.58.08-.173.05333-.326.13333-.46.24-.12.10667-.22.23333-.3.38s-.12.32-.12.52.034.38.1.54c.08.16.18.29333.3.4.134.09333.287.16667.46.22.187.05333.387.08.6.08zm6.375 12.04v-5.94c0-.4.047-.76.14-1.08.093-.3333.24-.6133.44-.84.2-.24.447-.42.74-.54.307-.1333.667-.2 1.08-.2.36 0 .667.06.92.18.267.1067.48.2667.64.48.16.2.28.4533.36.76.08.2933.12.64.12 1.04v6.14h2.42v-6.68c0-.6533-.073-1.2267-.22-1.72-.147-.5067-.367-.93333-.66-1.28s-.66-.60667-1.1-.78c-.427-.18667-.933-.28-1.52-.28-.387 0-.753.03333-1.1.1-.333.06667-.647.17333-.94.32-.28.13333-.533.30667-.76.52-.213.21333-.4.46-.56.74v-1.48h-2.4v10.54zm14.177.26c.72 0 1.36-.0867 1.92-.26.573-.1867 1.053-.4333 1.44-.74.4-.32.707-.68.92-1.08.213-.4133.333-.8533.36-1.32v-.14h-2.24l-.02.1c-.013.2-.073.3933-.18.58s-.26.3533-.46.5-.447.2667-.74.36c-.28.08-.607.12-.98.12-.533 0-.987-.0867-1.36-.26-.36-.1867-.66-.4267-.9-.72-.24-.3067-.42-.66-.54-1.06-.107-.4133-.16-.8333-.16-1.26v-.92c0-.4267.053-.8267.16-1.2s.267-.7.48-.98c.227-.28.513-.5.86-.66s.76-.24 1.24-.24c.387 0 .74.0667 1.06.2.32.12.593.2933.82.52s.407.5067.54.84c.133.32.2.68.2 1.08v.1h-6v1.44h8.4v-1c0-.7867-.127-1.4867-.38-2.1-.24-.6267-.58-1.16-1.02-1.6s-.973-.77333-1.6-1c-.613-.24-1.293-.36-2.04-.36-.84 0-1.587.13333-2.24.4-.64.26667-1.18.64-1.62 1.12-.427.48-.753 1.0533-.98 1.72-.213.6667-.32 1.4-.32 2.2v.12c0 .8133.107 1.56.32 2.24.227.68.567 1.2667 1.02 1.76.453.48 1.013.8533 1.68 1.12.667.2533 1.453.38 2.36.38zm10.998 0c.626 0 1.213-.06 1.76-.18.56-.1067 1.046-.2867 1.46-.54.413-.2667.74-.6067.98-1.02.253-.4267.38-.9467.38-1.56v-.12c0-.56-.114-1.02-.34-1.38-.227-.3733-.527-.6667-.9-.88-.374-.2267-.794-.3933-1.26-.5-.467-.12-.94-.2267-1.42-.32-.387-.08-.74-.1533-1.06-.22-.307-.08-.574-.1733-.8-.28-.227-.12-.407-.2533-.54-.4-.12-.16-.18-.3533-.18-.58v-.1c0-.2133.046-.3933.14-.54.093-.16.226-.2867.4-.38.173-.0933.373-.16.6-.2.226-.04.466-.06.72-.06.293 0 .56.0333.8.1.253.0667.473.1667.66.3.186.12.333.2733.44.46.106.1867.16.4.16.64v.12h2.42v-.18c-.014-.5467-.14-1.02-.38-1.42-.227-.4-.54-.73333-.94-1-.387-.28-.847-.48667-1.38-.62-.534-.13333-1.107-.2-1.72-.2-.574 0-1.127.05333-1.66.16-.52.10667-.987.28-1.4.52-.4.24-.727.55333-.98.94-.24.3867-.36.86-.36 1.42v.12c0 .5733.106 1.04.32 1.4.226.36.52.6533.88.88.373.2133.793.3867 1.26.52.48.12.98.2267 1.5.32.36.08.693.1533 1 .22.306.0667.573.1533.8.26.24.0933.42.22.54.38.133.16.2.3733.2.64v.1c0 .28-.054.5067-.16.68-.094.16-.234.2933-.42.4-.187.1067-.407.1867-.66.24-.24.04-.507.06-.8.06-.32 0-.627-.0333-.92-.1-.28-.08-.527-.1867-.74-.32-.214-.1467-.38-.3267-.5-.54s-.187-.4667-.2-.76v-.12h-2.48v.16c.04.5733.18 1.08.42 1.52s.56.8067.96 1.1c.413.2933.906.5067 1.48.64.586.1467 1.226.22 1.92.22zm10.703 0c.627 0 1.213-.06 1.76-.18.56-.1067 1.047-.2867 1.46-.54.413-.2667.74-.6067.98-1.02.253-.4267.38-.9467.38-1.56v-.12c0-.56-.113-1.02-.34-1.38-.227-.3733-.527-.6667-.9-.88-.373-.2267-.793-.3933-1.26-.5-.467-.12-.94-.2267-1.42-.32-.387-.08-.74-.1533-1.06-.22-.307-.08-.573-.1733-.8-.28-.227-.12-.407-.2533-.54-.4-.12-.16-.18-.3533-.18-.58v-.1c0-.2133.047-.3933.14-.54.093-.16.227-.2867.4-.38s.373-.16.6-.2.467-.06.72-.06c.293 0 .56.0333.8.1.253.0667.473.1667.66.3.187.12.333.2733.44.46s.16.4.16.64v.12h2.42v-.18c-.013-.5467-.14-1.02-.38-1.42-.227-.4-.54-.73333-.94-1-.387-.28-.847-.48667-1.38-.62s-1.107-.2-1.72-.2c-.573 0-1.127.05333-1.66.16-.52.10667-.987.28-1.4.52-.4.24-.727.55333-.98.94-.24.3867-.36.86-.36 1.42v.12c0 .5733.107 1.04.32 1.4.227.36.52.6533.88.88.373.2133.793.3867 1.26.52.48.12.98.2267 1.5.32.36.08.693.1533 1 .22s.573.1533.8.26c.24.0933.42.22.54.38.133.16.2.3733.2.64v.1c0 .28-.053.5067-.16.68-.093.16-.233.2933-.42.4s-.407.1867-.66.24c-.24.04-.507.06-.8.06-.32 0-.627-.0333-.92-.1-.28-.08-.527-.1867-.74-.32-.213-.1467-.38-.3267-.5-.54s-.187-.4667-.2-.76v-.12h-2.48v.16c.04.5733.18 1.08.42 1.52s.56.8067.96 1.1c.413.2933.907.5067 1.48.64.587.1467 1.227.22 1.92.22z" fill="#000"/><path d="m10.26 19v-11.72h4.52v-2.28h-11.62v2.28h4.5v11.72zm10.8336.26c.72 0 1.36-.0867 1.92-.26.5733-.1867 1.0533-.4333 1.44-.74.4-.32.7067-.68.92-1.08.2133-.4133.3333-.8533.36-1.32v-.14h-2.24l-.02.1c-.0133.2-.0733.3933-.18.58s-.26.3533-.46.5-.4467.2667-.74.36c-.28.08-.6067.12-.98.12-.5333 0-.9867-.0867-1.36-.26-.36-.1867-.66-.4267-.9-.72-.24-.3067-.42-.66-.54-1.06-.1067-.4133-.16-.8333-.16-1.26v-.92c0-.4267.0533-.8267.16-1.2s.2667-.7.48-.98c.2267-.28.5133-.5.86-.66s.76-.24 1.24-.24c.3867 0 .74.0667 1.06.2.32.12.5933.2933.82.52s.4067.5067.54.84c.1333.32.2.68.2 1.08v.1h-6v1.44h8.4v-1c0-.7867-.1267-1.4867-.38-2.1-.24-.6267-.58-1.16-1.02-1.6s-.9733-.77333-1.6-1c-.6133-.24-1.2933-.36-2.04-.36-.84 0-1.5867.13333-2.24.4-.64.26667-1.18.64-1.62 1.12-.4267.48-.7533 1.0533-.98 1.72-.2133.6667-.32 1.4-.32 2.2v.12c0 .8133.1067 1.56.32 2.24.2267.68.5667 1.2667 1.02 1.76.4533.48 1.0133.8533 1.68 1.12.6667.2533 1.4533.38 2.36.38zm9.3778-.26v-6.16c0-.36.04-.6867.12-.98.0933-.3067.2267-.5667.4-.78.1867-.2267.4133-.4067.68-.54.28-.1333.6-.2.96-.2.3467 0 .6333.0667.86.2.24.12.4333.2867.58.5.16.2.2667.44.32.72.0667.28.1.5733.1.88v6.36h2.4v-6.1c0-.3733.04-.7133.12-1.02.08-.32.2067-.5867.38-.8.1733-.2267.3933-.4067.66-.54s.5933-.2.98-.2c.36 0 .66.06.9.18s.4333.28.58.48.2467.44.3.72c.0667.28.1.5867.1.92v6.36h2.4v-7c0-.5733-.0733-1.0867-.22-1.54-.1333-.4533-.34-.84-.62-1.16-.2667-.33333-.6133-.58667-1.04-.76-.4133-.18667-.9-.28-1.46-.28-.3733 0-.7333.04667-1.08.14-.3467.08-.6667.20667-.96.38s-.56.38667-.8.64-.4333.54667-.58.88c-.1067-.33333-.26-.62667-.46-.88-.1867-.25333-.4067-.46667-.66-.64s-.54-.3-.86-.38c-.3067-.09333-.64-.14-1-.14-.3467 0-.68.04-1 .12-.32.06667-.6133.17333-.88.32-.2533.14667-.4867.32667-.7.54-.2.21333-.3733.46667-.52.76v-1.54h-2.4v10.54zm17.793 3.6v-5.16c.1733.3067.3733.5733.6.8.2266.2267.4866.4133.78.56.2933.1467.6133.2533.96.32.3466.08.7133.12 1.1.12.72 0 1.3533-.1333 1.9-.4.56-.2667 1.0266-.64 1.4-1.12.3733-.4933.6533-1.08.84-1.76.1866-.68.28-1.4333.28-2.26v-.12c0-.7867-.0867-1.5067-.26-2.16-.1734-.6533-.4467-1.2133-.82-1.68-.36-.48-.82-.85333-1.38-1.12-.5467-.26667-1.2-.4-1.96-.4-.3867 0-.7534.04-1.1.12-.3334.06667-.6467.17333-.94.32-.2934.14667-.56.34-.8.58-.2267.22667-.4267.50667-.6.84v-1.62h-2.4v14.14zm2.78-5.34c-.4934 0-.92-.0867-1.28-.26-.3467-.1733-.6334-.4133-.86-.72-.2267-.3067-.3934-.66-.5-1.06-.0934-.4-.14-.8333-.14-1.3v-.18c0-.4533.0466-.8933.14-1.32.0933-.4267.24-.8.44-1.12.2133-.3333.4866-.6.82-.8.3466-.2.7733-.3 1.28-.3.48 0 .8866.0933 1.22.28.3466.1867.6266.4333.84.74.2133.3067.3666.6667.46 1.08.0933.4133.14.8533.14 1.32v.12c0 .4267-.04.8533-.12 1.28-.08.4133-.22.7867-.42 1.12s-.4667.6067-.8.82c-.3334.2-.74.3-1.22.3zm12.0219 2c.72 0 1.36-.0867 1.92-.26.5733-.1867 1.0533-.4333 1.44-.74.4-.32.7066-.68.92-1.08.2133-.4133.3333-.8533.36-1.32v-.14h-2.24l-.02.1c-.0134.2-.0734.3933-.18.58-.1067.1867-.26.3533-.46.5s-.4467.2667-.74.36c-.28.08-.6067.12-.98.12-.5334 0-.9867-.0867-1.36-.26-.36-.1867-.66-.4267-.9-.72-.24-.3067-.42-.66-.54-1.06-.1067-.4133-.16-.8333-.16-1.26v-.92c0-.4267.0533-.8267.16-1.2.1066-.3733.2666-.7.48-.98.2266-.28.5133-.5.86-.66.3466-.16.76-.24 1.24-.24.3866 0 .74.0667 1.06.2.32.12.5933.2933.82.52.2266.2267.4066.5067.54.84.1333.32.2.68.2 1.08v.1h-6v1.44h8.4v-1c0-.7867-.1267-1.4867-.38-2.1-.24-.6267-.58-1.16-1.02-1.6s-.9734-.77333-1.6-1c-.6134-.24-1.2934-.36-2.04-.36-.84 0-1.5867.13333-2.24.4-.64.26667-1.18.64-1.62 1.12-.4267.48-.7534 1.0533-.98 1.72-.2134.6667-.32 1.4-.32 2.2v.12c0 .8133.1066 1.56.32 2.24.2266.68.5666 1.2667 1.02 1.76.4533.48 1.0133.8533 1.68 1.12.6666.2533 1.4533.38 2.36.38zm9.3778-.26v-5.3c0-.5733.06-1.06.18-1.46.1333-.4.34-.7267.62-.98.28-.2667.6466-.46 1.1-.58.4533-.12 1-.18 1.64-.18h.28v-2.14c-.0534 0-.1067 0-.16 0-.0534-.01333-.1134-.02-.18-.02-.4 0-.7867.04667-1.16.14-.36.08-.6867.21333-.98.4-.2934.17333-.5534.39333-.78.66-.2267.26667-.4134.58-.56.94v-2.02h-2.4v10.54zm8.2111.22c.4266 0 .82-.0467 1.18-.14s.6933-.2267 1-.4c.3066-.1733.58-.38.82-.62.24-.2533.44-.5333.6-.84 0 .3067.0266.5733.08.8.0666.2267.16.42.28.58.1333.1467.3066.26.52.34.2133.08.4733.12.78.12.28 0 .5533-.0067.82-.02.28 0 .54-.0067.78-.02v-1.2c-.0667.0133-.1267.0267-.18.04-.0534 0-.1067 0-.16 0-.2534 0-.4267-.1133-.52-.34-.08-.2267-.12-.5667-.12-1.02l.02-4.36c0-.72-.1-1.3267-.3-1.82-.2-.49333-.4867-.89333-.86-1.2-.3734-.32-.8267-.55333-1.36-.7-.52-.14667-1.1134-.22-1.78-.22-.6667 0-1.28.08-1.84.24-.56.14667-1.0467.38-1.46.7-.4134.30667-.74.69333-.98 1.16-.2267.4667-.34 1.0133-.34 1.64v.1h2.32v-.1c0-.3733.0533-.6733.16-.9.1066-.2267.26-.4067.46-.54.2-.1467.4333-.2467.7-.3.2666-.0533.5533-.08.86-.08.3333 0 .62.0333.86.1.2533.0533.4666.14.64.26.1733.1067.3.2533.38.44.0933.1733.14.38.14.62v.1c0 .3067-.08.5533-.24.74-.16.1733-.38.3067-.66.4-.2667.0933-.5734.1667-.92.22-.3467.04-.7134.08-1.1.12-.4667.0533-.94.12-1.42.2s-.9134.2267-1.3.44c-.3867.2-.7.4867-.94.86-.24.36-.36.8533-.36 1.48v.12c0 .5067.0933.9533.28 1.34.1866.3733.44.6867.76.94.32.24.6866.42 1.1.54.4133.12.8466.18 1.3.18zm.88-1.84c-.28 0-.5334-.0333-.76-.1-.2267-.0667-.42-.16-.58-.28-.16-.1333-.2867-.2867-.38-.46-.08-.1733-.12-.38-.12-.62v-.08c0-.3467.08-.6133.24-.8.16-.2.3666-.34.62-.42.2533-.0933.5266-.1533.82-.18.3066-.04.5866-.0733.84-.1.2-.04.3933-.0733.58-.1.2-.04.38-.0867.54-.14.1733-.0533.3266-.1133.46-.18.1466-.0667.2666-.14.36-.22v.94c0 .4533-.06.8533-.18 1.2-.12.3333-.3.6133-.54.84-.2267.2267-.5.4-.82.52-.3067.12-.6667.18-1.08.18zm11.4248 1.78c.3067 0 .6533-.02 1.04-.06.3867-.0267.72-.08 1-.16v-2.04c-.2267.0533-.48.0933-.76.12-.28.0133-.52.02-.72.02s-.38-.0133-.54-.04c-.1467-.0267-.2733-.08-.38-.16-.0933-.0933-.1667-.22-.22-.38s-.08-.3667-.08-.62v-5.3h2.7v-2.08h-2.7v-2.36h-2.32v2.36h-1.84v2.08h1.84v6.1c0 .44.0533.82.16 1.14.12.32.3.58.54.78.2533.2.5667.3467.94.44.3733.1067.82.16 1.34.16zm7.24.04c.347 0 .687-.0333 1.02-.1.333-.0533.64-.1533.92-.3s.527-.3333.74-.56c.227-.2267.413-.5067.56-.84v1.6h2.4v-10.54h-2.4v6.14c0 .3733-.047.7133-.14 1.02-.08.3067-.213.5733-.4.8-.187.2133-.427.3867-.72.52-.28.12-.62.18-1.02.18-.387 0-.713-.0533-.98-.16-.2667-.1067-.48-.2667-.64-.48-.1467-.2133-.2533-.4667-.32-.76-.0667-.3067-.1-.6533-.1-1.04v-6.22h-2.42v7.02c0 .5733.0733 1.0867.22 1.54.16.4533.3867.8467.68 1.18.3067.32.6733.5667 1.1.74.44.1733.94.26 1.5.26zm10.799-.2v-5.3c0-.5733.06-1.06.18-1.46.133-.4.34-.7267.62-.98.28-.2667.646-.46 1.1-.58.453-.12 1-.18 1.64-.18h.28v-2.14c-.054 0-.107 0-.16 0-.054-.01333-.114-.02-.18-.02-.4 0-.787.04667-1.16.14-.36.08-.687.21333-.98.4-.294.17333-.554.39333-.78.66-.227.26667-.414.58-.56.94v-2.02h-2.4v10.54zm10.251.26c.72 0 1.36-.0867 1.92-.26.573-.1867 1.053-.4333 1.44-.74.4-.32.707-.68.92-1.08.213-.4133.333-.8533.36-1.32v-.14h-2.24l-.02.1c-.013.2-.073.3933-.18.58s-.26.3533-.46.5-.447.2667-.74.36c-.28.08-.607.12-.98.12-.533 0-.987-.0867-1.36-.26-.36-.1867-.66-.4267-.9-.72-.24-.3067-.42-.66-.54-1.06-.107-.4133-.16-.8333-.16-1.26v-.92c0-.4267.053-.8267.16-1.2s.267-.7.48-.98c.227-.28.513-.5.86-.66s.76-.24 1.24-.24c.387 0 .74.0667 1.06.2.32.12.593.2933.82.52s.407.5067.54.84c.133.32.2.68.2 1.08v.1h-6v1.44h8.4v-1c0-.7867-.127-1.4867-.38-2.1-.24-.6267-.58-1.16-1.02-1.6s-.973-.77333-1.6-1c-.613-.24-1.293-.36-2.04-.36-.84 0-1.587.13333-2.24.4-.64.26667-1.18.64-1.62 1.12-.427.48-.753 1.0533-.98 1.72-.213.6667-.32 1.4-.32 2.2v.12c0 .8133.107 1.56.32 2.24.227.68.567 1.2667 1.02 1.76.453.48 1.013.8533 1.68 1.12.667.2533 1.453.38 2.36.38z" fill="#000"/><path d="m261.5 205c0-20.705-17.007-37.5-38-37.5s-38 16.795-38 37.5 17.007 37.5 38 37.5 38-16.795 38-37.5z" opacity=".3" stroke="#f46500"/><circle opacity=".3" r="85.5" stroke="#f46500" transform="matrix(1 0 0 -1 222 205)"/><circle opacity=".3" r="170.5" stroke="#f46500" transform="matrix(1 0 0 -1 222 205)"/><circle cx="330" cy="83" fill="#ff6900" r="3"/><circle cx="129" cy="79" fill="#ff6900" r="3"/><circle cx="224" cy="341" fill="#ff6900" r="3"/><circle cx="363" cy="229" fill="#ff6900" r="3"/><circle cx="87" cy="244" fill="#ff6900" r="3"/></svg>