<svg fill="none" height="574" viewBox="0 0 1030 574" width="1030" xmlns="http://www.w3.org/2000/svg" xmlns:xlink="http://www.w3.org/1999/xlink"><linearGradient id="a" gradientUnits="userSpaceOnUse" x1="-414.629" x2="-414.629" y1="88.0029" y2="528.537"><stop offset="0" stop-color="#ff6a00"/><stop offset=".546875" stop-color="#ff6a00" stop-opacity=".65625"/><stop offset="1" stop-color="#ff6a00" stop-opacity="0"/></linearGradient><linearGradient id="b" gradientUnits="userSpaceOnUse" x1="916.11" x2="949.785" y1="108.315" y2="78.8147"><stop offset="0" stop-color="#ff6a00"/><stop offset="1" stop-color="#ffc700"/></linearGradient><ellipse cx="35.0661" cy="368.5" fill="#ff6900" rx="6.06609" ry="7.5"/><path d="m35.3529 373v140" stroke="#ff6900" stroke-width="3"/><ellipse cx="443.066" cy="381.5" fill="#ff6900" rx="6.06609" ry="7.5"/><path d="m443.353 386v140" stroke="#ff6900" stroke-width="3"/><path d="m32.6133 528.001h894.5287" stroke="#ccc" stroke-opacity=".5"/><path d="m32.6133 417.442h894.5287" stroke="#ccc" stroke-opacity=".5"/><path d="m32.6133 306.884h894.5287" stroke="#ccc" stroke-opacity=".5"/><path d="m32.6133 196.325h894.5287" stroke="#ccc" stroke-opacity=".5"/><path d="m32.6133 85.7666h894.5287" stroke="#ccc" stroke-opacity=".5"/><path d="m15.0399 569.161v-1.224l5.13-4.95c.456-.432.792-.81 1.008-1.134.228-.336.378-.642.45-.918.084-.288.126-.564.126-.828 0-.648-.228-1.158-.684-1.53s-1.122-.558-1.998-.558c-.672 0-1.278.114-1.818.342-.54.216-1.008.558-1.404 1.026l-1.224-1.062c.48-.612 1.122-1.08 1.926-1.404.816-.336 1.71-.504 2.682-.504.876 0 1.638.144 2.286.432.648.276 1.146.678 1.494 1.206.36.528.54 1.152.54 1.872 0 .408-.054.81-.162 1.206s-.312.816-.612 1.26-.732.942-1.296 1.494l-4.572 4.41-.432-.702h7.614v1.566zm15.6643.144c-.984 0-1.866-.252-2.646-.756-.768-.504-1.38-1.236-1.836-2.196-.444-.96-.666-2.124-.666-3.492s.222-2.532.666-3.492c.456-.96 1.068-1.692 1.836-2.196.78-.504 1.662-.756 2.646-.756.972 0 1.848.252 2.628.756s1.392 1.236 1.836 2.196.666 2.124.666 3.492-.222 2.532-.666 3.492-1.056 1.692-1.836 2.196-1.656.756-2.628.756zm0-1.602c.66 0 1.236-.18 1.728-.54.504-.36.894-.9 1.17-1.62.288-.72.432-1.614.432-2.682s-.144-1.962-.432-2.682c-.276-.72-.666-1.26-1.17-1.62-.492-.36-1.068-.54-1.728-.54s-1.242.18-1.746.54-.9.9-1.188 1.62c-.276.72-.414 1.614-.414 2.682s.138 1.962.414 2.682c.288.72.684 1.26 1.188 1.62s1.086.54 1.746.54zm8.9819 1.458v-11.88l.774.846h-3.618v-1.566h4.626v12.6zm6.6621 0v-11.88l.774.846h-3.618v-1.566h4.626v12.6z" fill="#000"/><path d="m94.5201 569.161v-1.224l5.13-4.95c.4559-.432.7919-.81 1.0079-1.134.228-.336.378-.642.45-.918.084-.288.126-.564.126-.828 0-.648-.228-1.158-.684-1.53s-1.1219-.558-1.9979-.558c-.672 0-1.278.114-1.818.342-.54.216-1.008.558-1.404 1.026l-1.224-1.062c.48-.612 1.122-1.08 1.926-1.404.816-.336 1.71-.504 2.682-.504.876 0 1.6379.144 2.2859.432.648.276 1.146.678 1.494 1.206.36.528.54 1.152.54 1.872 0 .408-.054.81-.162 1.206s-.312.816-.612 1.26-.732.942-1.296 1.494l-4.5719 4.41-.432-.702h7.6139v1.566zm15.6639.144c-.984 0-1.866-.252-2.646-.756-.768-.504-1.38-1.236-1.836-2.196-.444-.96-.666-2.124-.666-3.492s.222-2.532.666-3.492c.456-.96 1.068-1.692 1.836-2.196.78-.504 1.662-.756 2.646-.756.972 0 1.848.252 2.628.756s1.392 1.236 1.836 2.196.666 2.124.666 3.492-.222 2.532-.666 3.492-1.056 1.692-1.836 2.196-1.656.756-2.628.756zm0-1.602c.66 0 1.236-.18 1.728-.54.504-.36.894-.9 1.17-1.62.288-.72.432-1.614.432-2.682s-.144-1.962-.432-2.682c-.276-.72-.666-1.26-1.17-1.62-.492-.36-1.068-.54-1.728-.54s-1.242.18-1.746.54-.9.9-1.188 1.62c-.276.72-.414 1.614-.414 2.682s.138 1.962.414 2.682c.288.72.684 1.26 1.188 1.62s1.086.54 1.746.54zm8.982 1.458v-11.88l.774.846h-3.618v-1.566h4.626v12.6zm4.34 0v-1.224l5.13-4.95c.456-.432.792-.81 1.008-1.134.228-.336.378-.642.45-.918.084-.288.126-.564.126-.828 0-.648-.228-1.158-.684-1.53s-1.122-.558-1.998-.558c-.672 0-1.278.114-1.818.342-.54.216-1.008.558-1.404 1.026l-1.224-1.062c.48-.612 1.122-1.08 1.926-1.404.816-.336 1.71-.504 2.682-.504.876 0 1.638.144 2.286.432.648.276 1.146.678 1.494 1.206.36.528.54 1.152.54 1.872 0 .408-.054.81-.162 1.206s-.312.816-.612 1.26-.732.942-1.296 1.494l-4.572 4.41-.432-.702h7.614v1.566z" fill="#000"/><path d="m175.855 569.161v-1.224l5.13-4.95c.456-.432.792-.81 1.008-1.134.228-.336.378-.642.45-.918.084-.288.126-.564.126-.828 0-.648-.228-1.158-.684-1.53s-1.122-.558-1.998-.558c-.672 0-1.278.114-1.818.342-.54.216-1.008.558-1.404 1.026l-1.224-1.062c.48-.612 1.122-1.08 1.926-1.404.816-.336 1.71-.504 2.682-.504.876 0 1.638.144 2.286.432.648.276 1.146.678 1.494 1.206.36.528.54 1.152.54 1.872 0 .408-.054.81-.162 1.206s-.312.816-.612 1.26-.732.942-1.296 1.494l-4.572 4.41-.432-.702h7.614v1.566zm15.664.144c-.984 0-1.866-.252-2.646-.756-.768-.504-1.38-1.236-1.836-2.196-.444-.96-.666-2.124-.666-3.492s.222-2.532.666-3.492c.456-.96 1.068-1.692 1.836-2.196.78-.504 1.662-.756 2.646-.756.972 0 1.848.252 2.628.756s1.392 1.236 1.836 2.196.666 2.124.666 3.492-.222 2.532-.666 3.492-1.056 1.692-1.836 2.196-1.656.756-2.628.756zm0-1.602c.66 0 1.236-.18 1.728-.54.504-.36.894-.9 1.17-1.62.288-.72.432-1.614.432-2.682s-.144-1.962-.432-2.682c-.276-.72-.666-1.26-1.17-1.62-.492-.36-1.068-.54-1.728-.54s-1.242.18-1.746.54-.9.9-1.188 1.62c-.276.72-.414 1.614-.414 2.682s.138 1.962.414 2.682c.288.72.684 1.26 1.188 1.62s1.086.54 1.746.54zm8.982 1.458v-11.88l.774.846h-3.618v-1.566h4.626v12.6zm8.39.144c-.888 0-1.752-.138-2.592-.414-.828-.276-1.506-.648-2.034-1.116l.828-1.422c.42.396.966.72 1.638.972s1.392.378 2.16.378c.936 0 1.662-.198 2.178-.594.528-.408.792-.954.792-1.638 0-.66-.252-1.188-.756-1.584-.492-.408-1.278-.612-2.358-.612h-1.008v-1.26l3.744-4.608.252.72h-6.894v-1.566h8.316v1.224l-3.726 4.59-.936-.558h.594c1.524 0 2.664.342 3.42 1.026.768.684 1.152 1.554 1.152 2.61 0 .708-.174 1.356-.522 1.944s-.876 1.056-1.584 1.404c-.696.336-1.584.504-2.664.504z" fill="#000"/><path d="m256.363 569.161v-1.224l5.13-4.95c.456-.432.792-.81 1.008-1.134.228-.336.378-.642.45-.918.084-.288.126-.564.126-.828 0-.648-.228-1.158-.684-1.53s-1.122-.558-1.998-.558c-.672 0-1.278.114-1.818.342-.54.216-1.008.558-1.404 1.026l-1.224-1.062c.48-.612 1.122-1.08 1.926-1.404.816-.336 1.71-.504 2.682-.504.876 0 1.638.144 2.286.432.648.276 1.146.678 1.494 1.206.36.528.54 1.152.54 1.872 0 .408-.054.81-.162 1.206s-.312.816-.612 1.26-.732.942-1.296 1.494l-4.572 4.41-.432-.702h7.614v1.566zm15.664.144c-.984 0-1.866-.252-2.646-.756-.768-.504-1.38-1.236-1.836-2.196-.444-.96-.666-2.124-.666-3.492s.222-2.532.666-3.492c.456-.96 1.068-1.692 1.836-2.196.78-.504 1.662-.756 2.646-.756.972 0 1.848.252 2.628.756s1.392 1.236 1.836 2.196.666 2.124.666 3.492-.222 2.532-.666 3.492-1.056 1.692-1.836 2.196-1.656.756-2.628.756zm0-1.602c.66 0 1.236-.18 1.728-.54.504-.36.894-.9 1.17-1.62.288-.72.432-1.614.432-2.682s-.144-1.962-.432-2.682c-.276-.72-.666-1.26-1.17-1.62-.492-.36-1.068-.54-1.728-.54s-1.242.18-1.746.54-.9.9-1.188 1.62c-.276.72-.414 1.614-.414 2.682s.138 1.962.414 2.682c.288.72.684 1.26 1.188 1.62s1.086.54 1.746.54zm8.982 1.458v-11.88l.774.846h-3.618v-1.566h4.626v12.6zm4.358-3.096v-1.26l6.444-8.244h1.944l-6.39 8.244-.918-.288h10.062v1.548zm7.002 3.096v-3.096l.054-1.548v-2.736h1.692v7.38z" fill="#000"/><path d="m338.47 569.161v-1.224l5.13-4.95c.456-.432.792-.81 1.008-1.134.228-.336.378-.642.45-.918.084-.288.126-.564.126-.828 0-.648-.228-1.158-.684-1.53s-1.122-.558-1.998-.558c-.672 0-1.278.114-1.818.342-.54.216-1.008.558-1.404 1.026l-1.224-1.062c.48-.612 1.122-1.08 1.926-1.404.816-.336 1.71-.504 2.682-.504.876 0 1.638.144 2.286.432.648.276 1.146.678 1.494 1.206.36.528.54 1.152.54 1.872 0 .408-.054.81-.162 1.206s-.312.816-.612 1.26-.732.942-1.296 1.494l-4.572 4.41-.432-.702h7.614v1.566zm15.664.144c-.984 0-1.866-.252-2.646-.756-.768-.504-1.38-1.236-1.836-2.196-.444-.96-.666-2.124-.666-3.492s.222-2.532.666-3.492c.456-.96 1.068-1.692 1.836-2.196.78-.504 1.662-.756 2.646-.756.972 0 1.848.252 2.628.756s1.392 1.236 1.836 2.196.666 2.124.666 3.492-.222 2.532-.666 3.492-1.056 1.692-1.836 2.196-1.656.756-2.628.756zm0-1.602c.66 0 1.236-.18 1.728-.54.504-.36.894-.9 1.17-1.62.288-.72.432-1.614.432-2.682s-.144-1.962-.432-2.682c-.276-.72-.666-1.26-1.17-1.62-.492-.36-1.068-.54-1.728-.54s-1.242.18-1.746.54-.9.9-1.188 1.62c-.276.72-.414 1.614-.414 2.682s.138 1.962.414 2.682c.288.72.684 1.26 1.188 1.62s1.086.54 1.746.54zm8.982 1.458v-11.88l.774.846h-3.618v-1.566h4.626v12.6zm8.606.144c-.888 0-1.752-.138-2.592-.414-.828-.276-1.506-.648-2.034-1.116l.828-1.422c.42.396.966.72 1.638.972s1.386.378 2.142.378c.96 0 1.698-.204 2.214-.612s.774-.954.774-1.638c0-.468-.114-.876-.342-1.224s-.624-.612-1.188-.792c-.552-.192-1.314-.288-2.286-.288h-2.862l.666-6.588h7.11v1.566h-6.444l.936-.882-.522 5.202-.936-.864h2.43c1.26 0 2.274.162 3.042.486s1.326.774 1.674 1.35c.348.564.522 1.218.522 1.962 0 .72-.174 1.38-.522 1.98-.348.588-.876 1.062-1.584 1.422-.696.348-1.584.522-2.664.522z" fill="#000"/><path d="m419.906 569.161v-1.224l5.13-4.95c.456-.432.792-.81 1.008-1.134.228-.336.378-.642.45-.918.084-.288.126-.564.126-.828 0-.648-.228-1.158-.684-1.53s-1.122-.558-1.998-.558c-.672 0-1.278.114-1.818.342-.54.216-1.008.558-1.404 1.026l-1.224-1.062c.48-.612 1.122-1.08 1.926-1.404.816-.336 1.71-.504 2.682-.504.876 0 1.638.144 2.286.432.648.276 1.146.678 1.494 1.206.36.528.54 1.152.54 1.872 0 .408-.054.81-.162 1.206s-.312.816-.612 1.26-.732.942-1.296 1.494l-4.572 4.41-.432-.702h7.614v1.566zm15.664.144c-.984 0-1.866-.252-2.646-.756-.768-.504-1.38-1.236-1.836-2.196-.444-.96-.666-2.124-.666-3.492s.222-2.532.666-3.492c.456-.96 1.068-1.692 1.836-2.196.78-.504 1.662-.756 2.646-.756.972 0 1.848.252 2.628.756s1.392 1.236 1.836 2.196.666 2.124.666 3.492-.222 2.532-.666 3.492-1.056 1.692-1.836 2.196-1.656.756-2.628.756zm0-1.602c.66 0 1.236-.18 1.728-.54.504-.36.894-.9 1.17-1.62.288-.72.432-1.614.432-2.682s-.144-1.962-.432-2.682c-.276-.72-.666-1.26-1.17-1.62-.492-.36-1.068-.54-1.728-.54s-1.242.18-1.746.54-.9.9-1.188 1.62c-.276.72-.414 1.614-.414 2.682s.138 1.962.414 2.682c.288.72.684 1.26 1.188 1.62s1.086.54 1.746.54zm8.982 1.458v-11.88l.774.846h-3.618v-1.566h4.626v12.6zm9.83.144c-1.116 0-2.07-.246-2.862-.738s-1.398-1.2-1.818-2.124c-.408-.936-.612-2.076-.612-3.42 0-1.428.252-2.634.756-3.618s1.206-1.728 2.106-2.232 1.932-.756 3.096-.756c.6 0 1.17.06 1.71.18.552.12 1.026.306 1.422.558l-.684 1.404c-.324-.228-.696-.384-1.116-.468-.408-.084-.84-.126-1.296-.126-1.284 0-2.304.402-3.06 1.206-.756.792-1.134 1.974-1.134 3.546 0 .252.012.552.036.9s.084.69.18 1.026l-.612-.612c.18-.552.462-1.014.846-1.386.396-.384.864-.666 1.404-.846.552-.192 1.146-.288 1.782-.288.84 0 1.584.156 2.232.468s1.158.756 1.53 1.332c.372.564.558 1.236.558 2.016 0 .804-.198 1.506-.594 2.106s-.93 1.062-1.602 1.386-1.428.486-2.268.486zm-.072-1.458c.552 0 1.032-.102 1.44-.306.42-.204.75-.486.99-.846.24-.372.36-.804.36-1.296 0-.744-.258-1.332-.774-1.764-.516-.444-1.218-.666-2.106-.666-.576 0-1.08.108-1.512.324s-.774.51-1.026.882c-.24.36-.36.774-.36 1.242 0 .432.114.834.342 1.206.228.36.564.654 1.008.882s.99.342 1.638.342z" fill="#000"/><path d="m500.893 569.161v-1.224l5.13-4.95c.456-.432.792-.81 1.008-1.134.228-.336.378-.642.45-.918.084-.288.126-.564.126-.828 0-.648-.228-1.158-.684-1.53s-1.122-.558-1.998-.558c-.672 0-1.278.114-1.818.342-.54.216-1.008.558-1.404 1.026l-1.224-1.062c.48-.612 1.122-1.08 1.926-1.404.816-.336 1.71-.504 2.682-.504.876 0 1.638.144 2.286.432.648.276 1.146.678 1.494 1.206.36.528.54 1.152.54 1.872 0 .408-.054.81-.162 1.206s-.312.816-.612 1.26-.732.942-1.296 1.494l-4.572 4.41-.432-.702h7.614v1.566zm15.664.144c-.984 0-1.866-.252-2.646-.756-.768-.504-1.38-1.236-1.836-2.196-.444-.96-.666-2.124-.666-3.492s.222-2.532.666-3.492c.456-.96 1.068-1.692 1.836-2.196.78-.504 1.662-.756 2.646-.756.972 0 1.848.252 2.628.756s1.392 1.236 1.836 2.196.666 2.124.666 3.492-.222 2.532-.666 3.492-1.056 1.692-1.836 2.196-1.656.756-2.628.756zm0-1.602c.66 0 1.236-.18 1.728-.54.504-.36.894-.9 1.17-1.62.288-.72.432-1.614.432-2.682s-.144-1.962-.432-2.682c-.276-.72-.666-1.26-1.17-1.62-.492-.36-1.068-.54-1.728-.54s-1.242.18-1.746.54-.9.9-1.188 1.62c-.276.72-.414 1.614-.414 2.682s.138 1.962.414 2.682c.288.72.684 1.26 1.188 1.62s1.086.54 1.746.54zm8.982 1.458v-11.88l.774.846h-3.618v-1.566h4.626v12.6zm6.716 0 5.346-11.844.468.81h-7.488l.9-.882v3.132h-1.728v-3.816h9.504v1.224l-5.094 11.376z" fill="#000"/><path d="m582.302 569.161v-1.224l5.13-4.95c.456-.432.792-.81 1.008-1.134.228-.336.378-.642.45-.918.084-.288.126-.564.126-.828 0-.648-.228-1.158-.684-1.53s-1.122-.558-1.998-.558c-.672 0-1.278.114-1.818.342-.54.216-1.008.558-1.404 1.026l-1.224-1.062c.48-.612 1.122-1.08 1.926-1.404.816-.336 1.71-.504 2.682-.504.876 0 1.638.144 2.286.432.648.276 1.146.678 1.494 1.206.36.528.54 1.152.54 1.872 0 .408-.054.81-.162 1.206s-.312.816-.612 1.26-.732.942-1.296 1.494l-4.572 4.41-.432-.702h7.614v1.566zm15.664.144c-.984 0-1.866-.252-2.646-.756-.768-.504-1.38-1.236-1.836-2.196-.444-.96-.666-2.124-.666-3.492s.222-2.532.666-3.492c.456-.96 1.068-1.692 1.836-2.196.78-.504 1.662-.756 2.646-.756.972 0 1.848.252 2.628.756s1.392 1.236 1.836 2.196.666 2.124.666 3.492-.222 2.532-.666 3.492-1.056 1.692-1.836 2.196-1.656.756-2.628.756zm0-1.602c.66 0 1.236-.18 1.728-.54.504-.36.894-.9 1.17-1.62.288-.72.432-1.614.432-2.682s-.144-1.962-.432-2.682c-.276-.72-.666-1.26-1.17-1.62-.492-.36-1.068-.54-1.728-.54s-1.242.18-1.746.54-.9.9-1.188 1.62c-.276.72-.414 1.614-.414 2.682s.138 1.962.414 2.682c.288.72.684 1.26 1.188 1.62s1.086.54 1.746.54zm8.982 1.458v-11.88l.774.846h-3.618v-1.566h4.626v12.6zm9.452.144c-1.02 0-1.902-.15-2.646-.45s-1.32-.726-1.728-1.278c-.408-.564-.612-1.224-.612-1.98 0-.744.192-1.374.576-1.89.396-.528.966-.924 1.71-1.188.744-.276 1.644-.414 2.7-.414s1.956.138 2.7.414c.756.264 1.332.66 1.728 1.188s.594 1.158.594 1.89c0 .756-.204 1.416-.612 1.98-.408.552-.99.978-1.746 1.278s-1.644.45-2.664.45zm0-1.458c1.008 0 1.794-.204 2.358-.612.576-.42.864-.984.864-1.692 0-.696-.288-1.242-.864-1.638-.564-.408-1.35-.612-2.358-.612-.996 0-1.776.204-2.34.612-.564.396-.846.942-.846 1.638 0 .708.282 1.272.846 1.692.564.408 1.344.612 2.34.612zm0-4.77c-.96 0-1.776-.126-2.448-.378-.672-.264-1.188-.636-1.548-1.116-.36-.492-.54-1.074-.54-1.746 0-.708.186-1.314.558-1.818.384-.516.918-.912 1.602-1.188s1.476-.414 2.376-.414c.912 0 1.71.138 2.394.414s1.218.672 1.602 1.188c.384.504.576 1.11.576 1.818 0 .672-.18 1.254-.54 1.746-.36.48-.882.852-1.566 1.116-.684.252-1.506.378-2.466.378zm0-1.152c.876 0 1.56-.18 2.052-.54.504-.36.756-.852.756-1.476 0-.636-.258-1.134-.774-1.494s-1.194-.54-2.034-.54-1.512.18-2.016.54c-.492.36-.738.858-.738 1.494 0 .624.24 1.116.72 1.476.492.36 1.17.54 2.034.54z" fill="#000"/><path d="m663.855 569.161v-1.224l5.13-4.95c.456-.432.792-.81 1.008-1.134.228-.336.378-.642.45-.918.084-.288.126-.564.126-.828 0-.648-.228-1.158-.684-1.53s-1.122-.558-1.998-.558c-.672 0-1.278.114-1.818.342-.54.216-1.008.558-1.404 1.026l-1.224-1.062c.48-.612 1.122-1.08 1.926-1.404.816-.336 1.71-.504 2.682-.504.876 0 1.638.144 2.286.432.648.276 1.146.678 1.494 1.206.36.528.54 1.152.54 1.872 0 .408-.054.81-.162 1.206s-.312.816-.612 1.26-.732.942-1.296 1.494l-4.572 4.41-.432-.702h7.614v1.566zm15.665.144c-.984 0-1.866-.252-2.646-.756-.768-.504-1.38-1.236-1.836-2.196-.444-.96-.666-2.124-.666-3.492s.222-2.532.666-3.492c.456-.96 1.068-1.692 1.836-2.196.78-.504 1.662-.756 2.646-.756.972 0 1.848.252 2.628.756s1.392 1.236 1.836 2.196.666 2.124.666 3.492-.222 2.532-.666 3.492-1.056 1.692-1.836 2.196-1.656.756-2.628.756zm0-1.602c.66 0 1.236-.18 1.728-.54.504-.36.894-.9 1.17-1.62.288-.72.432-1.614.432-2.682s-.144-1.962-.432-2.682c-.276-.72-.666-1.26-1.17-1.62-.492-.36-1.068-.54-1.728-.54s-1.242.18-1.746.54-.9.9-1.188 1.62c-.276.72-.414 1.614-.414 2.682s.138 1.962.414 2.682c.288.72.684 1.26 1.188 1.62s1.086.54 1.746.54zm8.982 1.458v-11.88l.774.846h-3.618v-1.566h4.626v12.6zm8.624-12.744c1.14 0 2.1.246 2.88.738.792.492 1.392 1.206 1.8 2.142.408.924.612 2.058.612 3.402 0 1.428-.252 2.634-.756 3.618s-1.2 1.728-2.088 2.232-1.926.756-3.114.756c-.588 0-1.158-.06-1.71-.18-.54-.12-1.014-.306-1.422-.558l.684-1.404c.336.216.708.372 1.116.468.42.084.858.126 1.314.126 1.272 0 2.286-.396 3.042-1.188.756-.804 1.134-1.992 1.134-3.564 0-.252-.012-.552-.036-.9s-.078-.69-.162-1.026l.594.612c-.168.552-.45 1.02-.846 1.404-.384.372-.852.654-1.404.846-.54.18-1.134.27-1.782.27-.828 0-1.566-.156-2.214-.468s-1.158-.75-1.53-1.314c-.372-.576-.558-1.254-.558-2.034 0-.816.192-1.518.576-2.106.396-.6.93-1.062 1.602-1.386.684-.324 1.44-.486 2.268-.486zm.072 1.458c-.54 0-1.02.102-1.44.306s-.75.486-.99.846c-.228.36-.342.792-.342 1.296 0 .744.258 1.338.774 1.782.516.432 1.212.648 2.088.648.576 0 1.08-.108 1.512-.324.444-.216.786-.51 1.026-.882.252-.372.378-.786.378-1.242 0-.444-.114-.846-.342-1.206s-.564-.654-1.008-.882-.996-.342-1.656-.342z" fill="#000"/><path d="m742.896 569.161v-1.224l5.13-4.95c.456-.432.792-.81 1.008-1.134.228-.336.378-.642.45-.918.084-.288.126-.564.126-.828 0-.648-.228-1.158-.684-1.53s-1.122-.558-1.998-.558c-.672 0-1.278.114-1.818.342-.54.216-1.008.558-1.404 1.026l-1.224-1.062c.48-.612 1.122-1.08 1.926-1.404.816-.336 1.71-.504 2.682-.504.876 0 1.638.144 2.286.432.648.276 1.146.678 1.494 1.206.36.528.54 1.152.54 1.872 0 .408-.054.81-.162 1.206s-.312.816-.612 1.26-.732.942-1.296 1.494l-4.572 4.41-.432-.702h7.614v1.566zm15.665.144c-.984 0-1.866-.252-2.646-.756-.768-.504-1.38-1.236-1.836-2.196-.444-.96-.666-2.124-.666-3.492s.222-2.532.666-3.492c.456-.96 1.068-1.692 1.836-2.196.78-.504 1.662-.756 2.646-.756.972 0 1.848.252 2.628.756s1.392 1.236 1.836 2.196.666 2.124.666 3.492-.222 2.532-.666 3.492-1.056 1.692-1.836 2.196-1.656.756-2.628.756zm0-1.602c.66 0 1.236-.18 1.728-.54.504-.36.894-.9 1.17-1.62.288-.72.432-1.614.432-2.682s-.144-1.962-.432-2.682c-.276-.72-.666-1.26-1.17-1.62-.492-.36-1.068-.54-1.728-.54s-1.242.18-1.746.54-.9.9-1.188 1.62c-.276.72-.414 1.614-.414 2.682s.138 1.962.414 2.682c.288.72.684 1.26 1.188 1.62s1.086.54 1.746.54zm6.66 1.458v-1.224l5.13-4.95c.456-.432.792-.81 1.008-1.134.228-.336.378-.642.45-.918.084-.288.126-.564.126-.828 0-.648-.228-1.158-.684-1.53s-1.122-.558-1.998-.558c-.672 0-1.278.114-1.818.342-.54.216-1.008.558-1.404 1.026l-1.224-1.062c.48-.612 1.122-1.08 1.926-1.404.816-.336 1.71-.504 2.682-.504.876 0 1.638.144 2.286.432.648.276 1.146.678 1.494 1.206.36.528.54 1.152.54 1.872 0 .408-.054.81-.162 1.206s-.312.816-.612 1.26-.732.942-1.296 1.494l-4.572 4.41-.432-.702h7.614v1.566zm15.664.144c-.984 0-1.866-.252-2.646-.756-.768-.504-1.38-1.236-1.836-2.196-.444-.96-.666-2.124-.666-3.492s.222-2.532.666-3.492c.456-.96 1.068-1.692 1.836-2.196.78-.504 1.662-.756 2.646-.756.972 0 1.848.252 2.628.756s1.392 1.236 1.836 2.196.666 2.124.666 3.492-.222 2.532-.666 3.492-1.056 1.692-1.836 2.196-1.656.756-2.628.756zm0-1.602c.66 0 1.236-.18 1.728-.54.504-.36.894-.9 1.17-1.62.288-.72.432-1.614.432-2.682s-.144-1.962-.432-2.682c-.276-.72-.666-1.26-1.17-1.62-.492-.36-1.068-.54-1.728-.54s-1.242.18-1.746.54-.9.9-1.188 1.62c-.276.72-.414 1.614-.414 2.682s.138 1.962.414 2.682c.288.72.684 1.26 1.188 1.62s1.086.54 1.746.54z" fill="#000"/><path d="m826.371 569.161v-1.224l5.13-4.95c.456-.432.792-.81 1.008-1.134.228-.336.378-.642.45-.918.084-.288.126-.564.126-.828 0-.648-.228-1.158-.684-1.53s-1.122-.558-1.998-.558c-.672 0-1.278.114-1.818.342-.54.216-1.008.558-1.404 1.026l-1.224-1.062c.48-.612 1.122-1.08 1.926-1.404.816-.336 1.71-.504 2.682-.504.876 0 1.638.144 2.286.432.648.276 1.146.678 1.494 1.206.36.528.54 1.152.54 1.872 0 .408-.054.81-.162 1.206s-.312.816-.612 1.26-.732.942-1.296 1.494l-4.572 4.41-.432-.702h7.614v1.566zm15.664.144c-.984 0-1.866-.252-2.646-.756-.768-.504-1.38-1.236-1.836-2.196-.444-.96-.666-2.124-.666-3.492s.222-2.532.666-3.492c.456-.96 1.068-1.692 1.836-2.196.78-.504 1.662-.756 2.646-.756.972 0 1.848.252 2.628.756s1.392 1.236 1.836 2.196.666 2.124.666 3.492-.222 2.532-.666 3.492-1.056 1.692-1.836 2.196-1.656.756-2.628.756zm0-1.602c.66 0 1.236-.18 1.728-.54.504-.36.894-.9 1.17-1.62.288-.72.432-1.614.432-2.682s-.144-1.962-.432-2.682c-.276-.72-.666-1.26-1.17-1.62-.492-.36-1.068-.54-1.728-.54s-1.242.18-1.746.54-.9.9-1.188 1.62c-.276.72-.414 1.614-.414 2.682s.138 1.962.414 2.682c.288.72.684 1.26 1.188 1.62s1.086.54 1.746.54zm6.66 1.458v-1.224l5.13-4.95c.456-.432.792-.81 1.008-1.134.228-.336.378-.642.45-.918.084-.288.126-.564.126-.828 0-.648-.228-1.158-.684-1.53s-1.122-.558-1.998-.558c-.672 0-1.278.114-1.818.342-.54.216-1.008.558-1.404 1.026l-1.224-1.062c.48-.612 1.122-1.08 1.926-1.404.816-.336 1.71-.504 2.682-.504.876 0 1.638.144 2.286.432.648.276 1.146.678 1.494 1.206.36.528.54 1.152.54 1.872 0 .408-.054.81-.162 1.206s-.312.816-.612 1.26-.732.942-1.296 1.494l-4.572 4.41-.432-.702h7.614v1.566zm12.658 0v-11.88l.774.846h-3.618v-1.566h4.626v12.6z" fill="#000"/><path d="m906.356 569.161v-1.224l5.13-4.95c.456-.432.792-.81 1.008-1.134.228-.336.378-.642.45-.918.084-.288.126-.564.126-.828 0-.648-.228-1.158-.684-1.53s-1.122-.558-1.998-.558c-.672 0-1.278.114-1.818.342-.54.216-1.008.558-1.404 1.026l-1.224-1.062c.48-.612 1.122-1.08 1.926-1.404.816-.336 1.71-.504 2.682-.504.876 0 1.638.144 2.286.432.648.276 1.146.678 1.494 1.206.36.528.54 1.152.54 1.872 0 .408-.054.81-.162 1.206s-.312.816-.612 1.26-.732.942-1.296 1.494l-4.572 4.41-.432-.702h7.614v1.566zm15.665.144c-.984 0-1.866-.252-2.646-.756-.768-.504-1.38-1.236-1.836-2.196-.444-.96-.666-2.124-.666-3.492s.222-2.532.666-3.492c.456-.96 1.068-1.692 1.836-2.196.78-.504 1.662-.756 2.646-.756.972 0 1.848.252 2.628.756s1.392 1.236 1.836 2.196.666 2.124.666 3.492-.222 2.532-.666 3.492-1.056 1.692-1.836 2.196-1.656.756-2.628.756zm0-1.602c.66 0 1.236-.18 1.728-.54.504-.36.894-.9 1.17-1.62.288-.72.432-1.614.432-2.682s-.144-1.962-.432-2.682c-.276-.72-.666-1.26-1.17-1.62-.492-.36-1.068-.54-1.728-.54s-1.242.18-1.746.54-.9.9-1.188 1.62c-.276.72-.414 1.614-.414 2.682s.138 1.962.414 2.682c.288.72.684 1.26 1.188 1.62s1.086.54 1.746.54zm6.659 1.458v-1.224l5.13-4.95c.456-.432.792-.81 1.008-1.134.228-.336.378-.642.45-.918.084-.288.126-.564.126-.828 0-.648-.228-1.158-.684-1.53s-1.122-.558-1.998-.558c-.672 0-1.278.114-1.818.342-.54.216-1.008.558-1.404 1.026l-1.224-1.062c.48-.612 1.122-1.08 1.926-1.404.816-.336 1.71-.504 2.682-.504.876 0 1.638.144 2.286.432.648.276 1.146.678 1.494 1.206.36.528.54 1.152.54 1.872 0 .408-.054.81-.162 1.206s-.312.816-.612 1.26-.732.942-1.296 1.494l-4.572 4.41-.432-.702h7.614v1.566zm10.336 0v-1.224l5.13-4.95c.456-.432.792-.81 1.008-1.134.228-.336.378-.642.45-.918.084-.288.126-.564.126-.828 0-.648-.228-1.158-.684-1.53s-1.122-.558-1.998-.558c-.672 0-1.278.114-1.818.342-.54.216-1.008.558-1.404 1.026l-1.224-1.062c.48-.612 1.122-1.08 1.926-1.404.816-.336 1.71-.504 2.682-.504.876 0 1.638.144 2.286.432.648.276 1.146.678 1.494 1.206.36.528.54 1.152.54 1.872 0 .408-.054.81-.162 1.206s-.312.816-.612 1.26-.732.942-1.296 1.494l-4.572 4.41-.432-.702h7.614v1.566z" fill="#ffc700"/><path clip-rule="evenodd" d="m32.6133 528.399 81.3167-.693 81.317-.61 81.317-4.654 81.316-3.325 81.317-14.962 81.317-35.464 81.317-59.292 81.316-54.305 81.317-23.827 81.317-104.731 81.317-138.5331v440.5341h-894.4847z" fill="url(#a)" fill-rule="evenodd"/><path d="m32.6133 528.399 81.3167-.693 81.317-.61 81.317-4.654 81.316-3.325 81.317-14.962 81.317-35.464 81.317-59.292 81.316-54.305 81.317-23.827 81.317-104.731 81.317-138.5331" stroke="#ff6900" stroke-linejoin="round" stroke-width="4"/><g fill="#000"><path d="m36.2783 536.666c4.7837 0 7.8836-4.748 7.8836-9.522 0-4.773-3.0999-9.522-7.8836-9.522-4.7836 0-7.8835 4.749-7.8835 9.522 0 4.774 3.0999 9.522 7.8835 9.522z" stroke="#ff6a00" stroke-width="4"/><path d="m117.595 535.974c4.784 0 7.883-4.749 7.883-9.522 0-4.774-3.099-9.522-7.883-9.522s-7.884 4.748-7.884 9.522c0 4.773 3.1 9.522 7.884 9.522z" stroke="#ff6a00" stroke-width="4"/><path d="m198.911 535.365c4.784 0 7.884-4.749 7.884-9.523 0-4.773-3.1-9.522-7.884-9.522-4.783 0-7.883 4.749-7.883 9.522 0 4.774 3.1 9.523 7.883 9.523z" stroke="#ff6a00" stroke-width="4"/><path d="m280.228 530.709c4.784 0 7.884-4.748 7.884-9.522 0-4.773-3.1-9.522-7.884-9.522-4.783 0-7.883 4.749-7.883 9.522 0 4.774 3.1 9.522 7.883 9.522z" stroke="#ff6a00" stroke-width="4"/><path d="m361.545 527.384c4.784 0 7.884-4.748 7.884-9.522s-3.1-9.522-7.884-9.522-7.884 4.748-7.884 9.522 3.1 9.522 7.884 9.522z" stroke="#ff6a00" stroke-width="4"/><path d="m442.861 512.423c4.784 0 7.884-4.748 7.884-9.522 0-4.773-3.1-9.522-7.884-9.522-4.783 0-7.883 4.749-7.883 9.522 0 4.774 3.1 9.522 7.883 9.522z" stroke="#ff6a00" stroke-width="4"/><path d="m524.178 476.959c4.784 0 7.884-4.748 7.884-9.522 0-4.773-3.1-9.522-7.884-9.522-4.783 0-7.883 4.749-7.883 9.522 0 4.774 3.1 9.522 7.883 9.522z" stroke="#ff6a00" stroke-width="4"/><path d="m605.496 417.666c4.783 0 7.883-4.748 7.883-9.522 0-4.773-3.1-9.522-7.883-9.522-4.784 0-7.884 4.749-7.884 9.522 0 4.774 3.1 9.522 7.884 9.522z" stroke="#ff6a00" stroke-width="4"/><path d="m686.812 363.362c4.783 0 7.883-4.749 7.883-9.522 0-4.774-3.1-9.523-7.883-9.523-4.784 0-7.884 4.749-7.884 9.523 0 4.773 3.1 9.522 7.884 9.522z" stroke="#ff6a00" stroke-width="4"/><path d="m768.129 339.534c4.784 0 7.884-4.749 7.884-9.523 0-4.773-3.1-9.522-7.884-9.522s-7.884 4.749-7.884 9.522c0 4.774 3.1 9.523 7.884 9.523z" stroke="#ff6a00" stroke-width="4"/><path d="m849.446 234.803c4.783 0 7.883-4.748 7.883-9.522s-3.1-9.522-7.883-9.522c-4.784 0-7.884 4.748-7.884 9.522s3.1 9.522 7.884 9.522z" stroke="#ff6a00" stroke-width="4"/><path d="m926.67 104.914c8.533 0 14.673-8.6346 14.673-18.2016 0-9.5671-6.14-18.2017-14.673-18.2017s-14.672 8.6346-14.672 18.2017c0 9.567 6.139 18.2016 14.672 18.2016z" stroke="url(#b)" stroke-width="4"/><path d="m36.8639 504.947c-1.6053 0-3.0426-.392-4.312-1.176-1.2693-.802-2.268-1.96-2.996-3.472s-1.092-3.341-1.092-5.488c0-2.146.364-3.976 1.092-5.488s1.7267-2.66 2.996-3.444c1.2694-.802 2.7067-1.204 4.312-1.204 1.624 0 3.0614.402 4.312 1.204 1.2694.784 2.268 1.932 2.996 3.444s1.092 3.342 1.092 5.488c0 2.147-.364 3.976-1.092 5.488s-1.7266 2.67-2.996 3.472c-1.2506.784-2.688 1.176-4.312 1.176zm0-3.836c.7654 0 1.428-.214 1.988-.644.5787-.429 1.0267-1.11 1.344-2.044.336-.933.504-2.137.504-3.612 0-1.474-.168-2.678-.504-3.612-.3173-.933-.7653-1.614-1.344-2.044-.56-.429-1.2226-.644-1.988-.644-.7466 0-1.4093.215-1.988.644-.56.43-1.008 1.111-1.344 2.044-.3173.934-.476 2.138-.476 3.612 0 1.475.1587 2.679.476 3.612.336.934.784 1.615 1.344 2.044.5787.43 1.2414.644 1.988.644zm12.8245 3.724c-.7467 0-1.3907-.252-1.932-.756-.5227-.522-.784-1.185-.784-1.988 0-.802.2613-1.446.784-1.932.5413-.504 1.1853-.756 1.932-.756.7653 0 1.4093.252 1.932.756.5226.486.784 1.13.784 1.932 0 .803-.2614 1.466-.784 1.988-.5227.504-1.1667.756-1.932.756zm4.8575-.224v-2.94l7.56-7.14c.5974-.541 1.036-1.026 1.316-1.456.28-.429.4667-.821.56-1.176.112-.354.168-.681.168-.98 0-.784-.2706-1.381-.812-1.792-.5226-.429-1.2973-.644-2.324-.644-.8213 0-1.5866.159-2.296.476-.6906.318-1.2786.812-1.764 1.484l-3.304-2.128c.7467-1.12 1.792-2.006 3.136-2.66 1.344-.653 2.8934-.98 4.648-.98 1.456 0 2.7254.243 3.808.728 1.1014.467 1.9507 1.13 2.548 1.988.616.859.924 1.886.924 3.08 0 .635-.084 1.27-.252 1.904-.1493.616-.4666 1.27-.952 1.96-.4666.691-1.1573 1.466-2.072 2.324l-6.272 5.908-.868-1.652h11.06v3.696zm23.3476.336c-1.3626 0-2.716-.177-4.06-.532-1.3253-.373-2.464-.896-3.416-1.568l1.792-3.472c.7467.542 1.6054.971 2.576 1.288.9894.318 1.988.476 2.996.476 1.1387 0 2.0347-.224 2.688-.672.6534-.448.98-1.073.98-1.876 0-.504-.1306-.952-.392-1.344-.2613-.392-.728-.69-1.4-.896-.6533-.205-1.5773-.308-2.772-.308h-5.012l1.008-11.032h11.956v3.64h-10.332l2.352-2.072-.7 7.868-2.352-2.072h4.144c1.9414 0 3.5.271 4.676.812 1.1947.523 2.0627 1.242 2.604 2.156.5414.915.812 1.951.812 3.108 0 1.158-.2893 2.231-.868 3.22-.5786.971-1.4746 1.764-2.688 2.38-1.1946.598-2.7253.896-4.592.896z"/><path d="m112.672 503.918v-17.92l1.96 1.96h-5.88v-3.64h8.456v19.6zm10.517.224c-.746 0-1.39-.252-1.932-.756-.522-.523-.784-1.185-.784-1.988s.262-1.447.784-1.932c.542-.504 1.186-.756 1.932-.756.766 0 1.41.252 1.932.756.523.485.784 1.129.784 1.932s-.261 1.465-.784 1.988c-.522.504-1.166.756-1.932.756zm11.416.112c-1.362 0-2.716-.177-4.06-.532-1.325-.373-2.464-.896-3.416-1.568l1.792-3.472c.747.541 1.606.971 2.576 1.288.99.317 1.988.476 2.996.476 1.139 0 2.035-.224 2.688-.672.654-.448.98-1.073.98-1.876 0-.504-.13-.952-.392-1.344-.261-.392-.728-.691-1.4-.896-.653-.205-1.577-.308-2.772-.308h-5.012l1.008-11.032h11.956v3.64h-10.332l2.352-2.072-.7 7.868-2.352-2.072h4.144c1.942 0 3.5.271 4.676.812 1.195.523 2.063 1.241 2.604 2.156.542.915.812 1.951.812 3.108s-.289 2.231-.868 3.22c-.578.971-1.474 1.764-2.688 2.38-1.194.597-2.725.896-4.592.896z"/><path d="m174.837 503.31v-2.94l7.56-7.14c.598-.542 1.036-1.027 1.316-1.456.28-.43.467-.822.56-1.176.112-.355.168-.682.168-.98 0-.784-.27-1.382-.812-1.792-.522-.43-1.297-.644-2.324-.644-.821 0-1.586.158-2.296.476-.69.317-1.278.812-1.764 1.484l-3.304-2.128c.747-1.12 1.792-2.007 3.136-2.66 1.344-.654 2.894-.98 4.648-.98 1.456 0 2.726.242 3.808.728 1.102.466 1.951 1.129 2.548 1.988.616.858.924 1.885.924 3.08 0 .634-.084 1.269-.252 1.904-.149.616-.466 1.269-.952 1.96-.466.69-1.157 1.465-2.072 2.324l-6.272 5.908-.868-1.652h11.06v3.696zm19.534.224c-.747 0-1.391-.252-1.932-.756-.523-.523-.784-1.186-.784-1.988 0-.803.261-1.447.784-1.932.541-.504 1.185-.756 1.932-.756.765 0 1.409.252 1.932.756.522.485.784 1.129.784 1.932 0 .802-.262 1.465-.784 1.988-.523.504-1.167.756-1.932.756zm13.16.112c-1.792 0-3.35-.374-4.676-1.12-1.306-.747-2.314-1.839-3.024-3.276-.709-1.438-1.064-3.211-1.064-5.32 0-2.259.42-4.172 1.26-5.74.859-1.568 2.035-2.763 3.528-3.584 1.512-.822 3.248-1.232 5.208-1.232 1.046 0 2.044.112 2.996.336s1.774.56 2.464 1.008l-1.68 3.332c-.541-.374-1.12-.626-1.736-.756-.616-.15-1.26-.224-1.932-.224-1.698 0-3.042.513-4.032 1.54-.989 1.026-1.484 2.548-1.484 4.564v1.12c.019.41.075.821.168 1.232l-1.26-1.176c.355-.728.812-1.335 1.372-1.82.56-.504 1.223-.878 1.988-1.12.784-.262 1.643-.392 2.576-.392 1.27 0 2.408.252 3.416.756s1.811 1.213 2.408 2.128c.616.914.924 1.988.924 3.22 0 1.325-.336 2.482-1.008 3.472-.653.97-1.54 1.726-2.66 2.268-1.101.522-2.352.784-3.752.784zm-.252-3.388c.635 0 1.195-.112 1.68-.336.504-.243.896-.588 1.176-1.036s.42-.962.42-1.54c0-.896-.308-1.606-.924-2.128-.597-.542-1.4-.812-2.408-.812-.672 0-1.26.13-1.764.392-.504.242-.905.588-1.204 1.036-.28.429-.42.933-.42 1.512 0 .56.14 1.064.42 1.512.28.429.672.774 1.176 1.036.504.242 1.12.364 1.848.364z"/><path d="m269.94 498.655v-17.92l1.96 1.96h-5.88v-3.64h8.456v19.6zm10.965 0v-17.92l1.96 1.96h-5.88v-3.64h8.456v19.6z"/><path d="m348.12 495.33v-17.92l1.96 1.96h-5.88v-3.64h8.456v19.6zm11.077 0 7.896-17.864 1.176 1.96h-10.556l2.016-2.128v5.32h-4.032v-6.888h15.708v2.94l-7.28 16.66z"/><path d="m421.491 476.252v-3.052l9.24-12.432h4.76l-9.044 12.432-2.212-.644h15.428v3.696zm10.556 4.116v-4.116l.14-3.696v-3.668h4.284v11.48zm8.749-4.116v-3.052l9.24-12.432h4.76l-9.044 12.432-2.212-.644h15.428v3.696zm10.556 4.116v-4.116l.14-3.696v-3.668h4.284v11.48z"/><path d="m500.298 444.904v-17.92l1.96 1.96h-5.88v-3.64h8.456v19.6zm16.341.336c-1.606 0-3.043-.392-4.312-1.176-1.27-.802-2.268-1.96-2.996-3.472s-1.092-3.341-1.092-5.488c0-2.146.364-3.976 1.092-5.488s1.726-2.66 2.996-3.444c1.269-.802 2.706-1.204 4.312-1.204 1.624 0 3.061.402 4.312 1.204 1.269.784 2.268 1.932 2.996 3.444s1.092 3.342 1.092 5.488c0 2.147-.364 3.976-1.092 5.488s-1.727 2.67-2.996 3.472c-1.251.784-2.688 1.176-4.312 1.176zm0-3.836c.765 0 1.428-.214 1.988-.644.578-.429 1.026-1.11 1.344-2.044.336-.933.504-2.137.504-3.612 0-1.474-.168-2.678-.504-3.612-.318-.933-.766-1.614-1.344-2.044-.56-.429-1.223-.644-1.988-.644-.747 0-1.41.215-1.988.644-.56.43-1.008 1.111-1.344 2.044-.318.934-.476 2.138-.476 3.612 0 1.475.158 2.679.476 3.612.336.934.784 1.615 1.344 2.044.578.43 1.241.644 1.988.644zm18.724 3.836c-1.643 0-3.081-.242-4.313-.728-1.232-.504-2.193-1.204-2.884-2.1-.69-.914-1.036-1.978-1.036-3.192 0-1.213.336-2.24 1.008-3.08.691-.858 1.652-1.502 2.884-1.932 1.232-.448 2.679-.672 4.341-.672 1.68 0 3.136.224 4.367.672 1.251.43 2.213 1.074 2.884 1.932.691.84 1.036 1.867 1.036 3.08 0 1.214-.345 2.278-1.036 3.192-.69.896-1.661 1.596-2.911 2.1-1.233.486-2.679.728-4.34.728zm0-3.332c1.138 0 2.034-.252 2.687-.756.672-.504 1.009-1.194 1.009-2.072 0-.877-.337-1.558-1.009-2.044-.653-.504-1.549-.756-2.687-.756-1.12 0-2.007.252-2.661.756-.653.486-.98 1.167-.98 2.044 0 .878.327 1.568.98 2.072.654.504 1.541.756 2.661.756zm0-6.076c-1.513 0-2.838-.205-3.977-.616-1.12-.41-1.997-1.008-2.632-1.792-.616-.802-.924-1.754-.924-2.856 0-1.157.318-2.146.952-2.968.635-.84 1.522-1.484 2.66-1.932 1.139-.466 2.446-.7 3.921-.7 1.512 0 2.828.234 3.948.7 1.138.448 2.025 1.092 2.659 1.932.654.822.981 1.811.981 2.968 0 1.102-.318 2.054-.952 2.856-.616.784-1.494 1.382-2.632 1.792-1.139.411-2.474.616-4.004.616zm0-2.66c.952 0 1.698-.214 2.239-.644.56-.429.84-1.017.84-1.764 0-.784-.289-1.39-.868-1.82-.56-.429-1.297-.644-2.211-.644-.897 0-1.625.215-2.185.644-.56.43-.84 1.036-.84 1.82 0 .747.271 1.335.812 1.764.542.43 1.279.644 2.213.644z"/><path d="m580.583 385.612v-2.94l7.56-7.14c.597-.541 1.036-1.026 1.316-1.456.28-.429.467-.821.56-1.176.112-.354.168-.681.168-.98 0-.784-.271-1.381-.812-1.792-.523-.429-1.297-.644-2.324-.644-.821 0-1.587.159-2.296.476-.691.318-1.279.812-1.764 1.484l-3.304-2.128c.747-1.12 1.792-2.006 3.136-2.66 1.344-.653 2.893-.98 4.648-.98 1.456 0 2.725.243 3.808.728 1.101.467 1.951 1.13 2.548 1.988.616.859.924 1.886.924 3.08 0 .635-.084 1.27-.252 1.904-.149.616-.467 1.27-.952 1.96-.467.691-1.157 1.466-2.072 2.324l-6.272 5.908-.868-1.652h11.06v3.696zm19.708 0v-17.92l1.96 1.96h-5.88v-3.64h8.456v19.6zm14.604.336c-1.362 0-2.716-.177-4.06-.532-1.325-.373-2.464-.896-3.416-1.568l1.792-3.472c.747.542 1.606.971 2.576 1.288.99.318 1.988.476 2.996.476 1.139 0 2.035-.224 2.688-.672.654-.448.98-1.073.98-1.876 0-.504-.13-.952-.392-1.344-.261-.392-.728-.69-1.4-.896-.653-.205-1.577-.308-2.772-.308h-5.012l1.008-11.032h11.956v3.64h-10.332l2.352-2.072-.7 7.868-2.352-2.072h4.144c1.942 0 3.5.271 4.676.812 1.195.523 2.063 1.242 2.604 2.156.542.915.812 1.951.812 3.108 0 1.158-.289 2.231-.868 3.22-.578.971-1.474 1.764-2.688 2.38-1.194.598-2.725.896-4.592.896z"/><path d="m668.437 331.643c-1.363 0-2.716-.178-4.06-.532-1.344-.374-2.483-.896-3.416-1.568l1.764-3.472c.746.541 1.614.97 2.604 1.288.989.317 1.988.476 2.996.476 1.138 0 2.034-.224 2.688-.672.653-.448.98-1.064.98-1.848 0-.747-.29-1.335-.868-1.764-.579-.43-1.512-.644-2.8-.644h-2.072v-2.996l5.46-6.188.504 1.624h-10.276v-3.64h13.72v2.94l-5.432 6.188-2.296-1.316h1.316c2.408 0 4.228.541 5.46 1.624 1.232 1.082 1.848 2.473 1.848 4.172 0 1.101-.29 2.137-.868 3.108-.579.952-1.466 1.726-2.66 2.324-1.195.597-2.726.896-4.592.896zm13.238-.336v-17.92l1.96 1.96h-5.88v-3.64h8.456v19.6zm14.297.336c-1.363 0-2.716-.178-4.06-.532-1.344-.374-2.483-.896-3.416-1.568l1.764-3.472c.746.541 1.614.97 2.604 1.288.989.317 1.988.476 2.996.476 1.138 0 2.034-.224 2.688-.672.653-.448.98-1.064.98-1.848 0-.747-.29-1.335-.868-1.764-.579-.43-1.512-.644-2.8-.644h-2.072v-2.996l5.46-6.188.504 1.624h-10.276v-3.64h13.72v2.94l-5.432 6.188-2.296-1.316h1.316c2.408 0 4.228.541 5.46 1.624 1.232 1.082 1.848 2.473 1.848 4.172 0 1.101-.29 2.137-.868 3.108-.579.952-1.466 1.726-2.66 2.324-1.195.597-2.726.896-4.592.896z"/><path d="m734.802 307.815c-1.362 0-2.716-.177-4.06-.532-1.344-.373-2.482-.896-3.416-1.568l1.764-3.472c.747.542 1.615.971 2.604 1.288.99.318 1.988.476 2.996.476 1.139 0 2.035-.224 2.688-.672.654-.448.98-1.064.98-1.848 0-.746-.289-1.334-.868-1.764-.578-.429-1.512-.644-2.8-.644h-2.072v-2.996l5.46-6.188.504 1.624h-10.276v-3.64h13.72v2.94l-5.432 6.188-2.296-1.316h1.316c2.408 0 4.228.542 5.46 1.624 1.232 1.083 1.848 2.474 1.848 4.172 0 1.102-.289 2.138-.868 3.108-.578.952-1.465 1.727-2.66 2.324-1.194.598-2.725.896-4.592.896zm16.605 0c-1.362 0-2.716-.177-4.06-.532-1.325-.373-2.464-.896-3.416-1.568l1.792-3.472c.747.542 1.606.971 2.576 1.288.99.318 1.988.476 2.996.476 1.139 0 2.035-.224 2.688-.672.654-.448.98-1.073.98-1.876 0-.504-.13-.952-.392-1.344-.261-.392-.728-.69-1.4-.896-.653-.205-1.577-.308-2.772-.308h-5.012l1.008-11.032h11.956v3.64h-10.332l2.352-2.072-.7 7.868-2.352-2.072h4.144c1.942 0 3.5.271 4.676.812 1.195.523 2.063 1.242 2.604 2.156.542.915.812 1.951.812 3.108 0 1.158-.289 2.231-.868 3.22-.578.971-1.474 1.764-2.688 2.38-1.194.598-2.725.896-4.592.896zm18.753 0c-1.792 0-3.351-.373-4.676-1.12-1.307-.746-2.315-1.838-3.024-3.276-.71-1.437-1.064-3.21-1.064-5.32 0-2.258.42-4.172 1.26-5.74.858-1.568 2.034-2.762 3.528-3.584 1.512-.821 3.248-1.232 5.208-1.232 1.045 0 2.044.112 2.996.336s1.773.56 2.464 1.008l-1.68 3.332c-.542-.373-1.12-.625-1.736-.756-.616-.149-1.26-.224-1.932-.224-1.699 0-3.043.514-4.032 1.54-.99 1.027-1.484 2.548-1.484 4.564v1.12c.018.411.074.822.168 1.232l-1.26-1.176c.354-.728.812-1.334 1.372-1.82.56-.504 1.222-.877 1.988-1.12.784-.261 1.642-.392 2.576-.392 1.269 0 2.408.252 3.416.756s1.81 1.214 2.408 2.128c.616.915.924 1.988.924 3.22 0 1.326-.336 2.483-1.008 3.472-.654.971-1.54 1.727-2.66 2.268-1.102.523-2.352.784-3.752.784zm-.252-3.388c.634 0 1.194-.112 1.68-.336.504-.242.896-.588 1.176-1.036s.42-.961.42-1.54c0-.896-.308-1.605-.924-2.128-.598-.541-1.4-.812-2.408-.812-.672 0-1.26.131-1.764.392-.504.243-.906.588-1.204 1.036-.28.43-.42.934-.42 1.512 0 .56.14 1.064.42 1.512.28.43.672.775 1.176 1.036.504.243 1.12.364 1.848.364z"/><path d="m795.045 202.888c-1.363 0-2.716-.178-4.06-.532-1.326-.374-2.464-.896-3.416-1.568l1.792-3.472c.746.541 1.605.97 2.576 1.288.989.317 1.988.476 2.996.476 1.138 0 2.034-.224 2.688-.672.653-.448.98-1.074.98-1.876 0-.504-.131-.952-.392-1.344-.262-.392-.728-.691-1.4-.896-.654-.206-1.578-.308-2.772-.308h-5.012l1.008-11.032h11.956v3.64h-10.332l2.352-2.072-.7 7.868-2.352-2.072h4.144c1.941 0 3.5.27 4.676.812 1.194.522 2.062 1.241 2.604 2.156.541.914.812 1.95.812 3.108 0 1.157-.29 2.23-.868 3.22-.579.97-1.475 1.764-2.688 2.38-1.195.597-2.726.896-4.592.896zm9.764-4.452v-3.052l9.24-12.432h4.76l-9.044 12.432-2.212-.644h15.428v3.696zm10.556 4.116v-4.116l.14-3.696v-3.668h4.284v11.48zm8.749-4.116v-3.052l9.24-12.432h4.76l-9.044 12.432-2.212-.644h15.428v3.696zm10.556 4.116v-4.116l.14-3.696v-3.668h4.284v11.48z"/></g><path d="m847.066 18.4v33.6h-7.776v-27.36h-6.72v-6.24zm20.237 34.176c-2.784 0-5.264-.688-7.44-2.064s-3.888-3.36-5.136-5.952c-1.216-2.624-1.824-5.744-1.824-9.36s.608-6.72 1.824-9.312c1.248-2.624 2.96-4.624 5.136-6s4.656-2.064 7.44-2.064 5.264.688 7.44 2.064 3.872 3.376 5.088 6c1.248 2.592 1.872 5.696 1.872 9.312s-.624 6.736-1.872 9.36c-1.216 2.592-2.912 4.576-5.088 5.952s-4.656 2.064-7.44 2.064zm0-6.576c2.048 0 3.648-.88 4.8-2.64 1.184-1.76 1.776-4.48 1.776-8.16s-.592-6.4-1.776-8.16c-1.152-1.76-2.752-2.64-4.8-2.64-2.016 0-3.616.88-4.8 2.64-1.152 1.76-1.728 4.48-1.728 8.16s.576 6.4 1.728 8.16c1.184 1.76 2.784 2.64 4.8 2.64zm32.578 6.576c-2.784 0-5.264-.688-7.44-2.064s-3.888-3.36-5.136-5.952c-1.216-2.624-1.824-5.744-1.824-9.36s.608-6.72 1.824-9.312c1.248-2.624 2.96-4.624 5.136-6s4.656-2.064 7.44-2.064 5.264.688 7.44 2.064 3.872 3.376 5.088 6c1.248 2.592 1.872 5.696 1.872 9.312s-.624 6.736-1.872 9.36c-1.216 2.592-2.912 4.576-5.088 5.952s-4.656 2.064-7.44 2.064zm0-6.576c2.048 0 3.648-.88 4.8-2.64 1.184-1.76 1.776-4.48 1.776-8.16s-.592-6.4-1.776-8.16c-1.152-1.76-2.752-2.64-4.8-2.64-2.016 0-3.616.88-4.8 2.64-1.152 1.76-1.728 4.48-1.728 8.16s.576 6.4 1.728 8.16c1.184 1.76 2.784 2.64 4.8 2.64zm32.579 6.576c-2.784 0-5.264-.688-7.44-2.064s-3.888-3.36-5.136-5.952c-1.216-2.624-1.824-5.744-1.824-9.36s.608-6.72 1.824-9.312c1.248-2.624 2.96-4.624 5.136-6s4.656-2.064 7.44-2.064 5.264.688 7.44 2.064 3.872 3.376 5.088 6c1.248 2.592 1.872 5.696 1.872 9.312s-.624 6.736-1.872 9.36c-1.216 2.592-2.912 4.576-5.088 5.952s-4.656 2.064-7.44 2.064zm0-6.576c2.048 0 3.648-.88 4.8-2.64 1.184-1.76 1.776-4.48 1.776-8.16s-.592-6.4-1.776-8.16c-1.152-1.76-2.752-2.64-4.8-2.64-2.016 0-3.616.88-4.8 2.64-1.152 1.76-1.728 4.48-1.728 8.16s.576 6.4 1.728 8.16c1.184 1.76 2.784 2.64 4.8 2.64z" fill="#ffc700"/><path d="m27.044 22.658c-.176-.2053-.4107-.4033-.704-.594s-.6233-.3593-.99-.506c-.3667-.1613-.77-.286-1.21-.374-.4253-.1027-.8727-.154-1.342-.154-1.2173 0-2.112.2273-2.684.682-.5573.4547-.836 1.078-.836 1.87 0 .4253.0807.7773.242 1.056s.4107.5207.748.726c.352.1907.7847.3593 1.298.506s1.122.3007 1.826.462c.8067.176 1.5327.3813 2.178.616.66.22 1.2173.4987 1.672.836.4693.3373.8213.748 1.056 1.232.2493.484.374 1.078.374 1.782 0 .748-.1467 1.4007-.44 1.958-.2933.5427-.6967.9973-1.21 1.364-.4987.352-1.0927.616-1.782.792-.6893.1613-1.4373.242-2.244.242-1.2027 0-2.3467-.1833-3.432-.55-1.0707-.3813-2.046-.9313-2.926-1.65l.946-1.672c.2347.2493.5353.4987.902.748.3813.2493.8067.4767 1.276.682.484.1907.9973.352 1.54.484.5573.1173 1.1367.176 1.738.176 1.1147 0 1.98-.198 2.596-.594s.924-.99.924-1.782c0-.44-.1027-.8067-.308-1.1-.1907-.308-.4767-.572-.858-.792s-.858-.4107-1.43-.572c-.5573-.176-1.1953-.352-1.914-.528-.792-.1907-1.4887-.396-2.09-.616s-1.1073-.484-1.518-.792c-.396-.308-.6967-.682-.902-1.122s-.308-.968-.308-1.584c0-.748.1393-1.408.418-1.98s.6673-1.056 1.166-1.452 1.0927-.6893 1.782-.88c.6893-.2053 1.4373-.308 2.244-.308 1.056 0 2.0093.1613 2.86.484s1.606.7553 2.266 1.298zm6.6395-3.278 4.73 8.14 4.774-8.14h2.156l-5.94 9.922v5.698h-1.98v-5.742l-5.918-9.878zm24.5945 3.278c-.176-.2053-.4107-.4033-.704-.594s-.6233-.3593-.99-.506c-.3667-.1613-.77-.286-1.21-.374-.4253-.1027-.8727-.154-1.342-.154-1.2173 0-2.112.2273-2.684.682-.5573.4547-.836 1.078-.836 1.87 0 .4253.0807.7773.242 1.056s.4107.5207.748.726c.352.1907.7847.3593 1.298.506s1.122.3007 1.826.462c.8067.176 1.5327.3813 2.178.616.66.22 1.2173.4987 1.672.836.4693.3373.8213.748 1.056 1.232.2493.484.374 1.078.374 1.782 0 .748-.1467 1.4007-.44 1.958-.2933.5427-.6967.9973-1.21 1.364-.4987.352-1.0927.616-1.782.792-.6893.1613-1.4373.242-2.244.242-1.2027 0-2.3467-.1833-3.432-.55-1.0707-.3813-2.046-.9313-2.926-1.65l.946-1.672c.2347.2493.5353.4987.902.748.3813.2493.8067.4767 1.276.682.484.1907.9973.352 1.54.484.5573.1173 1.1367.176 1.738.176 1.1147 0 1.98-.198 2.596-.594s.924-.99.924-1.782c0-.44-.1027-.8067-.308-1.1-.1907-.308-.4767-.572-.858-.792s-.858-.4107-1.43-.572c-.5573-.176-1.1953-.352-1.914-.528-.792-.1907-1.4887-.396-2.09-.616s-1.1073-.484-1.518-.792c-.396-.308-.6967-.682-.902-1.122s-.308-.968-.308-1.584c0-.748.1393-1.408.418-1.98s.6673-1.056 1.166-1.452 1.0927-.6893 1.782-.88c.6893-.2053 1.4373-.308 2.244-.308 1.056 0 2.0093.1613 2.86.484s1.606.7553 2.266 1.298zm17.6962-1.518h-5.39v13.86h-1.98v-13.86h-5.39v-1.76h12.76zm15.0537 12.1v1.76h-10.604v-15.62h10.406v1.76h-8.426v5.06h7.326v1.65h-7.326v5.39zm18.4241 1.76v-12.078l-5.192 9.262h-1.122l-5.2138-9.262v12.078h-1.98v-15.62h2.09l5.6538 10.142 5.676-10.142h2.068v15.62zm24.859-12.342c-.176-.2053-.41-.4033-.704-.594-.293-.1907-.623-.3593-.99-.506-.366-.1613-.77-.286-1.21-.374-.425-.1027-.872-.154-1.342-.154-1.217 0-2.112.2273-2.684.682-.557.4547-.836 1.078-.836 1.87 0 .4253.081.7773.242 1.056.162.2787.411.5207.748.726.352.1907.785.3593 1.298.506.514.1467 1.122.3007 1.826.462.807.176 1.533.3813 2.178.616.66.22 1.218.4987 1.672.836.47.3373.822.748 1.056 1.232.25.484.374 1.078.374 1.782 0 .748-.146 1.4007-.44 1.958-.293.5427-.696.9973-1.21 1.364-.498.352-1.092.616-1.782.792-.689.1613-1.437.242-2.244.242-1.202 0-2.346-.1833-3.432-.55-1.07-.3813-2.046-.9313-2.926-1.65l.946-1.672c.235.2493.536.4987.902.748.382.2493.807.4767 1.276.682.484.1907.998.352 1.54.484.558.1173 1.137.176 1.738.176 1.115 0 1.98-.198 2.596-.594s.924-.99.924-1.782c0-.44-.102-.8067-.308-1.1-.19-.308-.476-.572-.858-.792-.381-.22-.858-.4107-1.43-.572-.557-.176-1.195-.352-1.914-.528-.792-.1907-1.488-.396-2.09-.616-.601-.22-1.107-.484-1.518-.792-.396-.308-.696-.682-.902-1.122-.205-.44-.308-.968-.308-1.584 0-.748.14-1.408.418-1.98.279-.572.668-1.056 1.166-1.452.499-.396 1.093-.6893 1.782-.88.69-.2053 1.438-.308 2.244-.308 1.056 0 2.01.1613 2.86.484.851.3227 1.606.7553 2.266 1.298zm10.884-3.278h1.672l6.38 15.62h-2.112l-1.848-4.576h-6.556l-1.826 4.576h-2.112zm3.652 9.504-2.816-7.216-2.904 7.216zm8.684 6.116v-15.62h1.98v13.86h8.712v1.76zm25.652-1.76v1.76h-10.604v-15.62h10.406v1.76h-8.426v5.06h7.326v1.65h-7.326v5.39zm14.09-10.582c-.176-.2053-.41-.4033-.704-.594-.293-.1907-.623-.3593-.99-.506-.366-.1613-.77-.286-1.21-.374-.425-.1027-.872-.154-1.342-.154-1.217 0-2.112.2273-2.684.682-.557.4547-.836 1.078-.836 1.87 0 .4253.081.7773.242 1.056.162.2787.411.5207.748.726.352.1907.785.3593 1.298.506.514.1467 1.122.3007 1.826.462.807.176 1.533.3813 2.178.616.66.22 1.218.4987 1.672.836.47.3373.822.748 1.056 1.232.25.484.374 1.078.374 1.782 0 .748-.146 1.4007-.44 1.958-.293.5427-.696.9973-1.21 1.364-.498.352-1.092.616-1.782.792-.689.1613-1.437.242-2.244.242-1.202 0-2.346-.1833-3.432-.55-1.07-.3813-2.046-.9313-2.926-1.65l.946-1.672c.235.2493.536.4987.902.748.382.2493.807.4767 1.276.682.484.1907.998.352 1.54.484.558.1173 1.137.176 1.738.176 1.115 0 1.98-.198 2.596-.594s.924-.99.924-1.782c0-.44-.102-.8067-.308-1.1-.19-.308-.476-.572-.858-.792-.381-.22-.858-.4107-1.43-.572-.557-.176-1.195-.352-1.914-.528-.792-.1907-1.488-.396-2.09-.616-.601-.22-1.107-.484-1.518-.792-.396-.308-.696-.682-.902-1.122-.205-.44-.308-.968-.308-1.584 0-.748.14-1.408.418-1.98.279-.572.668-1.056 1.166-1.452.499-.396 1.093-.6893 1.782-.88.69-.2053 1.438-.308 2.244-.308 1.056 0 2.01.1613 2.86.484.851.3227 1.606.7553 2.266 1.298zm6.191 14.124.44-1.958h-.66v-2.288h1.826v2.288l-.66 1.958zm28.355-1.782v-12.078l-5.192 9.262h-1.122l-5.214-9.262v12.078h-1.98v-15.62h2.09l5.654 10.142 5.676-10.142h2.068v15.62zm7.92 0v-15.62h1.98v13.86h8.712v1.76zm17.028-11.924v11.924h-1.98v-15.62h1.54l9.68 12.166v-12.144h1.98v15.598h-1.672zm-232.473 36.252c.9093 0 1.6647-.176 2.266-.528s1.078-.8067 1.43-1.364c.3667-.572.6233-1.2173.77-1.936.1467-.7333.22-1.474.22-2.222v-7.898h1.98v7.898c0 1.056-.1247 2.0607-.374 3.014-.2347.9387-.616 1.7673-1.144 2.486s-1.2173 1.2907-2.068 1.716c-.836.4107-1.8553.616-3.058.616-1.2467 0-2.2953-.22-3.146-.66s-1.54-1.0193-2.068-1.738c-.5133-.7333-.8873-1.5693-1.122-2.508-.22-.9533-.33-1.9287-.33-2.926v-7.898h1.98v7.898c0 .7773.0733 1.5327.22 2.266.1613.7187.418 1.3567.77 1.914.3667.5573.8433 1.012 1.43 1.364.6013.3373 1.3493.506 2.244.506zm21.5574-10.67c-.176-.2053-.4106-.4033-.704-.594-.2933-.1907-.6233-.3593-.99-.506-.3666-.1613-.77-.286-1.21-.374-.4253-.1027-.8726-.154-1.342-.154-1.2173 0-2.112.2273-2.684.682-.5573.4547-.836 1.078-.836 1.87 0 .4253.0807.7773.242 1.056.1614.2787.4107.5207.748.726.352.1907.7847.3593 1.298.506.5134.1467 1.122.3007 1.826.462.8067.176 1.5327.3813 2.178.616.66.22 1.2174.4987 1.672.836.4694.3373.8214.748 1.056 1.232.2494.484.374 1.078.374 1.782 0 .748-.1466 1.4007-.44 1.958-.2933.5427-.6966.9973-1.21 1.364-.4986.352-1.0926.616-1.782.792-.6893.1613-1.4373.242-2.244.242-1.2026 0-2.3466-.1833-3.432-.55-1.0706-.3813-2.046-.9313-2.926-1.65l.946-1.672c.2347.2493.5354.4987.902.748.3814.2493.8067.4767 1.276.682.484.1907.9974.352 1.54.484.5574.1173 1.1367.176 1.738.176 1.1147 0 1.98-.198 2.596-.594s.924-.99.924-1.782c0-.44-.1026-.8067-.308-1.1-.1906-.308-.4766-.572-.858-.792-.3813-.22-.858-.4107-1.43-.572-.5573-.176-1.1953-.352-1.914-.528-.792-.1907-1.4886-.396-2.09-.616-.6013-.22-1.1073-.484-1.518-.792-.396-.308-.6966-.682-.902-1.122-.2053-.44-.308-.968-.308-1.584 0-.748.1394-1.408.418-1.98.2787-.572.6674-1.056 1.166-1.452.4987-.396 1.0927-.6893 1.782-.88.6894-.2053 1.4374-.308 2.244-.308 1.056 0 2.0094.1613 2.86.484.8507.3227 1.606.7553 2.266 1.298zm6.4323 12.342v-15.62h5.412c1.2466 0 2.3393.2053 3.278.616.9533.4107 1.7453.968 2.376 1.672.6306.704 1.1 1.5327 1.408 2.486.3226.9387.484 1.9433.484 3.014 0 1.188-.176 2.266-.528 3.234-.352.9533-.858 1.7747-1.518 2.464-.66.6747-1.4594 1.2027-2.398 1.584-.924.3667-1.958.55-3.102.55zm10.956-7.832c0-.88-.1247-1.6867-.374-2.42-.2347-.748-.594-1.386-1.078-1.914-.4694-.528-1.0487-.9387-1.738-1.232-.6894-.308-1.474-.462-2.354-.462h-3.432v12.1h3.432c.8946 0 1.6866-.154 2.376-.462.704-.308 1.2833-.7333 1.738-1.276.4693-.5427.8213-1.1807 1.056-1.914.2493-.748.374-1.5547.374-2.42z" fill="#000"/><path d="m447.87 35v-15.62h6.512c.689 0 1.32.1467 1.892.44.587.2787 1.085.66 1.496 1.144.425.4693.755 1.0047.99 1.606.235.5867.352 1.188.352 1.804 0 .6453-.11 1.2687-.33 1.87s-.535 1.1367-.946 1.606c-.396.4693-.88.8433-1.452 1.122-.557.2787-1.181.418-1.87.418h-4.664v5.61zm1.98-7.37h4.554c.411 0 .777-.0807 1.1-.242.337-.176.623-.4107.858-.704.235-.308.418-.66.55-1.056s.198-.814.198-1.254c0-.4547-.081-.88-.242-1.276-.147-.396-.352-.7407-.616-1.034-.249-.2933-.55-.5207-.902-.682-.337-.1613-.697-.242-1.078-.242h-4.422zm13.927 7.37v-15.62h6.688c.689 0 1.32.1467 1.892.44.587.2787 1.085.66 1.496 1.144.425.4693.755 1.0047.99 1.606.235.5867.352 1.188.352 1.804 0 .5427-.081 1.0707-.242 1.584-.147.4987-.367.9533-.66 1.364-.279.4107-.623.7627-1.034 1.056-.396.2933-.843.506-1.342.638l3.784 5.984h-2.244l-3.564-5.61h-4.136v5.61zm1.98-7.37h4.73c.411 0 .777-.088 1.1-.264.337-.176.623-.4107.858-.704.235-.308.418-.66.55-1.056s.198-.8067.198-1.232c0-.44-.081-.8507-.242-1.232-.147-.396-.352-.7407-.616-1.034-.249-.308-.55-.5427-.902-.704-.337-.176-.697-.264-1.078-.264h-4.598zm21.015 7.48c-1.1 0-2.105-.22-3.014-.66-.895-.4547-1.665-1.0487-2.31-1.782-.645-.748-1.144-1.5987-1.496-2.552s-.528-1.9287-.528-2.926c0-1.0413.183-2.0387.55-2.992.381-.9533.902-1.7967 1.562-2.53s1.437-1.3127 2.332-1.738c.909-.44 1.892-.66 2.948-.66 1.1 0 2.097.2347 2.992.704.895.4547 1.665 1.056 2.31 1.804s1.144 1.5987 1.496 2.552c.352.9387.528 1.8993.528 2.882 0 1.0413-.191 2.0387-.572 2.992-.367.9533-.88 1.7967-1.54 2.53-.645.7187-1.423 1.298-2.332 1.738-.895.4253-1.87.638-2.926.638zm-5.346-7.92c0 .792.125 1.562.374 2.31.264.7333.631 1.386 1.1 1.958s1.034 1.0267 1.694 1.364 1.393.506 2.2.506c.836 0 1.584-.176 2.244-.528.66-.3667 1.217-.836 1.672-1.408.469-.5867.821-1.2467 1.056-1.98.249-.7333.374-1.474.374-2.222 0-.792-.132-1.5547-.396-2.288-.249-.748-.616-1.4007-1.1-1.958-.469-.572-1.034-1.0267-1.694-1.364-.645-.3373-1.364-.506-2.156-.506-.836 0-1.584.176-2.244.528s-1.225.814-1.694 1.386c-.455.572-.807 1.2247-1.056 1.958s-.374 1.4813-.374 2.244zm16.051 5.478c.294.2053.69.3887 1.188.55.499.1613 1.064.242 1.694.242.748 0 1.342-.132 1.782-.396s.77-.6527.99-1.166c.235-.528.389-1.1733.462-1.936.074-.7627.11-1.6427.11-2.64v-7.942h1.98v7.942c0 1.188-.058 2.2733-.176 3.256-.102.968-.344 1.7967-.726 2.486-.366.6893-.902 1.2247-1.606 1.606-.689.3813-1.628.572-2.816.572-1.32 0-2.449-.3227-3.388-.968zm24.582.572v1.76h-10.604v-15.62h10.406v1.76h-8.426v5.06h7.326v1.65h-7.326v5.39zm3.604-6.16c0-.9387.161-1.87.484-2.794.337-.9387.821-1.7747 1.452-2.508.645-.748 1.43-1.3493 2.354-1.804s1.972-.682 3.146-.682c1.393 0 2.588.3153 3.586.946.997.6307 1.738 1.452 2.222 2.464l-1.562 1.012c-.235-.4987-.521-.9167-.858-1.254-.323-.3373-.682-.6087-1.078-.814-.382-.2053-.778-.352-1.188-.44-.411-.088-.814-.132-1.21-.132-.866 0-1.636.1833-2.31.55-.66.352-1.218.8213-1.672 1.408-.455.572-.8 1.2247-1.034 1.958-.22.7187-.33 1.4447-.33 2.178 0 .8213.132 1.606.396 2.354.278.7333.66 1.386 1.144 1.958s1.056 1.0267 1.716 1.364 1.378.506 2.156.506c.41 0 .828-.0513 1.254-.154.44-.1027.858-.264 1.254-.484.396-.2347.762-.5207 1.1-.858.352-.352.638-.77.858-1.254l1.65.902c-.25.5867-.602 1.1073-1.056 1.562-.44.44-.946.814-1.518 1.122-.558.308-1.152.5427-1.782.704-.631.1613-1.247.242-1.848.242-1.071 0-2.054-.2347-2.948-.704-.895-.4693-1.672-1.078-2.332-1.826-.646-.7627-1.152-1.6207-1.518-2.574-.352-.968-.528-1.9507-.528-2.948zm29.472-5.94h-5.39v13.86h-1.98v-13.86h-5.39v-1.76h12.76zm15.053 12.1v1.76h-10.604v-15.62h10.406v1.76h-8.426v5.06h7.326v1.65h-7.326v5.39zm4.917 1.76v-15.62h5.412c1.246 0 2.339.2053 3.278.616.953.4107 1.745.968 2.376 1.672.63.704 1.1 1.5327 1.408 2.486.322.9387.484 1.9433.484 3.014 0 1.188-.176 2.266-.528 3.234-.352.9533-.858 1.7747-1.518 2.464-.66.6747-1.46 1.2027-2.398 1.584-.924.3667-1.958.55-3.102.55zm10.956-7.832c0-.88-.125-1.6867-.374-2.42-.235-.748-.594-1.386-1.078-1.914-.47-.528-1.049-.9387-1.738-1.232-.69-.308-1.474-.462-2.354-.462h-3.432v12.1h3.432c.894 0 1.686-.154 2.376-.462.704-.308 1.283-.7333 1.738-1.276.469-.5427.821-1.1807 1.056-1.914.249-.748.374-1.5547.374-2.42zm23.93-4.51c-.176-.2053-.41-.4033-.704-.594-.293-.1907-.623-.3593-.99-.506-.366-.1613-.77-.286-1.21-.374-.425-.1027-.872-.154-1.342-.154-1.217 0-2.112.2273-2.684.682-.557.4547-.836 1.078-.836 1.87 0 .4253.081.7773.242 1.056.162.2787.411.5207.748.726.352.1907.785.3593 1.298.506.514.1467 1.122.3007 1.826.462.807.176 1.533.3813 2.178.616.66.22 1.218.4987 1.672.836.47.3373.822.748 1.056 1.232.25.484.374 1.078.374 1.782 0 .748-.146 1.4007-.44 1.958-.293.5427-.696.9973-1.21 1.364-.498.352-1.092.616-1.782.792-.689.1613-1.437.242-2.244.242-1.202 0-2.346-.1833-3.432-.55-1.07-.3813-2.046-.9313-2.926-1.65l.946-1.672c.235.2493.536.4987.902.748.382.2493.807.4767 1.276.682.484.1907.998.352 1.54.484.558.1173 1.137.176 1.738.176 1.115 0 1.98-.198 2.596-.594s.924-.99.924-1.782c0-.44-.102-.8067-.308-1.1-.19-.308-.476-.572-.858-.792-.381-.22-.858-.4107-1.43-.572-.557-.176-1.195-.352-1.914-.528-.792-.1907-1.488-.396-2.09-.616-.601-.22-1.107-.484-1.518-.792-.396-.308-.696-.682-.902-1.122-.205-.44-.308-.968-.308-1.584 0-.748.14-1.408.418-1.98.279-.572.668-1.056 1.166-1.452.499-.396 1.093-.6893 1.782-.88.69-.2053 1.438-.308 2.244-.308 1.056 0 2.01.1613 2.86.484.851.3227 1.606.7553 2.266 1.298zm6.64-3.278 4.73 8.14 4.774-8.14h2.156l-5.94 9.922v5.698h-1.98v-5.742l-5.918-9.878zm24.594 3.278c-.176-.2053-.41-.4033-.704-.594-.293-.1907-.623-.3593-.99-.506-.366-.1613-.77-.286-1.21-.374-.425-.1027-.872-.154-1.342-.154-1.217 0-2.112.2273-2.684.682-.557.4547-.836 1.078-.836 1.87 0 .4253.081.7773.242 1.056.162.2787.411.5207.748.726.352.1907.785.3593 1.298.506.514.1467 1.122.3007 1.826.462.807.176 1.533.3813 2.178.616.66.22 1.218.4987 1.672.836.47.3373.822.748 1.056 1.232.25.484.374 1.078.374 1.782 0 .748-.146 1.4007-.44 1.958-.293.5427-.696.9973-1.21 1.364-.498.352-1.092.616-1.782.792-.689.1613-1.437.242-2.244.242-1.202 0-2.346-.1833-3.432-.55-1.07-.3813-2.046-.9313-2.926-1.65l.946-1.672c.235.2493.536.4987.902.748.382.2493.807.4767 1.276.682.484.1907.998.352 1.54.484.558.1173 1.137.176 1.738.176 1.115 0 1.98-.198 2.596-.594s.924-.99.924-1.782c0-.44-.102-.8067-.308-1.1-.19-.308-.476-.572-.858-.792-.381-.22-.858-.4107-1.43-.572-.557-.176-1.195-.352-1.914-.528-.792-.1907-1.488-.396-2.09-.616-.601-.22-1.107-.484-1.518-.792-.396-.308-.696-.682-.902-1.122-.205-.44-.308-.968-.308-1.584 0-.748.14-1.408.418-1.98.279-.572.668-1.056 1.166-1.452.499-.396 1.093-.6893 1.782-.88.69-.2053 1.438-.308 2.244-.308 1.056 0 2.01.1613 2.86.484.851.3227 1.606.7553 2.266 1.298zm17.697-1.518h-5.39v13.86h-1.98v-13.86h-5.39v-1.76h12.76zm15.053 12.1v1.76h-10.604v-15.62h10.406v1.76h-8.426v5.06h7.326v1.65h-7.326v5.39zm18.424 1.76v-12.078l-5.192 9.262h-1.122l-5.214-9.262v12.078h-1.98v-15.62h2.09l5.654 10.142 5.676-10.142h2.068v15.62zm24.859-12.342c-.176-.2053-.41-.4033-.704-.594-.293-.1907-.623-.3593-.99-.506-.366-.1613-.77-.286-1.21-.374-.425-.1027-.872-.154-1.342-.154-1.217 0-2.112.2273-2.684.682-.557.4547-.836 1.078-.836 1.87 0 .4253.081.7773.242 1.056.162.2787.411.5207.748.726.352.1907.785.3593 1.298.506.514.1467 1.122.3007 1.826.462.807.176 1.533.3813 2.178.616.66.22 1.218.4987 1.672.836.47.3373.822.748 1.056 1.232.25.484.374 1.078.374 1.782 0 .748-.146 1.4007-.44 1.958-.293.5427-.696.9973-1.21 1.364-.498.352-1.092.616-1.782.792-.689.1613-1.437.242-2.244.242-1.202 0-2.346-.1833-3.432-.55-1.07-.3813-2.046-.9313-2.926-1.65l.946-1.672c.235.2493.536.4987.902.748.382.2493.807.4767 1.276.682.484.1907.998.352 1.54.484.558.1173 1.137.176 1.738.176 1.115 0 1.98-.198 2.596-.594s.924-.99.924-1.782c0-.44-.102-.8067-.308-1.1-.19-.308-.476-.572-.858-.792-.381-.22-.858-.4107-1.43-.572-.557-.176-1.195-.352-1.914-.528-.792-.1907-1.488-.396-2.09-.616-.601-.22-1.107-.484-1.518-.792-.396-.308-.696-.682-.902-1.122-.205-.44-.308-.968-.308-1.584 0-.748.14-1.408.418-1.98.279-.572.668-1.056 1.166-1.452.499-.396 1.093-.6893 1.782-.88.69-.2053 1.438-.308 2.244-.308 1.056 0 2.01.1613 2.86.484.851.3227 1.606.7553 2.266 1.298zm10.884-3.278h1.672l6.38 15.62h-2.112l-1.848-4.576h-6.556l-1.826 4.576h-2.112zm3.652 9.504-2.816-7.216-2.904 7.216zm8.685 6.116v-15.62h1.98v13.86h8.712v1.76zm25.651-1.76v1.76h-10.604v-15.62h10.406v1.76h-8.426v5.06h7.326v1.65h-7.326v5.39zm14.091-10.582c-.176-.2053-.411-.4033-.704-.594-.294-.1907-.624-.3593-.99-.506-.367-.1613-.77-.286-1.21-.374-.426-.1027-.873-.154-1.342-.154-1.218 0-2.112.2273-2.684.682-.558.4547-.836 1.078-.836 1.87 0 .4253.08.7773.242 1.056.161.2787.41.5207.748.726.352.1907.784.3593 1.298.506.513.1467 1.122.3007 1.826.462.806.176 1.532.3813 2.178.616.66.22 1.217.4987 1.672.836.469.3373.821.748 1.056 1.232.249.484.374 1.078.374 1.782 0 .748-.147 1.4007-.44 1.958-.294.5427-.697.9973-1.21 1.364-.499.352-1.093.616-1.782.792-.69.1613-1.438.242-2.244.242-1.203 0-2.347-.1833-3.432-.55-1.071-.3813-2.046-.9313-2.926-1.65l.946-1.672c.234.2493.535.4987.902.748.381.2493.806.4767 1.276.682.484.1907.997.352 1.54.484.557.1173 1.136.176 1.738.176 1.114 0 1.98-.198 2.596-.594s.924-.99.924-1.782c0-.44-.103-.8067-.308-1.1-.191-.308-.477-.572-.858-.792-.382-.22-.858-.4107-1.43-.572-.558-.176-1.196-.352-1.914-.528-.792-.1907-1.489-.396-2.09-.616-.602-.22-1.108-.484-1.518-.792-.396-.308-.697-.682-.902-1.122-.206-.44-.308-.968-.308-1.584 0-.748.139-1.408.418-1.98.278-.572.667-1.056 1.166-1.452.498-.396 1.092-.6893 1.782-.88.689-.2053 1.437-.308 2.244-.308 1.056 0 2.009.1613 2.86.484.85.3227 1.606.7553 2.266 1.298zm6.19 14.124.44-1.958h-.66v-2.288h1.826v2.288l-.66 1.958zm-325.033 24.218v-12.078l-5.192 9.262h-1.122l-5.214-9.262v12.078h-1.98v-15.62h2.09l5.654 10.142 5.676-10.142h2.068v15.62zm7.921 0v-15.62h1.98v13.86h8.712v1.76zm17.027-11.924v11.924h-1.98v-15.62h1.54l9.68 12.166v-12.144h1.98v15.598h-1.672zm31.338 10.252c.91 0 1.665-.176 2.266-.528.602-.352 1.078-.8067 1.43-1.364.367-.572.624-1.2173.77-1.936.147-.7333.22-1.474.22-2.222v-7.898h1.98v7.898c0 1.056-.124 2.0607-.374 3.014-.234.9387-.616 1.7673-1.144 2.486s-1.217 1.2907-2.068 1.716c-.836.4107-1.855.616-3.058.616-1.246 0-2.295-.22-3.146-.66-.85-.44-1.54-1.0193-2.068-1.738-.513-.7333-.887-1.5693-1.122-2.508-.22-.9533-.33-1.9287-.33-2.926v-7.898h1.98v7.898c0 .7773.074 1.5327.22 2.266.162.7187.418 1.3567.77 1.914.367.5573.844 1.012 1.43 1.364.602.3373 1.35.506 2.244.506zm21.558-10.67c-.176-.2053-.411-.4033-.704-.594-.294-.1907-.624-.3593-.99-.506-.367-.1613-.77-.286-1.21-.374-.426-.1027-.873-.154-1.342-.154-1.218 0-2.112.2273-2.684.682-.558.4547-.836 1.078-.836 1.87 0 .4253.08.7773.242 1.056.161.2787.41.5207.748.726.352.1907.784.3593 1.298.506.513.1467 1.122.3007 1.826.462.806.176 1.532.3813 2.178.616.66.22 1.217.4987 1.672.836.469.3373.821.748 1.056 1.232.249.484.374 1.078.374 1.782 0 .748-.147 1.4007-.44 1.958-.294.5427-.697.9973-1.21 1.364-.499.352-1.093.616-1.782.792-.69.1613-1.438.242-2.244.242-1.203 0-2.347-.1833-3.432-.55-1.071-.3813-2.046-.9313-2.926-1.65l.946-1.672c.234.2493.535.4987.902.748.381.2493.806.4767 1.276.682.484.1907.997.352 1.54.484.557.1173 1.136.176 1.738.176 1.114 0 1.98-.198 2.596-.594s.924-.99.924-1.782c0-.44-.103-.8067-.308-1.1-.191-.308-.477-.572-.858-.792-.382-.22-.858-.4107-1.43-.572-.558-.176-1.196-.352-1.914-.528-.792-.1907-1.489-.396-2.09-.616-.602-.22-1.108-.484-1.518-.792-.396-.308-.697-.682-.902-1.122-.206-.44-.308-.968-.308-1.584 0-.748.139-1.408.418-1.98.278-.572.667-1.056 1.166-1.452.498-.396 1.092-.6893 1.782-.88.689-.2053 1.437-.308 2.244-.308 1.056 0 2.009.1613 2.86.484.85.3227 1.606.7553 2.266 1.298zm6.432 12.342v-15.62h5.412c1.247 0 2.339.2053 3.278.616.953.4107 1.745.968 2.376 1.672s1.1 1.5327 1.408 2.486c.323.9387.484 1.9433.484 3.014 0 1.188-.176 2.266-.528 3.234-.352.9533-.858 1.7747-1.518 2.464-.66.6747-1.459 1.2027-2.398 1.584-.924.3667-1.958.55-3.102.55zm10.956-7.832c0-.88-.125-1.6867-.374-2.42-.235-.748-.594-1.386-1.078-1.914-.469-.528-1.049-.9387-1.738-1.232-.689-.308-1.474-.462-2.354-.462h-3.432v12.1h3.432c.895 0 1.687-.154 2.376-.462.704-.308 1.283-.7333 1.738-1.276.469-.5427.821-1.1807 1.056-1.914.249-.748.374-1.5547.374-2.42z" fill="#000"/><path d="m1.6 321v-14.2h9.46v1.98h-7.22v4.24h6.04v1.86h-6.04v6.12zm11.302 0v-10.46h2.2v10.46zm0-12.18v-2.42h2.2v2.42zm10.7238 3.62c-.8534.027-1.6134.227-2.28.6-.6534.36-1.12.88-1.4 1.56v6.4h-2.2v-10.46h2.04v2.34c.36-.72.8266-1.293 1.4-1.72.5866-.44 1.2133-.68 1.88-.72h.32c.0933 0 .1733.007.24.02zm5.4005 8.76c-.84 0-1.68-.133-2.52-.4-.8267-.28-1.54-.673-2.14-1.18l.88-1.4c.6266.453 1.2466.8 1.86 1.04.6133.227 1.24.34 1.88.34.6533 0 1.1666-.127 1.54-.38.3866-.253.58-.613.58-1.08 0-.44-.2134-.76-.64-.96-.4267-.2-1.0934-.42-2-.66-.6534-.173-1.2134-.34-1.68-.5-.4667-.16-.8467-.347-1.14-.56-.2934-.213-.5067-.46-.64-.74-.1334-.28-.2-.62-.2-1.02 0-.533.1-1.007.3-1.42.2133-.413.5-.76.86-1.04.3733-.293.8066-.513 1.3-.66.4933-.147 1.0266-.22 1.6-.22.7866 0 1.52.12 2.2.36s1.2866.587 1.82 1.04l-.94 1.32c-.9734-.773-2.0067-1.16-3.1-1.16-.56 0-1.0334.12-1.42.36-.3734.227-.56.593-.56 1.1 0 .213.04.393.12.54s.2066.273.38.38c.1866.107.42.207.7.3.2933.08.6533.173 1.08.28.7066.173 1.3133.347 1.82.52.52.173.9466.38 1.28.62.3333.227.58.5.74.82.16.307.24.68.24 1.12 0 1-.38 1.793-1.14 2.38-.7467.573-1.7667.86-3.06.86zm11.9418-.74c-.28.133-.6666.287-1.16.46-.4933.16-1.02.24-1.58.24-.3466 0-.6733-.047-.98-.14-.3066-.093-.58-.233-.82-.42-.2266-.187-.4066-.427-.54-.72-.1333-.307-.2-.673-.2-1.1v-6.54h-1.38v-1.7h1.38v-3.44h2.2v3.44h2.28v1.7h-2.28v5.84c.0267.373.14.647.34.82.2134.16.4734.24.78.24.3067 0 .6-.053.88-.16s.4867-.193.62-.26zm12.4052.74c-.84 0-1.58-.2-2.22-.6s-1.1467-.92-1.52-1.56v6.22h-2.2v-14.72h1.94v1.88c.4-.627.9133-1.127 1.54-1.5.64-.373 1.36-.56 2.16-.56.72 0 1.38.147 1.98.44s1.12.687 1.56 1.18.78 1.067 1.02 1.72c.2533.653.38 1.34.38 2.06 0 .76-.1134 1.473-.34 2.14-.2267.653-.5467 1.227-.96 1.72-.4134.48-.9067.867-1.48 1.16-.56.28-1.18.42-1.86.42zm-.72-1.88c.4666 0 .8866-.1 1.26-.3.3866-.2.7133-.467.98-.8.28-.333.4933-.713.64-1.14.1466-.427.22-.867.22-1.32 0-.48-.0867-.933-.26-1.36-.16-.427-.3867-.8-.68-1.12-.28-.32-.62-.573-1.02-.76s-.8334-.28-1.3-.28c-.28 0-.5734.053-.88.16-.3067.107-.5934.253-.86.44-.2667.187-.5.407-.7.66-.2.24-.34.507-.42.8v2.74c.1333.32.3066.62.52.9.2133.28.4466.52.7.72.2666.2.5533.36.86.48.3066.12.62.18.94.18zm7.3386 1.68v-10.46h2.2v10.46zm0-12.18v-2.42h2.2v2.42zm4.0837 10.8 6.28-7.52h-6.06v-1.56h8.38v1.38l-6.24 7.52h6.3v1.56h-8.66zm9.8633 0 6.28-7.52h-6.06v-1.56h8.38v1.38l-6.24 7.52h6.3v1.56h-8.66zm13.4033 1.58c-.5067 0-.98-.08-1.42-.24-.4267-.173-.8-.407-1.12-.7-.3067-.293-.5533-.64-.74-1.04-.1733-.4-.26-.833-.26-1.3 0-.493.1067-.94.32-1.34s.5133-.747.9-1.04c.4-.293.8667-.52 1.4-.68.5467-.16 1.1467-.24 1.8-.24.4933 0 .98.047 1.46.14.48.08.9133.193 1.3.34v-.72c0-.773-.22-1.373-.66-1.8-.44-.44-1.0733-.66-1.9-.66-.56 0-1.1133.107-1.66.32-.5333.2-1.0867.493-1.66.88l-.68-1.4c1.3467-.907 2.7467-1.36 4.2-1.36 1.44 0 2.56.367 3.36 1.1s1.2 1.787 1.2 3.16v3.78c0 .467.1933.707.58.72v1.88c-.2133.04-.4.067-.56.08-.1467.013-.2933.02-.44.02-.4267 0-.76-.107-1-.32-.2267-.213-.3667-.487-.42-.82l-.06-.66c-.4667.613-1.0467 1.087-1.74 1.42-.68.32-1.4133.48-2.2.48zm.6-1.62c.5333 0 1.0333-.093 1.5-.28.48-.2.8533-.473 1.12-.82.28-.24.42-.493.42-.76v-1.38c-.3733-.147-.7733-.26-1.2-.34-.4133-.08-.82-.12-1.22-.12-.7867 0-1.4333.173-1.94.52-.4933.333-.74.78-.74 1.34 0 .52.1933.96.58 1.32.3867.347.88.52 1.48.52zm-82.8222 31.62c-.84 0-1.68-.133-2.52-.4-.82667-.28-1.54-.673-2.14-1.18l.88-1.4c.62667.453 1.24667.8 1.86 1.04.61333.227 1.24.34 1.88.34.65333 0 1.16667-.127 1.54-.38.38667-.253.58-.613.58-1.08 0-.44-.21333-.76-.64-.96s-1.09333-.42-2-.66c-.65333-.173-1.21333-.34-1.68-.5s-.84667-.347-1.14-.56-.50667-.46-.64-.74c-.133333-.28-.2-.62-.2-1.02 0-.533.1-1.007.3-1.42.21333-.413.5-.76.86-1.04.37333-.293.80667-.513 1.3-.66s1.02667-.22 1.6-.22c.78667 0 1.52.12 2.2.36s1.28667.587 1.82 1.04l-.94 1.32c-.97333-.773-2.00667-1.16-3.1-1.16-.56 0-1.03333.12-1.42.36-.37333.227-.56.593-.56 1.1 0 .213.04.393.12.54s.20667.273.38.38c.18667.107.42.207.7.3.29333.08.65333.173 1.08.28.70667.173 1.31333.347 1.82.52.52.173.94667.38 1.28.62.33333.227.58.5.74.82.16.307.24.68.24 1.12 0 1-.38 1.793-1.14 2.38-.74667.573-1.76667.86-3.06.86zm11.9419-.74c-.28.133-.6667.287-1.16.46-.4934.16-1.02.24-1.58.24-.3467 0-.6734-.047-.98-.14-.3067-.093-.58-.233-.82-.42-.2267-.187-.4067-.427-.54-.72-.1334-.307-.2-.673-.2-1.1v-6.54h-1.38v-1.7h1.38v-3.44h2.2v3.44h2.28v1.7h-2.28v5.84c.0266.373.14.647.34.82.2133.16.4733.24.78.24.3066 0 .6-.053.88-.16s.4866-.193.62-.26zm5.9698.74c-.8266 0-1.5733-.147-2.24-.44-.6533-.293-1.2133-.687-1.68-1.18-.4666-.493-.8266-1.067-1.08-1.72-.2533-.667-.38-1.36-.38-2.08s.1267-1.407.38-2.06c.2534-.667.6134-1.247 1.08-1.74.48-.493 1.0467-.887 1.7-1.18.6667-.293 1.4067-.44 2.22-.44.8134 0 1.5467.147 2.2.44.6667.293 1.2334.687 1.7 1.18.48.493.8467 1.073 1.1 1.74.2534.653.38 1.34.38 2.06s-.1266 1.413-.38 2.08c-.2533.653-.62 1.227-1.1 1.72-.4666.493-1.0333.887-1.7 1.18-.6533.293-1.3866.44-2.2.44zm-3.12-5.4c0 .507.08.973.24 1.4s.38.8.66 1.12c.28.307.6067.553.98.74.3867.173.8.26 1.24.26s.8467-.087 1.22-.26c.3867-.187.72-.44 1-.76s.5-.693.66-1.12.24-.893.24-1.4c0-.493-.08-.953-.24-1.38-.16-.44-.38-.82-.66-1.14s-.6133-.567-1-.74c-.3733-.187-.78-.28-1.22-.28-.4266 0-.8333.093-1.22.28-.3733.187-.7.44-.98.76s-.5066.7-.68 1.14c-.16.427-.24.887-.24 1.38zm16.3313-3.36c-.8534.027-1.6134.227-2.28.6-.6534.36-1.12.88-1.4 1.56v6.4h-2.2v-10.46h2.04v2.34c.36-.72.8266-1.293 1.4-1.72.5866-.44 1.2133-.68 1.88-.72h.32c.0933 0 .1733.007.24.02zm5.8131 8.76c-.8133 0-1.5533-.14-2.22-.42-.6667-.293-1.24-.687-1.72-1.18-.4667-.493-.8333-1.067-1.1-1.72-.2533-.653-.38-1.347-.38-2.08s.1267-1.427.38-2.08c.2667-.667.6333-1.247 1.1-1.74.48-.507 1.0533-.9 1.72-1.18.6667-.293 1.4133-.44 2.24-.44.8133 0 1.5467.147 2.2.44.6667.293 1.2333.687 1.7 1.18.4667.48.82 1.047 1.06 1.7.2533.64.38 1.313.38 2.02 0 .16-.0067.313-.02.46-.0133.133-.0267.247-.04.34h-8.38c.04.467.1467.887.32 1.26.1867.373.42.7.7.98.2933.267.62.473.98.62.3733.147.76.22 1.16.22.2933 0 .58-.033.86-.1.2933-.08.56-.187.8-.32.24-.147.4533-.32.64-.52s.3333-.42.44-.66l1.88.54c-.36.787-.96 1.433-1.8 1.94-.8267.493-1.7933.74-2.9.74zm3.18-6.22c-.04-.44-.1533-.847-.34-1.22-.1733-.373-.4-.687-.68-.94-.28-.267-.6067-.473-.98-.62s-.7667-.22-1.18-.22-.8067.073-1.18.22c-.36.147-.68.353-.96.62-.28.253-.5067.567-.68.94s-.28.78-.32 1.22z" fill="#000"/><path d="m351.94 299v10h-2.26v-14.2h1.76l8.12 10.24v-10.22h2.26v14.18h-1.86zm15.2 3.16c-.56 0-1.067-.1-1.52-.3s-.84-.467-1.16-.8c-.32-.347-.567-.74-.74-1.18s-.26-.907-.26-1.4c0-.507.087-.98.26-1.42.173-.453.42-.847.74-1.18.32-.347.707-.62 1.16-.82s.96-.3 1.52-.3 1.067.1 1.52.3.84.473 1.16.82c.32.333.567.727.74 1.18.173.44.26.913.26 1.42 0 .493-.087.96-.26 1.4s-.42.833-.74 1.18c-.32.333-.707.6-1.16.8s-.96.3-1.52.3zm-1.98-3.68c0 .32.047.62.14.9.107.267.247.5.42.7.187.2.4.36.64.48.24.107.5.16.78.16s.54-.053.78-.16c.24-.12.447-.28.62-.48.187-.2.327-.44.42-.72.107-.28.16-.58.16-.9s-.053-.613-.16-.88c-.093-.28-.233-.52-.42-.72-.173-.2-.38-.353-.62-.46-.24-.12-.5-.18-.78-.18s-.54.06-.78.18c-.24.107-.453.26-.64.46-.173.2-.313.44-.42.72-.093.28-.14.58-.14.9zm19.766 8.54v1.98h-7.54v-1.98h2.74v-10.12c-.106.16-.286.34-.54.54-.24.187-.513.373-.82.56-.306.173-.626.32-.96.44-.32.12-.613.18-.88.18v-2.04c.36 0 .727-.093 1.1-.28.374-.2.714-.413 1.02-.64.307-.24.56-.46.76-.66s.307-.313.32-.34h2.26v12.36zm6.019-3.26c0-.733.126-1.427.38-2.08.253-.653.613-1.227 1.08-1.72.48-.493 1.053-.88 1.72-1.16.666-.293 1.413-.44 2.24-.44 1.08 0 2.006.24 2.78.72.786.467 1.373 1.093 1.76 1.88l-2.14.68c-.254-.44-.594-.78-1.02-1.02-.427-.253-.9-.38-1.42-.38-.44 0-.854.087-1.24.26-.374.173-.7.42-.98.74-.28.307-.5.673-.66 1.1s-.24.9-.24 1.42c0 .507.08.98.24 1.42.173.427.4.8.68 1.12.293.32.626.573 1 .76.386.173.793.26 1.22.26.266 0 .533-.033.8-.1.266-.08.506-.187.72-.32.226-.133.42-.287.58-.46.173-.173.3-.36.38-.56l2.16.64c-.347.787-.927 1.433-1.74 1.94-.814.493-1.774.74-2.88.74-.814 0-1.554-.147-2.22-.44-.667-.293-1.24-.687-1.72-1.18-.467-.507-.834-1.087-1.1-1.74-.254-.653-.38-1.347-.38-2.08zm21.232 5.24h-2.2v-5.86c0-.96-.174-1.667-.52-2.12-.334-.467-.82-.7-1.46-.7-.307 0-.614.06-.92.18-.307.12-.6.293-.88.52-.267.213-.507.473-.72.78-.214.293-.374.62-.48.98v6.22h-2.2v-14.6h2.2v6.24c.4-.72.94-1.28 1.62-1.68.693-.4 1.446-.6 2.26-.6.653 0 1.186.12 1.6.36.426.227.766.533 1.02.92.253.387.426.84.52 1.36.106.507.16 1.047.16 1.62zm5.333.2c-.507 0-.98-.08-1.42-.24-.427-.173-.8-.407-1.12-.7-.307-.293-.553-.64-.74-1.04-.173-.4-.26-.833-.26-1.3 0-.493.107-.94.32-1.34s.513-.747.9-1.04c.4-.293.867-.52 1.4-.68.547-.16 1.147-.24 1.8-.24.493 0 .98.047 1.46.14.48.08.913.193 1.3.34v-.72c0-.773-.22-1.373-.66-1.8-.44-.44-1.073-.66-1.9-.66-.56 0-1.113.107-1.66.32-.533.2-1.087.493-1.66.88l-.68-1.4c1.347-.907 2.747-1.36 4.2-1.36 1.44 0 2.56.367 3.36 1.1s1.2 1.787 1.2 3.16v3.78c0 .467.193.707.58.72v1.88c-.213.04-.4.067-.56.08-.147.013-.293.02-.44.02-.427 0-.76-.107-1-.32-.227-.213-.367-.487-.42-.82l-.06-.66c-.467.613-1.047 1.087-1.74 1.42-.68.32-1.413.48-2.2.48zm.6-1.62c.533 0 1.033-.093 1.5-.28.48-.2.853-.473 1.12-.82.28-.24.42-.493.42-.76v-1.38c-.373-.147-.773-.26-1.2-.34-.413-.08-.82-.12-1.22-.12-.787 0-1.433.173-1.94.52-.493.333-.74.78-.74 1.34 0 .52.193.96.58 1.32.387.347.88.52 1.48.52zm7.909 1.42v-10.46h2.2v10.46zm0-12.18v-2.42h2.2v2.42zm14.224 12.18h-2.2v-5.86c0-.987-.16-1.7-.48-2.14-.307-.453-.767-.68-1.38-.68-.32 0-.64.06-.96.18s-.62.293-.9.52c-.28.213-.533.473-.76.78-.213.293-.38.62-.5.98v6.22h-2.2v-10.46h2v2.1c.4-.707.98-1.26 1.74-1.66.76-.413 1.6-.62 2.52-.62.627 0 1.14.113 1.54.34s.713.54.94.94c.24.387.407.84.5 1.36.093.507.14 1.047.14 1.62zm-90.923 30v-10.46h2.2v10.46zm0-12.18v-2.42h2.2v2.42zm14.224 12.18h-2.2v-5.86c0-.987-.16-1.7-.48-2.14-.307-.453-.767-.68-1.38-.68-.32 0-.64.06-.96.18s-.62.293-.9.52c-.28.213-.534.473-.76.78-.214.293-.38.62-.5.98v6.22h-2.2v-10.46h2v2.1c.4-.707.98-1.26 1.74-1.66.76-.413 1.6-.62 2.52-.62.626 0 1.14.113 1.54.34s.713.54.94.94c.24.387.406.84.5 1.36.093.507.14 1.047.14 1.62zm11.755.2c-.707 0-1.36-.14-1.96-.42-.6-.293-1.12-.687-1.56-1.18s-.787-1.067-1.04-1.72c-.24-.667-.36-1.38-.36-2.14 0-.733.113-1.42.34-2.06.24-.653.566-1.227.98-1.72.426-.493.92-.88 1.48-1.16.573-.293 1.2-.44 1.88-.44.84 0 1.58.207 2.22.62.64.4 1.14.913 1.5 1.54v-6.12h2.2v12c0 .253.04.433.12.54.093.107.253.167.48.18v1.88c-.227.04-.414.067-.56.08-.134.013-.247.02-.34.02-.44 0-.8-.113-1.08-.34s-.434-.52-.46-.88l-.04-.78c-.387.653-.914 1.167-1.58 1.54-.667.373-1.407.56-2.22.56zm.54-1.88c.32 0 .64-.053.96-.16s.613-.253.88-.44c.266-.187.493-.407.68-.66.2-.253.34-.527.42-.82v-2.74c-.12-.333-.294-.64-.52-.92-.214-.28-.46-.52-.74-.72s-.58-.353-.9-.46c-.307-.107-.62-.16-.94-.16-.44 0-.847.1-1.22.3-.36.2-.674.467-.94.8-.267.333-.48.713-.64 1.14-.147.427-.22.867-.22 1.32 0 .48.08.933.24 1.36.173.427.406.8.7 1.12.293.32.626.573 1 .76.386.187.8.28 1.24.28zm12.634 1.88c-.827 0-1.573-.147-2.24-.44-.653-.293-1.213-.687-1.68-1.18s-.827-1.067-1.08-1.72c-.253-.667-.38-1.36-.38-2.08s.127-1.407.38-2.06c.253-.667.613-1.247 1.08-1.74.48-.493 1.047-.887 1.7-1.18.667-.293 1.407-.44 2.22-.44s1.547.147 2.2.44c.667.293 1.233.687 1.7 1.18.48.493.847 1.073 1.1 1.74.253.653.38 1.34.38 2.06s-.127 1.413-.38 2.08c-.253.653-.62 1.227-1.1 1.72-.467.493-1.033.887-1.7 1.18-.653.293-1.387.44-2.2.44zm-3.12-5.4c0 .507.08.973.24 1.4s.38.8.66 1.12c.28.307.607.553.98.74.387.173.8.26 1.24.26s.847-.087 1.22-.26c.387-.187.72-.44 1-.76s.5-.693.66-1.12.24-.893.24-1.4c0-.493-.08-.953-.24-1.38-.16-.44-.38-.82-.66-1.14s-.613-.567-1-.74c-.373-.187-.78-.28-1.22-.28-.427 0-.833.093-1.22.28-.373.187-.7.44-.98.76s-.507.7-.68 1.14c-.16.427-.24.887-.24 1.38zm26.451 5.2h-2.2v-5.86c0-.973-.16-1.687-.48-2.14s-.786-.68-1.4-.68c-.626 0-1.2.233-1.72.7-.506.453-.873 1.047-1.1 1.78v6.2h-2.2v-5.86c0-.987-.16-1.7-.48-2.14-.32-.453-.78-.68-1.38-.68-.626 0-1.2.227-1.72.68s-.893 1.047-1.12 1.78v6.22h-2.2v-10.46h2v2.1c.414-.733.954-1.293 1.62-1.68.68-.4 1.454-.6 2.32-.6.867 0 1.547.227 2.04.68.507.453.82 1.02.94 1.7.44-.773.994-1.36 1.66-1.76.667-.413 1.427-.62 2.28-.62.614 0 1.12.12 1.52.36.414.227.74.533.98.92s.407.84.5 1.36c.094.507.14 1.047.14 1.62zm7.276.2c-.814 0-1.554-.14-2.22-.42-.667-.293-1.24-.687-1.72-1.18-.467-.493-.834-1.067-1.1-1.72-.254-.653-.38-1.347-.38-2.08s.126-1.427.38-2.08c.266-.667.633-1.247 1.1-1.74.48-.507 1.053-.9 1.72-1.18.666-.293 1.413-.44 2.24-.44.813 0 1.546.147 2.2.44.666.293 1.233.687 1.7 1.18.466.48.82 1.047 1.06 1.7.253.64.38 1.313.38 2.02 0 .16-.007.313-.02.46-.014.133-.027.247-.04.34h-8.38c.04.467.146.887.32 1.26.186.373.42.7.7.98.293.267.62.473.98.62.373.147.76.22 1.16.22.293 0 .58-.033.86-.1.293-.08.56-.187.8-.32.24-.147.453-.32.64-.52.186-.2.333-.42.44-.66l1.88.54c-.36.787-.96 1.433-1.8 1.94-.827.493-1.794.74-2.9.74zm3.18-6.22c-.04-.44-.154-.847-.34-1.22-.174-.373-.4-.687-.68-.94-.28-.267-.607-.473-.98-.62-.374-.147-.767-.22-1.18-.22-.414 0-.807.073-1.18.22-.36.147-.68.353-.96.62-.28.253-.507.567-.68.94-.174.373-.28.78-.32 1.22zm7.774 6.22c-.84 0-1.68-.133-2.52-.4-.827-.28-1.54-.673-2.14-1.18l.88-1.4c.627.453 1.247.8 1.86 1.04.613.227 1.24.34 1.88.34.653 0 1.167-.127 1.54-.38.387-.253.58-.613.58-1.08 0-.44-.213-.76-.64-.96s-1.093-.42-2-.66c-.653-.173-1.213-.34-1.68-.5s-.847-.347-1.14-.56-.507-.46-.64-.74-.2-.62-.2-1.02c0-.533.1-1.007.3-1.42.213-.413.5-.76.86-1.04.373-.293.807-.513 1.3-.66s1.027-.22 1.6-.22c.787 0 1.52.12 2.2.36s1.287.587 1.82 1.04l-.94 1.32c-.973-.773-2.007-1.16-3.1-1.16-.56 0-1.033.12-1.42.36-.373.227-.56.593-.56 1.1 0 .213.04.393.12.54s.207.273.38.38c.187.107.42.207.7.3.293.08.653.173 1.08.28.707.173 1.313.347 1.82.52.52.173.947.38 1.28.62.333.227.58.5.74.82.16.307.24.68.24 1.12 0 1-.38 1.793-1.14 2.38-.747.573-1.767.86-3.06.86zm11.942-.74c-.28.133-.667.287-1.16.46-.493.16-1.02.24-1.58.24-.347 0-.673-.047-.98-.14s-.58-.233-.82-.42c-.227-.187-.407-.427-.54-.72-.133-.307-.2-.673-.2-1.1v-6.54h-1.38v-1.7h1.38v-3.44h2.2v3.44h2.28v1.7h-2.28v5.84c.027.373.14.647.34.82.213.16.473.24.78.24s.6-.053.88-.16.487-.193.62-.26zm1.524.54v-10.46h2.2v10.46zm0-12.18v-2.42h2.2v2.42zm4.163 6.94c0-.733.127-1.427.38-2.08.254-.653.614-1.227 1.08-1.72.48-.493 1.054-.88 1.72-1.16.667-.293 1.414-.44 2.24-.44 1.08 0 2.007.24 2.78.72.787.467 1.374 1.093 1.76 1.88l-2.14.68c-.253-.44-.593-.78-1.02-1.02-.426-.253-.9-.38-1.42-.38-.44 0-.853.087-1.24.26-.373.173-.7.42-.98.74-.28.307-.5.673-.66 1.1s-.24.9-.24 1.42c0 .507.08.98.24 1.42.174.427.4.8.68 1.12.294.32.627.573 1 .76.387.173.794.26 1.22.26.267 0 .534-.033.8-.1.267-.08.507-.187.72-.32.227-.133.42-.287.58-.46.174-.173.3-.36.38-.56l2.16.64c-.346.787-.926 1.433-1.74 1.94-.813.493-1.773.74-2.88.74-.813 0-1.553-.147-2.22-.44-.666-.293-1.24-.687-1.72-1.18-.466-.507-.833-1.087-1.1-1.74-.253-.653-.38-1.347-.38-2.08zm32.794 5.24h-2.2v-5.86c0-.973-.16-1.687-.48-2.14s-.787-.68-1.4-.68c-.627 0-1.2.233-1.72.7-.507.453-.874 1.047-1.1 1.78v6.2h-2.2v-5.86c0-.987-.16-1.7-.48-2.14-.32-.453-.78-.68-1.38-.68-.627 0-1.2.227-1.72.68s-.894 1.047-1.12 1.78v6.22h-2.2v-10.46h2v2.1c.413-.733.953-1.293 1.62-1.68.68-.4 1.453-.6 2.32-.6.866 0 1.546.227 2.04.68.506.453.82 1.02.94 1.7.44-.773.993-1.36 1.66-1.76.666-.413 1.426-.62 2.28-.62.613 0 1.12.12 1.52.36.413.227.74.533.98.92s.406.84.5 1.36c.093.507.14 1.047.14 1.62zm5.315.2c-.507 0-.98-.08-1.42-.24-.427-.173-.8-.407-1.12-.7-.307-.293-.553-.64-.74-1.04-.173-.4-.26-.833-.26-1.3 0-.493.107-.94.32-1.34s.513-.747.9-1.04c.4-.293.867-.52 1.4-.68.547-.16 1.147-.24 1.8-.24.493 0 .98.047 1.46.14.48.08.913.193 1.3.34v-.72c0-.773-.22-1.373-.66-1.8-.44-.44-1.073-.66-1.9-.66-.56 0-1.113.107-1.66.32-.533.2-1.087.493-1.66.88l-.68-1.4c1.347-.907 2.747-1.36 4.2-1.36 1.44 0 2.56.367 3.36 1.1s1.2 1.787 1.2 3.16v3.78c0 .467.193.707.58.72v1.88c-.213.04-.4.067-.56.08-.147.013-.293.02-.44.02-.427 0-.76-.107-1-.32-.227-.213-.367-.487-.42-.82l-.06-.66c-.467.613-1.047 1.087-1.74 1.42-.68.32-1.413.48-2.2.48zm.6-1.62c.533 0 1.033-.093 1.5-.28.48-.2.853-.473 1.12-.82.28-.24.42-.493.42-.76v-1.38c-.373-.147-.773-.26-1.2-.34-.413-.08-.82-.12-1.22-.12-.787 0-1.433.173-1.94.52-.493.333-.74.78-.74 1.34 0 .52.193.96.58 1.32.387.347.88.52 1.48.52zm13.789-7.14c-.853.027-1.613.227-2.28.6-.653.36-1.12.88-1.4 1.56v6.4h-2.2v-10.46h2.04v2.34c.36-.72.827-1.293 1.4-1.72.587-.44 1.213-.68 1.88-.72h.32c.093 0 .173.007.24.02zm8.88 8.56-3.34-4.82-1.74 1.64v3.18h-2.2v-14.6h2.2v9.26l4.8-5.1h2.4l-4.06 4.38 4.28 6.06zm7.871.2c-.814 0-1.554-.14-2.22-.42-.667-.293-1.24-.687-1.72-1.18-.467-.493-.834-1.067-1.1-1.72-.254-.653-.38-1.347-.38-2.08s.126-1.427.38-2.08c.266-.667.633-1.247 1.1-1.74.48-.507 1.053-.9 1.72-1.18.666-.293 1.413-.44 2.24-.44.813 0 1.546.147 2.2.44.666.293 1.233.687 1.7 1.18.466.48.82 1.047 1.06 1.7.253.64.38 1.313.38 2.02 0 .16-.007.313-.02.46-.014.133-.027.247-.04.34h-8.38c.04.467.146.887.32 1.26.186.373.42.7.7.98.293.267.62.473.98.62.373.147.76.22 1.16.22.293 0 .58-.033.86-.1.293-.08.56-.187.8-.32.24-.147.453-.32.64-.52.186-.2.333-.42.44-.66l1.88.54c-.36.787-.96 1.433-1.8 1.94-.827.493-1.794.74-2.9.74zm3.18-6.22c-.04-.44-.154-.847-.34-1.22-.174-.373-.4-.687-.68-.94-.28-.267-.607-.473-.98-.62-.374-.147-.767-.22-1.18-.22-.414 0-.807.073-1.18.22-.36.147-.68.353-.96.62-.28.253-.507.567-.68.94-.174.373-.28.78-.32 1.22zm9.716 5.48c-.28.133-.667.287-1.16.46-.493.16-1.02.24-1.58.24-.347 0-.673-.047-.98-.14s-.58-.233-.82-.42c-.227-.187-.407-.427-.54-.72-.133-.307-.2-.673-.2-1.1v-6.54h-1.38v-1.7h1.38v-3.44h2.2v3.44h2.28v1.7h-2.28v5.84c.027.373.14.647.34.82.213.16.473.24.78.24s.6-.053.88-.16.487-.193.62-.26z" fill="#000"/><path d="m817.64 308.86h2.12l1.74 4.82 1.76-4.82h2.1l-2.42 6.32 2.12 5.22 4.42-11.6h2.46l-5.86 14.2h-1.92l-2.64-6.36-2.66 6.36h-1.92l-5.86-14.2h2.44l4.44 11.6 2.12-5.22zm19.107 14.34c-.827 0-1.574-.147-2.24-.44-.654-.293-1.214-.687-1.68-1.18-.467-.493-.827-1.067-1.08-1.72-.254-.667-.38-1.36-.38-2.08s.126-1.407.38-2.06c.253-.667.613-1.247 1.08-1.74.48-.493 1.046-.887 1.7-1.18.666-.293 1.406-.44 2.22-.44.813 0 1.546.147 2.2.44.666.293 1.233.687 1.7 1.18.48.493.846 1.073 1.1 1.74.253.653.38 1.34.38 2.06s-.127 1.413-.38 2.08c-.254.653-.62 1.227-1.1 1.72-.467.493-1.034.887-1.7 1.18-.654.293-1.387.44-2.2.44zm-3.12-5.4c0 .507.08.973.24 1.4s.38.8.66 1.12c.28.307.606.553.98.74.386.173.8.26 1.24.26s.846-.087 1.22-.26c.386-.187.72-.44 1-.76s.5-.693.66-1.12.24-.893.24-1.4c0-.493-.08-.953-.24-1.38-.16-.44-.38-.82-.66-1.14s-.614-.567-1-.74c-.374-.187-.78-.28-1.22-.28-.427 0-.834.093-1.22.28-.374.187-.7.44-.98.76s-.507.7-.68 1.14c-.16.427-.24.887-.24 1.38zm16.331-3.36c-.854.027-1.614.227-2.28.6-.654.36-1.12.88-1.4 1.56v6.4h-2.2v-10.46h2.04v2.34c.36-.72.826-1.293 1.4-1.72.586-.44 1.213-.68 1.88-.72h.32c.093 0 .173.007.24.02zm1.62-6.04h2.2v11.58c0 .387.1.693.3.92.2.213.48.32.84.32.147 0 .314-.027.5-.08.2-.053.387-.113.56-.18l.32 1.72c-.32.147-.7.26-1.14.34-.44.093-.833.14-1.18.14-.76 0-1.353-.207-1.78-.62-.413-.413-.62-1-.62-1.76zm10.256 14.8c-.707 0-1.36-.14-1.96-.42-.6-.293-1.12-.687-1.56-1.18s-.787-1.067-1.04-1.72c-.24-.667-.36-1.38-.36-2.14 0-.733.113-1.42.34-2.06.24-.653.567-1.227.98-1.72.427-.493.92-.88 1.48-1.16.573-.293 1.2-.44 1.88-.44.84 0 1.58.207 2.22.62.64.4 1.14.913 1.5 1.54v-6.12h2.2v12c0 .253.04.433.12.54.093.107.253.167.48.18v1.88c-.227.04-.413.067-.56.08-.133.013-.247.02-.34.02-.44 0-.8-.113-1.08-.34s-.433-.52-.46-.88l-.04-.78c-.387.653-.913 1.167-1.58 1.54s-1.407.56-2.22.56zm.54-1.88c.32 0 .64-.053.96-.16s.613-.253.88-.44.493-.407.68-.66c.2-.253.34-.527.42-.82v-2.74c-.12-.333-.293-.64-.52-.92-.213-.28-.46-.52-.74-.72s-.58-.353-.9-.46c-.307-.107-.62-.16-.94-.16-.44 0-.847.1-1.22.3-.36.2-.673.467-.94.8s-.48.713-.64 1.14c-.147.427-.22.867-.22 1.32 0 .48.08.933.24 1.36.173.427.407.8.7 1.12s.627.573 1 .76c.387.187.8.28 1.24.28zm8.034-8.14.42-2.36h-.7v-2.48h2.16v2.5l-.66 2.34zm7.821 10.02c-.84 0-1.68-.133-2.52-.4-.826-.28-1.54-.673-2.14-1.18l.88-1.4c.627.453 1.247.8 1.86 1.04.614.227 1.24.34 1.88.34.654 0 1.167-.127 1.54-.38.387-.253.58-.613.58-1.08 0-.44-.213-.76-.64-.96-.426-.2-1.093-.42-2-.66-.653-.173-1.213-.34-1.68-.5-.466-.16-.846-.347-1.14-.56-.293-.213-.506-.46-.64-.74-.133-.28-.2-.62-.2-1.02 0-.533.1-1.007.3-1.42.214-.413.5-.76.86-1.04.374-.293.807-.513 1.3-.66.494-.147 1.027-.22 1.6-.22.787 0 1.52.12 2.2.36s1.287.587 1.82 1.04l-.94 1.32c-.973-.773-2.006-1.16-3.1-1.16-.56 0-1.033.12-1.42.36-.373.227-.56.593-.56 1.1 0 .213.04.393.12.54s.207.273.38.38c.187.107.42.207.7.3.294.08.654.173 1.08.28.707.173 1.314.347 1.82.52.52.173.947.38 1.28.62.334.227.58.5.74.82.16.307.24.68.24 1.12 0 1-.38 1.793-1.14 2.38-.746.573-1.766.86-3.06.86zm11.664-.2v-8.5h-1.4v-1.7h1.4v-.42c0-1.293.3-2.313.9-3.06s1.413-1.12 2.44-1.12c.426 0 .846.06 1.26.18.413.107.806.26 1.18.46l-.48 1.64c-.2-.12-.44-.22-.72-.3-.267-.08-.527-.12-.78-.12-.52 0-.92.193-1.2.58-.267.387-.4.947-.4 1.68v.48h2.68v1.7h-2.68v8.5zm9.152.2c-.506 0-.98-.08-1.42-.24-.426-.173-.8-.407-1.12-.7-.306-.293-.553-.64-.74-1.04-.173-.4-.26-.833-.26-1.3 0-.493.107-.94.32-1.34.214-.4.514-.747.9-1.04.4-.293.867-.52 1.4-.68.547-.16 1.147-.24 1.8-.24.494 0 .98.047 1.46.14.48.08.914.193 1.3.34v-.72c0-.773-.22-1.373-.66-1.8-.44-.44-1.073-.66-1.9-.66-.56 0-1.113.107-1.66.32-.533.2-1.086.493-1.66.88l-.68-1.4c1.347-.907 2.747-1.36 4.2-1.36 1.44 0 2.56.367 3.36 1.1s1.2 1.787 1.2 3.16v3.78c0 .467.194.707.58.72v1.88c-.213.04-.4.067-.56.08-.146.013-.293.02-.44.02-.426 0-.76-.107-1-.32-.226-.213-.366-.487-.42-.82l-.06-.66c-.466.613-1.046 1.087-1.74 1.42-.68.32-1.413.48-2.2.48zm.6-1.62c.534 0 1.034-.093 1.5-.28.48-.2.854-.473 1.12-.82.28-.24.42-.493.42-.76v-1.38c-.373-.147-.773-.26-1.2-.34-.413-.08-.82-.12-1.22-.12-.786 0-1.433.173-1.94.52-.493.333-.74.78-.74 1.34 0 .52.194.96.58 1.32.387.347.88.52 1.48.52zm11.709 1.62c-.84 0-1.68-.133-2.52-.4-.826-.28-1.54-.673-2.14-1.18l.88-1.4c.627.453 1.247.8 1.86 1.04.614.227 1.24.34 1.88.34.654 0 1.167-.127 1.54-.38.387-.253.58-.613.58-1.08 0-.44-.213-.76-.64-.96-.426-.2-1.093-.42-2-.66-.653-.173-1.213-.34-1.68-.5-.466-.16-.846-.347-1.14-.56-.293-.213-.506-.46-.64-.74-.133-.28-.2-.62-.2-1.02 0-.533.1-1.007.3-1.42.214-.413.5-.76.86-1.04.374-.293.807-.513 1.3-.66.494-.147 1.027-.22 1.6-.22.787 0 1.52.12 2.2.36s1.287.587 1.82 1.04l-.94 1.32c-.973-.773-2.006-1.16-3.1-1.16-.56 0-1.033.12-1.42.36-.373.227-.56.593-.56 1.1 0 .213.04.393.12.54s.207.273.38.38c.187.107.42.207.7.3.294.08.654.173 1.08.28.707.173 1.314.347 1.82.52.52.173.947.38 1.28.62.334.227.58.5.74.82.16.307.24.68.24 1.12 0 1-.38 1.793-1.14 2.38-.746.573-1.766.86-3.06.86zm11.942-.74c-.28.133-.666.287-1.16.46-.493.16-1.02.24-1.58.24-.346 0-.673-.047-.98-.14-.306-.093-.58-.233-.82-.42-.226-.187-.406-.427-.54-.72-.133-.307-.2-.673-.2-1.1v-6.54h-1.38v-1.7h1.38v-3.44h2.2v3.44h2.28v1.7h-2.28v5.84c.027.373.14.647.34.82.214.16.474.24.78.24.307 0 .6-.053.88-.16s.487-.193.62-.26zm6.01.74c-.813 0-1.553-.14-2.22-.42-.667-.293-1.24-.687-1.72-1.18-.467-.493-.833-1.067-1.1-1.72-.253-.653-.38-1.347-.38-2.08s.127-1.427.38-2.08c.267-.667.633-1.247 1.1-1.74.48-.507 1.053-.9 1.72-1.18.667-.293 1.413-.44 2.24-.44.813 0 1.547.147 2.2.44.667.293 1.233.687 1.7 1.18.467.48.82 1.047 1.06 1.7.253.64.38 1.313.38 2.02 0 .16-.007.313-.02.46-.013.133-.027.247-.04.34h-8.38c.04.467.147.887.32 1.26.187.373.42.7.7.98.293.267.62.473.98.62.373.147.76.22 1.16.22.293 0 .58-.033.86-.1.293-.08.56-.187.8-.32.24-.147.453-.32.64-.52s.333-.42.44-.66l1.88.54c-.36.787-.96 1.433-1.8 1.94-.827.493-1.793.74-2.9.74zm3.18-6.22c-.04-.44-.153-.847-.34-1.22-.173-.373-.4-.687-.68-.94-.28-.267-.607-.473-.98-.62s-.767-.22-1.18-.22-.807.073-1.18.22c-.36.147-.68.353-.96.62-.28.253-.507.567-.68.94s-.28.78-.32 1.22zm7.775 6.22c-.84 0-1.68-.133-2.52-.4-.827-.28-1.54-.673-2.14-1.18l.88-1.4c.626.453 1.246.8 1.86 1.04.613.227 1.24.34 1.88.34.653 0 1.166-.127 1.54-.38.386-.253.58-.613.58-1.08 0-.44-.214-.76-.64-.96-.427-.2-1.094-.42-2-.66-.654-.173-1.214-.34-1.68-.5-.467-.16-.847-.347-1.14-.56-.294-.213-.507-.46-.64-.74-.134-.28-.2-.62-.2-1.02 0-.533.1-1.007.3-1.42.213-.413.5-.76.86-1.04.373-.293.806-.513 1.3-.66.493-.147 1.026-.22 1.6-.22.786 0 1.52.12 2.2.36s1.286.587 1.82 1.04l-.94 1.32c-.974-.773-2.007-1.16-3.1-1.16-.56 0-1.034.12-1.42.36-.374.227-.56.593-.56 1.1 0 .213.04.393.12.54s.206.273.38.38c.186.107.42.207.7.3.293.08.653.173 1.08.28.706.173 1.313.347 1.82.52.52.173.946.38 1.28.62.333.227.58.5.74.82.16.307.24.68.24 1.12 0 1-.38 1.793-1.14 2.38-.747.573-1.767.86-3.06.86zm11.942-.74c-.28.133-.667.287-1.16.46-.494.16-1.02.24-1.58.24-.347 0-.674-.047-.98-.14-.307-.093-.58-.233-.82-.42-.227-.187-.407-.427-.54-.72-.134-.307-.2-.673-.2-1.1v-6.54h-1.38v-1.7h1.38v-3.44h2.2v3.44h2.28v1.7h-2.28v5.84c.026.373.14.647.34.82.213.16.473.24.78.24.306 0 .6-.053.88-.16s.486-.193.62-.26zm-135.743 30.64c-.707 0-1.353-.14-1.94-.42-.587-.293-1.093-.687-1.52-1.18-.413-.493-.74-1.06-.98-1.7-.227-.64-.34-1.313-.34-2.02 0-.747.12-1.447.36-2.1.24-.667.573-1.24 1-1.72.427-.493.933-.88 1.52-1.16.6-.293 1.26-.44 1.98-.44.84 0 1.573.2 2.2.6.64.4 1.167.92 1.58 1.56v-1.98h1.94v10.16c0 .76-.14 1.433-.42 2.02s-.673 1.08-1.18 1.48c-.493.413-1.08.727-1.76.94s-1.413.32-2.2.32c-1.16 0-2.127-.2-2.9-.6-.76-.387-1.4-.933-1.92-1.64l1.24-1.16c.4.56.913.987 1.54 1.28.64.293 1.32.44 2.04.44.453 0 .88-.06 1.28-.18.413-.12.773-.307 1.08-.56s.547-.573.72-.96c.187-.387.28-.847.28-1.38v-1.6c-.373.64-.887 1.133-1.54 1.48s-1.34.52-2.06.52zm.72-1.78c.333 0 .653-.053.96-.16.307-.12.587-.273.84-.46.267-.2.493-.42.68-.66.187-.253.32-.52.4-.8v-2.74c-.133-.333-.307-.633-.52-.9-.213-.28-.46-.52-.74-.72-.267-.2-.553-.353-.86-.46-.307-.12-.613-.18-.92-.18-.48 0-.913.107-1.3.32-.373.2-.693.473-.96.82-.267.333-.473.713-.62 1.14s-.22.867-.22 1.32c0 .48.08.933.24 1.36.173.413.407.78.7 1.1.293.307.633.553 1.02.74.4.187.833.28 1.3.28zm13.598-6.88c-.853.027-1.613.227-2.28.6-.653.36-1.12.88-1.4 1.56v6.4h-2.2v-10.46h2.04v2.34c.36-.72.827-1.293 1.4-1.72.587-.44 1.213-.68 1.88-.72h.32c.093 0 .173.007.24.02zm5.773 8.76c-.826 0-1.573-.147-2.24-.44-.653-.293-1.213-.687-1.68-1.18-.466-.493-.826-1.067-1.08-1.72-.253-.667-.38-1.36-.38-2.08s.127-1.407.38-2.06c.254-.667.614-1.247 1.08-1.74.48-.493 1.047-.887 1.7-1.18.667-.293 1.407-.44 2.22-.44.814 0 1.547.147 2.2.44.667.293 1.234.687 1.7 1.18.48.493.847 1.073 1.1 1.74.254.653.38 1.34.38 2.06s-.126 1.413-.38 2.08c-.253.653-.62 1.227-1.1 1.72-.466.493-1.033.887-1.7 1.18-.653.293-1.386.44-2.2.44zm-3.12-5.4c0 .507.08.973.24 1.4s.38.8.66 1.12c.28.307.607.553.98.74.387.173.8.26 1.24.26s.847-.087 1.22-.26c.387-.187.72-.44 1-.76s.5-.693.66-1.12.24-.893.24-1.4c0-.493-.08-.953-.24-1.38-.16-.44-.38-.82-.66-1.14s-.613-.567-1-.74c-.373-.187-.78-.28-1.22-.28-.426 0-.833.093-1.22.28-.373.187-.7.44-.98.76s-.506.7-.68 1.14c-.16.427-.24.887-.24 1.38zm23.12-5.26h2.1l-4.4 10.46h-1.82l-1.94-4.86-1.94 4.86h-1.82l-4.42-10.46h2.1l3.38 8.34 1.52-3.88-1.82-4.44h1.8l1.2 3.28 1.18-3.28h1.8l-1.8 4.44 1.52 3.88zm3.562 10.46v-10.46h2.2v10.46zm0-12.18v-2.42h2.2v2.42zm14.224 12.18h-2.2v-5.86c0-.987-.16-1.7-.48-2.14-.307-.453-.767-.68-1.38-.68-.32 0-.64.06-.96.18s-.62.293-.9.52c-.28.213-.534.473-.76.78-.214.293-.38.62-.5.98v6.22h-2.2v-10.46h2v2.1c.4-.707.98-1.26 1.74-1.66.76-.413 1.6-.62 2.52-.62.626 0 1.14.113 1.54.34s.713.54.94.94c.24.387.406.84.5 1.36.093.507.14 1.047.14 1.62zm6.693.1c-.706 0-1.353-.14-1.94-.42-.586-.293-1.093-.687-1.52-1.18-.413-.493-.74-1.06-.98-1.7-.226-.64-.34-1.313-.34-2.02 0-.747.12-1.447.36-2.1.24-.667.574-1.24 1-1.72.427-.493.934-.88 1.52-1.16.6-.293 1.26-.44 1.98-.44.84 0 1.574.2 2.2.6.64.4 1.167.92 1.58 1.56v-1.98h1.94v10.16c0 .76-.14 1.433-.42 2.02s-.673 1.08-1.18 1.48c-.493.413-1.08.727-1.76.94s-1.413.32-2.2.32c-1.16 0-2.126-.2-2.9-.6-.76-.387-1.4-.933-1.92-1.64l1.24-1.16c.4.56.914.987 1.54 1.28.64.293 1.32.44 2.04.44.454 0 .88-.06 1.28-.18.414-.12.774-.307 1.08-.56.307-.253.547-.573.72-.96.187-.387.28-.847.28-1.38v-1.6c-.373.64-.886 1.133-1.54 1.48-.653.347-1.34.52-2.06.52zm.72-1.78c.334 0 .654-.053.96-.16.307-.12.587-.273.84-.46.267-.2.494-.42.68-.66.187-.253.32-.52.4-.8v-2.74c-.133-.333-.306-.633-.52-.9-.213-.28-.46-.52-.74-.72-.266-.2-.553-.353-.86-.46-.306-.12-.613-.18-.92-.18-.48 0-.913.107-1.3.32-.373.2-.693.473-.96.82-.266.333-.473.713-.62 1.14-.146.427-.22.867-.22 1.32 0 .48.08.933.24 1.36.174.413.407.78.7 1.1.294.307.634.553 1.02.74.4.187.834.28 1.3.28zm18.6 1.88c-.84 0-1.58-.2-2.22-.6s-1.147-.92-1.52-1.56v6.22h-2.2v-14.72h1.94v1.88c.4-.627.913-1.127 1.54-1.5.64-.373 1.36-.56 2.16-.56.72 0 1.38.147 1.98.44s1.12.687 1.56 1.18.78 1.067 1.02 1.72c.253.653.38 1.34.38 2.06 0 .76-.113 1.473-.34 2.14-.227.653-.547 1.227-.96 1.72-.413.48-.907.867-1.48 1.16-.56.28-1.18.42-1.86.42zm-.72-1.88c.467 0 .887-.1 1.26-.3.387-.2.713-.467.98-.8.28-.333.493-.713.64-1.14s.22-.867.22-1.32c0-.48-.087-.933-.26-1.36-.16-.427-.387-.8-.68-1.12-.28-.32-.62-.573-1.02-.76s-.833-.28-1.3-.28c-.28 0-.573.053-.88.16s-.593.253-.86.44-.5.407-.7.66c-.2.24-.34.507-.42.8v2.74c.133.32.307.62.52.9s.447.52.7.72c.267.2.553.36.86.48s.62.18.94.18zm7.338 1.68v-10.46h2.2v10.46zm0-12.18v-2.42h2.2v2.42zm4.084 10.8 6.28-7.52h-6.06v-1.56h8.38v1.38l-6.24 7.52h6.3v1.56h-8.66zm9.863 0 6.28-7.52h-6.06v-1.56h8.38v1.38l-6.24 7.52h6.3v1.56h-8.66zm13.404 1.58c-.507 0-.98-.08-1.42-.24-.427-.173-.8-.407-1.12-.7-.307-.293-.554-.64-.74-1.04-.174-.4-.26-.833-.26-1.3 0-.493.106-.94.32-1.34.213-.4.513-.747.9-1.04.4-.293.866-.52 1.4-.68.546-.16 1.146-.24 1.8-.24.493 0 .98.047 1.46.14.48.08.913.193 1.3.34v-.72c0-.773-.22-1.373-.66-1.8-.44-.44-1.074-.66-1.9-.66-.56 0-1.114.107-1.66.32-.534.2-1.087.493-1.66.88l-.68-1.4c1.346-.907 2.746-1.36 4.2-1.36 1.44 0 2.56.367 3.36 1.1s1.2 1.787 1.2 3.16v3.78c0 .467.193.707.58.72v1.88c-.214.04-.4.067-.56.08-.147.013-.294.02-.44.02-.427 0-.76-.107-1-.32-.227-.213-.367-.487-.42-.82l-.06-.66c-.467.613-1.047 1.087-1.74 1.42-.68.32-1.414.48-2.2.48zm.6-1.62c.533 0 1.033-.093 1.5-.28.48-.2.853-.473 1.12-.82.28-.24.42-.493.42-.76v-1.38c-.374-.147-.774-.26-1.2-.34-.414-.08-.82-.12-1.22-.12-.787 0-1.434.173-1.94.52-.494.333-.74.78-.74 1.34 0 .52.193.96.58 1.32.386.347.88.52 1.48.52zm12.17-3.82c0-.733.127-1.427.38-2.08.254-.653.614-1.227 1.08-1.72.48-.493 1.054-.88 1.72-1.16.667-.293 1.414-.44 2.24-.44 1.08 0 2.007.24 2.78.72.787.467 1.374 1.093 1.76 1.88l-2.14.68c-.253-.44-.593-.78-1.02-1.02-.426-.253-.9-.38-1.42-.38-.44 0-.853.087-1.24.26-.373.173-.7.42-.98.74-.28.307-.5.673-.66 1.1s-.24.9-.24 1.42c0 .507.08.98.24 1.42.174.427.4.8.68 1.12.294.32.627.573 1 .76.387.173.794.26 1.22.26.267 0 .534-.033.8-.1.267-.08.507-.187.72-.32.227-.133.42-.287.58-.46.174-.173.3-.36.38-.56l2.16.64c-.346.787-.926 1.433-1.74 1.94-.813.493-1.773.74-2.88.74-.813 0-1.553-.147-2.22-.44-.666-.293-1.24-.687-1.72-1.18-.466-.507-.833-1.087-1.1-1.74-.253-.653-.38-1.347-.38-2.08zm21.232 5.24h-2.2v-5.86c0-.96-.173-1.667-.52-2.12-.333-.467-.82-.7-1.46-.7-.307 0-.613.06-.92.18s-.6.293-.88.52c-.267.213-.507.473-.72.78-.213.293-.373.62-.48.98v6.22h-2.2v-14.6h2.2v6.24c.4-.72.94-1.28 1.62-1.68.693-.4 1.447-.6 2.26-.6.653 0 1.187.12 1.6.36.427.227.767.533 1.02.92s.427.84.52 1.36c.107.507.16 1.047.16 1.62zm5.334.2c-.507 0-.98-.08-1.42-.24-.427-.173-.8-.407-1.12-.7-.307-.293-.554-.64-.74-1.04-.174-.4-.26-.833-.26-1.3 0-.493.106-.94.32-1.34.213-.4.513-.747.9-1.04.4-.293.866-.52 1.4-.68.546-.16 1.146-.24 1.8-.24.493 0 .98.047 1.46.14.48.08.913.193 1.3.34v-.72c0-.773-.22-1.373-.66-1.8-.44-.44-1.074-.66-1.9-.66-.56 0-1.114.107-1.66.32-.534.2-1.087.493-1.66.88l-.68-1.4c1.346-.907 2.746-1.36 4.2-1.36 1.44 0 2.56.367 3.36 1.1s1.2 1.787 1.2 3.16v3.78c0 .467.193.707.58.72v1.88c-.214.04-.4.067-.56.08-.147.013-.294.02-.44.02-.427 0-.76-.107-1-.32-.227-.213-.367-.487-.42-.82l-.06-.66c-.467.613-1.047 1.087-1.74 1.42-.68.32-1.414.48-2.2.48zm.6-1.62c.533 0 1.033-.093 1.5-.28.48-.2.853-.473 1.12-.82.28-.24.42-.493.42-.76v-1.38c-.374-.147-.774-.26-1.2-.34-.414-.08-.82-.12-1.22-.12-.787 0-1.434.173-1.94.52-.494.333-.74.78-.74 1.34 0 .52.193.96.58 1.32.386.347.88.52 1.48.52zm7.909 1.42v-10.46h2.2v10.46zm0-12.18v-2.42h2.2v2.42zm14.224 12.18h-2.2v-5.86c0-.987-.16-1.7-.48-2.14-.307-.453-.767-.68-1.38-.68-.32 0-.64.06-.96.18s-.62.293-.9.52c-.28.213-.534.473-.76.78-.214.293-.38.62-.5.98v6.22h-2.201v-10.46h2.001v2.1c.4-.707.98-1.26 1.74-1.66.76-.413 1.6-.62 2.52-.62.626 0 1.14.113 1.54.34s.713.54.94.94c.24.387.406.84.499 1.36.094.507.141 1.047.141 1.62z" fill="#000"/><ellipse cx="846.066" cy="381.5" fill="#ff6900" rx="6.06609" ry="7.5"/><path d="m846.353 386v140" stroke="#ff6900" stroke-width="3"/></svg>