<svg enable-background="new 0 0 487.9 148.2" viewBox="0 0 487.9 148.2" xmlns="http://www.w3.org/2000/svg"><g fill="#050505"><path d="m191.5 61.3v33.4h-10.2v-33.4h-12.9v-8.7h36v8.7z"/><path d="m219.1 88c.9-.6 1.4-1.5 1.6-2.6h10c-.4 1.9-1.4 3.7-2.7 5.2-1.4 1.6-3.2 2.9-5.2 3.7-2.2.9-4.6 1.4-7.1 1.3-2.9.1-5.9-.6-8.4-2.1-2.3-1.3-4.2-3.3-5.3-5.7-1.3-2.6-1.9-5.5-1.8-8.4 0-2.8.6-5.6 1.8-8.1 1.2-2.4 3.1-4.3 5.3-5.6 2.5-1.4 5.4-2.1 8.3-2 3.2-.1 6.3.8 9 2.6 2.5 1.7 4.4 4.2 5.3 7.1.4 1.2.7 2.4.9 3.7.2 1.5.3 3.1.3 4.7h-21.3c-.1 2 .5 4 1.8 5.7 1 1.1 2.5 1.8 4.1 1.7 1.2-.1 2.4-.4 3.4-1.2zm-7.2-16.4c-1.1 1.3-1.8 2.8-1.9 4.5h11.3c-.1-1.7-.7-3.3-1.8-4.5-1-1-2.4-1.5-3.8-1.5s-2.8.5-3.8 1.5z"/><path d="m257.9 65.3c2.1 1 3.9 2.5 5.3 4.4 1.3 1.9 2.1 4.1 2.3 6.5h-10.2c-.1-1.4-.6-2.7-1.5-3.7-.9-.9-2-1.4-3.3-1.3-1.6 0-3.1.8-3.9 2.2-1.1 1.9-1.6 4.1-1.4 6.3-.1 2.2.4 4.4 1.4 6.3.8 1.4 2.4 2.3 4 2.2 1.3 0 2.5-.5 3.3-1.5.9-1.2 1.4-2.6 1.4-4.1h10.2c-.2 3.6-1.8 7.1-4.5 9.5-2.9 2.4-6.6 3.7-10.4 3.5-2.9.1-5.7-.6-8.3-2-2.4-1.3-4.3-3.2-5.5-5.6-2.6-5.3-2.6-11.5 0-16.8 1.2-2.4 3.1-4.3 5.5-5.6 2.5-1.4 5.4-2 8.3-2 2.4.1 4.9.6 7.3 1.7z"/><path d="m279.9 67.7c1-1.2 2.2-2.2 3.5-2.8 4.3-1.9 9.2-1 12.6 2.2 2.1 2.6 3.2 5.9 3 9.2v18.4h-9.8v-17.4c.1-1.5-.3-3.1-1.1-4.3-.8-1-2-1.5-3.3-1.4-1.5 0-2.9.7-3.7 2-1 1.7-1.4 3.7-1.3 5.7v15.5h-9.9v-42.2h9.8v15.1z"/><path d="m331.4 67.1c2.1 2.6 3.2 5.9 3 9.2v18.4h-9.8v-17.4c.1-1.5-.3-3.1-1.1-4.3-.8-1-2-1.5-3.3-1.4-1.5 0-2.9.7-3.7 2-1 1.7-1.4 3.7-1.3 5.7v15.5h-9.8v-30h9.2v3.6h.1c1-1.3 2.3-2.4 3.8-3.2s3.3-1.2 5-1.2c2.9-.2 5.8.9 7.9 3.1z"/><path d="m363.3 65.7c2.4 1.3 4.3 3.2 5.6 5.6 2.6 5.3 2.6 11.6 0 16.9-1.3 2.4-3.2 4.3-5.6 5.6-5.4 2.6-11.6 2.6-17 0-2.4-1.3-4.3-3.2-5.6-5.6-2.6-5.3-2.6-11.6 0-16.9 1.3-2.4 3.2-4.3 5.6-5.6 5.4-2.6 11.7-2.6 17 0zm-12.7 7.8c-2 3.9-2 8.6 0 12.5 1.5 2.3 4.7 3 7 1.4.6-.4 1.1-.9 1.4-1.4 2-3.9 2-8.6 0-12.5-1.5-2.3-4.7-3-7-1.4-.5.3-1 .8-1.4 1.4z"/><path d="m419.7 67.1c2.1 2.6 3.1 5.9 2.9 9.1v18.5h-9.8v-17.4c.1-1.5-.2-3-1-4.3-.7-1-1.8-1.5-3-1.4-1.4-.1-2.8.7-3.5 2-.9 1.8-1.3 3.9-1.2 5.9v15.3h-9.8v-17.9c.1-1.4-.3-2.8-1-3.9-.7-.9-1.8-1.5-3-1.4-1.4-.1-2.8.7-3.5 2-.9 1.8-1.3 3.9-1.2 5.9v15.2h-9.9v-30h9.2v3.4h.1c1.9-2.7 5.1-4.3 8.4-4.2 1.9 0 3.7.4 5.3 1.3s2.8 2.3 3.5 3.9c1-1.6 2.4-2.9 4-3.9 1.7-.9 3.6-1.4 5.6-1.3 3-.1 5.9 1 7.9 3.2z"/><path d="m428.8 60.4v-7.8h9.8v7.8zm0 34.3v-30h9.8v30z"/><path d="m466.5 65.3c2.1 1 3.9 2.5 5.2 4.4s2.1 4.1 2.3 6.5h-10.2c-.1-1.4-.6-2.7-1.5-3.7-.9-.9-2-1.4-3.3-1.3-1.6 0-3.1.8-3.9 2.2-1.1 1.9-1.6 4.1-1.4 6.3-.1 2.2.4 4.4 1.4 6.3.8 1.4 2.4 2.3 4 2.2 1.3 0 2.5-.5 3.3-1.5.9-1.2 1.4-2.6 1.4-4.1h10.2c-.2 3.6-1.8 7.1-4.5 9.5-2.9 2.4-6.6 3.7-10.4 3.5-2.9.1-5.7-.6-8.3-2-2.4-1.3-4.3-3.2-5.5-5.6-2.6-5.3-2.6-11.5 0-16.8 1.2-2.4 3.1-4.3 5.5-5.6 2.5-1.4 5.4-2 8.3-2 2.5.1 5.1.6 7.4 1.7z"/><path d="m486.2 95.1c-2.2 2.2-5.8 2.2-8 0s-2.2-5.8 0-8 5.8-2.2 8 0c1.1 1.1 1.7 2.5 1.7 4s-.6 3-1.7 4zm-7.4-7.4c-.9.9-1.4 2.1-1.4 3.4s.5 2.6 1.4 3.5c1.9 1.9 4.9 1.9 6.9 0 1.9-1.9 1.9-5 0-6.9s-5-1.9-6.9 0zm3.3.3c.6 0 1.1 0 1.7.2s1 .9 1 1.6c0 .5-.2.9-.6 1.2-.3.2-.6.3-.9.3.4 0 .8.3 1.1.6.2.3.3.6.3 1v.9.3.1h-1v-.8c.1-.5-.1-1.1-.6-1.4-.4-.2-.8-.2-1.2-.2h-.8v2.4h-1.1v-6.2zm1.2 1c-.4-.2-.9-.3-1.3-.2h-.9v2.2h1c.4 0 .7 0 1-.1.6-.3.8-.9.5-1.5-.1-.2-.2-.3-.3-.4z"/><path clip-rule="evenodd" d="m119.2 65c-.3 0-.5-.2-.5-.5 0-.2.1-.4.3-.5 0 0 13.5-4.2 13.7-4.3 1.1-.2 2.1.5 2.4 1.6.2 1.1-.5 2.1-1.6 2.4zm-10.7-41.6c.6-.9.4-2.2-.6-2.8-.9-.6-2.2-.4-2.8.6-.1.1-6.7 12.7-6.7 12.7-.2.2-.2.5 0 .7s.5.2.7 0l.1-.1zm16.6 17.6c.9-.6 1.2-1.9.6-2.8s-1.9-1.2-2.8-.6c-.1.1-11 9.1-11 9.2-.3.1-.4.4-.2.7.1.3.4.4.7.2s.1 0 .1-.1zm-38.6-27.6c.2-1.1-.5-2.1-1.6-2.4-1.1-.2-2.1.5-2.4 1.6 0 .2-1.4 14.3-1.4 14.3 0 .3.2.5.4.6.2 0 .5-.1.5-.3zm31.2 15.3c-.8-.8-2-.8-2.8 0l-27.9 29.8c-.2.2-.2.5 0 .7s.4.2.6.1l.1-.1 30-27.8c.8-.7.8-2 0-2.7zm-20.7-14c-1-.4-2.2 0-2.6 1v.1l-12.1 32.9c-.1.2 0 .4.1.5 0 0 .1.1.2.1.2.1.5 0 .6-.2l14.8-31.5.1-.2c.4-1 0-2.2-1.1-2.7zm34.5 34.7c-.4-1-1.6-1.5-2.6-1.1l-31.7 14.8c-.2.1-.3.3-.3.5v.2c.1.2.4.4.6.3l32.9-12c1-.5 1.5-1.6 1.1-2.7zm-69.2-36.7c-.2-1.1-1.3-1.8-2.4-1.6s-1.7 1.3-1.5 2.3c0 .2 4.3 13.7 4.3 13.7.1.3.4.4.6.3s.4-.3.3-.5zm-40.2 24.9c-.9-.6-2.2-.4-2.8.6-.6.9-.4 2.2.6 2.8.1.1 12.7 6.6 12.7 6.6.2.2.5.2.7 0s.2-.5 0-.7l-.1-.1zm17.6-16.5c-.6-.9-1.9-1.2-2.8-.6s-1.2 1.9-.6 2.8c.1.1 9.1 11 9.2 11 .1.2.4.4.7.2.2-.1.3-.4.2-.7 0 0 0-.1-.1-.1zm-27.6 38.5c-1.1-.2-2.1.5-2.3 1.6s.5 2.1 1.6 2.3c.2 0 14.3 1.4 14.3 1.4.3.1.5-.1.6-.3.1-.3-.1-.5-.3-.6h-.1zm15.2-31.1c-.8.8-.8 2 0 2.8l29.8 27.8c.2.2.5.3.7.1s.3-.5.1-.7l-.1-.1-27.7-30c-.7-.7-1.9-.7-2.8.1.1 0 .1 0 0 0zm47.2-25.1c0-1.1-.9-2-2-2s-2 .9-2 2l1.5 55.8c0 .3.2.5.5.5.2 0 .4-.1.5-.3 0-.1 0-.1 0-.2zm-61.1 45.8c-.4 1 0 2.2 1 2.6h.1l32.7 12.1c.2.1.4 0 .5-.1 0 0 .1-.1.1-.2.1-.2 0-.5-.2-.6l-31.4-14.8-.2-.1c-1-.4-2.1 0-2.6 1.1 0-.1 0-.1 0 0zm34.6-34.5c-1 .4-1.5 1.6-1.1 2.6l14.8 31.7c.1.2.3.3.5.3h.2c.2-.1.4-.4.3-.6l-12-33c-.5-.9-1.6-1.4-2.7-1 .1 0 .1 0 0 0zm71.2 67.7c-.3-.1-.5.1-.6.3-.1.3.1.5.3.6h.1s13.5 4.2 13.7 4.3c1.1.2 2.1-.5 2.4-1.6s-.5-2.1-1.6-2.4zm-19.9 30.6c-.1-.2-.4-.4-.7-.2-.2.1-.3.4-.2.7 0 0 0 .1.1.1 0 0 6.6 12.6 6.6 12.7.6.9 1.8 1.2 2.8.6.9-.6 1.2-1.8.6-2.8zm13.1-13.3c-.3-.1-.5 0-.7.2-.1.2 0 .4.1.6 0 0 10.9 9.1 11 9.2.9.6 2.2.4 2.8-.6.6-.9.4-2.2-.6-2.8zm-30.2 20.7c-.1-.3-.4-.4-.6-.3s-.4.3-.3.5c0 0 1.3 14.1 1.4 14.3.2 1.1 1.3 1.8 2.4 1.6s1.8-1.3 1.6-2.4zm35.5-4.5-30-27.8c-.2-.2-.5-.3-.7-.1s-.3.5-.1.7l.1.1 27.8 29.8c.8.8 2 .8 2.8 0 .8-.6.8-1.9.1-2.7zm-30.7-42.7c-.3-.1-.5.1-.6.3-.1.3.1.5.3.6h.1.2l55.8 1.5c1.1 0 2-.9 2-2s-.9-2-2-2zm11 56.9-.1-.2-14.7-31.5c-.1-.2-.4-.3-.6-.2-.1 0-.1.1-.2.1-.1.1-.2.4-.1.5l12 32.8v.1c.4 1 1.6 1.5 2.6 1.1 1-.5 1.5-1.7 1.1-2.7zm32.4-34.6-32.9-12c-.2-.1-.5 0-.6.3v.2c0 .2.1.4.3.5l31.7 14.8c1 .4 2.2-.1 2.6-1.1.4-1.2-.1-2.3-1.1-2.7zm-66.8 25c0-.3-.2-.5-.5-.5-.2 0-.4.1-.5.3 0 0-4.2 13.5-4.3 13.7-.2 1.1.5 2.1 1.6 2.4 1.1.2 2.1-.5 2.4-1.6zm-30.5-19.9c.2-.2.2-.5 0-.7-.1-.2-.4-.2-.6-.1 0 0-12.6 6.6-12.7 6.6-.9.6-1.2 1.8-.6 2.8.6.9 1.8 1.2 2.8.6zm13.2 13.1c.2-.2.2-.5 0-.7s-.5-.2-.7 0l-.1.1s-9.1 10.9-9.2 11c-.6.9-.4 2.2.6 2.8.9.6 2.2.4 2.8-.6zm-20.6-30.2c.3 0 .5-.3.4-.6 0-.3-.3-.5-.6-.4s-14.1 1.3-14.3 1.4c-1.1.2-1.8 1.3-1.6 2.4s1.3 1.8 2.4 1.6zm4.4 35.4 27.8-30c.1-.1.1-.2.1-.4 0-.3-.2-.5-.5-.5-.1 0-.3.1-.4.2l-29.9 27.8c-.8.8-.8 2-.1 2.8s2.2 1 3 .1zm27.6-44.7c.3 0 .5-.2.5-.5 0-.2-.1-.4-.3-.5-.1 0-.1 0-.2 0l-55.7-1.5c-1.1 0-2 .9-2 2s.9 2 2 2zm15.2 14.1c.1-.3-.1-.5-.3-.6-.3-.1-.5.1-.6.3v.1.2l-1.5 55.8c0 1.1.9 2 2 2s2-.9 2-2c-.1 0-1.6-55.8-1.6-55.8zm-56.9 11 .2-.1 31.5-14.8c.2-.1.3-.4.2-.6-.1-.3-.4-.4-.6-.3l-32.7 12.1h-.1c-1 .4-1.5 1.6-1.1 2.6s1.5 1.5 2.6 1.1zm34.6 32.4 12-32.9c.1-.2 0-.5-.3-.6-.1 0-.1 0-.2 0-.2 0-.4.1-.5.3l-14.8 31.7c-.4 1 .1 2.2 1.1 2.6 1.1.4 2.3-.1 2.7-1.1z" fill-rule="evenodd"/></g></svg>